<svg width="24" height="27" viewBox="0 0 24 27" fill="none" xmlns="http://www.w3.org/2000/svg">
<path d="M5.7543 1.42358C7.49112 1.65255 9.46985 2.67528 10.4931 4.1123C10.7722 4.5043 11.0171 4.99666 11.2093 5.43844C11.2804 5.66941 11.3735 5.90297 11.4357 6.13442C11.6165 6.80719 11.6611 7.39034 11.6926 8.07777L11.7037 8.11697C12.6369 7.95694 12.2782 6.93085 12.4845 6.73095C13.5186 6.03825 15.2061 5.41455 16.4537 5.35229C17.9565 5.14507 19.4799 5.54537 20.6868 6.46463C22.1297 7.57268 22.8077 9.26113 23.0299 11.018C23.0364 11.068 23.042 11.118 23.0473 11.168C23.2718 12.8143 23.101 14.7148 22.7889 16.3415C22.745 16.5702 22.6467 17.0875 22.574 17.2978C22.0383 19.7302 20.405 22.9024 18.2726 24.3228C17.0433 25.1415 14.9629 25.3806 13.5645 24.8494C13.1769 24.7537 12.8038 24.5536 12.3932 24.5479C12.2188 24.5421 12.0507 24.6255 11.8929 24.6991C11.5643 24.8521 11.2391 24.9738 10.8936 25.0875C10.3241 25.2799 9.72883 25.3852 9.12789 25.3999C7.60924 25.4308 6.11305 24.7392 5.04097 23.6822C2.82649 21.4988 0.928149 17.5403 0.854246 14.4224C0.802901 12.2553 1.48692 9.64988 3.02288 8.06732C4.08603 6.97193 5.50308 6.46279 7.01666 6.43599C7.0281 6.43212 7.05793 6.41433 7.06987 6.40768C7.05103 6.31856 6.87963 6.11071 6.81724 6.02414C6.02305 4.92192 5.53182 2.77108 5.7543 1.42358Z" fill="#FE932C"/>
<path d="M5.75486 1.42358C7.49168 1.65255 9.4704 2.67528 10.4936 4.1123C10.7728 4.5043 11.0176 4.99666 11.2099 5.43844C11.2809 5.66941 11.3741 5.90297 11.4363 6.13442C11.6171 6.80719 11.6616 7.39034 11.6932 8.07777L11.7043 8.11697C11.6625 8.1957 11.666 8.22802 11.5868 8.27366C11.5339 8.27696 11.4851 8.28148 11.4321 8.28006C10.1814 8.27891 9.10714 8.00259 8.03914 7.30559C7.8964 7.21243 7.73674 7.06354 7.60574 6.94141C7.44723 6.79358 7.27804 6.58037 7.10452 6.44653C7.06959 6.4423 7.04049 6.43881 7.01722 6.43599C7.02865 6.43212 7.05849 6.41433 7.07042 6.40768C7.05159 6.31856 6.88018 6.11071 6.8178 6.02414C6.0236 4.92192 5.53238 2.77108 5.75486 1.42358Z" fill="#FF6D00"/>
<path d="M11.4324 8.27987C11.2665 8.15554 10.4872 7.27729 10.3033 7.07799L8.35959 4.94126C8.11292 4.66783 7.86306 4.39887 7.6131 4.12864C7.53594 4.04523 7.42547 3.88474 7.47893 3.7677C7.53596 3.72537 7.67622 3.72543 7.72491 3.77059C7.9887 4.01527 8.23389 4.29558 8.47903 4.56044L10.6787 6.97919C10.9569 7.28609 11.3986 7.83464 11.6935 8.07759L11.7045 8.11678C11.6627 8.19552 11.6663 8.22784 11.587 8.27347C11.5342 8.27678 11.4854 8.28129 11.4324 8.27987Z" fill="#C94300"/>
<path d="M12.9672 0.988748C13.2683 0.717096 13.5637 0.957451 13.8676 1.07843C14.2621 1.23533 15.5508 2.34811 14.8266 2.73598C13.6155 3.50156 12.9294 4.59632 12.5807 5.98018C12.5435 6.12719 12.4285 6.61786 12.4862 6.73087C12.2798 6.93077 12.6386 7.95686 11.7053 8.11689L11.6943 8.0777C11.6627 7.39027 11.6182 6.80712 11.4373 6.13434C11.3751 5.90289 11.282 5.66933 11.2109 5.43836C11.2607 5.34539 11.3395 4.71719 11.369 4.55643C11.601 3.28888 12.0605 1.93321 12.9672 0.988748Z" fill="#F4E7C1"/>
<path d="M12.9668 0.988748C13.2678 0.717096 13.5632 0.957451 13.8672 1.07843C14.2617 1.23533 15.5503 2.34811 14.8262 2.73598C13.9655 2.67571 13.0017 1.89675 12.9668 0.988748Z" fill="#F2C56F"/>
</svg>
