<svg width="19" height="20" viewBox="0 0 19 20" fill="none" xmlns="http://www.w3.org/2000/svg">
<path d="M4.38274 1.08435C5.70564 1.25875 7.21279 2.03774 7.99217 3.13228C8.20478 3.43086 8.39128 3.80588 8.53769 4.14238C8.59184 4.3183 8.66276 4.4962 8.71013 4.67249C8.84787 5.18492 8.88179 5.6291 8.90583 6.1527L8.91427 6.18255C9.6251 6.06066 9.35185 5.27911 9.50902 5.12685C10.2966 4.59924 11.5819 4.12418 12.5323 4.07676C13.6768 3.91892 14.8372 4.22382 15.7565 4.924C16.8555 5.76798 17.3719 7.05403 17.5412 8.39222C17.5461 8.43026 17.5504 8.46835 17.5544 8.50648C17.7254 9.76039 17.5953 11.208 17.3576 12.447C17.3241 12.6212 17.2493 13.0152 17.1939 13.1754C16.7859 15.0281 15.5418 17.4443 13.9176 18.5261C12.9813 19.1497 11.3968 19.3319 10.3316 18.9273C10.0364 18.8543 9.75217 18.7019 9.43943 18.6976C9.30663 18.6932 9.1786 18.7567 9.05838 18.8128C8.80806 18.9293 8.56037 19.022 8.29727 19.1086C7.86347 19.2551 7.41005 19.3354 6.95233 19.3465C5.79561 19.3701 4.65599 18.8433 3.83941 18.0383C2.1527 16.3752 0.706772 13.3601 0.650482 10.9852C0.611373 9.33462 1.13238 7.35013 2.30228 6.14473C3.11206 5.3104 4.19139 4.9226 5.34425 4.90218C5.35297 4.89924 5.37569 4.88569 5.38478 4.88062C5.37043 4.81274 5.23988 4.65443 5.19236 4.58849C4.58744 3.74895 4.21328 2.1107 4.38274 1.08435Z" fill="#FF4545"/>
<path d="M4.38269 1.08435C5.70559 1.25875 7.21274 2.03774 7.99211 3.13228C8.20473 3.43086 8.39122 3.80588 8.53764 4.14238C8.59178 4.3183 8.6627 4.4962 8.71008 4.67249C8.84782 5.18492 8.88173 5.6291 8.90578 6.1527L8.91422 6.18255C8.88237 6.24252 8.88508 6.26714 8.82473 6.3019C8.78444 6.30442 8.74732 6.30785 8.70694 6.30677C7.75428 6.3059 6.93605 6.09543 6.12258 5.56454C6.01385 5.49359 5.89224 5.38018 5.79246 5.28715C5.67173 5.17456 5.54286 5.01215 5.4107 4.91021C5.38409 4.90699 5.36192 4.90433 5.3442 4.90219C5.35291 4.89924 5.37563 4.88569 5.38473 4.88062C5.37038 4.81274 5.23982 4.65443 5.19231 4.58849C4.58738 3.74895 4.21323 2.1107 4.38269 1.08435Z" fill="#FFAFAE"/>
<path d="M8.70755 6.30666C8.58115 6.21196 7.9876 5.54301 7.84755 5.39121L6.36706 3.76372C6.17918 3.55545 5.98886 3.35059 5.79847 3.14477C5.7397 3.08123 5.65556 2.95899 5.69628 2.86985C5.73972 2.8376 5.84655 2.83765 5.88363 2.87204C6.08456 3.05841 6.27131 3.27192 6.45803 3.47365L8.13349 5.31596C8.34535 5.54972 8.68183 5.96754 8.90639 6.15258L8.91483 6.18244C8.88298 6.24241 8.88569 6.26703 8.82534 6.30179C8.78505 6.3043 8.74793 6.30774 8.70755 6.30666Z" fill="#FF4545"/>
<path d="M9.87679 0.753175C10.1061 0.546264 10.3311 0.729337 10.5626 0.821487C10.8631 0.940993 11.8446 1.78857 11.293 2.084C10.3706 2.66712 9.84796 3.50098 9.58236 4.55504C9.55401 4.66701 9.46643 5.04074 9.51038 5.12682C9.35322 5.27908 9.62647 6.06063 8.91564 6.18252L8.9072 6.15267C8.88315 5.62907 8.84924 5.18489 8.7115 4.67246C8.66413 4.49617 8.5932 4.31827 8.53906 4.14235C8.57696 4.07153 8.63701 3.59305 8.65944 3.4706C8.83618 2.50513 9.18618 1.47255 9.87679 0.753175Z" fill="#F4E7C1"/>
<path d="M9.87695 0.753175C10.1063 0.546264 10.3313 0.729337 10.5628 0.821487C10.8633 0.940993 11.8448 1.78857 11.2932 2.084C10.6376 2.0381 9.90355 1.44478 9.87695 0.753175Z" fill="#F2C56F"/>
</svg>
