<svg width="140" height="91" viewBox="0 0 140 91" fill="none" xmlns="http://www.w3.org/2000/svg">
<mask id="mask0_313_10152" style="mask-type:alpha" maskUnits="userSpaceOnUse" x="38" y="8" width="77" height="66">
<path d="M38.1582 8.00037L114.115 73.7806H38.1582V8.00037Z" fill="#C4C4C4"/>
</mask>
<g mask="url(#mask0_313_10152)">
<line x1="147.186" y1="-211.212" x2="-83.6591" y2="19.6336" stroke="#FFB829" stroke-width="0.974522"/>
<line x1="184.79" y1="-173.609" x2="-46.0556" y2="57.2367" stroke="#FFB829" stroke-width="0.974522"/>
<line x1="222.391" y1="-136.007" x2="-8.45406" y2="94.839" stroke="#FFB829" stroke-width="0.974522"/>
<line x1="259.995" y1="-98.4041" x2="29.1495" y2="132.441" stroke="#FFB829" stroke-width="0.974522"/>
<line x1="297.595" y1="-60.8011" x2="66.7491" y2="170.044" stroke="#FFB829" stroke-width="0.974522"/>
<line x1="335.198" y1="-23.1988" x2="104.353" y2="207.647" stroke="#FFB829" stroke-width="0.974522"/>
<line x1="150.319" y1="-208.078" x2="-80.5263" y2="22.7674" stroke="#FFB829" stroke-width="0.974522"/>
<line x1="187.923" y1="-170.475" x2="-42.9228" y2="60.3701" stroke="#FFB829" stroke-width="0.974522"/>
<line x1="225.524" y1="-132.873" x2="-5.32125" y2="97.9726" stroke="#FFB829" stroke-width="0.974522"/>
<line x1="263.128" y1="-95.2703" x2="32.2823" y2="135.575" stroke="#FFB829" stroke-width="0.974522"/>
<line x1="300.729" y1="-57.6677" x2="69.8838" y2="173.178" stroke="#FFB829" stroke-width="0.974522"/>
<line x1="338.333" y1="-20.0646" x2="107.487" y2="210.781" stroke="#FFB829" stroke-width="0.974522"/>
<line x1="153.452" y1="-204.944" x2="-77.3935" y2="25.9012" stroke="#FFB829" stroke-width="0.974522"/>
<line x1="191.055" y1="-167.342" x2="-39.79" y2="63.5034" stroke="#FFB829" stroke-width="0.974522"/>
<line x1="228.657" y1="-129.739" x2="-2.18843" y2="101.106" stroke="#FFB829" stroke-width="0.974522"/>
<line x1="266.261" y1="-92.1365" x2="35.4151" y2="138.709" stroke="#FFB829" stroke-width="0.974522"/>
<line x1="303.862" y1="-54.5344" x2="73.0166" y2="176.311" stroke="#FFB829" stroke-width="0.974522"/>
<line x1="341.466" y1="-16.9313" x2="110.62" y2="213.914" stroke="#FFB829" stroke-width="0.974522"/>
<line x1="156.587" y1="-201.811" x2="-74.2587" y2="29.0345" stroke="#FFB829" stroke-width="0.974522"/>
<line x1="194.19" y1="-164.208" x2="-36.6552" y2="66.6372" stroke="#FFB829" stroke-width="0.974522"/>
<line x1="231.792" y1="-126.606" x2="0.946332" y2="104.24" stroke="#FFB829" stroke-width="0.974522"/>
<line x1="269.393" y1="-89.0032" x2="38.5479" y2="141.842" stroke="#FFB829" stroke-width="0.974522"/>
<line x1="306.995" y1="-51.4002" x2="76.1495" y2="179.445" stroke="#FFB829" stroke-width="0.974522"/>
<line x1="344.598" y1="-13.7979" x2="113.753" y2="217.048" stroke="#FFB829" stroke-width="0.974522"/>
<line x1="159.72" y1="-198.678" x2="-71.1259" y2="32.1678" stroke="#FFB829" stroke-width="0.974522"/>
<line x1="197.323" y1="-161.075" x2="-33.5224" y2="69.7705" stroke="#FFB829" stroke-width="0.974522"/>
<line x1="234.925" y1="-123.472" x2="4.07914" y2="107.373" stroke="#FFB829" stroke-width="0.974522"/>
<line x1="272.528" y1="-85.8698" x2="41.6827" y2="144.976" stroke="#FFB829" stroke-width="0.974522"/>
<line x1="310.132" y1="-48.2669" x2="79.2862" y2="182.579" stroke="#FFB829" stroke-width="0.974522"/>
<line x1="162.852" y1="-195.544" x2="-67.9931" y2="35.3016" stroke="#FFB829" stroke-width="0.974522"/>
<line x1="200.456" y1="-157.941" x2="-30.3896" y2="72.9043" stroke="#FFB829" stroke-width="0.974522"/>
<line x1="238.057" y1="-120.339" x2="7.21196" y2="110.507" stroke="#FFB829" stroke-width="0.974522"/>
<line x1="275.661" y1="-82.7357" x2="44.8155" y2="148.11" stroke="#FFB829" stroke-width="0.974522"/>
<line x1="313.264" y1="-45.1335" x2="82.419" y2="185.712" stroke="#FFB829" stroke-width="0.974522"/>
<line x1="165.987" y1="-192.41" x2="-64.8584" y2="38.435" stroke="#FFB829" stroke-width="0.974522"/>
<line x1="203.591" y1="-154.807" x2="-27.2548" y2="76.038" stroke="#FFB829" stroke-width="0.974522"/>
<line x1="241.194" y1="-117.205" x2="10.3487" y2="113.64" stroke="#FFB829" stroke-width="0.974522"/>
<line x1="278.794" y1="-79.6024" x2="47.9483" y2="151.243" stroke="#FFB829" stroke-width="0.974522"/>
<line x1="316.397" y1="-42.0002" x2="85.5518" y2="188.845" stroke="#FFB829" stroke-width="0.974522"/>
<line x1="169.12" y1="-189.277" x2="-61.7255" y2="41.5683" stroke="#FFB829" stroke-width="0.974522"/>
<line x1="206.723" y1="-151.674" x2="-24.122" y2="79.1713" stroke="#FFB829" stroke-width="0.974522"/>
<line x1="244.327" y1="-114.071" x2="13.4815" y2="116.774" stroke="#FFB829" stroke-width="0.974522"/>
<line x1="281.929" y1="-76.4691" x2="51.083" y2="154.376" stroke="#FFB829" stroke-width="0.974522"/>
<line x1="319.532" y1="-38.8664" x2="88.6866" y2="191.979" stroke="#FFB829" stroke-width="0.974522"/>
<line x1="172.253" y1="-186.143" x2="-58.5927" y2="44.7025" stroke="#FFB829" stroke-width="0.974522"/>
<line x1="209.856" y1="-148.541" x2="-20.9892" y2="82.3046" stroke="#FFB829" stroke-width="0.974522"/>
<line x1="247.46" y1="-110.938" x2="16.6143" y2="119.908" stroke="#FFB829" stroke-width="0.974522"/>
<line x1="285.061" y1="-73.3356" x2="54.2159" y2="157.51" stroke="#FFB829" stroke-width="0.974522"/>
<line x1="322.665" y1="-35.7326" x2="91.8194" y2="195.113" stroke="#FFB829" stroke-width="0.974522"/>
<line x1="137.786" y1="-220.613" x2="-93.0595" y2="10.2327" stroke="#FFB829" stroke-width="0.974522"/>
<line x1="175.388" y1="-183.01" x2="-55.458" y2="47.8358" stroke="#FFB829" stroke-width="0.974522"/>
<line x1="212.991" y1="-145.407" x2="-17.8545" y2="85.4384" stroke="#FFB829" stroke-width="0.974522"/>
<line x1="250.595" y1="-107.804" x2="19.7491" y2="123.041" stroke="#FFB829" stroke-width="0.974522"/>
<line x1="288.194" y1="-70.2018" x2="57.3487" y2="160.644" stroke="#FFB829" stroke-width="0.974522"/>
<line x1="325.798" y1="-32.5993" x2="94.9522" y2="198.246" stroke="#FFB829" stroke-width="0.974522"/>
<line x1="140.919" y1="-217.479" x2="-89.9267" y2="13.3669" stroke="#FFB829" stroke-width="0.974522"/>
<line x1="178.52" y1="-179.876" x2="-52.3252" y2="50.9692" stroke="#FFB829" stroke-width="0.974522"/>
<line x1="216.124" y1="-142.273" x2="-14.7216" y2="88.5722" stroke="#FFB829" stroke-width="0.974522"/>
<line x1="253.727" y1="-104.671" x2="22.8819" y2="126.174" stroke="#FFB829" stroke-width="0.974522"/>
<line x1="291.329" y1="-67.0682" x2="60.4834" y2="163.777" stroke="#FFB829" stroke-width="0.974522"/>
<line x1="328.932" y1="-29.4655" x2="98.087" y2="201.38" stroke="#FFB829" stroke-width="0.974522"/>
<line x1="144.052" y1="-214.345" x2="-86.7939" y2="16.5003" stroke="#FFB829" stroke-width="0.974522"/>
<line x1="181.653" y1="-176.742" x2="-49.1923" y2="54.103" stroke="#FFB829" stroke-width="0.974522"/>
<line x1="219.257" y1="-139.14" x2="-11.5888" y2="91.7055" stroke="#FFB829" stroke-width="0.974522"/>
<line x1="256.86" y1="-101.537" x2="26.0147" y2="129.308" stroke="#FFB829" stroke-width="0.974522"/>
<line x1="294.462" y1="-63.9348" x2="63.6163" y2="166.911" stroke="#FFB829" stroke-width="0.974522"/>
<line x1="332.065" y1="-26.3322" x2="101.22" y2="204.513" stroke="#FFB829" stroke-width="0.974522"/>
</g>
<path d="M38.9541 7.0791L114.91 72.8594L117.38 74.998H36.9385V5.33398L38.9541 7.0791Z" stroke="#FF9E00" stroke-width="2.4363"/>
<path d="M36.9102 66.2277H45.1936V74.5111" stroke="#FF9E00" stroke-width="1.46178"/>
<path d="M24.608 36L23.536 41.04C24.16 40.304 24.992 39.84 25.952 39.84C28.016 39.84 29.28 41.248 29.28 43.392C29.28 45.904 27.616 48.16 25.104 48.16C23.84 48.16 22.832 47.472 22.416 46.336L22.064 48H20.304L22.848 36H24.608ZM22.88 44.608C22.88 45.888 23.648 46.688 24.864 46.688C26.528 46.688 27.584 45.072 27.584 43.392C27.584 42.112 26.816 41.312 25.632 41.312C23.936 41.312 22.88 42.928 22.88 44.608Z" fill="black"/>
<path d="M73.904 90.16C71.84 90.16 70.576 88.752 70.576 86.608C70.576 84.096 72.24 81.84 74.752 81.84C76.016 81.84 77.008 82.512 77.44 83.632L77.776 82H79.536L77.84 90H76.144C76.144 90 76.272 89.424 76.384 88.88C75.744 89.664 74.896 90.16 73.904 90.16ZM76.976 85.392C76.976 84.112 76.208 83.312 74.992 83.312C73.328 83.312 72.272 84.928 72.272 86.608C72.272 87.888 73.024 88.688 74.224 88.688C75.904 88.688 76.976 87.072 76.976 85.392Z" fill="black"/>
<path d="M89.608 32.184H87.912C87.912 31.032 87.096 30.312 85.96 30.312C84.296 30.312 83.24 31.928 83.24 33.608C83.24 34.888 84.008 35.688 85.208 35.688C86.44 35.688 87.4 34.808 87.72 33.64H89.464C89.048 35.624 87.432 37.16 85.208 37.16C82.904 37.16 81.56 35.752 81.56 33.608C81.56 31.096 83.272 28.84 85.96 28.84C88.184 28.84 89.592 30.168 89.608 32.184Z" fill="black"/>
</svg>
