<svg width="140" height="81" viewBox="0 0 140 81" fill="none" xmlns="http://www.w3.org/2000/svg">
<mask id="mask0_313_10022" style="mask-type:alpha" maskUnits="userSpaceOnUse" x="34" y="4" width="72" height="62">
<path d="M69.8414 4.52551L105.115 65.6203H34.5684L69.8414 4.52551Z" fill="#C4C4C4"/>
</mask>
<g mask="url(#mask0_313_10022)">
<line x1="135.83" y1="-199.073" x2="-78.5728" y2="15.3295" stroke="#FFB829" stroke-width="0.905108"/>
<line x1="170.752" y1="-164.149" x2="-43.6509" y2="50.2541" stroke="#FFB829" stroke-width="0.905108"/>
<line x1="205.675" y1="-129.225" x2="-8.72712" y2="85.1779" stroke="#FFB829" stroke-width="0.905108"/>
<line x1="240.601" y1="-94.3005" x2="26.1987" y2="120.102" stroke="#FFB829" stroke-width="0.905108"/>
<line x1="275.523" y1="-59.3758" x2="61.1205" y2="155.027" stroke="#FFB829" stroke-width="0.905108"/>
<line x1="310.449" y1="-24.452" x2="96.0463" y2="189.951" stroke="#FFB829" stroke-width="0.905108"/>
<line x1="138.738" y1="-196.163" x2="-75.6646" y2="18.2401" stroke="#FFB829" stroke-width="0.905108"/>
<line x1="173.664" y1="-161.238" x2="-40.7388" y2="53.1642" stroke="#FFB829" stroke-width="0.905108"/>
<line x1="208.586" y1="-126.314" x2="-5.81696" y2="88.0884" stroke="#FFB829" stroke-width="0.905108"/>
<line x1="243.511" y1="-91.3898" x2="29.1088" y2="123.013" stroke="#FFB829" stroke-width="0.905108"/>
<line x1="278.435" y1="-56.4656" x2="64.0326" y2="157.937" stroke="#FFB829" stroke-width="0.905108"/>
<line x1="313.359" y1="-21.5411" x2="98.9565" y2="192.862" stroke="#FFB829" stroke-width="0.905108"/>
<line x1="141.648" y1="-193.252" x2="-72.7545" y2="21.1506" stroke="#FFB829" stroke-width="0.905108"/>
<line x1="176.572" y1="-158.328" x2="-37.8306" y2="56.0744" stroke="#FFB829" stroke-width="0.905108"/>
<line x1="211.496" y1="-123.404" x2="-2.90681" y2="90.9987" stroke="#FFB829" stroke-width="0.905108"/>
<line x1="246.42" y1="-88.4793" x2="32.017" y2="125.923" stroke="#FFB829" stroke-width="0.905108"/>
<line x1="281.345" y1="-53.5555" x2="66.9428" y2="160.847" stroke="#FFB829" stroke-width="0.905108"/>
<line x1="316.269" y1="-18.6309" x2="101.867" y2="195.772" stroke="#FFB829" stroke-width="0.905108"/>
<line x1="144.558" y1="-190.342" x2="-69.8443" y2="24.0607" stroke="#FFB829" stroke-width="0.905108"/>
<line x1="179.484" y1="-155.418" x2="-34.9185" y2="58.9849" stroke="#FFB829" stroke-width="0.905108"/>
<line x1="214.408" y1="-120.493" x2="0.0053018" y2="93.9091" stroke="#FFB829" stroke-width="0.905108"/>
<line x1="249.332" y1="-85.5692" x2="34.9291" y2="128.833" stroke="#FFB829" stroke-width="0.905108"/>
<line x1="284.256" y1="-50.6446" x2="69.853" y2="163.758" stroke="#FFB829" stroke-width="0.905108"/>
<line x1="319.179" y1="-15.7208" x2="104.777" y2="198.682" stroke="#FFB829" stroke-width="0.905108"/>
<line x1="147.468" y1="-187.432" x2="-66.9342" y2="26.9709" stroke="#FFB829" stroke-width="0.905108"/>
<line x1="182.394" y1="-152.507" x2="-32.0084" y2="61.8952" stroke="#FFB829" stroke-width="0.905108"/>
<line x1="217.318" y1="-117.583" x2="2.91546" y2="96.8198" stroke="#FFB829" stroke-width="0.905108"/>
<line x1="252.242" y1="-82.659" x2="37.8393" y2="131.744" stroke="#FFB829" stroke-width="0.905108"/>
<line x1="287.168" y1="-47.7344" x2="72.7651" y2="166.668" stroke="#FFB829" stroke-width="0.905108"/>
<line x1="150.379" y1="-184.521" x2="-64.024" y2="29.8814" stroke="#FFB829" stroke-width="0.905108"/>
<line x1="185.304" y1="-149.597" x2="-29.0982" y2="64.8056" stroke="#FFB829" stroke-width="0.905108"/>
<line x1="220.226" y1="-114.673" x2="5.82366" y2="99.7298" stroke="#FFB829" stroke-width="0.905108"/>
<line x1="255.152" y1="-79.7481" x2="40.7494" y2="134.654" stroke="#FFB829" stroke-width="0.905108"/>
<line x1="290.078" y1="-44.8243" x2="75.6752" y2="169.578" stroke="#FFB829" stroke-width="0.905108"/>
<line x1="153.289" y1="-181.611" x2="-61.1138" y2="32.7917" stroke="#FFB829" stroke-width="0.905108"/>
<line x1="188.215" y1="-146.686" x2="-26.1881" y2="67.7162" stroke="#FFB829" stroke-width="0.905108"/>
<line x1="223.14" y1="-111.763" x2="8.73772" y2="102.64" stroke="#FFB829" stroke-width="0.905108"/>
<line x1="258.06" y1="-76.838" x2="43.6576" y2="137.565" stroke="#FFB829" stroke-width="0.905108"/>
<line x1="292.988" y1="-41.9141" x2="78.5854" y2="172.488" stroke="#FFB829" stroke-width="0.905108"/>
<line x1="156.199" y1="-178.701" x2="-58.2037" y2="35.7017" stroke="#FFB829" stroke-width="0.905108"/>
<line x1="191.127" y1="-143.776" x2="-23.2759" y2="70.6263" stroke="#FFB829" stroke-width="0.905108"/>
<line x1="226.049" y1="-108.852" x2="11.6459" y2="105.551" stroke="#FFB829" stroke-width="0.905108"/>
<line x1="260.972" y1="-73.9278" x2="46.5698" y2="140.475" stroke="#FFB829" stroke-width="0.905108"/>
<line x1="295.896" y1="-39.0035" x2="81.4936" y2="175.399" stroke="#FFB829" stroke-width="0.905108"/>
<line x1="159.109" y1="-175.79" x2="-55.2935" y2="38.6126" stroke="#FFB829" stroke-width="0.905108"/>
<line x1="194.035" y1="-140.866" x2="-20.3677" y2="73.5366" stroke="#FFB829" stroke-width="0.905108"/>
<line x1="228.961" y1="-105.941" x2="14.558" y2="108.461" stroke="#FFB829" stroke-width="0.905108"/>
<line x1="263.883" y1="-71.0176" x2="49.4799" y2="143.385" stroke="#FFB829" stroke-width="0.905108"/>
<line x1="298.808" y1="-36.093" x2="84.4057" y2="178.31" stroke="#FFB829" stroke-width="0.905108"/>
<line x1="127.097" y1="-207.804" x2="-87.3052" y2="6.59821" stroke="#FFB829" stroke-width="0.905108"/>
<line x1="162.021" y1="-172.88" x2="-52.3814" y2="41.5228" stroke="#FFB829" stroke-width="0.905108"/>
<line x1="196.945" y1="-137.956" x2="-17.4576" y2="76.4471" stroke="#FFB829" stroke-width="0.905108"/>
<line x1="231.871" y1="-103.031" x2="17.4682" y2="111.371" stroke="#FFB829" stroke-width="0.905108"/>
<line x1="266.793" y1="-68.107" x2="52.3901" y2="146.296" stroke="#FFB829" stroke-width="0.905108"/>
<line x1="301.716" y1="-33.1828" x2="87.3139" y2="181.22" stroke="#FFB829" stroke-width="0.905108"/>
<line x1="130.008" y1="-204.893" x2="-84.3951" y2="9.5091" stroke="#FFB829" stroke-width="0.905108"/>
<line x1="164.929" y1="-169.97" x2="-49.4732" y2="44.433" stroke="#FFB829" stroke-width="0.905108"/>
<line x1="199.855" y1="-135.045" x2="-14.5474" y2="79.3577" stroke="#FFB829" stroke-width="0.905108"/>
<line x1="234.781" y1="-100.121" x2="20.3783" y2="114.281" stroke="#FFB829" stroke-width="0.905108"/>
<line x1="269.703" y1="-65.1965" x2="55.3002" y2="149.206" stroke="#FFB829" stroke-width="0.905108"/>
<line x1="304.629" y1="-30.2724" x2="90.226" y2="184.13" stroke="#FFB829" stroke-width="0.905108"/>
<line x1="132.916" y1="-201.983" x2="-81.4869" y2="12.4194" stroke="#FFB829" stroke-width="0.905108"/>
<line x1="167.84" y1="-167.059" x2="-46.5631" y2="47.3436" stroke="#FFB829" stroke-width="0.905108"/>
<line x1="202.765" y1="-132.135" x2="-11.6373" y2="82.2678" stroke="#FFB829" stroke-width="0.905108"/>
<line x1="237.691" y1="-97.2106" x2="23.2885" y2="117.192" stroke="#FFB829" stroke-width="0.905108"/>
<line x1="272.615" y1="-62.2863" x2="58.2123" y2="152.116" stroke="#FFB829" stroke-width="0.905108"/>
<line x1="307.537" y1="-27.3621" x2="93.1342" y2="187.04" stroke="#FFB829" stroke-width="0.905108"/>
</g>
<path d="M70.8213 3.96008L106.095 65.0548L107.074 66.7521H32.6084L33.5889 65.0548L68.8613 3.96008L69.8418 2.26282L70.8213 3.96008Z" stroke="#FF9E00" stroke-width="2.26277"/>
<path d="M69.6133 4.29907V66.2989" stroke="#FF9E00" stroke-width="1.35766"/>
<path d="M69.6133 58.6057H77.3067V66.2991" stroke="#FF9E00" stroke-width="1.35766"/>
<path d="M102.608 19.0413L101.536 24.0813C102.16 23.3453 102.992 22.8813 103.952 22.8813C106.016 22.8813 107.28 24.2893 107.28 26.4333C107.28 28.9453 105.616 31.2013 103.104 31.2013C101.84 31.2013 100.832 30.5133 100.416 29.3773L100.064 31.0413H98.304L100.848 19.0413H102.608ZM100.88 27.6493C100.88 28.9293 101.648 29.7293 102.864 29.7293C104.528 29.7293 105.584 28.1133 105.584 26.4333C105.584 25.1533 104.816 24.3533 103.632 24.3533C101.936 24.3533 100.88 25.9693 100.88 27.6493Z" fill="black"/>
<path d="M40.608 26.2253H38.912C38.912 25.0733 38.096 24.3533 36.96 24.3533C35.296 24.3533 34.24 25.9693 34.24 27.6493C34.24 28.9293 35.008 29.7293 36.208 29.7293C37.44 29.7293 38.4 28.8493 38.72 27.6813H40.464C40.048 29.6653 38.432 31.2013 36.208 31.2013C33.904 31.2013 32.56 29.7933 32.56 27.6493C32.56 25.1373 34.272 22.8813 36.96 22.8813C39.184 22.8813 40.592 24.2093 40.608 26.2253Z" fill="black"/>
<path d="M68.904 80.2013C66.84 80.2013 65.576 78.7933 65.576 76.6493C65.576 74.1373 67.24 71.8813 69.752 71.8813C71.016 71.8813 72.008 72.5533 72.44 73.6733L72.776 72.0413H74.536L72.84 80.0413H71.144C71.144 80.0413 71.272 79.4653 71.384 78.9213C70.744 79.7053 69.896 80.2013 68.904 80.2013ZM71.976 75.4333C71.976 74.1533 71.208 73.3533 69.992 73.3533C68.328 73.3533 67.272 74.9693 67.272 76.6493C67.272 77.9293 68.024 78.7293 69.224 78.7293C70.904 78.7293 71.976 77.1133 71.976 75.4333Z" fill="black"/>
<path d="M53.304 47.0413L55.848 35.0413H57.608L56.52 40.2413C57.176 39.3613 58.072 38.8813 59.064 38.8813C60.792 38.8813 61.896 40.2093 61.4 42.5293L60.44 47.0413H58.68L59.624 42.5933C59.944 41.0573 59.4 40.2733 58.216 40.2733C57.096 40.2733 56.328 41.0573 56.008 42.6093L55.064 47.0413H53.304ZM64.6538 50.1373C63.4154 50.1373 62.657 49.2925 62.657 48.0061C62.657 46.4989 63.6554 45.1453 65.1626 45.1453C65.921 45.1453 66.5162 45.5485 66.7754 46.2205L66.977 45.2413H68.033L67.0154 50.0413H65.9978C65.9978 50.0413 66.0746 49.6957 66.1418 49.3693C65.7578 49.8397 65.249 50.1373 64.6538 50.1373ZM66.497 47.2765C66.497 46.5085 66.0362 46.0285 65.3066 46.0285C64.3082 46.0285 63.6746 46.9981 63.6746 48.0061C63.6746 48.7741 64.1258 49.2541 64.8458 49.2541C65.8538 49.2541 66.497 48.2845 66.497 47.2765Z" fill="black"/>
</svg>
