<svg width="140" height="80" viewBox="0 0 140 80" fill="none" xmlns="http://www.w3.org/2000/svg">
<mask id="mask0_313_9766" style="mask-type:alpha" maskUnits="userSpaceOnUse" x="43" y="3" width="54" height="54">
<rect x="43" y="3" width="53.96" height="53.9557" fill="#C4C4C4"/>
</mask>
<g mask="url(#mask0_313_9766)">
<line x1="145.015" y1="-222.71" x2="-100.774" y2="23.0793" stroke="#FFB829" stroke-width="1.03761"/>
<line x1="185.054" y1="-182.674" x2="-60.7354" y2="63.1158" stroke="#FFB829" stroke-width="1.03761"/>
<line x1="225.091" y1="-142.637" x2="-20.6983" y2="103.153" stroke="#FFB829" stroke-width="1.03761"/>
<line x1="265.127" y1="-102.6" x2="19.3369" y2="143.19" stroke="#FFB829" stroke-width="1.03761"/>
<line x1="305.166" y1="-62.5633" x2="59.3759" y2="183.226" stroke="#FFB829" stroke-width="1.03761"/>
<line x1="148.351" y1="-219.374" x2="-97.4385" y2="26.4155" stroke="#FFB829" stroke-width="1.03761"/>
<line x1="188.39" y1="-179.337" x2="-57.3994" y2="66.4524" stroke="#FFB829" stroke-width="1.03761"/>
<line x1="228.427" y1="-139.3" x2="-17.3623" y2="106.489" stroke="#FFB829" stroke-width="1.03761"/>
<line x1="268.463" y1="-99.2635" x2="22.6728" y2="146.526" stroke="#FFB829" stroke-width="1.03761"/>
<line x1="308.502" y1="-59.2267" x2="62.7119" y2="186.563" stroke="#FFB829" stroke-width="1.03761"/>
<line x1="151.689" y1="-216.038" x2="-94.1006" y2="29.7517" stroke="#FFB829" stroke-width="1.03761"/>
<line x1="191.724" y1="-176.001" x2="-54.0655" y2="69.789" stroke="#FFB829" stroke-width="1.03761"/>
<line x1="231.763" y1="-135.964" x2="-14.0264" y2="109.826" stroke="#FFB829" stroke-width="1.03761"/>
<line x1="271.798" y1="-95.9273" x2="26.0088" y2="149.862" stroke="#FFB829" stroke-width="1.03761"/>
<line x1="311.836" y1="-55.89" x2="66.0459" y2="189.9" stroke="#FFB829" stroke-width="1.03761"/>
<line x1="155.025" y1="-212.701" x2="-90.7647" y2="33.0883" stroke="#FFB829" stroke-width="1.03761"/>
<line x1="195.062" y1="-172.665" x2="-50.7276" y2="73.1252" stroke="#FFB829" stroke-width="1.03761"/>
<line x1="235.101" y1="-132.628" x2="-10.6885" y2="113.162" stroke="#FFB829" stroke-width="1.03761"/>
<line x1="275.136" y1="-92.5907" x2="29.3466" y2="153.199" stroke="#FFB829" stroke-width="1.03761"/>
<line x1="315.172" y1="-52.5538" x2="69.3818" y2="193.236" stroke="#FFB829" stroke-width="1.03761"/>
<line x1="158.363" y1="-209.365" x2="-87.4268" y2="36.4245" stroke="#FFB829" stroke-width="1.03761"/>
<line x1="198.398" y1="-169.328" x2="-47.3916" y2="76.4614" stroke="#FFB829" stroke-width="1.03761"/>
<line x1="238.435" y1="-129.291" x2="-7.35453" y2="116.498" stroke="#FFB829" stroke-width="1.03761"/>
<line x1="278.472" y1="-89.2541" x2="32.6826" y2="156.536" stroke="#FFB829" stroke-width="1.03761"/>
<line x1="318.509" y1="-49.2176" x2="72.7197" y2="196.572" stroke="#FFB829" stroke-width="1.03761"/>
<line x1="161.701" y1="-206.029" x2="-84.0889" y2="39.7611" stroke="#FFB829" stroke-width="1.03761"/>
<line x1="201.734" y1="-165.992" x2="-44.0557" y2="79.7981" stroke="#FFB829" stroke-width="1.03761"/>
<line x1="241.771" y1="-125.955" x2="-4.01859" y2="119.835" stroke="#FFB829" stroke-width="1.03761"/>
<line x1="281.808" y1="-85.9179" x2="36.0185" y2="159.872" stroke="#FFB829" stroke-width="1.03761"/>
<line x1="321.845" y1="-45.8806" x2="76.0556" y2="199.909" stroke="#FFB829" stroke-width="1.03761"/>
<line x1="124.998" y1="-242.729" x2="-120.792" y2="3.06039" stroke="#FFB829" stroke-width="1.03761"/>
<line x1="165.035" y1="-202.692" x2="-80.7549" y2="43.0974" stroke="#FFB829" stroke-width="1.03761"/>
<line x1="205.072" y1="-162.655" x2="-40.7178" y2="83.1342" stroke="#FFB829" stroke-width="1.03761"/>
<line x1="245.109" y1="-122.618" x2="-0.680697" y2="123.172" stroke="#FFB829" stroke-width="1.03761"/>
<line x1="285.146" y1="-82.5818" x2="39.3564" y2="163.208" stroke="#FFB829" stroke-width="1.03761"/>
<line x1="325.181" y1="-42.5444" x2="79.3916" y2="203.245" stroke="#FFB829" stroke-width="1.03761"/>
<line x1="128.334" y1="-239.393" x2="-117.456" y2="6.39706" stroke="#FFB829" stroke-width="1.03761"/>
<line x1="168.371" y1="-199.356" x2="-77.419" y2="46.4339" stroke="#FFB829" stroke-width="1.03761"/>
<line x1="208.408" y1="-159.319" x2="-37.3819" y2="86.4704" stroke="#FFB829" stroke-width="1.03761"/>
<line x1="248.445" y1="-119.282" x2="2.65524" y2="126.508" stroke="#FFB829" stroke-width="1.03761"/>
<line x1="288.482" y1="-79.2451" x2="42.6923" y2="166.545" stroke="#FFB829" stroke-width="1.03761"/>
<line x1="328.519" y1="-39.2082" x2="82.7295" y2="206.582" stroke="#FFB829" stroke-width="1.03761"/>
<line x1="131.672" y1="-236.056" x2="-114.118" y2="9.73324" stroke="#FFB829" stroke-width="1.03761"/>
<line x1="171.709" y1="-196.02" x2="-74.0811" y2="49.7701" stroke="#FFB829" stroke-width="1.03761"/>
<line x1="211.744" y1="-155.982" x2="-34.0459" y2="89.8075" stroke="#FFB829" stroke-width="1.03761"/>
<line x1="251.781" y1="-115.946" x2="5.99118" y2="129.844" stroke="#FFB829" stroke-width="1.03761"/>
<line x1="291.818" y1="-75.9085" x2="46.0283" y2="169.881" stroke="#FFB829" stroke-width="1.03761"/>
<line x1="331.855" y1="-35.8719" x2="86.0654" y2="209.918" stroke="#FFB829" stroke-width="1.03761"/>
<line x1="135.006" y1="-232.72" x2="-110.784" y2="13.0698" stroke="#FFB829" stroke-width="1.03761"/>
<line x1="175.045" y1="-192.683" x2="-70.7451" y2="53.1063" stroke="#FFB829" stroke-width="1.03761"/>
<line x1="215.08" y1="-152.646" x2="-30.71" y2="93.1436" stroke="#FFB829" stroke-width="1.03761"/>
<line x1="255.119" y1="-112.609" x2="9.32907" y2="133.181" stroke="#FFB829" stroke-width="1.03761"/>
<line x1="295.156" y1="-72.5722" x2="49.3662" y2="173.217" stroke="#FFB829" stroke-width="1.03761"/>
<line x1="335.191" y1="-32.5354" x2="89.4013" y2="213.254" stroke="#FFB829" stroke-width="1.03761"/>
<line x1="138.341" y1="-229.384" x2="-107.448" y2="16.406" stroke="#FFB829" stroke-width="1.03761"/>
<line x1="178.381" y1="-189.346" x2="-67.4092" y2="56.4433" stroke="#FFB829" stroke-width="1.03761"/>
<line x1="218.416" y1="-149.31" x2="-27.3741" y2="96.4798" stroke="#FFB829" stroke-width="1.03761"/>
<line x1="258.455" y1="-109.273" x2="12.665" y2="136.517" stroke="#FFB829" stroke-width="1.03761"/>
<line x1="298.492" y1="-69.2361" x2="52.7021" y2="176.554" stroke="#FFB829" stroke-width="1.03761"/>
<line x1="338.527" y1="-29.1987" x2="92.7373" y2="216.591" stroke="#FFB829" stroke-width="1.03761"/>
<line x1="141.679" y1="-226.047" x2="-104.11" y2="19.7423" stroke="#FFB829" stroke-width="1.03761"/>
<line x1="181.716" y1="-186.01" x2="-64.0733" y2="59.7796" stroke="#FFB829" stroke-width="1.03761"/>
<line x1="221.752" y1="-145.973" x2="-24.0381" y2="99.8165" stroke="#FFB829" stroke-width="1.03761"/>
<line x1="261.791" y1="-105.936" x2="16.0009" y2="139.853" stroke="#FFB829" stroke-width="1.03761"/>
<line x1="301.828" y1="-65.8994" x2="56.0381" y2="179.89" stroke="#FFB829" stroke-width="1.03761"/>
<line x1="341.863" y1="-25.8625" x2="96.0732" y2="219.927" stroke="#FFB829" stroke-width="1.03761"/>
</g>
<rect x="41.5" y="1.5" width="56.96" height="56.9557" stroke="#FF9E00" stroke-width="3"/>
<path d="M68.904 79.16C66.84 79.16 65.576 77.752 65.576 75.608C65.576 73.096 67.24 70.84 69.752 70.84C71.016 70.84 72.008 71.512 72.44 72.632L72.776 71H74.536L72.84 79H71.144C71.144 79 71.272 78.424 71.384 77.88C70.744 78.664 69.896 79.16 68.904 79.16ZM71.976 74.392C71.976 73.112 71.208 72.312 69.992 72.312C68.328 72.312 67.272 73.928 67.272 75.608C67.272 76.888 68.024 77.688 69.224 77.688C70.904 77.688 71.976 76.072 71.976 74.392Z" fill="black"/>
<path d="M113.904 33.16C111.84 33.16 110.576 31.752 110.576 29.608C110.576 27.096 112.24 24.84 114.752 24.84C116.016 24.84 117.008 25.512 117.44 26.632L117.776 25H119.536L117.84 33H116.144C116.144 33 116.272 32.424 116.384 31.88C115.744 32.664 114.896 33.16 113.904 33.16ZM116.976 28.392C116.976 27.112 116.208 26.312 114.992 26.312C113.328 26.312 112.272 27.928 112.272 29.608C112.272 30.888 113.024 31.688 114.224 31.688C115.904 31.688 116.976 30.072 116.976 28.392Z" fill="black"/>
</svg>
