<svg width="140" height="80" viewBox="0 0 140 80" fill="none" xmlns="http://www.w3.org/2000/svg">
<mask id="mask0_313_9646" style="mask-type:alpha" maskUnits="userSpaceOnUse" x="21" y="3" width="98" height="54">
<rect x="21" y="3" width="97.5353" height="53.9557" fill="#C4C4C4"/>
</mask>
<g mask="url(#mask0_313_9646)">
<line x1="123.015" y1="-222.711" x2="-122.774" y2="23.0792" stroke="#FFB829" stroke-width="1.03761"/>
<line x1="163.052" y1="-182.674" x2="-82.7373" y2="63.1157" stroke="#FFB829" stroke-width="1.03761"/>
<line x1="203.09" y1="-142.637" x2="-42.7002" y2="103.153" stroke="#FFB829" stroke-width="1.03761"/>
<line x1="243.127" y1="-102.6" x2="-2.66312" y2="143.19" stroke="#FFB829" stroke-width="1.03761"/>
<line x1="283.164" y1="-62.5633" x2="37.374" y2="183.226" stroke="#FFB829" stroke-width="1.03761"/>
<line x1="323.199" y1="-22.526" x2="77.4091" y2="223.264" stroke="#FFB829" stroke-width="1.03761"/>
<line x1="363.236" y1="17.5105" x2="117.446" y2="263.3" stroke="#FFB829" stroke-width="1.03761"/>
<line x1="126.351" y1="-219.374" x2="-119.439" y2="26.4154" stroke="#FFB829" stroke-width="1.03761"/>
<line x1="166.388" y1="-179.337" x2="-79.4014" y2="66.4524" stroke="#FFB829" stroke-width="1.03761"/>
<line x1="206.425" y1="-139.301" x2="-39.3643" y2="106.489" stroke="#FFB829" stroke-width="1.03761"/>
<line x1="246.463" y1="-99.2635" x2="0.672819" y2="146.526" stroke="#FFB829" stroke-width="1.03761"/>
<line x1="286.5" y1="-59.2267" x2="40.7099" y2="186.563" stroke="#FFB829" stroke-width="1.03761"/>
<line x1="326.537" y1="-19.1898" x2="80.747" y2="226.6" stroke="#FFB829" stroke-width="1.03761"/>
<line x1="129.689" y1="-216.038" x2="-116.101" y2="29.7516" stroke="#FFB829" stroke-width="1.03761"/>
<line x1="169.724" y1="-176.001" x2="-76.0655" y2="69.7889" stroke="#FFB829" stroke-width="1.03761"/>
<line x1="209.761" y1="-135.964" x2="-36.0284" y2="109.825" stroke="#FFB829" stroke-width="1.03761"/>
<line x1="249.798" y1="-95.9273" x2="4.00876" y2="149.862" stroke="#FFB829" stroke-width="1.03761"/>
<line x1="289.836" y1="-55.8901" x2="44.0459" y2="189.9" stroke="#FFB829" stroke-width="1.03761"/>
<line x1="329.873" y1="-15.8536" x2="84.083" y2="229.936" stroke="#FFB829" stroke-width="1.03761"/>
<line x1="133.025" y1="-212.702" x2="-112.765" y2="33.0882" stroke="#FFB829" stroke-width="1.03761"/>
<line x1="173.062" y1="-172.665" x2="-72.7276" y2="73.1251" stroke="#FFB829" stroke-width="1.03761"/>
<line x1="213.099" y1="-132.628" x2="-32.6905" y2="113.162" stroke="#FFB829" stroke-width="1.03761"/>
<line x1="253.136" y1="-92.5908" x2="7.34665" y2="153.199" stroke="#FFB829" stroke-width="1.03761"/>
<line x1="293.172" y1="-52.5539" x2="47.3818" y2="193.236" stroke="#FFB829" stroke-width="1.03761"/>
<line x1="333.207" y1="-12.5166" x2="87.417" y2="233.273" stroke="#FFB829" stroke-width="1.03761"/>
<line x1="136.361" y1="-209.365" x2="-109.429" y2="36.4244" stroke="#FFB829" stroke-width="1.03761"/>
<line x1="176.398" y1="-169.328" x2="-69.3916" y2="76.4613" stroke="#FFB829" stroke-width="1.03761"/>
<line x1="216.435" y1="-129.291" x2="-29.3545" y2="116.498" stroke="#FFB829" stroke-width="1.03761"/>
<line x1="256.472" y1="-89.2541" x2="10.6826" y2="156.536" stroke="#FFB829" stroke-width="1.03761"/>
<line x1="296.509" y1="-49.2177" x2="50.7197" y2="196.572" stroke="#FFB829" stroke-width="1.03761"/>
<line x1="336.547" y1="-9.18039" x2="90.7568" y2="236.609" stroke="#FFB829" stroke-width="1.03761"/>
<line x1="139.699" y1="-206.029" x2="-106.091" y2="39.7611" stroke="#FFB829" stroke-width="1.03761"/>
<line x1="179.734" y1="-165.992" x2="-66.0557" y2="79.7979" stroke="#FFB829" stroke-width="1.03761"/>
<line x1="219.771" y1="-125.955" x2="-26.0186" y2="119.835" stroke="#FFB829" stroke-width="1.03761"/>
<line x1="259.806" y1="-85.9179" x2="14.0166" y2="159.872" stroke="#FFB829" stroke-width="1.03761"/>
<line x1="299.845" y1="-45.8806" x2="54.0556" y2="199.909" stroke="#FFB829" stroke-width="1.03761"/>
<line x1="339.882" y1="-5.84421" x2="94.0927" y2="239.946" stroke="#FFB829" stroke-width="1.03761"/>
<line x1="102.998" y1="-242.729" x2="-142.792" y2="3.06039" stroke="#FFB829" stroke-width="1.03761"/>
<line x1="143.035" y1="-202.692" x2="-102.755" y2="43.0973" stroke="#FFB829" stroke-width="1.03761"/>
<line x1="183.072" y1="-162.656" x2="-62.7178" y2="83.1341" stroke="#FFB829" stroke-width="1.03761"/>
<line x1="223.109" y1="-122.618" x2="-22.6807" y2="123.171" stroke="#FFB829" stroke-width="1.03761"/>
<line x1="263.146" y1="-82.5818" x2="17.3564" y2="163.208" stroke="#FFB829" stroke-width="1.03761"/>
<line x1="303.181" y1="-42.5444" x2="57.3916" y2="203.245" stroke="#FFB829" stroke-width="1.03761"/>
<line x1="343.218" y1="-2.50803" x2="97.4287" y2="243.282" stroke="#FFB829" stroke-width="1.03761"/>
<line x1="106.334" y1="-239.393" x2="-139.456" y2="6.39694" stroke="#FFB829" stroke-width="1.03761"/>
<line x1="146.371" y1="-199.356" x2="-99.419" y2="46.4338" stroke="#FFB829" stroke-width="1.03761"/>
<line x1="186.406" y1="-159.319" x2="-59.3838" y2="86.4703" stroke="#FFB829" stroke-width="1.03761"/>
<line x1="226.445" y1="-119.282" x2="-19.3448" y2="126.508" stroke="#FFB829" stroke-width="1.03761"/>
<line x1="266.482" y1="-79.2451" x2="20.6924" y2="166.545" stroke="#FFB829" stroke-width="1.03761"/>
<line x1="306.517" y1="-39.2082" x2="60.7275" y2="206.582" stroke="#FFB829" stroke-width="1.03761"/>
<line x1="346.556" y1="0.828642" x2="100.767" y2="246.618" stroke="#FFB829" stroke-width="1.03761"/>
<line x1="109.672" y1="-236.057" x2="-136.118" y2="9.73312" stroke="#FFB829" stroke-width="1.03761"/>
<line x1="149.709" y1="-196.02" x2="-96.0811" y2="49.77" stroke="#FFB829" stroke-width="1.03761"/>
<line x1="189.742" y1="-155.982" x2="-56.0479" y2="89.8073" stroke="#FFB829" stroke-width="1.03761"/>
<line x1="229.779" y1="-115.946" x2="-16.0108" y2="129.844" stroke="#FFB829" stroke-width="1.03761"/>
<line x1="269.818" y1="-75.9085" x2="24.0283" y2="169.881" stroke="#FFB829" stroke-width="1.03761"/>
<line x1="309.853" y1="-35.872" x2="64.0634" y2="209.918" stroke="#FFB829" stroke-width="1.03761"/>
<line x1="349.892" y1="4.16531" x2="104.103" y2="249.955" stroke="#FFB829" stroke-width="1.03761"/>
<line x1="113.006" y1="-232.72" x2="-132.784" y2="13.0698" stroke="#FFB829" stroke-width="1.03761"/>
<line x1="153.045" y1="-192.684" x2="-92.7451" y2="53.1062" stroke="#FFB829" stroke-width="1.03761"/>
<line x1="193.08" y1="-152.646" x2="-52.71" y2="93.1435" stroke="#FFB829" stroke-width="1.03761"/>
<line x1="233.117" y1="-112.609" x2="-12.6729" y2="133.181" stroke="#FFB829" stroke-width="1.03761"/>
<line x1="273.156" y1="-72.5724" x2="27.3662" y2="173.217" stroke="#FFB829" stroke-width="1.03761"/>
<line x1="313.189" y1="-32.5355" x2="67.3994" y2="213.254" stroke="#FFB829" stroke-width="1.03761"/>
<line x1="353.228" y1="7.50149" x2="107.438" y2="253.291" stroke="#FFB829" stroke-width="1.03761"/>
<line x1="116.341" y1="-229.384" x2="-129.448" y2="16.406" stroke="#FFB829" stroke-width="1.03761"/>
<line x1="156.379" y1="-189.346" x2="-89.4112" y2="56.4433" stroke="#FFB829" stroke-width="1.03761"/>
<line x1="196.416" y1="-149.31" x2="-49.3741" y2="96.4797" stroke="#FFB829" stroke-width="1.03761"/>
<line x1="236.453" y1="-109.273" x2="-9.33695" y2="136.517" stroke="#FFB829" stroke-width="1.03761"/>
<line x1="276.492" y1="-69.2362" x2="30.7021" y2="176.554" stroke="#FFB829" stroke-width="1.03761"/>
<line x1="316.527" y1="-29.1988" x2="70.7373" y2="216.591" stroke="#FFB829" stroke-width="1.03761"/>
<line x1="356.566" y1="10.838" x2="110.776" y2="256.628" stroke="#FFB829" stroke-width="1.03761"/>
<line x1="119.679" y1="-226.048" x2="-126.11" y2="19.7422" stroke="#FFB829" stroke-width="1.03761"/>
<line x1="159.715" y1="-186.01" x2="-86.0752" y2="59.7795" stroke="#FFB829" stroke-width="1.03761"/>
<line x1="199.752" y1="-145.973" x2="-46.0381" y2="99.8164" stroke="#FFB829" stroke-width="1.03761"/>
<line x1="239.789" y1="-105.936" x2="-6.00101" y2="139.853" stroke="#FFB829" stroke-width="1.03761"/>
<line x1="279.828" y1="-65.8995" x2="34.0381" y2="179.89" stroke="#FFB829" stroke-width="1.03761"/>
<line x1="319.863" y1="-25.8626" x2="74.0732" y2="219.927" stroke="#FFB829" stroke-width="1.03761"/>
<line x1="359.902" y1="14.1743" x2="114.112" y2="259.964" stroke="#FFB829" stroke-width="1.03761"/>
</g>
<rect x="19.5" y="1.5" width="100.535" height="56.9557" stroke="#FF9E00" stroke-width="3"/>
<path d="M69.608 67L68.536 72.04C69.16 71.304 69.992 70.84 70.952 70.84C73.016 70.84 74.28 72.248 74.28 74.392C74.28 76.904 72.616 79.16 70.104 79.16C68.84 79.16 67.832 78.472 67.416 77.336L67.064 79H65.304L67.848 67H69.608ZM67.88 75.608C67.88 76.888 68.648 77.688 69.864 77.688C71.528 77.688 72.584 76.072 72.584 74.392C72.584 73.112 71.816 72.312 70.632 72.312C68.936 72.312 67.88 73.928 67.88 75.608Z" fill="black"/>
<path d="M133.904 33.16C131.84 33.16 130.576 31.752 130.576 29.608C130.576 27.096 132.24 24.84 134.752 24.84C136.016 24.84 137.008 25.512 137.44 26.632L137.776 25H139.536L137.84 33H136.144C136.144 33 136.272 32.424 136.384 31.88C135.744 32.664 134.896 33.16 133.904 33.16ZM136.976 28.392C136.976 27.112 136.208 26.312 134.992 26.312C133.328 26.312 132.272 27.928 132.272 29.608C132.272 30.888 133.024 31.688 134.224 31.688C135.904 31.688 136.976 30.072 136.976 28.392Z" fill="black"/>
</svg>
