<svg width="160" height="135" viewBox="0 0 160 135" fill="none" xmlns="http://www.w3.org/2000/svg">
<g clip-path="url(#clip0_580_2554)">
<g filter="url(#filter0_d_580_2554)">
<path d="M45.9682 69.0506L45.7611 68.4164C45.4667 67.5125 45.9581 66.5404 46.862 66.2461C47.7656 65.9494 48.7379 66.4432 49.0323 67.347L50.9977 73.3598C51.681 74.8235 51.876 76.4628 51.463 78.0408C52.6648 79.7694 54.3878 81.3764 56.346 82.109C57.8148 82.6603 59.2412 82.6448 60.6735 82.064C59.8708 81.3501 59.2353 80.479 58.828 79.4967C51.7384 70.1148 53.4221 56.7184 62.6993 49.395L76.3766 38.5971C81.4147 34.6184 87.6546 33.1908 93.5378 34.1283C93.9355 31.4954 94.7343 28.6634 95.9595 25.8248C100.081 16.2577 107.4 10.2161 112.311 12.3293C116.029 13.9313 117.296 19.7509 115.903 26.6382C116.353 26.3851 116.809 26.1386 117.275 25.9004C128.17 20.2906 139.336 20.2748 142.214 25.8643C145.092 31.4537 138.596 40.535 127.701 46.1448C122.316 48.9171 116.867 50.3218 112.385 50.3609C114.709 56.8815 113.655 64.2186 109.52 69.8283L114.231 109.94C114.611 113.181 112.293 116.117 109.052 116.498L106.427 116.806C106.427 116.806 106.42 116.807 106.417 116.807L103.393 117.162C103.393 117.162 103.386 117.163 103.383 117.163L100.759 117.471C97.5174 117.852 94.5817 115.533 94.2011 112.292L91.0393 85.3687L90.7852 85.5674C83.5854 91.25 73.8446 91.5447 66.4432 87.0268C66.1832 87.2166 65.9174 87.3974 65.643 87.5671C63.8082 88.7066 61.8912 89.3925 59.9423 89.6214C57.9933 89.8503 55.8553 89.5995 53.8216 88.8396C50.662 87.6546 48.0604 85.4487 46.1584 82.9749C44.6258 83.319 42.9394 83.2154 41.3182 82.5784C37.2943 80.9979 35.2038 76.7344 36.6485 73.0546C38.0248 69.5517 42.1065 67.8444 45.9682 69.0506Z" stroke="white" stroke-width="6.74144" stroke-miterlimit="10" shape-rendering="crispEdges"/>
</g>
<path d="M6.94388 53.6917C6.23647 44.7303 14.7153 36.7504 25.8829 35.8683C37.0504 34.9863 46.676 41.5372 47.3835 50.4986C47.4277 51.0603 47.4357 51.6215 47.409 52.1747L55.409 56.4486L46.1225 57.3052C43.3979 63.1932 36.6484 67.6769 28.4424 68.3246C17.2748 69.2066 7.64919 62.6557 6.94178 53.6943L6.94388 53.6917Z" stroke="white" stroke-width="6.74144" stroke-miterlimit="10"/>
<path d="M97.3859 46.9762C92.4764 44.8604 91.8373 35.3916 95.9562 25.8249C100.077 16.2579 107.397 10.2163 112.308 12.3294C117.218 14.4452 117.857 23.914 113.735 33.481C109.614 43.048 102.295 49.0896 97.3835 46.9765L97.3859 46.9762Z" fill="#EE4C24"/>
<path d="M102.763 46.1786C99.8845 40.5892 106.381 31.5079 117.276 25.8981C128.17 20.2882 139.336 20.2725 142.214 25.8619C145.093 31.4514 138.596 40.5326 127.701 46.1425C116.807 51.7524 105.641 51.7681 102.763 46.1786Z" fill="#FB6D02"/>
<path d="M106.873 47.0205C107.117 46.8761 131.283 32.5161 132.904 31.597L132 30C130.363 30.9281 106.934 44.8494 105.937 45.4417L106.875 47.0203L106.873 47.0205Z" fill="#EE4C24"/>
<path d="M96.6682 59.9162L99.6927 59.561C104.388 59.0096 108.642 62.37 109.194 67.0651L113.919 107.303C114.471 111.998 111.11 116.253 106.415 116.804L103.391 117.159C98.6956 117.711 94.4409 114.35 93.8896 109.655L89.1641 69.4173C88.6127 64.7222 91.9731 60.4676 96.6682 59.9162Z" fill="#FCC95F"/>
<path d="M113.902 107.16L114.228 109.937C114.609 113.178 112.29 116.114 109.049 116.495L100.756 117.469C97.5151 117.849 94.5794 115.531 94.1988 112.289L93.8726 109.512L113.902 107.16Z" fill="#F0AB32"/>
<path d="M91.5192 89.4708L89.1197 69.0389C88.5929 64.5533 91.9731 60.4676 96.6682 59.9162L99.6927 59.561C104.388 59.0096 108.622 62.1986 109.149 66.6867L110.119 74.9466L91.5192 89.4708Z" fill="#F0AB32"/>
<path d="M59.9464 89.621C61.8929 89.3924 63.8099 88.7065 65.6471 87.5667C71.7157 83.7974 74.7743 75.2068 72.6115 68.0062L65.7278 70.0739C67.087 74.6018 64.8243 79.6153 61.8563 81.4596C60.0237 82.5964 58.2225 82.8103 56.3498 82.1062C53.2483 80.9434 50.7369 77.5954 49.9488 75.0342L43.0776 77.1464C44.4043 81.4585 48.2409 86.7448 53.8278 88.8365C55.8618 89.5989 57.921 89.8564 59.9484 89.6183L59.9464 89.621Z" fill="#FCC95F"/>
<path d="M64.4936 88.2137C64.3425 88.0987 64.1939 87.9835 64.0471 87.8632C63.3405 87.29 62.6915 86.6328 62.0837 85.9563C61.435 85.2388 60.834 84.4771 60.298 83.6715C60.0252 83.2597 59.7958 82.8258 59.5505 82.4011C60.3169 82.2508 61.0833 81.9364 61.8525 81.4601C64.8204 79.6158 67.0855 74.602 65.7239 70.0744L72.6076 68.0067C74.7704 75.2073 71.7118 83.7979 65.6432 87.5672C65.2631 87.8024 64.8784 88.0189 64.4912 88.214L64.4936 88.2137Z" fill="#F0AB32"/>
<path d="M76.3737 38.5948L62.6963 49.3926C53.2977 56.8123 51.6903 70.4676 59.11 79.8662L60.8273 82.0408C68.1222 91.2804 81.545 92.8596 90.7848 85.5672L105.635 73.8452C114.711 66.6805 116.263 53.495 109.098 44.4186L107.381 42.244C99.8308 32.6821 85.9382 31.0471 76.376 38.5945L76.3737 38.5948Z" fill="#FCC95F"/>
<path d="M100.342 42.8801C102.429 45.8002 101.758 49.8597 98.8378 51.9492L93.7793 55.5685C90.8592 57.6557 86.8021 56.9838 84.7125 54.064C82.6254 51.1439 83.297 47.0844 86.2171 44.9973L91.2756 41.3779C94.1957 39.2908 98.2528 39.9627 100.342 42.8825L100.342 42.8801Z" fill="#F0AB32"/>
<path d="M95.374 50.5682C93.1537 50.8289 91.1434 49.2411 90.8827 47.0209C90.622 44.8007 92.2097 42.7904 94.43 42.5296C96.6502 42.2689 98.6605 43.8567 98.9212 46.0769C99.182 48.2971 97.5942 50.3074 95.374 50.5682Z" fill="#C68010"/>
<path d="M69.6515 58.0547C70.2739 57.13 71.0385 56.5746 71.9252 56.4005C73.6015 56.0686 75.2534 57.1725 75.2717 57.1848L76.159 55.8864C76.07 55.8269 73.969 54.4115 71.6422 54.8536C70.3231 55.105 69.2159 55.8864 68.3515 57.1748L69.6559 58.0518L69.6515 58.0547Z" fill="#EE4C24"/>
<path d="M65.886 58.825L67.0172 57.7344C66.9455 57.6584 65.218 55.8902 63.0493 56.0967C61.7139 56.2294 60.5708 57.0343 59.6219 58.5064L60.9428 59.3597C61.6085 58.331 62.3522 57.7611 63.1565 57.6667C63.1684 57.6653 63.1803 57.6639 63.1922 57.6625C64.599 57.5214 65.8724 58.8121 65.886 58.825Z" fill="#EE4C24"/>
<path d="M72.563 76.1561C72.6131 76.1309 72.6603 76.1013 72.7075 76.0716C73.5028 75.5512 73.7277 74.4874 73.2072 73.6921L69.1454 67.4744C68.625 66.6791 67.5612 66.4542 66.7659 66.9746C65.9706 67.495 65.7457 68.5588 66.2661 69.3542L70.328 75.5718C70.8163 76.3202 71.7881 76.5631 72.563 76.1561Z" fill="#FCC95F"/>
<path d="M50.0778 76.6232C50.132 76.612 50.1856 76.596 50.2389 76.5777C51.1428 76.2834 51.6342 75.3114 51.3399 74.4075L49.0318 67.3469C48.7375 66.443 47.7652 65.9493 46.8616 66.246C45.9577 66.5403 45.4663 67.5124 45.7606 68.4163L48.0687 75.4768C48.347 76.327 49.2219 76.813 50.0751 76.6211L50.0778 76.6232Z" fill="#FCC95F"/>
<path d="M69.7507 74.2139C79.5818 73.0449 87.4235 70.1578 92.2445 64.3927C94.0279 62.2605 95.1328 60.4323 95.4532 58.7229C96.4599 59.0582 97.4722 59.3784 98.4881 59.6885C100.065 60.1716 101.654 60.6387 103.236 61.1237C102.59 63.6819 101.313 66.2179 99.4458 68.5215C99.016 69.0521 98.5559 69.5717 98.0624 70.0736C89.9721 78.3625 78.7479 81.2898 70.7566 82.2862L69.7507 74.2139Z" fill="#FCC95F"/>
<path d="M58.3309 77.3087C58.5339 81.2558 62.1984 84.2754 66.5172 84.0528C70.8336 83.8306 74.1711 80.4496 73.9681 76.5025C73.7651 72.5553 70.0784 69.5939 65.7596 69.8164C61.4432 70.0387 58.13 73.3589 58.333 77.3061L58.3306 77.3063L58.3309 77.3087Z" fill="#FCC95F"/>
<path d="M59.3217 78.4214L64.2109 79.0532L64.0583 80.3983L59.1691 79.7665L59.3217 78.4214Z" fill="#F1B23A"/>
<path d="M59.0217 75.3798L64.5469 76.0938L64.3942 77.4388L58.869 76.7248L59.0217 75.3798Z" fill="#F1B23A"/>
<path d="M58.9331 72.3679L64.8828 73.1367L64.7302 74.4818L58.7804 73.7129L58.9331 72.3679Z" fill="#F1B23A"/>
<path d="M40.5391 78.2114L41.2426 77.0528L36.3376 74.0704C36.4109 73.7289 36.5133 73.3888 36.6453 73.0548C36.7196 72.8652 36.8041 72.6815 36.8943 72.5045L42.0878 75.6629L42.7937 74.504L37.6262 71.3619C37.9772 70.9202 38.3775 70.5282 38.825 70.1885L43.6389 73.1141L44.3424 71.9555L40.1338 69.3979C42.0246 68.51 44.3484 68.3915 46.5511 69.2547C50.5749 70.8351 52.6655 75.0986 51.2207 78.7784C49.7759 82.4583 45.3436 84.1585 41.3173 82.5783C38.1913 81.3508 36.2332 78.5024 36.1927 75.5687L40.5418 78.2135L40.5391 78.2114Z" fill="#FCC95F"/>
<path d="M40.5384 78.2114L36.1893 75.5666C36.1814 75.0681 36.2309 74.5653 36.3392 74.0701L41.2442 77.0525L40.5408 78.2111L40.5384 78.2114Z" fill="#F1B23A"/>
<path d="M42.0863 75.6628L36.8928 72.5043C37.0979 72.0943 37.3451 71.713 37.6223 71.362L42.7898 74.5042L42.0839 75.663L42.0863 75.6628Z" fill="#F1B23A"/>
<path d="M43.6344 73.1142L38.8205 70.1886C39.2258 69.8805 39.6652 69.6166 40.1293 69.398L44.3379 71.9556L43.6344 73.1142Z" fill="#F1B23A"/>
<path d="M73.4591 74.4198C88.4057 72.2109 93.1307 63.1013 93.3241 62.7143L92.1809 62.1417C92.1359 62.2314 87.5215 71.0506 73.2721 73.1559L73.4594 74.4221L73.4591 74.4198Z" fill="#F1B23A"/>
<path d="M77.3052 82.7978C83.7756 82.0379 88.9779 79.2316 92.4816 76.7117C97.3201 73.2316 99.9732 69.6317 100.086 69.481L99.0515 68.7267C99.0245 68.7637 96.3828 72.338 91.6992 75.6986C87.4025 78.7797 80.452 82.3125 71.7307 81.6334L71.6321 82.9092C73.6141 83.0648 75.5089 83.0112 77.3031 82.8005L77.3052 82.7978Z" fill="#F1B23A"/>
<path d="M69.8819 66.8506L74.4844 73.6362L73.4255 74.3544L68.823 67.5689L69.8819 66.8506Z" fill="#F1B23A"/>
<path d="M68.3029 75.0571C68.4909 75.035 68.6652 74.9374 68.7822 74.7837C68.9368 74.5798 68.97 74.3081 68.8701 74.0737L66.8834 69.4821L65.584 70.0448L67.0676 73.4748L62.2976 72.7926L62.0979 74.1936L68.1192 75.0545C68.1807 75.0642 68.241 75.0644 68.3029 75.0571Z" fill="#F1B23A"/>
<path d="M6.94389 53.6917C6.23648 44.7303 14.7153 36.7504 25.8829 35.8683C37.0505 34.9863 46.676 41.5372 47.3835 50.4986C47.4277 51.0603 47.4357 51.6215 47.409 52.1747L55.409 56.4486L46.1225 57.3052C43.3979 63.1932 36.6484 67.6769 28.4424 68.3246C17.2748 69.2066 7.6492 62.6557 6.94179 53.6943L6.94389 53.6917Z" fill="white" stroke="#FDD8A6" stroke-width="0.168536" stroke-miterlimit="10"/>
<path d="M63.6065 68.8683C63.7612 68.8502 63.9105 68.7868 64.0214 68.6628C64.287 68.3976 64.2961 67.9406 64.0142 67.6769C63.5014 67.1726 63.0974 66.547 62.8609 65.8679C63.3501 65.9045 63.8376 66.0499 64.2582 66.2828C64.5434 66.452 64.913 66.3941 65.135 66.1485C65.3571 65.9029 65.3754 65.5244 65.1713 65.2661C64.8749 64.8787 64.6824 64.4309 64.595 63.9538C64.8116 63.9284 65.1188 64.0177 65.2169 64.052C65.9152 64.2668 66.5652 64.5837 67.1635 65.0152C67.4727 65.2443 67.9165 65.1608 68.1482 64.8537C68.3772 64.5446 68.2938 64.1008 67.9867 63.8691C67.268 63.3576 66.4694 62.9665 65.6255 62.7037C65.1706 62.569 64.4939 62.4144 63.8713 62.7216C63.5603 62.8667 63.3365 63.098 63.2288 63.3929C63.1322 63.6383 63.1596 63.8715 63.1814 64.0571C63.1995 64.2118 63.2344 64.3645 63.2668 64.5175C63.0287 64.4827 62.8085 64.4772 62.5717 64.4737C62.4463 64.4739 62.1499 64.4774 61.8894 64.6624C61.4235 64.968 61.2723 65.5503 61.5086 66.2269C61.8192 67.1458 62.3434 67.9938 63.0343 68.6798C63.1779 68.8342 63.387 68.8893 63.6035 68.8639L63.6041 68.8686L63.6065 68.8683Z" fill="#EE4C24"/>
<path d="M27.7367 63.1653C27.989 63.1357 28.2412 63.1061 28.4953 63.0714C31.8807 62.6256 35.0255 61.8968 37.3493 61.0184C39.0261 60.3824 40.997 59.3958 40.8515 58.3007C40.706 57.2057 38.5499 56.7592 36.7654 56.5804C34.2946 56.3302 31.0674 56.439 27.6819 56.8848C24.2965 57.3306 21.1517 58.0594 18.8279 58.9378C17.1511 59.5738 15.1802 60.5604 15.326 61.6578C15.4694 62.7556 17.6276 63.1993 19.4121 63.3782C21.6973 63.6092 24.6292 63.5327 27.737 63.1677L27.7367 63.1653ZM28.4679 57.0241C31.5591 56.6611 34.4719 56.5868 36.7399 56.815C39.1056 57.0534 40.5191 57.6064 40.6136 58.3287C40.708 59.051 39.4867 59.9495 37.2624 60.7921C34.9574 61.666 31.8314 62.3901 28.4623 62.8316C25.0911 63.2758 21.8878 63.3818 19.4341 63.1343C17.0684 62.8959 15.6549 62.343 15.5604 61.6207C15.4657 60.896 16.6873 59.9998 18.9116 59.1572C21.2166 58.2834 24.3426 57.5592 27.7117 57.1177C27.9636 57.0857 28.2156 57.0537 28.4679 57.0241Z" fill="#FDD8A6"/>
<path d="M16.8939 62.7936L24.2043 57.7036L24.0678 57.5073L16.7575 62.5973L16.8939 62.7936Z" fill="#FB6D02"/>
<path d="M36.2491 41.645L36.3945 41.8354L29.2069 47.3224L29.0615 47.132L36.2491 41.645Z" fill="#FB6D02"/>
<path d="M31.0073 62.6918L38.4153 57.0354L36.4054 41.7495L36.1677 41.7798L38.1593 56.9304L31.1919 62.2503L29.2166 47.2378L28.9789 47.2681L31.0073 62.6918Z" fill="#FB6D02"/>
<path d="M31.2389 62.5878L29.2066 47.1308L14.699 47.428L16.7313 62.885L31.2389 62.5878ZM28.9964 47.375L30.9655 62.3545L16.9394 62.6435L14.9703 47.6639L28.9964 47.375Z" fill="#FB6D02"/>
<path d="M16.815 63.0413L17.0524 63.0086L14.9605 47.5996L22.1926 42.4174L22.0514 42.2217L14.704 47.4898L14.7124 47.5612L16.815 63.0413Z" fill="#FB6D02"/>
<path d="M27.762 63.1624C28.0071 63.1336 28.2522 63.1048 28.4968 63.0713C31.8825 62.6278 35.0262 61.9113 37.3528 61.0566C39.0342 60.4394 41.0088 59.4837 40.871 58.4336L40.6331 58.4615C40.7239 59.1529 39.4984 60.0158 37.271 60.8322C34.9605 61.6801 31.8328 62.39 28.4664 62.8336C22.4125 63.6266 15.7981 63.3853 15.5852 61.7577L15.3473 61.7857C15.5807 63.5676 21.7176 63.8722 27.7644 63.1621L27.762 63.1624Z" fill="#FDD8A6"/>
<path d="M13.5657 46.3326L15.5898 61.7529L15.3523 61.7841L13.3282 46.3638L13.5657 46.3326Z" fill="#FDD8A6"/>
<path d="M40.7643 58.5687C40.831 58.5609 40.8769 58.5 40.8667 58.4337L38.8385 43.0124C38.831 42.9481 38.7701 42.9022 38.7058 42.9097C38.6392 42.9176 38.5933 42.9784 38.6035 43.0448L40.6316 58.4661C40.6392 58.5304 40.7001 58.5763 40.7643 58.5687Z" fill="#F3CA70"/>
<path d="M22.2494 42.2993L24.2383 57.4512L24.0007 57.4824L22.0119 42.3305L22.2494 42.2993Z" fill="#FB6D02"/>
<path d="M24.1286 57.4876L38.2188 56.8853L38.229 57.1246L24.1388 57.727L24.1286 57.4876Z" fill="#FB6D02"/>
<path d="M22.1248 42.2078L36.2891 41.6592L36.2983 41.8986L22.1341 42.4472L22.1248 42.2078Z" fill="#FB6D02"/>
<path d="M25.7173 47.8805C25.9719 47.8506 26.2289 47.8205 26.4877 47.7852C29.8732 47.3394 33.0179 46.6106 35.3417 45.7322C37.0185 45.0962 38.9894 44.1096 38.8437 43.0122C38.6979 41.9147 36.5421 41.4707 34.7575 41.2919C32.2867 41.0416 29.0574 41.1531 25.674 41.5962C18.5182 42.5379 13.09 44.6326 13.3181 46.3693C13.5386 48.0418 18.9212 48.6811 25.7175 47.8829L25.7173 47.8805ZM26.4603 41.7379C29.5515 41.3749 32.4643 41.3006 34.7323 41.5288C37.098 41.7673 38.5115 42.3202 38.606 43.0425C38.7005 43.7648 37.4791 44.6634 35.2548 45.506C32.9498 46.3798 29.8238 47.104 26.4547 47.5454C19.6698 48.4412 13.7589 47.8833 13.5528 46.3345C13.3492 44.7855 18.9139 42.7231 25.7041 41.8316C25.9561 41.7996 26.208 41.7676 26.4603 41.7379Z" fill="#FDD8A6"/>
</g>
<defs>
<filter id="filter0_d_580_2554" x="30.9228" y="7.58591" width="117.236" height="116.126" filterUnits="userSpaceOnUse" color-interpolation-filters="sRGB">
<feFlood flood-opacity="0" result="BackgroundImageFix"/>
<feColorMatrix in="SourceAlpha" type="matrix" values="0 0 0 0 0 0 0 0 0 0 0 0 0 0 0 0 0 0 127 0" result="hardAlpha"/>
<feOffset dy="0.9429"/>
<feGaussianBlur stdDeviation="0.9429"/>
<feComposite in2="hardAlpha" operator="out"/>
<feColorMatrix type="matrix" values="0 0 0 0 0 0 0 0 0 0 0 0 0 0 0 0 0 0 0.15 0"/>
<feBlend mode="normal" in2="BackgroundImageFix" result="effect1_dropShadow_580_2554"/>
<feBlend mode="normal" in="SourceGraphic" in2="effect1_dropShadow_580_2554" result="shape"/>
</filter>
<clipPath id="clip0_580_2554">
<rect width="146.653" height="118.304" fill="white" transform="matrix(-0.993175 0.116636 0.116636 0.993175 145.652 0)"/>
</clipPath>
</defs>
</svg>
