<svg width="312" height="98" viewBox="0 0 312 98" fill="none" xmlns="http://www.w3.org/2000/svg">
<path d="M0.20675 14.89V11.712H0.94875C1.52275 10.606 1.73275 9.052 1.69075 2.5H7.20675V11.712H8.18675V14.89H6.89875V13H1.49475V14.89H0.20675ZM2.67075 10.396C2.57275 10.914 2.47475 11.32 2.27875 11.712H5.80675V3.788H2.97875C2.96475 7.694 2.88075 9.262 2.67075 10.396ZM15.9607 9.976H10.4727C10.6407 11.194 11.4247 11.908 12.6007 11.908C13.4547 11.908 14.0147 11.53 14.2947 10.9H15.8067C15.3727 12.342 14.1547 13.14 12.5447 13.14C10.5567 13.14 9.10069 11.642 9.10069 9.5C9.10069 7.358 10.5567 5.86 12.5447 5.86C14.5327 5.86 15.9887 7.358 15.9887 9.5C15.9887 9.668 15.9747 9.822 15.9607 9.976ZM12.5447 7.092C11.4107 7.092 10.6547 7.792 10.4867 8.968H14.6027C14.4347 7.792 13.6647 7.092 12.5447 7.092ZM23.3284 13H21.9284V7.288H19.4224C19.3944 8.926 19.3244 10.032 19.2124 10.788C18.9184 12.538 18.3024 13 17.1824 13H16.9304V11.712H17.0424C17.4204 11.712 17.7284 11.488 17.8684 10.956C18.0364 10.354 18.1344 9.15 18.1484 6H23.3284V13ZM31.7097 13H30.3657V7.414L27.1597 13H25.3817V6H26.7257V11.586L29.9317 6H31.7097V13ZM38.5642 13H36.9962L35.0502 6.952V13H33.7622V6H36.1282L37.8642 11.768L39.6002 6H41.9242V13H40.5242V6.952L38.5642 13ZM47.0125 13.14C44.9825 13.14 43.4705 11.642 43.4705 9.5C43.4705 7.358 44.9825 5.86 47.0125 5.86C49.0425 5.86 50.5545 7.358 50.5545 9.5C50.5545 11.642 49.0425 13.14 47.0125 13.14ZM47.0125 11.852C48.2305 11.852 49.1545 10.914 49.1545 9.5C49.1545 8.086 48.2305 7.148 47.0125 7.148C45.7945 7.148 44.8705 8.086 44.8705 9.5C44.8705 10.914 45.7945 11.852 47.0125 11.852ZM58.4376 9.976H52.9496C53.1176 11.194 53.9016 11.908 55.0776 11.908C55.9316 11.908 56.4916 11.53 56.7716 10.9H58.2836C57.8496 12.342 56.6316 13.14 55.0216 13.14C53.0336 13.14 51.5776 11.642 51.5776 9.5C51.5776 7.358 53.0336 5.86 55.0216 5.86C57.0096 5.86 58.4656 7.358 58.4656 9.5C58.4656 9.668 58.4516 9.822 58.4376 9.976ZM55.0216 7.092C53.8876 7.092 53.1316 7.792 52.9636 8.968H57.0796C56.9116 7.792 56.1416 7.092 55.0216 7.092Z" fill="black" fill-opacity="0.48"/>
<path d="M125.224 14.89V11.712H125.966C126.54 10.606 126.75 9.052 126.708 2.5H132.224V11.712H133.204V14.89H131.916V13H126.512V14.89H125.224ZM127.688 10.396C127.59 10.914 127.492 11.32 127.296 11.712H130.824V3.788H127.996C127.982 7.694 127.898 9.262 127.688 10.396ZM140.977 9.976H135.489C135.657 11.194 136.441 11.908 137.617 11.908C138.471 11.908 139.031 11.53 139.311 10.9H140.823C140.389 12.342 139.171 13.14 137.561 13.14C135.573 13.14 134.117 11.642 134.117 9.5C134.117 7.358 135.573 5.86 137.561 5.86C139.549 5.86 141.005 7.358 141.005 9.5C141.005 9.668 140.991 9.822 140.977 9.976ZM137.561 7.092C136.427 7.092 135.671 7.792 135.503 8.968H139.619C139.451 7.792 138.681 7.092 137.561 7.092ZM148.345 13H146.945V7.288H144.439C144.411 8.926 144.341 10.032 144.229 10.788C143.935 12.538 143.319 13 142.199 13H141.947V11.712H142.059C142.437 11.712 142.745 11.488 142.885 10.956C143.053 10.354 143.151 9.15 143.165 6H148.345V13ZM156.726 13H155.382V7.414L152.176 13H150.398V6H151.742V11.586L154.948 6H156.726V13ZM161.663 13H160.263V7.288H157.995V6H163.931V7.288H161.663V13ZM171.451 9.976H165.963C166.131 11.194 166.915 11.908 168.091 11.908C168.945 11.908 169.505 11.53 169.785 10.9H171.297C170.863 12.342 169.645 13.14 168.035 13.14C166.047 13.14 164.591 11.642 164.591 9.5C164.591 7.358 166.047 5.86 168.035 5.86C170.023 5.86 171.479 7.358 171.479 9.5C171.479 9.668 171.465 9.822 171.451 9.976ZM168.035 7.092C166.901 7.092 166.145 7.792 165.977 8.968H170.093C169.925 7.792 169.155 7.092 168.035 7.092ZM178.818 13H177.418V7.288H174.912C174.884 8.926 174.814 10.032 174.702 10.788C174.408 12.538 173.792 13 172.672 13H172.42V11.712H172.532C172.91 11.712 173.218 11.488 173.358 10.956C173.526 10.354 173.624 9.15 173.638 6H178.818V13ZM186.514 10.648C186.514 12.034 185.59 13 183.84 13H180.872V6H182.272V8.31H183.826C185.52 8.31 186.514 9.262 186.514 10.648ZM183.714 9.486H182.272V11.824H183.714C184.666 11.824 185.114 11.39 185.114 10.634C185.114 9.864 184.666 9.486 183.714 9.486Z" fill="black" fill-opacity="0.48"/>
<path d="M242.801 13H241.401V8.702C241.009 8.828 240.421 8.898 239.917 8.898C237.817 8.898 236.753 8.03 236.753 5.72V2.5H238.153V5.72C238.153 7.204 238.909 7.61 240.099 7.61C240.645 7.61 241.149 7.54 241.401 7.442V2.5H242.801V13ZM246.871 13.14C245.625 13.14 244.491 12.538 244.491 11.152C244.491 8.128 249.209 9.64 249.209 8.044C249.209 7.358 248.551 6.98 247.697 6.98C246.787 6.98 246.157 7.442 246.157 8.352H244.701C244.701 6.546 246.157 5.86 247.697 5.86C249.209 5.86 250.609 6.476 250.609 8.1V13H249.237V11.824C248.775 12.748 247.879 13.14 246.871 13.14ZM245.919 11.068C245.919 11.67 246.437 11.964 247.151 11.964C248.229 11.964 249.237 11.334 249.237 10.116V9.612C248.047 10.186 245.919 9.892 245.919 11.068ZM257.508 8.786C257.368 7.722 256.514 7.148 255.506 7.148C254.316 7.148 253.42 8.086 253.42 9.5C253.42 10.914 254.316 11.852 255.506 11.852C256.528 11.852 257.396 11.222 257.536 10.06H258.992C258.88 11.908 257.41 13.14 255.506 13.14C253.504 13.14 252.02 11.642 252.02 9.5C252.02 7.358 253.504 5.86 255.506 5.86C257.354 5.86 258.796 7.036 258.964 8.786H257.508ZM263.16 13H261.76V7.288H259.492V6H265.428V7.288H263.16V13ZM268.102 13H266.702V6H268.102V8.828H271.462V6H272.862V13H271.462V10.102H268.102V13ZM277.942 13.14C275.912 13.14 274.4 11.642 274.4 9.5C274.4 7.358 275.912 5.86 277.942 5.86C279.972 5.86 281.484 7.358 281.484 9.5C281.484 11.642 279.972 13.14 277.942 13.14ZM277.942 11.852C279.16 11.852 280.084 10.914 280.084 9.5C280.084 8.086 279.16 7.148 277.942 7.148C276.724 7.148 275.8 8.086 275.8 9.5C275.8 10.914 276.724 11.852 277.942 11.852ZM289.367 9.976H283.879C284.047 11.194 284.831 11.908 286.007 11.908C286.861 11.908 287.421 11.53 287.701 10.9H289.213C288.779 12.342 287.561 13.14 285.951 13.14C283.963 13.14 282.507 11.642 282.507 9.5C282.507 7.358 283.963 5.86 285.951 5.86C287.939 5.86 289.395 7.358 289.395 9.5C289.395 9.668 289.381 9.822 289.367 9.976ZM285.951 7.092C284.817 7.092 284.061 7.792 283.893 8.968H288.009C287.841 7.792 287.071 7.092 285.951 7.092Z" fill="black" fill-opacity="0.48"/>
<rect y="44" width="312" height="54" rx="12" fill="#F4F4F4"/>
<path d="M104.707 84.32C101.859 84.32 99.2674 82.944 99.2674 79.776C99.2674 72.864 110.051 76.32 110.051 72.672C110.051 71.104 108.547 70.24 106.595 70.24C104.515 70.24 103.075 71.296 103.075 73.376H99.7474C99.7474 69.248 103.075 67.68 106.595 67.68C110.051 67.68 113.251 69.088 113.251 72.8V84H110.115V81.312C109.059 83.424 107.011 84.32 104.707 84.32ZM102.531 79.584C102.531 80.96 103.715 81.632 105.347 81.632C107.811 81.632 110.115 80.192 110.115 77.408V76.256C107.395 77.568 102.531 76.896 102.531 79.584Z" fill="#00C1FF"/>
<path d="M128.94 69.28C128.94 68.32 129.772 67.552 130.668 67.552C131.66 67.552 132.428 68.32 132.428 69.28C132.428 70.24 131.66 70.976 130.668 70.976C129.772 70.976 128.94 70.24 128.94 69.28ZM124.268 75.392V73.216H137.068V75.392H124.268ZM128.94 79.392C128.94 78.432 129.772 77.664 130.668 77.664C131.66 77.664 132.428 78.432 132.428 79.392C132.428 80.352 131.66 81.088 130.668 81.088C129.772 81.088 128.94 80.352 128.94 79.392ZM174.635 72.192V70.016H187.435V72.192H174.635ZM174.635 78.592V76.416H187.435V78.592H174.635Z" fill="black"/>
<path d="M156.821 67.68C161.205 67.68 164.501 71.104 164.501 76C164.501 80.896 161.205 84.32 156.821 84.32C154.677 84.32 152.821 83.296 151.573 81.6V84H148.373V60H151.573V70.4C152.821 68.704 154.677 67.68 156.821 67.68ZM156.437 70.624C153.653 70.624 151.573 72.768 151.573 76C151.573 79.232 153.653 81.376 156.437 81.376C159.221 81.376 161.301 79.232 161.301 76C161.301 72.768 159.221 70.624 156.437 70.624Z" fill="#FF9E00"/>
<path d="M210.1 74.368C209.78 71.936 207.828 70.624 205.524 70.624C202.804 70.624 200.756 72.768 200.756 76C200.756 79.232 202.804 81.376 205.524 81.376C207.86 81.376 209.844 79.936 210.164 77.28H213.492C213.236 81.504 209.876 84.32 205.524 84.32C200.948 84.32 197.556 80.896 197.556 76C197.556 71.104 200.948 67.68 205.524 67.68C209.748 67.68 213.044 70.368 213.428 74.368H210.1Z" fill="#FF6D00"/>
<path d="M156 18.3333C154.527 18.3333 153.333 19.5272 153.333 21C153.333 22.4728 154.527 23.6667 156 23.6667C157.473 23.6667 158.667 22.4728 158.667 21C158.667 19.5272 157.473 18.3333 156 18.3333ZM155.5 58C155.5 58.2761 155.724 58.5 156 58.5C156.276 58.5 156.5 58.2761 156.5 58H156H155.5ZM156 21H155.5V58H156H156.5V21H156Z" fill="#FF9E00"/>
<path d="M44.5 18.3333C43.0272 18.3333 41.8333 19.5272 41.8333 21C41.8333 22.4728 43.0272 23.6667 44.5 23.6667C45.9728 23.6667 47.1667 22.4728 47.1667 21C47.1667 19.5272 45.9728 18.3333 44.5 18.3333ZM106.5 58C106.5 58.2761 106.724 58.5 107 58.5C107.276 58.5 107.5 58.2761 107.5 58H107H106.5ZM107 40H106.5V58H107H107.5V40H107ZM44.5 21H44V32H44.5H45V21H44.5ZM48.5 36V36.5H103V36V35.5H48.5V36ZM44.5 32H44C44 34.4853 46.0147 36.5 48.5 36.5V36V35.5C46.567 35.5 45 33.933 45 32H44.5ZM107 40H107.5C107.5 37.5147 105.485 35.5 103 35.5V36V36.5C104.933 36.5 106.5 38.067 106.5 40H107Z" fill="#00C1FF"/>
<path d="M266.5 18.3333C267.973 18.3333 269.167 19.5272 269.167 21C269.167 22.4728 267.973 23.6667 266.5 23.6667C265.027 23.6667 263.833 22.4728 263.833 21C263.833 19.5272 265.027 18.3333 266.5 18.3333ZM204.5 58C204.5 58.2761 204.276 58.5 204 58.5C203.724 58.5 203.5 58.2761 203.5 58H204H204.5ZM204 40H204.5V58H204H203.5V40H204ZM266.5 21H267V32H266.5H266V21H266.5ZM262.5 36V36.5H208V36V35.5H262.5V36ZM266.5 32H267C267 34.4853 264.985 36.5 262.5 36.5V36V35.5C264.433 35.5 266 33.933 266 32H266.5ZM204 40H203.5C203.5 37.5147 205.515 35.5 208 35.5V36V36.5C206.067 36.5 204.5 38.067 204.5 40H204Z" fill="#FF6D00"/>
</svg>
