<svg width="312" height="98" viewBox="0 0 312 98" fill="none" xmlns="http://www.w3.org/2000/svg">
<path d="M93.1216 13H91.4276L89.3136 3.508V13H88.0256V2.5H90.4196L92.3376 11.152L94.2136 2.5H96.6496V13H95.2496V3.55L93.1216 13ZM100.103 13H98.703V6H100.103V8.828H103.463V6H104.863V13H103.463V10.102H100.103V13ZM109.943 13.14C107.913 13.14 106.401 11.642 106.401 9.5C106.401 7.358 107.913 5.86 109.943 5.86C111.973 5.86 113.485 7.358 113.485 9.5C113.485 11.642 111.973 13.14 109.943 13.14ZM109.943 11.852C111.161 11.852 112.085 10.914 112.085 9.5C112.085 8.086 111.161 7.148 109.943 7.148C108.725 7.148 107.801 8.086 107.801 9.5C107.801 10.914 108.725 11.852 109.943 11.852ZM119.991 6V9.094L122.693 6H124.485L121.545 9.192L124.751 13H123.029L119.991 9.318V13H118.591V9.346L115.553 13H113.789L117.051 9.192L114.041 6H115.903L118.591 9.08V6H119.991ZM132.264 13H130.92V7.414L127.714 13H125.936V6H127.28V11.586L130.486 6H132.264V13ZM137.201 13H135.801V7.288H133.533V6H139.469V7.288H137.201V13ZM146.989 9.976H141.501C141.669 11.194 142.453 11.908 143.629 11.908C144.483 11.908 145.043 11.53 145.323 10.9H146.835C146.401 12.342 145.183 13.14 143.573 13.14C141.585 13.14 140.129 11.642 140.129 9.5C140.129 7.358 141.585 5.86 143.573 5.86C145.561 5.86 147.017 7.358 147.017 9.5C147.017 9.668 147.003 9.822 146.989 9.976ZM143.573 7.092C142.439 7.092 141.683 7.792 141.515 8.968H145.631C145.463 7.792 144.693 7.092 143.573 7.092ZM154.356 13H152.956V7.288H150.45C150.422 8.926 150.352 10.032 150.24 10.788C149.946 12.538 149.33 13 148.21 13H147.958V11.712H148.07C148.448 11.712 148.756 11.488 148.896 10.956C149.064 10.354 149.162 9.15 149.176 6H154.356V13ZM162.052 10.648C162.052 12.034 161.128 13 159.378 13H156.41V6H157.81V8.31H159.364C161.058 8.31 162.052 9.262 162.052 10.648ZM159.252 9.486H157.81V11.824H159.252C160.204 11.824 160.652 11.39 160.652 10.634C160.652 9.864 160.204 9.486 159.252 9.486Z" fill="black" fill-opacity="0.48"/>
<path d="M177.546 13H176.146V2.5H182.25V13H180.85V3.788H177.546V13ZM185.708 16.5H184.308V6H185.708V7.05C186.254 6.308 187.066 5.86 188.004 5.86C189.922 5.86 191.364 7.358 191.364 9.5C191.364 11.642 189.922 13.14 188.004 13.14C187.066 13.14 186.254 12.692 185.708 11.95V16.5ZM187.836 11.852C189.054 11.852 189.964 10.914 189.964 9.5C189.964 8.086 189.054 7.148 187.836 7.148C186.618 7.148 185.708 8.086 185.708 9.5C185.708 10.914 186.618 11.852 187.836 11.852ZM195.931 13.14C193.901 13.14 192.389 11.642 192.389 9.5C192.389 7.358 193.901 5.86 195.931 5.86C197.961 5.86 199.473 7.358 199.473 9.5C199.473 11.642 197.961 13.14 195.931 13.14ZM195.931 11.852C197.149 11.852 198.073 10.914 198.073 9.5C198.073 8.086 197.149 7.148 195.931 7.148C194.713 7.148 193.789 8.086 193.789 9.5C193.789 10.914 194.713 11.852 195.931 11.852ZM207.342 13H205.998V7.414L202.792 13H201.014V6H202.358V11.586L205.564 6H207.342V13ZM211.131 8.912H212.237C213.007 8.912 213.413 8.59 213.413 7.974C213.413 7.386 212.951 6.98 211.985 6.98C210.963 6.98 210.389 7.484 210.389 8.38H208.989C208.989 7.008 210.011 5.86 211.985 5.86C213.847 5.86 214.757 6.77 214.757 7.862C214.757 8.548 214.407 9.15 213.721 9.444C214.505 9.71 214.925 10.242 214.925 11.026C214.925 12.342 213.903 13.14 211.985 13.14C210.025 13.14 208.877 12.188 208.877 10.522H210.277C210.277 11.474 210.851 12.034 211.999 12.034C213.091 12.034 213.525 11.586 213.525 10.984C213.525 10.326 213.035 9.962 212.237 9.962H211.131V8.912ZM216.504 13V6H219.976C221.264 6 222.146 6.602 222.146 7.82C222.146 8.562 221.782 9.038 221.18 9.29C221.95 9.542 222.44 10.102 222.44 10.984C222.44 12.328 221.544 13 220.088 13H216.504ZM219.57 7.064H217.848V8.884H219.57C220.438 8.884 220.802 8.562 220.802 7.974C220.802 7.344 220.438 7.064 219.57 7.064ZM219.85 9.948H217.848V11.936H219.85C220.634 11.936 221.04 11.586 221.04 10.942C221.04 10.298 220.634 9.948 219.85 9.948ZM230.584 9.976H225.096C225.264 11.194 226.048 11.908 227.224 11.908C228.078 11.908 228.638 11.53 228.918 10.9H230.43C229.996 12.342 228.778 13.14 227.168 13.14C225.18 13.14 223.724 11.642 223.724 9.5C223.724 7.358 225.18 5.86 227.168 5.86C229.156 5.86 230.612 7.358 230.612 9.5C230.612 9.668 230.598 9.822 230.584 9.976ZM227.168 7.092C226.034 7.092 225.278 7.792 225.11 8.968H229.226C229.058 7.792 228.288 7.092 227.168 7.092ZM231.374 11.712H232.06C232.41 11.054 232.69 10.102 232.718 6H238.108V11.712H239.088V14.89H237.8V13H232.662V14.89H231.374V11.712ZM233.838 10.046C233.726 10.858 233.614 11.362 233.474 11.712H236.708V7.288H233.992C233.978 8.548 233.922 9.416 233.838 10.046ZM246.825 9.976H241.337C241.505 11.194 242.289 11.908 243.465 11.908C244.319 11.908 244.879 11.53 245.159 10.9H246.671C246.237 12.342 245.019 13.14 243.409 13.14C241.421 13.14 239.965 11.642 239.965 9.5C239.965 7.358 241.421 5.86 243.409 5.86C245.397 5.86 246.853 7.358 246.853 9.5C246.853 9.668 246.839 9.822 246.825 9.976ZM243.409 7.092C242.275 7.092 241.519 7.792 241.351 8.968H245.467C245.299 7.792 244.529 7.092 243.409 7.092ZM249.799 13H248.399V6H249.799V8.828H253.159V6H254.559V13H253.159V10.102H249.799V13ZM262.944 13H261.6V7.414L258.394 13H256.616V6H257.96V11.586L261.166 6H262.944V13ZM271.338 9.976H265.85C266.018 11.194 266.802 11.908 267.978 11.908C268.832 11.908 269.392 11.53 269.672 10.9H271.184C270.75 12.342 269.532 13.14 267.922 13.14C265.934 13.14 264.478 11.642 264.478 9.5C264.478 7.358 265.934 5.86 267.922 5.86C269.91 5.86 271.366 7.358 271.366 9.5C271.366 9.668 271.352 9.822 271.338 9.976ZM267.922 7.092C266.788 7.092 266.032 7.792 265.864 8.968H269.98C269.812 7.792 269.042 7.092 267.922 7.092Z" fill="black" fill-opacity="0.48"/>
<rect y="44" width="312" height="54" rx="12" fill="#F4F4F4"/>
<path d="M104.707 84.32C101.859 84.32 99.2674 82.944 99.2674 79.776C99.2674 72.864 110.051 76.32 110.051 72.672C110.051 71.104 108.547 70.24 106.595 70.24C104.515 70.24 103.075 71.296 103.075 73.376H99.7474C99.7474 69.248 103.075 67.68 106.595 67.68C110.051 67.68 113.251 69.088 113.251 72.8V84H110.115V81.312C109.059 83.424 107.011 84.32 104.707 84.32ZM102.531 79.584C102.531 80.96 103.715 81.632 105.347 81.632C107.811 81.632 110.115 80.192 110.115 77.408V76.256C107.395 77.568 102.531 76.896 102.531 79.584ZM156.821 67.68C161.205 67.68 164.501 71.104 164.501 76C164.501 80.896 161.205 84.32 156.821 84.32C154.677 84.32 152.821 83.296 151.573 81.6V84H148.373V60H151.573V70.4C152.821 68.704 154.677 67.68 156.821 67.68ZM156.437 70.624C153.653 70.624 151.573 72.768 151.573 76C151.573 79.232 153.653 81.376 156.437 81.376C159.221 81.376 161.301 79.232 161.301 76C161.301 72.768 159.221 70.624 156.437 70.624Z" fill="#FF9E00"/>
<path d="M126.924 79.616L125.356 78.048L129.1 74.304L125.196 70.432L126.796 68.832L130.7 72.704L134.412 68.992L135.98 70.56L132.268 74.272L136.14 78.176L134.54 79.776L130.668 75.872L126.924 79.616ZM174.635 72.192V70.016H187.435V72.192H174.635ZM174.635 78.592V76.416H187.435V78.592H174.635Z" fill="black"/>
<path d="M210.1 74.368C209.78 71.936 207.828 70.624 205.524 70.624C202.804 70.624 200.756 72.768 200.756 76C200.756 79.232 202.804 81.376 205.524 81.376C207.86 81.376 209.844 79.936 210.164 77.28H213.492C213.236 81.504 209.876 84.32 205.524 84.32C200.948 84.32 197.556 80.896 197.556 76C197.556 71.104 200.948 67.68 205.524 67.68C209.748 67.68 213.044 70.368 213.428 74.368H210.1Z" fill="#FF6D00"/>
<path d="M205 18.3333C203.527 18.3333 202.333 19.5272 202.333 21C202.333 22.4728 203.527 23.6667 205 23.6667C206.473 23.6667 207.667 22.4728 207.667 21C207.667 19.5272 206.473 18.3333 205 18.3333ZM204.5 58C204.5 58.2761 204.724 58.5 205 58.5C205.276 58.5 205.5 58.2761 205.5 58H205H204.5ZM205 21H204.5V58H205H205.5V21H205Z" fill="#FF6D00"/>
<path d="M128.75 18.8333C127.277 18.8333 126.083 20.0272 126.083 21.5C126.083 22.9728 127.277 24.1667 128.75 24.1667C130.223 24.1667 131.417 22.9728 131.417 21.5C131.417 20.0272 130.223 18.8333 128.75 18.8333ZM107.5 58C107.5 58.2761 107.724 58.5 108 58.5C108.276 58.5 108.5 58.2761 108.5 58L108 58L107.5 58ZM149 58C149 58.2761 149.224 58.5 149.5 58.5C149.776 58.5 150 58.2761 150 58L149.5 58L149 58ZM149.5 39L150 39L149.5 39ZM128.75 21.5L128.25 21.5L128.25 35L128.75 35L129.25 35L129.25 21.5L128.75 21.5ZM128.75 35L128.75 34.5L112 34.5L112 35L112 35.5L128.75 35.5L128.75 35ZM108 39L107.5 39L107.5 58L108 58L108.5 58L108.5 39L108 39ZM128.75 35L128.75 35.5L145.5 35.5L145.5 35L145.5 34.5L128.75 34.5L128.75 35ZM149.5 39L149 39L149 58L149.5 58L150 58L150 39L149.5 39ZM145.5 35L145.5 35.5C147.433 35.5 149 37.067 149 39L149.5 39L150 39C150 36.5147 147.985 34.5 145.5 34.5L145.5 35ZM112 35L112 34.5C109.515 34.5 107.5 36.5147 107.5 39L108 39L108.5 39C108.5 37.067 110.067 35.5 112 35.5L112 35Z" fill="#FF9E00"/>
</svg>
