<svg width="142" height="145" viewBox="0 0 142 145" fill="none" xmlns="http://www.w3.org/2000/svg">
<g clip-path="url(#clip0_45_12129)">
<g filter="url(#filter0_d_45_12129)">
<path d="M22.0741 103.96C21.5006 102.742 21.444 101.287 22.0443 99.9645C25.1199 93.1655 30.8958 84.5879 38.5175 79.0189C35.4313 71.2959 35.0522 62.6263 37.5529 55.4351C39.4607 49.9488 43.4345 45.1021 48.4532 42.1355C53.3763 39.2273 58.9832 38.2888 64.278 39.4793C64.469 39.5123 64.6576 39.5569 64.8449 39.6153C65.2556 39.7202 65.6272 39.8253 65.9774 39.9352C66.1836 40.0004 66.3799 40.0782 66.5717 40.1686L87.1446 46.7628C87.9555 46.9724 88.7255 47.3064 89.4327 47.7516C90.0302 45.6503 90.7953 43.5379 91.7208 41.4493C98.0574 27.1383 109.261 19.2101 117.781 23.0078C122.258 25.0035 124.922 29.716 125.377 36.0928C134.839 34.9617 142.261 37.6954 145.066 43.6523C145.077 43.6759 145.087 43.6974 145.098 43.721C146.381 46.4896 147.648 52.2684 141.75 59.8634C138.072 64.5988 132.381 68.9169 125.723 72.0167C123.446 73.077 121.143 73.9581 118.856 74.6505L125.213 80.511C125.237 80.5339 125.26 80.5567 125.284 80.5796C126.893 82.077 128.016 84.1013 127.956 86.305C127.705 95.5332 115.848 104.83 111.246 104.812C109.05 104.801 106.932 104.118 105.282 102.617L96.2887 94.4162C96.216 94.3508 96.1445 94.2822 96.0772 94.2116L94.1088 92.4223C94.0026 92.3413 93.9007 92.2529 93.801 92.1635L92.1549 90.6472C92.1549 90.6472 92.1404 90.633 92.1321 90.6265L70.5475 70.7544C69.5831 69.874 68.841 68.7648 68.3906 67.5358L60.6733 49.6372C58.3859 49.4284 56.0136 49.9902 53.8231 51.283C50.9284 52.9936 48.6379 55.7815 47.5425 58.9332C45.9527 63.5042 46.1426 69.0632 47.9994 74.2028C54.564 72.2561 61.2436 73.0953 67.3545 76.6421C73.3347 80.1116 74.8605 85.2767 74.2957 88.9547C73.803 92.1519 71.7299 95.0233 68.7443 96.6351C60.6599 101.005 50.5592 95.7355 44.5968 88.9891C44.3829 88.7462 44.1692 88.498 43.9619 88.2468C40.3721 91.0225 35.4513 96.0157 31.6784 104.354C31.1582 105.501 30.2063 106.394 29.0303 106.838C27.8542 107.282 26.5525 107.237 25.4085 106.715L24.3977 106.253C23.3345 105.769 22.5384 104.941 22.0762 103.959L22.0741 103.96ZM71.9537 51.8669L77.148 63.9116C77.153 63.9224 77.1591 63.9353 77.1652 63.9482L98.538 83.6263L98.5483 83.6371L99.9308 84.9106C100.019 84.9817 100.108 85.0527 100.192 85.1311L102.659 87.3727C102.736 87.4435 102.809 87.5142 102.88 87.5881L110.826 94.8319L118.061 86.8217L108.901 78.3794C108.857 78.3423 108.817 78.3063 108.774 78.2661L106.06 75.7533C105.964 75.6778 105.869 75.5991 105.779 75.5131L105.438 75.2015C104.03 73.9062 103.535 71.8866 104.186 70.083C104.837 68.2794 106.503 67.0459 108.414 66.9551C112.503 66.7592 117.235 65.4971 121.735 63.4018C126.977 60.9599 131.55 57.5422 134.28 54.0256C136.239 51.5055 137.114 49.031 136.509 47.7252L136.505 47.7166C135.619 45.8348 130.308 44.1476 121.689 46.4869C120.159 46.902 118.525 46.523 117.332 45.4748C116.141 44.4289 115.548 42.8523 115.756 41.2767C116.551 35.2405 115.063 32.1963 113.937 31.6948C111.72 30.7065 104.886 35.1243 100.375 45.3096C98.5999 49.3195 97.537 53.5357 97.3806 57.1858C97.3014 59.031 96.1636 60.6631 94.4626 61.3719C92.7607 62.0785 90.8068 61.7327 89.4482 60.4821L84.4433 55.8752C84.4433 55.8752 84.4276 55.8695 84.4191 55.8682L71.9536 51.8722L71.9537 51.8669Z" fill="white"/>
</g>
<path d="M26.3558 101.929C29.6664 94.6112 36.1891 85.3618 44.5782 80.7665C44.2513 80.1779 43.9448 79.5769 43.6566 78.9647C40.3888 72.0239 39.6553 63.8087 42.0237 56.998C43.5672 52.5567 46.7864 48.6325 50.8574 46.2279C55.1902 43.6677 60.0541 43.0419 64.5578 44.4654L64.2249 45.527C60.0262 44.2007 55.4798 44.789 51.4239 47.1865C47.5762 49.459 44.5343 53.1705 43.0758 57.364C40.8024 63.9036 41.5102 71.7973 44.6526 78.4717C44.9378 79.0775 45.2403 79.6699 45.5651 80.2542C46.6415 79.7206 47.7447 79.2662 48.8754 78.9038C54.3951 77.1291 59.8158 77.7528 64.9888 80.7535C68.9017 83.0245 69.9454 86.1032 69.6185 88.2287C69.3532 89.9624 68.187 91.5397 66.5006 92.4518C60.289 95.8102 52.1185 90.336 48.1418 85.8383C47.0312 84.5806 46.0342 83.2138 45.1565 81.7668C39.2849 85.0352 32.1999 91.7108 27.3676 102.393L26.3568 101.931L26.3558 101.929ZM68.0518 85.3794C67.4682 84.1399 66.3387 82.8254 64.4324 81.7187C59.5429 78.8805 54.4211 78.2912 49.2151 79.9645C48.255 80.2723 47.2245 80.6976 46.1405 81.2428C46.9765 82.6123 47.92 83.9045 48.9739 85.0973C52.716 89.3303 60.3315 94.521 65.9759 91.4707C67.3374 90.7363 68.3112 89.4288 68.5228 88.0595C68.6379 87.3139 68.5212 86.3708 68.0549 85.3805L68.0518 85.3794Z" fill="#EE4C24"/>
<path d="M97.4752 68.8681C91.6095 66.2532 90.9692 54.838 96.0474 43.372C101.122 31.905 109.993 24.7298 115.859 27.3446C121.725 29.9594 122.365 41.3747 117.287 52.8406C112.212 64.3077 103.341 71.4829 97.4752 68.8681Z" fill="#F0AB32"/>
<path d="M95.9662 66.6023C93.014 60.2263 100.661 50.3836 113.04 44.6148C125.421 38.8482 137.849 39.3389 140.801 45.7149C143.752 52.0887 136.106 61.9336 123.727 67.7024C111.346 73.469 98.9183 72.9783 95.9662 66.6023Z" fill="#FCC95F"/>
<path d="M99.7032 66.242C100.841 65.6269 127.547 51.151 129.408 50.1908L130.011 51.366C128.16 52.319 100.609 67.2529 100.329 67.4039L99.7021 66.2399L99.7032 66.242Z" fill="#F1B23A"/>
<path d="M72.8232 65.851L63.4699 44.1604L85.9113 51.3543L82.2238 61.2021L72.8254 65.85L72.8232 65.851Z" fill="#FCC95F"/>
<path d="M101.664 83.4561L78.2823 62.207C76.8985 60.9473 74.7578 61.0499 73.4993 62.4424C72.2462 63.8297 72.3509 65.9819 73.7379 67.2427L97.0006 88.6613L101.664 83.4561Z" fill="#FB6D02"/>
<path d="M106.19 78.3971L82.8301 57.1665C81.4463 55.9068 79.3056 56.0095 78.0471 57.4019C76.794 58.7892 76.8987 60.9414 78.2857 62.2023L101.54 83.5909L106.19 78.3971Z" fill="#FB6D02"/>
<path d="M110.589 73.4922L87.3831 52.1281C85.9961 50.8672 83.851 50.9772 82.5925 52.3696C81.3394 53.7569 81.4441 55.9091 82.8311 57.17L106.065 78.539L110.588 73.4901L110.589 73.4922Z" fill="#FB6D02"/>
<path d="M122.006 84.0023L111.982 74.7633C111.149 75.8359 110.539 77.1941 109.699 78.2623C106.491 82.3441 103.237 86.3899 99.884 90.3515C99.7176 90.5486 99.6359 90.6977 99.4685 90.8926L108.457 99.088C109.954 100.449 123.526 85.3681 122.005 84.0054L122.004 84.0033L122.006 84.0023Z" fill="#FCC95F"/>
<path d="M65.6698 49.2438C65.6698 49.2438 67.9274 48.5051 68.6931 45.8379C65.6412 44.8562 63.4821 44.1689 63.4821 44.1689L65.6677 49.2448L65.6698 49.2438Z" fill="#FB6D02"/>
<path d="M108.988 71.9963L95.3325 87.1244L101.935 93.1236L115.537 78.0602L108.988 71.9963Z" fill="#F0AB32"/>
<path d="M71.813 51.0178L72.1819 49.6212C72.2777 49.6468 74.518 50.2563 75.604 52.1458C76.2199 53.215 76.3407 54.4557 75.9658 55.8341L74.5762 55.4521C74.8439 54.4634 74.7742 53.5979 74.3613 52.8765C73.5824 51.5115 71.8287 51.0235 71.813 51.0178Z" fill="#EE4C24"/>
</g>
<defs>
<filter id="filter0_d_45_12129" x="20.0741" y="21.289" width="127.647" height="88.1695" filterUnits="userSpaceOnUse" color-interpolation-filters="sRGB">
<feFlood flood-opacity="0" result="BackgroundImageFix"/>
<feColorMatrix in="SourceAlpha" type="matrix" values="0 0 0 0 0 0 0 0 0 0 0 0 0 0 0 0 0 0 127 0" result="hardAlpha"/>
<feOffset dy="0.772265"/>
<feGaussianBlur stdDeviation="0.772265"/>
<feComposite in2="hardAlpha" operator="out"/>
<feColorMatrix type="matrix" values="0 0 0 0 0 0 0 0 0 0 0 0 0 0 0 0 0 0 0.15 0"/>
<feBlend mode="normal" in2="BackgroundImageFix" result="effect1_dropShadow_45_12129"/>
<feBlend mode="normal" in="SourceGraphic" in2="effect1_dropShadow_45_12129" result="shape"/>
</filter>
<clipPath id="clip0_45_12129">
<rect width="90.8211" height="145.588" fill="white" transform="translate(131.642) rotate(64.7173)"/>
</clipPath>
</defs>
</svg>
