<svg width="140" height="81" viewBox="0 0 140 81" fill="none" xmlns="http://www.w3.org/2000/svg">
<path d="M70.8213 3.96008L106.095 65.0548L107.074 66.7521H32.6084L33.5889 65.0548L68.8613 3.96008L69.8418 2.26282L70.8213 3.96008Z" stroke="#FF9E00" stroke-width="2.26277"/>
<path d="M102.608 19.0413L101.536 24.0813C102.16 23.3453 102.992 22.8813 103.952 22.8813C106.016 22.8813 107.28 24.2893 107.28 26.4333C107.28 28.9453 105.616 31.2013 103.104 31.2013C101.84 31.2013 100.832 30.5133 100.416 29.3773L100.064 31.0413H98.304L100.848 19.0413H102.608ZM100.88 27.6493C100.88 28.9293 101.648 29.7293 102.864 29.7293C104.528 29.7293 105.584 28.1133 105.584 26.4333C105.584 25.1533 104.816 24.3533 103.632 24.3533C101.936 24.3533 100.88 25.9693 100.88 27.6493Z" fill="black"/>
<path d="M35.904 31.2013C33.84 31.2013 32.576 29.7933 32.576 27.6493C32.576 25.1373 34.24 22.8813 36.752 22.8813C38.016 22.8813 39.008 23.5533 39.44 24.6733L39.776 23.0413H41.536L39.84 31.0413H38.144C38.144 31.0413 38.272 30.4653 38.384 29.9213C37.744 30.7053 36.896 31.2013 35.904 31.2013ZM38.976 26.4333C38.976 25.1533 38.208 24.3533 36.992 24.3533C35.328 24.3533 34.272 25.9693 34.272 27.6493C34.272 28.9293 35.024 29.7293 36.224 29.7293C37.904 29.7293 38.976 28.1133 38.976 26.4333Z" fill="black"/>
<path d="M73.608 75.2253H71.912C71.912 74.0733 71.096 73.3533 69.96 73.3533C68.296 73.3533 67.24 74.9693 67.24 76.6493C67.24 77.9293 68.008 78.7293 69.208 78.7293C70.44 78.7293 71.4 77.8493 71.72 76.6813H73.464C73.048 78.6653 71.432 80.2013 69.208 80.2013C66.904 80.2013 65.56 78.7933 65.56 76.6493C65.56 74.1373 67.272 71.8813 69.96 71.8813C72.184 71.8813 73.592 73.2093 73.608 75.2253Z" fill="black"/>
</svg>
