<svg width="140" height="80" viewBox="0 0 140 80" fill="none" xmlns="http://www.w3.org/2000/svg">
<path d="M70 1.6123C91.2008 1.61234 108.388 18.7992 108.388 40C108.388 61.2008 91.2008 78.3877 70 78.3877C48.7992 78.3877 31.6123 61.2008 31.6123 40C31.6123 18.7992 48.7992 1.6123 70 1.6123Z" stroke="#FF9E00" stroke-width="2.775"/>
<path d="M107 40.0002H33" stroke="#303030" stroke-width="0.902438"/>
<path d="M95.6905 14.1844L70.1621 39.7128" stroke="#303030" stroke-width="0.902438"/>
<circle cx="70.1635" cy="39.8384" r="1.93886" fill="#303030"/>
<path d="M58.936 44C61.32 44 62.552 45.328 61.976 48.016L61.128 52.032C60.536 54.8 59.352 56 57.256 56H53.304L55.848 44H58.936ZM57.128 54.528C58.2 54.528 58.968 53.936 59.336 52.176L60.248 47.872C60.616 46.096 60.072 45.472 58.984 45.472H57.304L55.368 54.528H57.128Z" fill="black"/>
<path d="M72.064 27H70.304L72.848 15H76.4C78.32 15 79.504 16.088 79.104 18.104L79.008 18.584C78.56 20.904 77.056 21.752 75.344 21.8L77.584 27H75.616L73.312 21.128L72.064 27ZM76 16.472H74.288L73.472 20.328H75.2C76.256 20.328 77.008 19.832 77.28 18.44L77.328 18.248C77.568 16.968 77.056 16.472 76 16.472Z" fill="black"/>
</svg>
