<svg width="312" height="229" viewBox="0 0 312 229" fill="none" xmlns="http://www.w3.org/2000/svg">
<path d="M23.3685 50.5V55.61L26.4345 50.5H27.9745L24.8245 55.526L28.1425 61H26.4625L23.3685 55.834V61H21.9685V50.5H23.3685ZM35.145 61H33.745V55.288H31.239C31.211 56.926 31.141 58.032 31.029 58.788C30.735 60.538 30.119 61 28.999 61H28.747V59.712H28.859C29.237 59.712 29.545 59.488 29.685 58.956C29.853 58.354 29.951 57.15 29.965 54H35.145V61ZM39.2143 61.14C37.9683 61.14 36.8343 60.538 36.8343 59.152C36.8343 56.128 41.5523 57.64 41.5523 56.044C41.5523 55.358 40.8943 54.98 40.0403 54.98C39.1303 54.98 38.5003 55.442 38.5003 56.352H37.0443C37.0443 54.546 38.5003 53.86 40.0403 53.86C41.5523 53.86 42.9523 54.476 42.9523 56.1V61H41.5803V59.824C41.1183 60.748 40.2223 61.14 39.2143 61.14ZM38.2623 59.068C38.2623 59.67 38.7803 59.964 39.4943 59.964C40.5723 59.964 41.5803 59.334 41.5803 58.116V57.612C40.3903 58.186 38.2623 57.892 38.2623 59.068ZM49.8515 56.786C49.7115 55.722 48.8575 55.148 47.8495 55.148C46.6595 55.148 45.7635 56.086 45.7635 57.5C45.7635 58.914 46.6595 59.852 47.8495 59.852C48.8715 59.852 49.7395 59.222 49.8795 58.06H51.3355C51.2235 59.908 49.7535 61.14 47.8495 61.14C45.8475 61.14 44.3635 59.642 44.3635 57.5C44.3635 55.358 45.8475 53.86 47.8495 53.86C49.6975 53.86 51.1395 55.036 51.3075 56.786H49.8515ZM57.8493 56.786C57.7093 55.722 56.8553 55.148 55.8473 55.148C54.6573 55.148 53.7613 56.086 53.7613 57.5C53.7613 58.914 54.6573 59.852 55.8473 59.852C56.8693 59.852 57.7373 59.222 57.8773 58.06H59.3333C59.2213 59.908 57.7513 61.14 55.8473 61.14C53.8453 61.14 52.3613 59.642 52.3613 57.5C52.3613 55.358 53.8453 53.86 55.8473 53.86C57.6953 53.86 59.1373 55.036 59.3053 56.786H57.8493ZM6.34534 77H4.77734L2.83134 70.952V77H1.54334V70H3.90934L5.64534 75.768L7.38134 70H9.70534V77H8.30534V70.952L6.34534 77ZM18.0976 77H16.7536V71.414L13.5476 77H11.7696V70H13.1136V75.586L16.3196 70H18.0976V77ZM25.8621 77H24.4621V71.288H21.9561C21.9281 72.926 21.8581 74.032 21.7461 74.788C21.4521 76.538 20.8361 77 19.7161 77H19.4641V75.712H19.5761C19.9541 75.712 20.2621 75.488 20.4021 74.956C20.5701 74.354 20.6681 73.15 20.6821 70H25.8621V77ZM33.6274 77H32.2274V71.288H29.7214C29.6934 72.926 29.6234 74.032 29.5114 74.788C29.2174 76.538 28.6014 77 27.4814 77H27.2294V75.712H27.3414C27.7194 75.712 28.0274 75.488 28.1674 74.956C28.3354 74.354 28.4334 73.15 28.4474 70H33.6274V77ZM42.0087 77H40.6647V71.414L37.4587 77H35.6807V70H37.0247V75.586L40.2307 70H42.0087V77ZM46.0772 77.14C44.8312 77.14 43.6972 76.538 43.6972 75.152C43.6972 72.128 48.4152 73.64 48.4152 72.044C48.4152 71.358 47.7572 70.98 46.9032 70.98C45.9932 70.98 45.3632 71.442 45.3632 72.352H43.9072C43.9072 70.546 45.3632 69.86 46.9032 69.86C48.4152 69.86 49.8152 70.476 49.8152 72.1V77H48.4432V75.824C47.9812 76.748 47.0852 77.14 46.0772 77.14ZM45.1252 75.068C45.1252 75.67 45.6432 75.964 46.3572 75.964C47.4352 75.964 48.4432 75.334 48.4432 74.116V73.612C47.2532 74.186 45.1252 73.892 45.1252 75.068ZM53.1445 80.5H51.7445V70H53.1445V71.05C53.6905 70.308 54.5025 69.86 55.4405 69.86C57.3585 69.86 58.8005 71.358 58.8005 73.5C58.8005 75.642 57.3585 77.14 55.4405 77.14C54.5025 77.14 53.6905 76.692 53.1445 75.95V80.5ZM55.2725 75.852C56.4905 75.852 57.4005 74.914 57.4005 73.5C57.4005 72.086 56.4905 71.148 55.2725 71.148C54.0545 71.148 53.1445 72.086 53.1445 73.5C53.1445 74.914 54.0545 75.852 55.2725 75.852ZM59.5598 75.712H60.2458C60.5958 75.054 60.8758 74.102 60.9038 70H66.2938V75.712H67.2738V78.89H65.9858V77H60.8478V78.89H59.5598V75.712ZM62.0238 74.046C61.9118 74.858 61.7998 75.362 61.6598 75.712H64.8938V71.288H62.1778C62.1638 72.548 62.1078 73.416 62.0238 74.046ZM71.6936 77.14C69.6636 77.14 68.1516 75.642 68.1516 73.5C68.1516 71.358 69.6636 69.86 71.6936 69.86C73.7236 69.86 75.2356 71.358 75.2356 73.5C75.2356 75.642 73.7236 77.14 71.6936 77.14ZM71.6936 75.852C72.9116 75.852 73.8356 74.914 73.8356 73.5C73.8356 72.086 72.9116 71.148 71.6936 71.148C70.4756 71.148 69.5516 72.086 69.5516 73.5C69.5516 74.914 70.4756 75.852 71.6936 75.852ZM76.7767 77V70H80.2487C81.5367 70 82.4187 70.602 82.4187 71.82C82.4187 72.562 82.0547 73.038 81.4527 73.29C82.2227 73.542 82.7127 74.102 82.7127 74.984C82.7127 76.328 81.8167 77 80.3607 77H76.7767ZM79.8427 71.064H78.1207V72.884H79.8427C80.7107 72.884 81.0747 72.562 81.0747 71.974C81.0747 71.344 80.7107 71.064 79.8427 71.064ZM80.1227 73.948H78.1207V75.936H80.1227C80.9067 75.936 81.3127 75.586 81.3127 74.942C81.3127 74.298 80.9067 73.948 80.1227 73.948Z" fill="black" fill-opacity="0.48"/>
<path d="M42 85.3333C40.5272 85.3333 39.3333 86.5272 39.3333 88C39.3333 89.4728 40.5272 90.6667 42 90.6667C43.4728 90.6667 44.6667 89.4728 44.6667 88C44.6667 86.5272 43.4728 85.3333 42 85.3333ZM41.5 100C41.5 100.276 41.7239 100.5 42 100.5C42.2761 100.5 42.5 100.276 42.5 100H42H41.5ZM42 88H41.5V100H42H42.5V88H42Z" fill="#FF9E00"/>
<rect y="108" width="84" height="54" rx="8" fill="#FF6D00"/>
<path d="M25.226 125.088V124H28.426V148H25.226V131.168H21.514V128.48H22.282C24.362 128.48 25.226 127.488 25.226 125.088ZM31.6443 140.64L38.0763 124H42.9083V140.64H45.9803V143.584H42.9083V148H39.7083V143.584H31.6443V140.64ZM34.3003 140.64H39.7083V126.496L34.3003 140.64ZM48.1732 140.48C48.1732 137.888 49.5812 136.096 51.6613 135.2C49.9973 134.336 48.8772 132.768 48.8772 130.528V129.376C48.8772 125.664 51.6293 123.68 55.0533 123.68C58.4773 123.68 61.2293 125.664 61.2293 129.376V130.528C61.2293 132.768 60.1093 134.336 58.4453 135.2C60.5253 136.096 61.9333 137.888 61.9333 140.48V141.888C61.9333 146.08 58.8612 148.32 55.0533 148.32C51.2453 148.32 48.1732 146.08 48.1732 141.888V140.48ZM52.0773 129.664V130.496C52.0773 132.8 53.2613 133.792 55.0533 133.792C56.8773 133.792 58.0293 132.8 58.0293 130.496V129.664C58.0293 127.52 56.8133 126.624 55.0533 126.624C53.3253 126.624 52.0773 127.52 52.0773 129.664ZM51.3733 140.512V141.6C51.3733 144.224 52.8453 145.376 55.0533 145.376C57.2933 145.376 58.7333 144.224 58.7333 141.6V140.512C58.7333 137.824 57.2933 136.736 55.0533 136.736C52.8453 136.736 51.3733 137.824 51.3733 140.512Z" fill="white"/>
<path d="M24.996 203.243L24.996 201.843L25.556 201.843C27.95 201.843 29.14 203.005 29.14 204.937C29.14 206.869 27.95 208.031 25.556 208.031L21.944 208.031C19.55 208.031 18.36 206.869 18.36 204.937C18.36 203.005 19.55 201.843 21.944 201.843L22.364 201.843L22.364 203.243L21.944 203.243C20.264 203.243 19.648 203.873 19.648 204.937C19.648 205.987 20.264 206.631 21.944 206.631L25.556 206.631C27.236 206.631 27.852 206.001 27.852 204.937C27.852 203.887 27.236 203.243 25.556 203.243L24.996 203.243ZM29.14 196.897C29.14 198.927 27.642 200.439 25.5 200.439C23.358 200.439 21.86 198.927 21.86 196.897C21.86 194.867 23.358 193.355 25.5 193.355C27.642 193.355 29.14 194.867 29.14 196.897ZM27.852 196.897C27.852 195.679 26.914 194.755 25.5 194.755C24.086 194.755 23.148 195.679 23.148 196.897C23.148 198.115 24.086 199.039 25.5 199.039C26.914 199.039 27.852 198.115 27.852 196.897ZM29 189.189L29 190.589L23.288 190.589L23.288 192.857L22 192.857L22 186.921L23.288 186.921L23.288 189.189L29 189.189ZM29 184.248L29 185.648L22 185.648L22 184.248L24.828 184.248L24.828 180.888L22 180.888L22 179.488L29 179.488L29 180.888L26.102 180.888L26.102 184.248L29 184.248ZM29 171.103L29 172.447L23.414 172.447L29 175.653L29 177.431L22 177.431L22 176.087L27.586 176.087L22 172.881L22 171.103L29 171.103Z" fill="black" fill-opacity="0.48"/>
<path d="M48.89 224.503L45.712 224.503L45.712 223.761C44.606 223.187 43.052 222.977 36.5 223.019L36.5 217.503L45.712 217.503L45.712 216.523L48.89 216.523L48.89 217.811L47 217.811L47 223.215L48.89 223.215L48.89 224.503ZM44.396 222.039C44.914 222.137 45.32 222.235 45.712 222.431L45.712 218.903L37.788 218.903L37.788 221.731C41.694 221.745 43.262 221.829 44.396 222.039ZM43.976 208.749L43.976 214.237C45.194 214.069 45.908 213.285 45.908 212.109C45.908 211.255 45.53 210.695 44.9 210.415L44.9 208.903C46.342 209.337 47.14 210.555 47.14 212.165C47.14 214.153 45.642 215.609 43.5 215.609C41.358 215.609 39.86 214.153 39.86 212.165C39.86 210.177 41.358 208.721 43.5 208.721C43.668 208.721 43.822 208.735 43.976 208.749ZM41.092 212.165C41.092 213.299 41.792 214.055 42.968 214.223L42.968 210.107C41.792 210.275 41.092 211.045 41.092 212.165ZM42.786 202.206C41.722 202.346 41.148 203.2 41.148 204.208C41.148 205.398 42.086 206.294 43.5 206.294C44.914 206.294 45.852 205.398 45.852 204.208C45.852 203.186 45.222 202.318 44.06 202.178L44.06 200.722C45.908 200.834 47.14 202.304 47.14 204.208C47.14 206.21 45.642 207.694 43.5 207.694C41.358 207.694 39.86 206.21 39.86 204.208C39.86 202.36 41.036 200.918 42.786 200.75L42.786 202.206ZM42.128 199.439C40.602 199.439 40 198.263 40 196.863L40 193.853L47 193.853L47 195.253L43.934 195.253L43.934 195.267L47 198.291L47 199.929L44.284 197.185C44.214 198.361 43.486 199.439 42.128 199.439ZM43.29 196.625L43.29 195.253L41.064 195.253L41.064 196.625C41.064 197.507 41.428 198.039 42.142 198.039C42.94 198.039 43.29 197.507 43.29 196.625ZM47 188.911L47 190.311L41.288 190.311L41.288 192.579L40 192.579L40 186.643L41.288 186.643L41.288 188.911L47 188.911ZM40 183.97L43.108 183.97L40 180.96L40 179.098L43.192 182.388L47 178.846L47 180.624L43.318 183.97L47 183.97L47 185.37L40 185.37L40 183.97ZM47 171.331L47 172.675L41.414 172.675L47 175.881L47 177.659L40 177.659L40 176.315L45.586 176.315L40 173.109L40 171.331L47 171.331Z" fill="black" fill-opacity="0.48"/>
<path d="M63.712 222.86L65 222.86L65 227.564L54.5 227.564L54.5 222.86L55.788 222.86L55.788 226.164L58.952 226.164L58.952 223.14L60.24 223.14L60.24 226.164L63.712 226.164L63.712 222.86ZM63.712 222.004L63.712 221.318C63.054 220.968 62.102 220.688 58 220.66L58 215.27L63.712 215.27L63.712 214.29L66.89 214.29L66.89 215.578L65 215.578L65 220.716L66.89 220.716L66.89 222.004L63.712 222.004ZM62.046 219.54C62.858 219.652 63.362 219.764 63.712 219.904L63.712 216.67L59.288 216.67L59.288 219.386C60.548 219.4 61.416 219.456 62.046 219.54ZM65 206.553L65 207.897L59.414 207.897L65 211.103L65 212.881L58 212.881L58 211.537L63.586 211.537L58 208.331L58 206.553L65 206.553ZM65 203.1L65 204.5L58 204.5L58 203.1L60.828 203.1L60.828 199.74L58 199.74L58 198.34L65 198.34L65 199.74L62.102 199.74L62.102 203.1L65 203.1ZM65 189.956L65 191.3L59.414 191.3L65 194.506L65 196.284L58 196.284L58 194.94L63.586 194.94L58 191.734L58 189.956L65 189.956ZM58 186.503L63.712 186.503L63.712 183.339L58 183.339L58 181.939L63.712 181.939L63.712 180.959L66.89 180.959L66.89 182.247L65 182.247L65 187.903L58 187.903L58 186.503ZM62.648 173.894C64.034 173.894 65 174.818 65 176.568L65 179.536L58 179.536L58 178.136L60.31 178.136L60.31 176.582C60.31 174.888 61.262 173.894 62.648 173.894ZM65 171.43L65 172.83L58 172.83L58 171.43L65 171.43ZM61.486 176.694L61.486 178.136L63.824 178.136L63.824 176.694C63.824 175.742 63.39 175.294 62.634 175.294C61.864 175.294 61.486 175.742 61.486 176.694Z" fill="black" fill-opacity="0.48"/>
<path d="M108.475 30.5V35.61L111.541 30.5H113.081L109.931 35.526L113.249 41H111.569L108.475 35.834V41H107.075V30.5H108.475ZM120.251 41H118.851V35.288H116.345C116.317 36.926 116.247 38.032 116.135 38.788C115.841 40.538 115.225 41 114.105 41H113.853V39.712H113.965C114.343 39.712 114.651 39.488 114.791 38.956C114.959 38.354 115.057 37.15 115.071 34H120.251V41ZM124.321 41.14C123.075 41.14 121.941 40.538 121.941 39.152C121.941 36.128 126.659 37.64 126.659 36.044C126.659 35.358 126.001 34.98 125.147 34.98C124.237 34.98 123.607 35.442 123.607 36.352H122.151C122.151 34.546 123.607 33.86 125.147 33.86C126.659 33.86 128.059 34.476 128.059 36.1V41H126.687V39.824C126.225 40.748 125.329 41.14 124.321 41.14ZM123.369 39.068C123.369 39.67 123.887 39.964 124.601 39.964C125.679 39.964 126.687 39.334 126.687 38.116V37.612C125.497 38.186 123.369 37.892 123.369 39.068ZM134.958 36.786C134.818 35.722 133.964 35.148 132.956 35.148C131.766 35.148 130.87 36.086 130.87 37.5C130.87 38.914 131.766 39.852 132.956 39.852C133.978 39.852 134.846 39.222 134.986 38.06H136.442C136.33 39.908 134.86 41.14 132.956 41.14C130.954 41.14 129.47 39.642 129.47 37.5C129.47 35.358 130.954 33.86 132.956 33.86C134.804 33.86 136.246 35.036 136.414 36.786H134.958ZM142.956 36.786C142.816 35.722 141.962 35.148 140.954 35.148C139.764 35.148 138.868 36.086 138.868 37.5C138.868 38.914 139.764 39.852 140.954 39.852C141.976 39.852 142.844 39.222 142.984 38.06H144.44C144.328 39.908 142.858 41.14 140.954 41.14C138.952 41.14 137.468 39.642 137.468 37.5C137.468 35.358 138.952 33.86 140.954 33.86C142.802 33.86 144.244 35.036 144.412 36.786H142.956ZM93.9878 57H92.4197L90.4737 50.952V57H89.1857V50H91.5517L93.2877 55.768L95.0238 50H97.3477V57H95.9478V50.952L93.9878 57ZM105.74 57H104.396V51.414L101.19 57H99.412V50H100.756V55.586L103.962 50H105.74V57ZM113.505 57H112.105V51.288H109.599C109.571 52.926 109.501 54.032 109.389 54.788C109.095 56.538 108.479 57 107.359 57H107.107V55.712H107.219C107.597 55.712 107.905 55.488 108.045 54.956C108.213 54.354 108.311 53.15 108.325 50H113.505V57ZM121.27 57H119.87V51.288H117.364C117.336 52.926 117.266 54.032 117.154 54.788C116.86 56.538 116.244 57 115.124 57H114.872V55.712H114.984C115.362 55.712 115.67 55.488 115.81 54.956C115.978 54.354 116.076 53.15 116.09 50H121.27V57ZM129.651 57H128.307V51.414L125.101 57H123.323V50H124.667V55.586L127.873 50H129.651V57ZM134.728 57.14C132.698 57.14 131.186 55.642 131.186 53.5C131.186 51.358 132.698 49.86 134.728 49.86C136.758 49.86 138.27 51.358 138.27 53.5C138.27 55.642 136.758 57.14 134.728 57.14ZM134.728 55.852C135.946 55.852 136.87 54.914 136.87 53.5C136.87 52.086 135.946 51.148 134.728 51.148C133.51 51.148 132.586 52.086 132.586 53.5C132.586 54.914 133.51 55.852 134.728 55.852ZM141.211 57H139.811V50H141.211V52.828H144.571V50H145.971V57H144.571V54.102H141.211V57ZM151.051 57.14C149.021 57.14 147.509 55.642 147.509 53.5C147.509 51.358 149.021 49.86 151.051 49.86C153.081 49.86 154.593 51.358 154.593 53.5C154.593 55.642 153.081 57.14 151.051 57.14ZM151.051 55.852C152.269 55.852 153.193 54.914 153.193 53.5C153.193 52.086 152.269 51.148 151.051 51.148C149.833 51.148 148.909 52.086 148.909 53.5C148.909 54.914 149.833 55.852 151.051 55.852ZM156.134 57V50H159.606C160.894 50 161.776 50.602 161.776 51.82C161.776 52.562 161.412 53.038 160.81 53.29C161.58 53.542 162.07 54.102 162.07 54.984C162.07 56.328 161.174 57 159.718 57H156.134ZM159.2 51.064H157.478V52.884H159.2C160.068 52.884 160.432 52.562 160.432 51.974C160.432 51.344 160.068 51.064 159.2 51.064ZM159.48 53.948H157.478V55.936H159.48C160.264 55.936 160.67 55.586 160.67 54.942C160.67 54.298 160.264 53.948 159.48 53.948Z" fill="black" fill-opacity="0.48"/>
<path d="M125.5 65.3333C124.027 65.3333 122.833 66.5272 122.833 68C122.833 69.4728 124.027 70.6667 125.5 70.6667C126.973 70.6667 128.167 69.4728 128.167 68C128.167 66.5272 126.973 65.3333 125.5 65.3333ZM125 100C125 100.276 125.224 100.5 125.5 100.5C125.776 100.5 126 100.276 126 100H125.5H125ZM125.5 68H125V100H125.5H126V68H125.5Z" fill="#FF9E00"/>
<rect x="88" y="108" width="75" height="54" rx="8" fill="#FF9100"/>
<path d="M117.007 140.448V136.416C115.983 138.208 114.415 138.912 112.623 138.912C109.327 138.912 106.703 136.48 106.703 131.616V130.976C106.703 126.208 109.615 123.68 113.455 123.68C117.295 123.68 120.207 126.304 120.207 131.296V140.704C120.207 145.696 117.295 148.32 113.455 148.32C109.775 148.32 106.959 145.952 106.959 141.472V140.928H110.159V141.216C110.159 144.16 111.407 145.376 113.455 145.376C115.599 145.376 117.007 143.968 117.007 140.448ZM117.007 131.584V131.008C117.007 127.904 115.631 126.624 113.455 126.624C111.279 126.624 109.903 127.936 109.903 131.008V131.584C109.903 134.72 111.215 135.968 113.455 135.968C115.631 135.968 117.007 134.72 117.007 131.584ZM126.761 126.944V133.728C127.561 132.48 128.905 131.68 130.665 131.68C134.313 131.68 136.233 134.08 136.233 138.656V141.216C136.233 145.92 133.385 148.32 129.833 148.32C126.217 148.32 123.369 145.984 123.369 141.6V140.704H126.569V141.088C126.569 144.128 127.817 145.376 129.833 145.376C131.721 145.376 133.033 144.096 133.033 141.216V138.848C133.033 135.68 131.753 134.496 129.833 134.496C127.913 134.496 126.985 135.648 126.761 136.96H123.689V124H135.657V126.944H126.761ZM141.207 125.088V124H144.407V148H141.207V131.168H137.494V128.48H138.262C140.342 128.48 141.207 127.488 141.207 125.088Z" fill="white"/>
<path d="M108.496 203.243L108.496 201.843L109.056 201.843C111.45 201.843 112.64 203.005 112.64 204.937C112.64 206.869 111.45 208.031 109.056 208.031L105.444 208.031C103.05 208.031 101.86 206.869 101.86 204.937C101.86 203.005 103.05 201.843 105.444 201.843L105.864 201.843L105.864 203.243L105.444 203.243C103.764 203.243 103.148 203.873 103.148 204.937C103.148 205.987 103.764 206.631 105.444 206.631L109.056 206.631C110.736 206.631 111.352 206.001 111.352 204.937C111.352 203.887 110.736 203.243 109.056 203.243L108.496 203.243ZM112.64 196.897C112.64 198.927 111.142 200.439 109 200.439C106.858 200.439 105.36 198.927 105.36 196.897C105.36 194.867 106.858 193.355 109 193.355C111.142 193.355 112.64 194.867 112.64 196.897ZM111.352 196.897C111.352 195.679 110.414 194.755 109 194.755C107.586 194.755 106.648 195.679 106.648 196.897C106.648 198.115 107.586 199.039 109 199.039C110.414 199.039 111.352 198.115 111.352 196.897ZM112.5 189.189L112.5 190.589L106.788 190.589L106.788 192.857L105.5 192.857L105.5 186.921L106.788 186.921L106.788 189.189L112.5 189.189ZM112.5 184.248L112.5 185.648L105.5 185.648L105.5 184.248L108.328 184.248L108.328 180.888L105.5 180.888L105.5 179.488L112.5 179.488L112.5 180.888L109.602 180.888L109.602 184.248L112.5 184.248ZM112.5 171.103L112.5 172.447L106.914 172.447L112.5 175.653L112.5 177.431L105.5 177.431L105.5 176.087L111.086 176.087L105.5 172.881L105.5 171.103L112.5 171.103Z" fill="black" fill-opacity="0.48"/>
<path d="M132.39 224.503L129.212 224.503L129.212 223.761C128.106 223.187 126.552 222.977 120 223.019L120 217.503L129.212 217.503L129.212 216.523L132.39 216.523L132.39 217.811L130.5 217.811L130.5 223.215L132.39 223.215L132.39 224.503ZM127.896 222.039C128.414 222.137 128.82 222.235 129.212 222.431L129.212 218.903L121.288 218.903L121.288 221.731C125.194 221.745 126.762 221.829 127.896 222.039ZM127.476 208.749L127.476 214.237C128.694 214.069 129.408 213.285 129.408 212.109C129.408 211.255 129.03 210.695 128.4 210.415L128.4 208.903C129.842 209.337 130.64 210.555 130.64 212.165C130.64 214.153 129.142 215.609 127 215.609C124.858 215.609 123.36 214.153 123.36 212.165C123.36 210.177 124.858 208.721 127 208.721C127.168 208.721 127.322 208.735 127.476 208.749ZM124.592 212.165C124.592 213.299 125.292 214.055 126.468 214.223L126.468 210.107C125.292 210.275 124.592 211.045 124.592 212.165ZM126.286 202.206C125.222 202.346 124.648 203.2 124.648 204.208C124.648 205.398 125.586 206.294 127 206.294C128.414 206.294 129.352 205.398 129.352 204.208C129.352 203.186 128.722 202.318 127.56 202.178L127.56 200.722C129.408 200.834 130.64 202.304 130.64 204.208C130.64 206.21 129.142 207.694 127 207.694C124.858 207.694 123.36 206.21 123.36 204.208C123.36 202.36 124.536 200.918 126.286 200.75L126.286 202.206ZM125.628 199.439C124.102 199.439 123.5 198.263 123.5 196.863L123.5 193.853L130.5 193.853L130.5 195.253L127.434 195.253L127.434 195.267L130.5 198.291L130.5 199.929L127.784 197.185C127.714 198.361 126.986 199.439 125.628 199.439ZM126.79 196.625L126.79 195.253L124.564 195.253L124.564 196.625C124.564 197.507 124.928 198.039 125.642 198.039C126.44 198.039 126.79 197.507 126.79 196.625ZM130.5 188.911L130.5 190.311L124.788 190.311L124.788 192.579L123.5 192.579L123.5 186.643L124.788 186.643L124.788 188.911L130.5 188.911ZM123.5 183.97L126.608 183.97L123.5 180.96L123.5 179.098L126.692 182.388L130.5 178.846L130.5 180.624L126.818 183.97L130.5 183.97L130.5 185.37L123.5 185.37L123.5 183.97ZM130.5 171.331L130.5 172.675L124.914 172.675L130.5 175.881L130.5 177.659L123.5 177.659L123.5 176.315L129.086 176.315L123.5 173.109L123.5 171.331L130.5 171.331Z" fill="black" fill-opacity="0.48"/>
<path d="M147.212 222.86L148.5 222.86L148.5 227.564L138 227.564L138 222.86L139.288 222.86L139.288 226.164L142.452 226.164L142.452 223.14L143.74 223.14L143.74 226.164L147.212 226.164L147.212 222.86ZM147.212 222.004L147.212 221.318C146.554 220.968 145.602 220.688 141.5 220.66L141.5 215.27L147.212 215.27L147.212 214.29L150.39 214.29L150.39 215.578L148.5 215.578L148.5 220.716L150.39 220.716L150.39 222.004L147.212 222.004ZM145.546 219.54C146.358 219.652 146.862 219.764 147.212 219.904L147.212 216.67L142.788 216.67L142.788 219.386C144.048 219.4 144.916 219.456 145.546 219.54ZM148.5 206.553L148.5 207.897L142.914 207.897L148.5 211.103L148.5 212.881L141.5 212.881L141.5 211.537L147.086 211.537L141.5 208.331L141.5 206.553L148.5 206.553ZM148.5 203.1L148.5 204.5L141.5 204.5L141.5 203.1L144.328 203.1L144.328 199.74L141.5 199.74L141.5 198.34L148.5 198.34L148.5 199.74L145.602 199.74L145.602 203.1L148.5 203.1ZM148.5 189.956L148.5 191.3L142.914 191.3L148.5 194.506L148.5 196.284L141.5 196.284L141.5 194.94L147.086 194.94L141.5 191.734L141.5 189.956L148.5 189.956ZM141.5 186.503L147.212 186.503L147.212 183.339L141.5 183.339L141.5 181.939L147.212 181.939L147.212 180.959L150.39 180.959L150.39 182.247L148.5 182.247L148.5 187.903L141.5 187.903L141.5 186.503ZM146.148 173.894C147.534 173.894 148.5 174.818 148.5 176.568L148.5 179.536L141.5 179.536L141.5 178.136L143.81 178.136L143.81 176.582C143.81 174.888 144.762 173.894 146.148 173.894ZM148.5 171.43L148.5 172.83L141.5 172.83L141.5 171.43L148.5 171.43ZM144.986 176.694L144.986 178.136L147.324 178.136L147.324 176.694C147.324 175.742 146.89 175.294 146.134 175.294C145.364 175.294 144.986 175.742 144.986 176.694Z" fill="black" fill-opacity="0.48"/>
<path d="M183.618 18.5V23.61L186.684 18.5H188.224L185.074 23.526L188.392 29H186.712L183.618 23.834V29H182.218V18.5H183.618ZM195.395 29H193.995V23.288H191.489C191.461 24.926 191.391 26.032 191.279 26.788C190.985 28.538 190.369 29 189.249 29H188.997V27.712H189.109C189.487 27.712 189.795 27.488 189.935 26.956C190.103 26.354 190.201 25.15 190.215 22H195.395V29ZM199.464 29.14C198.218 29.14 197.084 28.538 197.084 27.152C197.084 24.128 201.802 25.64 201.802 24.044C201.802 23.358 201.144 22.98 200.29 22.98C199.38 22.98 198.75 23.442 198.75 24.352H197.294C197.294 22.546 198.75 21.86 200.29 21.86C201.802 21.86 203.202 22.476 203.202 24.1V29H201.83V27.824C201.368 28.748 200.472 29.14 199.464 29.14ZM198.512 27.068C198.512 27.67 199.03 27.964 199.744 27.964C200.822 27.964 201.83 27.334 201.83 26.116V25.612C200.64 26.186 198.512 25.892 198.512 27.068ZM210.102 24.786C209.962 23.722 209.108 23.148 208.1 23.148C206.91 23.148 206.014 24.086 206.014 25.5C206.014 26.914 206.91 27.852 208.1 27.852C209.122 27.852 209.99 27.222 210.13 26.06H211.586C211.474 27.908 210.004 29.14 208.1 29.14C206.098 29.14 204.614 27.642 204.614 25.5C204.614 23.358 206.098 21.86 208.1 21.86C209.948 21.86 211.39 23.036 211.558 24.786H210.102ZM218.099 24.786C217.959 23.722 217.105 23.148 216.097 23.148C214.907 23.148 214.011 24.086 214.011 25.5C214.011 26.914 214.907 27.852 216.097 27.852C217.119 27.852 217.987 27.222 218.127 26.06H219.583C219.471 27.908 218.001 29.14 216.097 29.14C214.095 29.14 212.611 27.642 212.611 25.5C212.611 23.358 214.095 21.86 216.097 21.86C217.945 21.86 219.387 23.036 219.555 24.786H218.099ZM186.394 45H184.994V39.288H182.726V38H188.662V39.288H186.394V45ZM195.578 42.648C195.578 44.034 194.654 45 192.904 45H189.936V38H191.336V40.31H192.89C194.584 40.31 195.578 41.262 195.578 42.648ZM198.042 45H196.642V38H198.042V45ZM192.778 41.486H191.336V43.824H192.778C193.73 43.824 194.178 43.39 194.178 42.634C194.178 41.864 193.73 41.486 192.778 41.486ZM205.064 40.786C204.924 39.722 204.07 39.148 203.062 39.148C201.872 39.148 200.976 40.086 200.976 41.5C200.976 42.914 201.872 43.852 203.062 43.852C204.084 43.852 204.952 43.222 205.092 42.06H206.548C206.436 43.908 204.966 45.14 203.062 45.14C201.06 45.14 199.576 43.642 199.576 41.5C199.576 39.358 201.06 37.86 203.062 37.86C204.91 37.86 206.352 39.036 206.52 40.786H205.064ZM207.831 40.128C207.831 38.602 209.007 38 210.407 38H213.417V45H212.017V41.934H212.003L208.979 45H207.341L210.085 42.284C208.909 42.214 207.831 41.486 207.831 40.128ZM210.645 41.29H212.017V39.064H210.645C209.763 39.064 209.231 39.428 209.231 40.142C209.231 40.94 209.763 41.29 210.645 41.29ZM219.605 41.136V38H221.005V45H219.605V42.396C219.213 42.522 218.611 42.592 218.121 42.592C216.063 42.592 215.055 41.71 215.055 39.596V38H216.455V39.582C216.455 40.842 217.085 41.304 218.233 41.304C218.919 41.304 219.339 41.206 219.605 41.136Z" fill="black" fill-opacity="0.48"/>
<path d="M202.25 53.3333C200.777 53.3333 199.583 54.5272 199.583 56C199.583 57.4728 200.777 58.6667 202.25 58.6667C203.723 58.6667 204.917 57.4728 204.917 56C204.917 54.5272 203.723 53.3333 202.25 53.3333ZM201.75 100C201.75 100.276 201.974 100.5 202.25 100.5C202.526 100.5 202.75 100.276 202.75 100H202.25H201.75ZM202.25 56H201.75V100H202.25H202.75V56H202.25Z" fill="#FF9E00"/>
<rect x="167" y="108" width="70.5" height="54" rx="8" fill="#FFB53D"/>
<path d="M186.753 146.368V148H183.553V146.912C183.553 137.504 186.305 132.8 189.441 126.944H179.841V124H192.065V128C188.961 134.016 186.753 137.6 186.753 146.368ZM194.074 140.48C194.074 137.888 195.482 136.096 197.562 135.2C195.898 134.336 194.778 132.768 194.778 130.528V129.376C194.778 125.664 197.53 123.68 200.954 123.68C204.378 123.68 207.13 125.664 207.13 129.376V130.528C207.13 132.768 206.01 134.336 204.346 135.2C206.426 136.096 207.834 137.888 207.834 140.48V141.888C207.834 146.08 204.762 148.32 200.954 148.32C197.146 148.32 194.074 146.08 194.074 141.888V140.48ZM197.978 129.664V130.496C197.978 132.8 199.162 133.792 200.954 133.792C202.778 133.792 203.93 132.8 203.93 130.496V129.664C203.93 127.52 202.714 126.624 200.954 126.624C199.226 126.624 197.978 127.52 197.978 129.664ZM197.274 140.512V141.6C197.274 144.224 198.746 145.376 200.954 145.376C203.194 145.376 204.634 144.224 204.634 141.6V140.512C204.634 137.824 203.194 136.736 200.954 136.736C198.746 136.736 197.274 137.824 197.274 140.512ZM210.306 140.64L216.738 124H221.57V140.64H224.642V143.584H221.57V148H218.37V143.584H210.306V140.64ZM212.962 140.64H218.37V126.496L212.962 140.64Z" fill="white"/>
<path d="M185.246 203.243L185.246 201.843L185.806 201.843C188.2 201.843 189.39 203.005 189.39 204.937C189.39 206.869 188.2 208.031 185.806 208.031L182.194 208.031C179.8 208.031 178.61 206.869 178.61 204.937C178.61 203.005 179.8 201.843 182.194 201.843L182.614 201.843L182.614 203.243L182.194 203.243C180.514 203.243 179.898 203.873 179.898 204.937C179.898 205.987 180.514 206.631 182.194 206.631L185.806 206.631C187.486 206.631 188.102 206.001 188.102 204.937C188.102 203.887 187.486 203.243 185.806 203.243L185.246 203.243ZM189.39 196.897C189.39 198.927 187.892 200.439 185.75 200.439C183.608 200.439 182.11 198.927 182.11 196.897C182.11 194.867 183.608 193.355 185.75 193.355C187.892 193.355 189.39 194.867 189.39 196.897ZM188.102 196.897C188.102 195.679 187.164 194.755 185.75 194.755C184.336 194.755 183.398 195.679 183.398 196.897C183.398 198.115 184.336 199.039 185.75 199.039C187.164 199.039 188.102 198.115 188.102 196.897ZM189.25 189.189L189.25 190.589L183.538 190.589L183.538 192.857L182.25 192.857L182.25 186.921L183.538 186.921L183.538 189.189L189.25 189.189ZM189.25 184.248L189.25 185.648L182.25 185.648L182.25 184.248L185.078 184.248L185.078 180.888L182.25 180.888L182.25 179.488L189.25 179.488L189.25 180.888L186.352 180.888L186.352 184.248L189.25 184.248ZM189.25 171.103L189.25 172.447L183.664 172.447L189.25 175.653L189.25 177.431L182.25 177.431L182.25 176.087L187.836 176.087L182.25 172.881L182.25 171.103L189.25 171.103Z" fill="black" fill-opacity="0.48"/>
<path d="M209.14 224.503L205.962 224.503L205.962 223.761C204.856 223.187 203.302 222.977 196.75 223.019L196.75 217.503L205.962 217.503L205.962 216.523L209.14 216.523L209.14 217.811L207.25 217.811L207.25 223.215L209.14 223.215L209.14 224.503ZM204.646 222.039C205.164 222.137 205.57 222.235 205.962 222.431L205.962 218.903L198.038 218.903L198.038 221.731C201.944 221.745 203.512 221.829 204.646 222.039ZM204.226 208.749L204.226 214.237C205.444 214.069 206.158 213.285 206.158 212.109C206.158 211.255 205.78 210.695 205.15 210.415L205.15 208.903C206.592 209.337 207.39 210.555 207.39 212.165C207.39 214.153 205.892 215.609 203.75 215.609C201.608 215.609 200.11 214.153 200.11 212.165C200.11 210.177 201.608 208.721 203.75 208.721C203.918 208.721 204.072 208.735 204.226 208.749ZM201.342 212.165C201.342 213.299 202.042 214.055 203.218 214.223L203.218 210.107C202.042 210.275 201.342 211.045 201.342 212.165ZM203.036 202.206C201.972 202.346 201.398 203.2 201.398 204.208C201.398 205.398 202.336 206.294 203.75 206.294C205.164 206.294 206.102 205.398 206.102 204.208C206.102 203.186 205.472 202.318 204.31 202.178L204.31 200.722C206.158 200.834 207.39 202.304 207.39 204.208C207.39 206.21 205.892 207.694 203.75 207.694C201.608 207.694 200.11 206.21 200.11 204.208C200.11 202.36 201.286 200.918 203.036 200.75L203.036 202.206ZM202.378 199.439C200.852 199.439 200.25 198.263 200.25 196.863L200.25 193.853L207.25 193.853L207.25 195.253L204.184 195.253L204.184 195.267L207.25 198.291L207.25 199.929L204.534 197.185C204.464 198.361 203.736 199.439 202.378 199.439ZM203.54 196.625L203.54 195.253L201.314 195.253L201.314 196.625C201.314 197.507 201.678 198.039 202.392 198.039C203.19 198.039 203.54 197.507 203.54 196.625ZM207.25 188.911L207.25 190.311L201.538 190.311L201.538 192.579L200.25 192.579L200.25 186.643L201.538 186.643L201.538 188.911L207.25 188.911ZM200.25 183.97L203.358 183.97L200.25 180.96L200.25 179.098L203.442 182.388L207.25 178.846L207.25 180.624L203.568 183.97L207.25 183.97L207.25 185.37L200.25 185.37L200.25 183.97ZM207.25 171.331L207.25 172.675L201.664 172.675L207.25 175.881L207.25 177.659L200.25 177.659L200.25 176.315L205.836 176.315L200.25 173.109L200.25 171.331L207.25 171.331Z" fill="black" fill-opacity="0.48"/>
<path d="M223.962 222.86L225.25 222.86L225.25 227.564L214.75 227.564L214.75 222.86L216.038 222.86L216.038 226.164L219.202 226.164L219.202 223.14L220.49 223.14L220.49 226.164L223.962 226.164L223.962 222.86ZM223.962 222.004L223.962 221.318C223.304 220.968 222.352 220.688 218.25 220.66L218.25 215.27L223.962 215.27L223.962 214.29L227.14 214.29L227.14 215.578L225.25 215.578L225.25 220.716L227.14 220.716L227.14 222.004L223.962 222.004ZM222.296 219.54C223.108 219.652 223.612 219.764 223.962 219.904L223.962 216.67L219.538 216.67L219.538 219.386C220.798 219.4 221.666 219.456 222.296 219.54ZM225.25 206.553L225.25 207.897L219.664 207.897L225.25 211.103L225.25 212.881L218.25 212.881L218.25 211.537L223.836 211.537L218.25 208.331L218.25 206.553L225.25 206.553ZM225.25 203.1L225.25 204.5L218.25 204.5L218.25 203.1L221.078 203.1L221.078 199.74L218.25 199.74L218.25 198.34L225.25 198.34L225.25 199.74L222.352 199.74L222.352 203.1L225.25 203.1ZM225.25 189.956L225.25 191.3L219.664 191.3L225.25 194.506L225.25 196.284L218.25 196.284L218.25 194.94L223.836 194.94L218.25 191.734L218.25 189.956L225.25 189.956ZM218.25 186.503L223.962 186.503L223.962 183.339L218.25 183.339L218.25 181.939L223.962 181.939L223.962 180.959L227.14 180.959L227.14 182.247L225.25 182.247L225.25 187.903L218.25 187.903L218.25 186.503ZM222.898 173.894C224.284 173.894 225.25 174.818 225.25 176.568L225.25 179.536L218.25 179.536L218.25 178.136L220.56 178.136L220.56 176.582C220.56 174.888 221.512 173.894 222.898 173.894ZM225.25 171.43L225.25 172.83L218.25 172.83L218.25 171.43L225.25 171.43ZM221.736 176.694L221.736 178.136L224.074 178.136L224.074 176.694C224.074 175.742 223.64 175.294 222.884 175.294C222.114 175.294 221.736 175.742 221.736 176.694Z" fill="black" fill-opacity="0.48"/>
<path d="M258.118 2.5V7.61L261.184 2.5H262.724L259.574 7.526L262.892 13H261.212L258.118 7.834V13H256.718V2.5H258.118ZM269.895 13H268.495V7.288H265.989C265.961 8.926 265.891 10.032 265.779 10.788C265.485 12.538 264.869 13 263.749 13H263.497V11.712H263.609C263.987 11.712 264.295 11.488 264.435 10.956C264.603 10.354 264.701 9.15 264.715 6H269.895V13ZM273.964 13.14C272.718 13.14 271.584 12.538 271.584 11.152C271.584 8.128 276.302 9.64 276.302 8.044C276.302 7.358 275.644 6.98 274.79 6.98C273.88 6.98 273.25 7.442 273.25 8.352H271.794C271.794 6.546 273.25 5.86 274.79 5.86C276.302 5.86 277.702 6.476 277.702 8.1V13H276.33V11.824C275.868 12.748 274.972 13.14 273.964 13.14ZM273.012 11.068C273.012 11.67 273.53 11.964 274.244 11.964C275.322 11.964 276.33 11.334 276.33 10.116V9.612C275.14 10.186 273.012 9.892 273.012 11.068ZM284.602 8.786C284.462 7.722 283.608 7.148 282.6 7.148C281.41 7.148 280.514 8.086 280.514 9.5C280.514 10.914 281.41 11.852 282.6 11.852C283.622 11.852 284.49 11.222 284.63 10.06H286.086C285.974 11.908 284.504 13.14 282.6 13.14C280.598 13.14 279.114 11.642 279.114 9.5C279.114 7.358 280.598 5.86 282.6 5.86C284.448 5.86 285.89 7.036 286.058 8.786H284.602ZM292.599 8.786C292.459 7.722 291.605 7.148 290.597 7.148C289.407 7.148 288.511 8.086 288.511 9.5C288.511 10.914 289.407 11.852 290.597 11.852C291.619 11.852 292.487 11.222 292.627 10.06H294.083C293.971 11.908 292.501 13.14 290.597 13.14C288.595 13.14 287.111 11.642 287.111 9.5C287.111 7.358 288.595 5.86 290.597 5.86C292.445 5.86 293.887 7.036 294.055 8.786H292.599ZM259.321 25.976H253.833C254.001 27.194 254.785 27.908 255.961 27.908C256.815 27.908 257.375 27.53 257.655 26.9H259.167C258.733 28.342 257.515 29.14 255.905 29.14C253.917 29.14 252.461 27.642 252.461 25.5C252.461 23.358 253.917 21.86 255.905 21.86C257.893 21.86 259.349 23.358 259.349 25.5C259.349 25.668 259.335 25.822 259.321 25.976ZM255.905 23.092C254.771 23.092 254.015 23.792 253.847 24.968H257.963C257.795 23.792 257.025 23.092 255.905 23.092ZM260.111 27.712H260.797C261.147 27.054 261.427 26.102 261.455 22H266.845V27.712H267.825V30.89H266.537V29H261.399V30.89H260.111V27.712ZM262.575 26.046C262.463 26.858 262.351 27.362 262.211 27.712H265.445V23.288H262.729C262.715 24.548 262.659 25.416 262.575 26.046ZM275.562 29H274.218V23.414L271.012 29H269.234V22H270.578V27.586L273.784 22H275.562V29ZM279.015 29H277.615V22H279.015V24.828H282.375V22H283.775V29H282.375V26.102H279.015V29ZM292.159 29H290.815V23.414L287.609 29H285.831V22H287.175V27.586L290.381 22H292.159V29ZM295.612 22V27.712H298.776V22H300.176V27.712H301.156V30.89H299.868V29H294.212V22H295.612Z" fill="black" fill-opacity="0.48"/>
<path d="M276.75 37.3333C275.277 37.3333 274.083 38.5272 274.083 40C274.083 41.4728 275.277 42.6667 276.75 42.6667C278.223 42.6667 279.417 41.4728 279.417 40C279.417 38.5272 278.223 37.3333 276.75 37.3333ZM276.25 100C276.25 100.276 276.474 100.5 276.75 100.5C277.026 100.5 277.25 100.276 277.25 100H276.75H276.25ZM276.75 40H276.25V100H276.75H277.25V40H276.75Z" fill="#FF9E00"/>
<rect x="241.5" y="108" width="70.5" height="54" rx="8" fill="#FFC870"/>
<path d="M266.051 130.368C266.051 136.992 257.795 139.84 256.963 145.056H266.371V148H253.507V146.4C253.507 138.784 262.851 136.224 262.851 130.368C262.851 127.712 261.603 126.624 259.907 126.624C258.115 126.624 256.899 127.648 256.899 130.656V132.512H253.699V130.4C253.699 125.92 256.451 123.68 259.907 123.68C263.299 123.68 266.051 125.952 266.051 130.368ZM279.654 140.448V136.416C278.63 138.208 277.062 138.912 275.27 138.912C271.974 138.912 269.35 136.48 269.35 131.616V130.976C269.35 126.208 272.262 123.68 276.102 123.68C279.942 123.68 282.854 126.304 282.854 131.296V140.704C282.854 145.696 279.942 148.32 276.102 148.32C272.422 148.32 269.606 145.952 269.606 141.472V140.928H272.806V141.216C272.806 144.16 274.054 145.376 276.102 145.376C278.246 145.376 279.654 143.968 279.654 140.448ZM279.654 131.584V131.008C279.654 127.904 278.278 126.624 276.102 126.624C273.926 126.624 272.55 127.936 272.55 131.008V131.584C272.55 134.72 273.862 135.968 276.102 135.968C278.278 135.968 279.654 134.72 279.654 131.584ZM289.727 131.552V135.584C290.752 133.792 292.319 133.088 294.112 133.088C297.408 133.088 300.032 135.52 300.032 140.384V141.024C300.032 145.792 297.12 148.32 293.28 148.32C289.439 148.32 286.527 145.696 286.527 140.704V131.296C286.527 126.304 289.439 123.68 293.28 123.68C296.96 123.68 299.776 126.048 299.776 130.528V131.072H296.576V130.784C296.576 127.84 295.328 126.624 293.28 126.624C291.135 126.624 289.727 128.032 289.727 131.552ZM289.727 140.416V140.992C289.727 144.096 291.104 145.376 293.28 145.376C295.456 145.376 296.832 144.064 296.832 140.992V140.416C296.832 137.28 295.52 136.032 293.28 136.032C291.104 136.032 289.727 137.28 289.727 140.416Z" fill="white"/>
<path d="M259.746 203.243L259.746 201.843L260.306 201.843C262.7 201.843 263.89 203.005 263.89 204.937C263.89 206.869 262.7 208.031 260.306 208.031L256.694 208.031C254.3 208.031 253.11 206.869 253.11 204.937C253.11 203.005 254.3 201.843 256.694 201.843L257.114 201.843L257.114 203.243L256.694 203.243C255.014 203.243 254.398 203.873 254.398 204.937C254.398 205.987 255.014 206.631 256.694 206.631L260.306 206.631C261.986 206.631 262.602 206.001 262.602 204.937C262.602 203.887 261.986 203.243 260.306 203.243L259.746 203.243ZM263.89 196.897C263.89 198.927 262.392 200.439 260.25 200.439C258.108 200.439 256.61 198.927 256.61 196.897C256.61 194.867 258.108 193.355 260.25 193.355C262.392 193.355 263.89 194.867 263.89 196.897ZM262.602 196.897C262.602 195.679 261.664 194.755 260.25 194.755C258.836 194.755 257.898 195.679 257.898 196.897C257.898 198.115 258.836 199.039 260.25 199.039C261.664 199.039 262.602 198.115 262.602 196.897ZM263.75 189.189L263.75 190.589L258.038 190.589L258.038 192.857L256.75 192.857L256.75 186.921L258.038 186.921L258.038 189.189L263.75 189.189ZM263.75 184.248L263.75 185.648L256.75 185.648L256.75 184.248L259.578 184.248L259.578 180.888L256.75 180.888L256.75 179.488L263.75 179.488L263.75 180.888L260.852 180.888L260.852 184.248L263.75 184.248ZM263.75 171.103L263.75 172.447L258.164 172.447L263.75 175.653L263.75 177.431L256.75 177.431L256.75 176.087L262.336 176.087L256.75 172.881L256.75 171.103L263.75 171.103Z" fill="black" fill-opacity="0.48"/>
<path d="M283.64 224.503L280.462 224.503L280.462 223.761C279.356 223.187 277.802 222.977 271.25 223.019L271.25 217.503L280.462 217.503L280.462 216.523L283.64 216.523L283.64 217.811L281.75 217.811L281.75 223.215L283.64 223.215L283.64 224.503ZM279.146 222.039C279.664 222.137 280.07 222.235 280.462 222.431L280.462 218.903L272.538 218.903L272.538 221.731C276.444 221.745 278.012 221.829 279.146 222.039ZM278.726 208.749L278.726 214.237C279.944 214.069 280.658 213.285 280.658 212.109C280.658 211.255 280.28 210.695 279.65 210.415L279.65 208.903C281.092 209.337 281.89 210.555 281.89 212.165C281.89 214.153 280.392 215.609 278.25 215.609C276.108 215.609 274.61 214.153 274.61 212.165C274.61 210.177 276.108 208.721 278.25 208.721C278.418 208.721 278.572 208.735 278.726 208.749ZM275.842 212.165C275.842 213.299 276.542 214.055 277.718 214.223L277.718 210.107C276.542 210.275 275.842 211.045 275.842 212.165ZM277.536 202.206C276.472 202.346 275.898 203.2 275.898 204.208C275.898 205.398 276.836 206.294 278.25 206.294C279.664 206.294 280.602 205.398 280.602 204.208C280.602 203.186 279.972 202.318 278.81 202.178L278.81 200.722C280.658 200.834 281.89 202.304 281.89 204.208C281.89 206.21 280.392 207.694 278.25 207.694C276.108 207.694 274.61 206.21 274.61 204.208C274.61 202.36 275.786 200.918 277.536 200.75L277.536 202.206ZM276.878 199.439C275.352 199.439 274.75 198.263 274.75 196.863L274.75 193.853L281.75 193.853L281.75 195.253L278.684 195.253L278.684 195.267L281.75 198.291L281.75 199.929L279.034 197.185C278.964 198.361 278.236 199.439 276.878 199.439ZM278.04 196.625L278.04 195.253L275.814 195.253L275.814 196.625C275.814 197.507 276.178 198.039 276.892 198.039C277.69 198.039 278.04 197.507 278.04 196.625ZM281.75 188.911L281.75 190.311L276.038 190.311L276.038 192.579L274.75 192.579L274.75 186.643L276.038 186.643L276.038 188.911L281.75 188.911ZM274.75 183.97L277.858 183.97L274.75 180.96L274.75 179.098L277.942 182.388L281.75 178.846L281.75 180.624L278.068 183.97L281.75 183.97L281.75 185.37L274.75 185.37L274.75 183.97ZM281.75 171.331L281.75 172.675L276.164 172.675L281.75 175.881L281.75 177.659L274.75 177.659L274.75 176.315L280.336 176.315L274.75 173.109L274.75 171.331L281.75 171.331Z" fill="black" fill-opacity="0.48"/>
<path d="M298.462 222.86L299.75 222.86L299.75 227.564L289.25 227.564L289.25 222.86L290.538 222.86L290.538 226.164L293.702 226.164L293.702 223.14L294.99 223.14L294.99 226.164L298.462 226.164L298.462 222.86ZM298.462 222.004L298.462 221.318C297.804 220.968 296.852 220.688 292.75 220.66L292.75 215.27L298.462 215.27L298.462 214.29L301.64 214.29L301.64 215.578L299.75 215.578L299.75 220.716L301.64 220.716L301.64 222.004L298.462 222.004ZM296.796 219.54C297.608 219.652 298.112 219.764 298.462 219.904L298.462 216.67L294.038 216.67L294.038 219.386C295.298 219.4 296.166 219.456 296.796 219.54ZM299.75 206.553L299.75 207.897L294.164 207.897L299.75 211.103L299.75 212.881L292.75 212.881L292.75 211.537L298.336 211.537L292.75 208.331L292.75 206.553L299.75 206.553ZM299.75 203.1L299.75 204.5L292.75 204.5L292.75 203.1L295.578 203.1L295.578 199.74L292.75 199.74L292.75 198.34L299.75 198.34L299.75 199.74L296.852 199.74L296.852 203.1L299.75 203.1ZM299.75 189.956L299.75 191.3L294.164 191.3L299.75 194.506L299.75 196.284L292.75 196.284L292.75 194.94L298.336 194.94L292.75 191.734L292.75 189.956L299.75 189.956ZM292.75 186.503L298.462 186.503L298.462 183.339L292.75 183.339L292.75 181.939L298.462 181.939L298.462 180.959L301.64 180.959L301.64 182.247L299.75 182.247L299.75 187.903L292.75 187.903L292.75 186.503ZM297.398 173.894C298.784 173.894 299.75 174.818 299.75 176.568L299.75 179.536L292.75 179.536L292.75 178.136L295.06 178.136L295.06 176.582C295.06 174.888 296.012 173.894 297.398 173.894ZM299.75 171.43L299.75 172.83L292.75 172.83L292.75 171.43L299.75 171.43ZM296.236 176.694L296.236 178.136L298.574 178.136L298.574 176.694C298.574 175.742 298.14 175.294 297.384 175.294C296.614 175.294 296.236 175.742 296.236 176.694Z" fill="black" fill-opacity="0.48"/>
</svg>
