<svg width="312" height="98" viewBox="0 0 312 98" fill="none" xmlns="http://www.w3.org/2000/svg">
<path d="M4.75052 10.326C4.24652 12.118 3.70052 13.14 2.31452 13.14C1.92252 13.14 1.54452 13.07 1.27852 12.986V11.74C1.58652 11.824 1.79652 11.852 2.06252 11.852C2.55252 11.852 2.88852 11.698 3.16852 11.166L0.424515 2.5H1.86652L3.81252 9.192L5.59052 2.5H7.00452L4.75052 10.326ZM12.6167 13H11.0487L9.10266 6.952V13H7.81466V6H10.1807L11.9167 11.768L13.6527 6H15.9767V13H14.5767V6.952L12.6167 13ZM24.3829 9.976H18.8949C19.0629 11.194 19.8469 11.908 21.0229 11.908C21.8769 11.908 22.4369 11.53 22.7169 10.9H24.2289C23.7949 12.342 22.5769 13.14 20.9669 13.14C18.9789 13.14 17.5229 11.642 17.5229 9.5C17.5229 7.358 18.9789 5.86 20.9669 5.86C22.9549 5.86 24.4109 7.358 24.4109 9.5C24.4109 9.668 24.3969 9.822 24.3829 9.976ZM20.9669 7.092C19.8329 7.092 19.0769 7.792 18.9089 8.968H23.0249C22.8569 7.792 22.0869 7.092 20.9669 7.092ZM27.3566 13H25.9566V6H27.3566V8.828H30.7166V6H32.1166V13H30.7166V10.102H27.3566V13ZM39.815 10.648C39.815 12.034 38.891 13 37.141 13H34.173V6H35.573V8.31H37.127C38.821 8.31 39.815 9.262 39.815 10.648ZM37.015 9.486H35.573V11.824H37.015C37.967 11.824 38.415 11.39 38.415 10.634C38.415 9.864 37.967 9.486 37.015 9.486ZM42.8078 6V11.712H45.3558V6H46.7558V11.712H49.4158V6H50.8158V13H41.2958V6H42.8078ZM54.8915 13.14C53.6455 13.14 52.5115 12.538 52.5115 11.152C52.5115 8.128 57.2295 9.64 57.2295 8.044C57.2295 7.358 56.5715 6.98 55.7175 6.98C54.8075 6.98 54.1775 7.442 54.1775 8.352H52.7215C52.7215 6.546 54.1775 5.86 55.7175 5.86C57.2295 5.86 58.6295 6.476 58.6295 8.1V13H57.2575V11.824C56.7955 12.748 55.8995 13.14 54.8915 13.14ZM53.9395 11.068C53.9395 11.67 54.4575 11.964 55.1715 11.964C56.2495 11.964 57.2575 11.334 57.2575 10.116V9.612C56.0675 10.186 53.9395 9.892 53.9395 11.068ZM66.9008 9.976H61.4128C61.5808 11.194 62.3648 11.908 63.5408 11.908C64.3948 11.908 64.9548 11.53 65.2348 10.9H66.7468C66.3128 12.342 65.0948 13.14 63.4848 13.14C61.4968 13.14 60.0408 11.642 60.0408 9.5C60.0408 7.358 61.4968 5.86 63.4848 5.86C65.4728 5.86 66.9288 7.358 66.9288 9.5C66.9288 9.668 66.9148 9.822 66.9008 9.976ZM63.4848 7.092C62.3508 7.092 61.5948 7.792 61.4268 8.968H65.5428C65.3748 7.792 64.6048 7.092 63.4848 7.092ZM73.2765 13H71.7085L69.7625 6.952V13H68.4745V6H70.8405L72.5765 11.768L74.3125 6H76.6365V13H75.2365V6.952L73.2765 13ZM81.7247 13.14C79.6947 13.14 78.1827 11.642 78.1827 9.5C78.1827 7.358 79.6947 5.86 81.7247 5.86C83.7547 5.86 85.2667 7.358 85.2667 9.5C85.2667 11.642 83.7547 13.14 81.7247 13.14ZM81.7247 11.852C82.9427 11.852 83.8667 10.914 83.8667 9.5C83.8667 8.086 82.9427 7.148 81.7247 7.148C80.5067 7.148 79.5827 8.086 79.5827 9.5C79.5827 10.914 80.5067 11.852 81.7247 11.852ZM93.1498 9.976H87.6618C87.8298 11.194 88.6138 11.908 89.7898 11.908C90.6438 11.908 91.2038 11.53 91.4838 10.9H92.9958C92.5618 12.342 91.3438 13.14 89.7338 13.14C87.7458 13.14 86.2898 11.642 86.2898 9.5C86.2898 7.358 87.7458 5.86 89.7338 5.86C91.7218 5.86 93.1778 7.358 93.1778 9.5C93.1778 9.668 93.1638 9.822 93.1498 9.976ZM89.7338 7.092C88.5998 7.092 87.8438 7.792 87.6758 8.968H91.7918C91.6238 7.792 90.8538 7.092 89.7338 7.092Z" fill="black" fill-opacity="0.48"/>
<path d="M116.029 13V2.5H118.899C120.621 2.5 121.797 3.396 121.797 5.076V5.216C121.797 6.294 121.279 6.966 120.453 7.33C121.433 7.708 122.077 8.52 122.077 9.78V10.06C122.077 11.964 120.901 13 119.179 13H116.029ZM118.759 3.788H117.429V6.854H118.787C119.781 6.854 120.397 6.42 120.397 5.328V5.188C120.397 4.208 119.809 3.788 118.759 3.788ZM119.039 8.128H117.429V11.712H119.039C120.089 11.712 120.677 11.18 120.677 9.934V9.794C120.677 8.59 120.061 8.128 119.039 8.128ZM129.354 10.648C129.354 12.034 128.43 13 126.68 13H123.712V6H125.112V8.31H126.666C128.36 8.31 129.354 9.262 129.354 10.648ZM131.818 13H130.418V6H131.818V13ZM126.554 9.486H125.112V11.824H126.554C127.506 11.824 127.954 11.39 127.954 10.634C127.954 9.864 127.506 9.486 126.554 9.486ZM138.001 9.136V6H139.401V13H138.001V10.396C137.609 10.522 137.007 10.592 136.517 10.592C134.459 10.592 133.451 9.71 133.451 7.596V6H134.851V7.582C134.851 8.842 135.481 9.304 136.629 9.304C137.315 9.304 137.735 9.206 138.001 9.136ZM147.772 13H146.428V7.414L143.222 13H141.444V6H142.788V11.586L145.994 6H147.772V13ZM152.708 13H151.308V7.288H149.04V6H154.976V7.288H152.708V13ZM158.197 13.14C156.951 13.14 155.817 12.538 155.817 11.152C155.817 8.128 160.535 9.64 160.535 8.044C160.535 7.358 159.877 6.98 159.023 6.98C158.113 6.98 157.483 7.442 157.483 8.352H156.027C156.027 6.546 157.483 5.86 159.023 5.86C160.535 5.86 161.935 6.476 161.935 8.1V13H160.563V11.824C160.101 12.748 159.205 13.14 158.197 13.14ZM157.245 11.068C157.245 11.67 157.763 11.964 158.477 11.964C159.555 11.964 160.563 11.334 160.563 10.116V9.612C159.373 10.186 157.245 9.892 157.245 11.068ZM170.207 9.976H164.719C164.887 11.194 165.671 11.908 166.847 11.908C167.701 11.908 168.261 11.53 168.541 10.9H170.053C169.619 12.342 168.401 13.14 166.791 13.14C164.803 13.14 163.347 11.642 163.347 9.5C163.347 7.358 164.803 5.86 166.791 5.86C168.779 5.86 170.235 7.358 170.235 9.5C170.235 9.668 170.221 9.822 170.207 9.976ZM166.791 7.092C165.657 7.092 164.901 7.792 164.733 8.968H168.849C168.681 7.792 167.911 7.092 166.791 7.092ZM176.582 13H175.014L173.068 6.952V13H171.78V6H174.146L175.882 11.768L177.618 6H179.942V13H178.542V6.952L176.582 13ZM185.031 13.14C183.001 13.14 181.489 11.642 181.489 9.5C181.489 7.358 183.001 5.86 185.031 5.86C187.061 5.86 188.573 7.358 188.573 9.5C188.573 11.642 187.061 13.14 185.031 13.14ZM185.031 11.852C186.249 11.852 187.173 10.914 187.173 9.5C187.173 8.086 186.249 7.148 185.031 7.148C183.813 7.148 182.889 8.086 182.889 9.5C182.889 10.914 183.813 11.852 185.031 11.852ZM196.456 9.976H190.968C191.136 11.194 191.92 11.908 193.096 11.908C193.95 11.908 194.51 11.53 194.79 10.9H196.302C195.868 12.342 194.65 13.14 193.04 13.14C191.052 13.14 189.596 11.642 189.596 9.5C189.596 7.358 191.052 5.86 193.04 5.86C195.028 5.86 196.484 7.358 196.484 9.5C196.484 9.668 196.47 9.822 196.456 9.976ZM193.04 7.092C191.906 7.092 191.15 7.792 190.982 8.968H195.098C194.93 7.792 194.16 7.092 193.04 7.092Z" fill="black" fill-opacity="0.48"/>
<path d="M238.591 13H237.191V2.5H240.229C241.923 2.5 243.127 3.466 243.127 5.3V6.056C243.127 7.96 241.923 8.996 240.229 8.996H238.591V13ZM240.089 3.788H238.591V7.708H240.089C241.097 7.708 241.727 7.19 241.727 5.916V5.44C241.727 4.25 241.097 3.788 240.089 3.788ZM246.481 13.14C245.235 13.14 244.101 12.538 244.101 11.152C244.101 8.128 248.819 9.64 248.819 8.044C248.819 7.358 248.161 6.98 247.307 6.98C246.397 6.98 245.767 7.442 245.767 8.352H244.311C244.311 6.546 245.767 5.86 247.307 5.86C248.819 5.86 250.219 6.476 250.219 8.1V13H248.847V11.824C248.385 12.748 247.489 13.14 246.481 13.14ZM245.529 11.068C245.529 11.67 246.047 11.964 246.761 11.964C247.839 11.964 248.847 11.334 248.847 10.116V9.612C247.657 10.186 245.529 9.892 245.529 11.068ZM253.884 8.912H254.99C255.76 8.912 256.166 8.59 256.166 7.974C256.166 7.386 255.704 6.98 254.738 6.98C253.716 6.98 253.142 7.484 253.142 8.38H251.742C251.742 7.008 252.764 5.86 254.738 5.86C256.6 5.86 257.51 6.77 257.51 7.862C257.51 8.548 257.16 9.15 256.474 9.444C257.258 9.71 257.678 10.242 257.678 11.026C257.678 12.342 256.656 13.14 254.738 13.14C252.778 13.14 251.63 12.188 251.63 10.522H253.03C253.03 11.474 253.604 12.034 254.752 12.034C255.844 12.034 256.278 11.586 256.278 10.984C256.278 10.326 255.788 9.962 254.99 9.962H253.884V8.912ZM260.657 13H259.257V6H260.657V8.828H264.017V6H265.417V13H264.017V10.102H260.657V13ZM270.497 13.14C268.467 13.14 266.955 11.642 266.955 9.5C266.955 7.358 268.467 5.86 270.497 5.86C272.527 5.86 274.039 7.358 274.039 9.5C274.039 11.642 272.527 13.14 270.497 13.14ZM270.497 11.852C271.715 11.852 272.639 10.914 272.639 9.5C272.639 8.086 271.715 7.148 270.497 7.148C269.279 7.148 268.355 8.086 268.355 9.5C268.355 10.914 269.279 11.852 270.497 11.852ZM280.55 8.786C280.41 7.722 279.556 7.148 278.548 7.148C277.358 7.148 276.462 8.086 276.462 9.5C276.462 10.914 277.358 11.852 278.548 11.852C279.57 11.852 280.438 11.222 280.578 10.06H282.034C281.922 11.908 280.452 13.14 278.548 13.14C276.546 13.14 275.062 11.642 275.062 9.5C275.062 7.358 276.546 5.86 278.548 5.86C280.396 5.86 281.838 7.036 282.006 8.786H280.55ZM286.202 13H284.802V7.288H282.534V6H288.47V7.288H286.202V13ZM295.386 10.648C295.386 12.034 294.462 13 292.712 13H289.744V6H291.144V8.31H292.698C294.392 8.31 295.386 9.262 295.386 10.648ZM292.586 9.486H291.144V11.824H292.586C293.538 11.824 293.986 11.39 293.986 10.634C293.986 9.864 293.538 9.486 292.586 9.486Z" fill="black" fill-opacity="0.48"/>
<rect y="44" width="312" height="54" rx="12" fill="#F4F4F4"/>
<path d="M104.707 84.32C101.859 84.32 99.2674 82.944 99.2674 79.776C99.2674 72.864 110.051 76.32 110.051 72.672C110.051 71.104 108.547 70.24 106.595 70.24C104.515 70.24 103.075 71.296 103.075 73.376H99.7474C99.7474 69.248 103.075 67.68 106.595 67.68C110.051 67.68 113.251 69.088 113.251 72.8V84H110.115V81.312C109.059 83.424 107.011 84.32 104.707 84.32ZM102.531 79.584C102.531 80.96 103.715 81.632 105.347 81.632C107.811 81.632 110.115 80.192 110.115 77.408V76.256C107.395 77.568 102.531 76.896 102.531 79.584Z" fill="#00C1FF"/>
<path d="M124.268 75.392V73.216H137.068V75.392H124.268ZM174.635 72.192V70.016H187.435V72.192H174.635ZM174.635 78.592V76.416H187.435V78.592H174.635Z" fill="black"/>
<path d="M156.821 67.68C161.205 67.68 164.501 71.104 164.501 76C164.501 80.896 161.205 84.32 156.821 84.32C154.677 84.32 152.821 83.296 151.573 81.6V84H148.373V60H151.573V70.4C152.821 68.704 154.677 67.68 156.821 67.68ZM156.437 70.624C153.653 70.624 151.573 72.768 151.573 76C151.573 79.232 153.653 81.376 156.437 81.376C159.221 81.376 161.301 79.232 161.301 76C161.301 72.768 159.221 70.624 156.437 70.624Z" fill="#FF9E00"/>
<path d="M210.1 74.368C209.78 71.936 207.828 70.624 205.524 70.624C202.804 70.624 200.756 72.768 200.756 76C200.756 79.232 202.804 81.376 205.524 81.376C207.86 81.376 209.844 79.936 210.164 77.28H213.492C213.236 81.504 209.876 84.32 205.524 84.32C200.948 84.32 197.556 80.896 197.556 76C197.556 71.104 200.948 67.68 205.524 67.68C209.748 67.68 213.044 70.368 213.428 74.368H210.1Z" fill="#FF6D00"/>
<path d="M156 18.3333C154.527 18.3333 153.333 19.5272 153.333 21C153.333 22.4728 154.527 23.6667 156 23.6667C157.473 23.6667 158.667 22.4728 158.667 21C158.667 19.5272 157.473 18.3333 156 18.3333ZM155.5 58C155.5 58.2761 155.724 58.5 156 58.5C156.276 58.5 156.5 58.2761 156.5 58H156H155.5ZM156 21H155.5V58H156H156.5V21H156Z" fill="#FF9E00"/>
<path d="M44.5 18.3333C43.0272 18.3333 41.8333 19.5272 41.8333 21C41.8333 22.4728 43.0272 23.6667 44.5 23.6667C45.9728 23.6667 47.1667 22.4728 47.1667 21C47.1667 19.5272 45.9728 18.3333 44.5 18.3333ZM106.5 58C106.5 58.2761 106.724 58.5 107 58.5C107.276 58.5 107.5 58.2761 107.5 58H107H106.5ZM107 40H106.5V58H107H107.5V40H107ZM44.5 21H44V32H44.5H45V21H44.5ZM48.5 36V36.5H103V36V35.5H48.5V36ZM44.5 32H44C44 34.4853 46.0147 36.5 48.5 36.5V36V35.5C46.567 35.5 45 33.933 45 32H44.5ZM107 40H107.5C107.5 37.5147 105.485 35.5 103 35.5V36V36.5C104.933 36.5 106.5 38.067 106.5 40H107Z" fill="#00C1FF"/>
<path d="M266.5 18.3333C267.973 18.3333 269.167 19.5272 269.167 21C269.167 22.4728 267.973 23.6667 266.5 23.6667C265.027 23.6667 263.833 22.4728 263.833 21C263.833 19.5272 265.027 18.3333 266.5 18.3333ZM204.5 58C204.5 58.2761 204.276 58.5 204 58.5C203.724 58.5 203.5 58.2761 203.5 58H204H204.5ZM204 40H204.5V58H204H203.5V40H204ZM266.5 21H267V32H266.5H266V21H266.5ZM262.5 36V36.5H208V36V35.5H262.5V36ZM266.5 32H267C267 34.4853 264.985 36.5 262.5 36.5V36V35.5C264.433 35.5 266 33.933 266 32H266.5ZM204 40H203.5C203.5 37.5147 205.515 35.5 208 35.5V36V36.5C206.067 36.5 204.5 38.067 204.5 40H204Z" fill="#FF6D00"/>
</svg>
