<svg width="312" height="98" viewBox="0 0 312 98" fill="none" xmlns="http://www.w3.org/2000/svg">
<path d="M94.9021 8.996H96.3021V9.556C96.3021 11.95 95.1401 13.14 93.2081 13.14C91.2761 13.14 90.1141 11.95 90.1141 9.556V5.944C90.1141 3.55 91.2761 2.36 93.2081 2.36C95.1401 2.36 96.3021 3.55 96.3021 5.944V6.364H94.9021V5.944C94.9021 4.264 94.2721 3.648 93.2081 3.648C92.1581 3.648 91.5141 4.264 91.5141 5.944V9.556C91.5141 11.236 92.1441 11.852 93.2081 11.852C94.2581 11.852 94.9021 11.236 94.9021 9.556V8.996ZM103.882 13H102.482V7.288H99.9758C99.9478 8.926 99.8778 10.032 99.7658 10.788C99.4718 12.538 98.8558 13 97.7358 13H97.4838V11.712H97.5958C97.9738 11.712 98.2818 11.488 98.4218 10.956C98.5898 10.354 98.6878 9.15 98.7018 6H103.882V13ZM107.951 13.14C106.705 13.14 105.571 12.538 105.571 11.152C105.571 8.128 110.289 9.64 110.289 8.044C110.289 7.358 109.631 6.98 108.777 6.98C107.867 6.98 107.237 7.442 107.237 8.352H105.781C105.781 6.546 107.237 5.86 108.777 5.86C110.289 5.86 111.689 6.476 111.689 8.1V13H110.317V11.824C109.855 12.748 108.959 13.14 107.951 13.14ZM106.999 11.068C106.999 11.67 107.517 11.964 108.231 11.964C109.309 11.964 110.317 11.334 110.317 10.116V9.612C109.127 10.186 106.999 9.892 106.999 11.068ZM115.018 13H113.618V6H118.224V7.288H115.018V13ZM121.472 13.14C120.226 13.14 119.092 12.538 119.092 11.152C119.092 8.128 123.81 9.64 123.81 8.044C123.81 7.358 123.152 6.98 122.298 6.98C121.388 6.98 120.758 7.442 120.758 8.352H119.302C119.302 6.546 120.758 5.86 122.298 5.86C123.81 5.86 125.21 6.476 125.21 8.1V13H123.838V11.824C123.376 12.748 122.48 13.14 121.472 13.14ZM120.52 11.068C120.52 11.67 121.038 11.964 121.752 11.964C122.83 11.964 123.838 11.334 123.838 10.116V9.612C122.648 10.186 120.52 9.892 120.52 11.068ZM133.481 9.976H127.993C128.161 11.194 128.945 11.908 130.121 11.908C130.975 11.908 131.535 11.53 131.815 10.9H133.327C132.893 12.342 131.675 13.14 130.065 13.14C128.077 13.14 126.621 11.642 126.621 9.5C126.621 7.358 128.077 5.86 130.065 5.86C132.053 5.86 133.509 7.358 133.509 9.5C133.509 9.668 133.495 9.822 133.481 9.976ZM130.065 7.092C128.931 7.092 128.175 7.792 128.007 8.968H132.123C131.955 7.792 131.185 7.092 130.065 7.092ZM139.857 13H138.289L136.343 6.952V13H135.055V6H137.421L139.157 11.768L140.893 6H143.217V13H141.817V6.952L139.857 13ZM148.305 13.14C146.275 13.14 144.763 11.642 144.763 9.5C144.763 7.358 146.275 5.86 148.305 5.86C150.335 5.86 151.847 7.358 151.847 9.5C151.847 11.642 150.335 13.14 148.305 13.14ZM148.305 11.852C149.523 11.852 150.447 10.914 150.447 9.5C150.447 8.086 149.523 7.148 148.305 7.148C147.087 7.148 146.163 8.086 146.163 9.5C146.163 10.914 147.087 11.852 148.305 11.852ZM159.73 9.976H154.242C154.41 11.194 155.194 11.908 156.37 11.908C157.224 11.908 157.784 11.53 158.064 10.9H159.576C159.142 12.342 157.924 13.14 156.314 13.14C154.326 13.14 152.87 11.642 152.87 9.5C152.87 7.358 154.326 5.86 156.314 5.86C158.302 5.86 159.758 7.358 159.758 9.5C159.758 9.668 159.744 9.822 159.73 9.976ZM156.314 7.092C155.18 7.092 154.424 7.792 154.256 8.968H158.372C158.204 7.792 157.434 7.092 156.314 7.092Z" fill="black" fill-opacity="0.48"/>
<path d="M186.374 8.996H187.774V9.556C187.774 11.95 186.612 13.14 184.68 13.14C182.748 13.14 181.586 11.95 181.586 9.556V5.944C181.586 3.55 182.748 2.36 184.68 2.36C186.612 2.36 187.774 3.55 187.774 5.944V6.364H186.374V5.944C186.374 4.264 185.744 3.648 184.68 3.648C183.63 3.648 182.986 4.264 182.986 5.944V9.556C182.986 11.236 183.616 11.852 184.68 11.852C185.73 11.852 186.374 11.236 186.374 9.556V8.996ZM192.832 13.784C192.244 15.45 191.558 16.612 189.836 16.612C189.444 16.612 189.052 16.542 188.786 16.458V15.226C189.052 15.31 189.374 15.38 189.71 15.38C190.592 15.38 191.068 14.862 191.516 13.77L188.744 6H190.144L192.174 11.866L194.19 6H195.59L192.832 13.784ZM201.498 13H199.93L197.984 6.952V13H196.696V6H199.062L200.798 11.768L202.534 6H204.858V13H203.458V6.952L201.498 13ZM211.724 13H210.156L208.21 6.952V13H206.922V6H209.288L211.024 11.768L212.76 6H215.084V13H213.684V6.952L211.724 13ZM219.165 13.14C217.919 13.14 216.785 12.538 216.785 11.152C216.785 8.128 221.503 9.64 221.503 8.044C221.503 7.358 220.845 6.98 219.991 6.98C219.081 6.98 218.451 7.442 218.451 8.352H216.995C216.995 6.546 218.451 5.86 219.991 5.86C221.503 5.86 222.903 6.476 222.903 8.1V13H221.531V11.824C221.069 12.748 220.173 13.14 219.165 13.14ZM218.213 11.068C218.213 11.67 218.731 11.964 219.445 11.964C220.523 11.964 221.531 11.334 221.531 10.116V9.612C220.341 10.186 218.213 9.892 218.213 11.068Z" fill="black" fill-opacity="0.48"/>
<rect y="44" width="312" height="54" rx="12" fill="#F4F4F4"/>
<path d="M104.707 84.32C101.859 84.32 99.2674 82.944 99.2674 79.776C99.2674 72.864 110.051 76.32 110.051 72.672C110.051 71.104 108.547 70.24 106.595 70.24C104.515 70.24 103.075 71.296 103.075 73.376H99.7474C99.7474 69.248 103.075 67.68 106.595 67.68C110.051 67.68 113.251 69.088 113.251 72.8V84H110.115V81.312C109.059 83.424 107.011 84.32 104.707 84.32ZM102.531 79.584C102.531 80.96 103.715 81.632 105.347 81.632C107.811 81.632 110.115 80.192 110.115 77.408V76.256C107.395 77.568 102.531 76.896 102.531 79.584ZM156.821 67.68C161.205 67.68 164.501 71.104 164.501 76C164.501 80.896 161.205 84.32 156.821 84.32C154.677 84.32 152.821 83.296 151.573 81.6V84H148.373V60H151.573V70.4C152.821 68.704 154.677 67.68 156.821 67.68ZM156.437 70.624C153.653 70.624 151.573 72.768 151.573 76C151.573 79.232 153.653 81.376 156.437 81.376C159.221 81.376 161.301 79.232 161.301 76C161.301 72.768 159.221 70.624 156.437 70.624Z" fill="#FF9E00"/>
<path d="M129.516 80.928V75.392H124.268V73.216H129.516V67.68H131.82V73.216H137.068V75.392H131.82V80.928H129.516ZM174.635 72.192V70.016H187.435V72.192H174.635ZM174.635 78.592V76.416H187.435V78.592H174.635Z" fill="black"/>
<path d="M210.1 74.368C209.78 71.936 207.828 70.624 205.524 70.624C202.804 70.624 200.756 72.768 200.756 76C200.756 79.232 202.804 81.376 205.524 81.376C207.86 81.376 209.844 79.936 210.164 77.28H213.492C213.236 81.504 209.876 84.32 205.524 84.32C200.948 84.32 197.556 80.896 197.556 76C197.556 71.104 200.948 67.68 205.524 67.68C209.748 67.68 213.044 70.368 213.428 74.368H210.1Z" fill="#FF6D00"/>
<path d="M205 18.3333C203.527 18.3333 202.333 19.5272 202.333 21C202.333 22.4728 203.527 23.6667 205 23.6667C206.473 23.6667 207.667 22.4728 207.667 21C207.667 19.5272 206.473 18.3333 205 18.3333ZM204.5 58C204.5 58.2761 204.724 58.5 205 58.5C205.276 58.5 205.5 58.2761 205.5 58H205H204.5ZM205 21H204.5V58H205H205.5V21H205Z" fill="#FF6D00"/>
<path d="M128.75 18.8333C127.277 18.8333 126.083 20.0272 126.083 21.5C126.083 22.9728 127.277 24.1667 128.75 24.1667C130.223 24.1667 131.417 22.9728 131.417 21.5C131.417 20.0272 130.223 18.8333 128.75 18.8333ZM107.5 58C107.5 58.2761 107.724 58.5 108 58.5C108.276 58.5 108.5 58.2761 108.5 58L108 58L107.5 58ZM149 58C149 58.2761 149.224 58.5 149.5 58.5C149.776 58.5 150 58.2761 150 58L149.5 58L149 58ZM149.5 39L150 39L149.5 39ZM128.75 21.5L128.25 21.5L128.25 35L128.75 35L129.25 35L129.25 21.5L128.75 21.5ZM128.75 35L128.75 34.5L112 34.5L112 35L112 35.5L128.75 35.5L128.75 35ZM108 39L107.5 39L107.5 58L108 58L108.5 58L108.5 39L108 39ZM128.75 35L128.75 35.5L145.5 35.5L145.5 35L145.5 34.5L128.75 34.5L128.75 35ZM149.5 39L149 39L149 58L149.5 58L150 58L150 39L149.5 39ZM145.5 35L145.5 35.5C147.433 35.5 149 37.067 149 39L149.5 39L150 39C150 36.5147 147.985 34.5 145.5 34.5L145.5 35ZM112 35L112 34.5C109.515 34.5 107.5 36.5147 107.5 39L108 39L108.5 39C108.5 37.067 110.067 35.5 112 35.5L112 35Z" fill="#FF9E00"/>
</svg>
