<svg width="312" height="177" viewBox="0 0 312 177" fill="none" xmlns="http://www.w3.org/2000/svg">
<g clip-path="url(#clip0_277_7247)">
<path d="M199.049 19.889C202.924 14.0997 211.749 13.0718 216.816 17.9501C218.774 19.8532 220.219 22.5474 220.551 25.2646C222.179 25.6978 227.761 27.5399 228.34 29.1452C227.697 30.1315 222.433 31.4379 220.935 32.0134C223.691 34.4714 227.276 37.3312 227.651 41.299C227.8 42.9033 226.24 43.3016 225.02 43.3423C227.28 49.9406 232.022 56.4057 232.615 63.6058C232.66 64.1465 232.182 64.9666 232.16 65.6203C234.36 83.3037 226.757 96.5636 209.994 102.848C207.759 103.127 200.776 102.958 198.308 103.006C196.217 103.047 187.628 103.175 185.94 102.855C173.689 98.8361 166.156 88.0068 165.442 75.2883L165.579 73.8294C165.781 72.6203 165.87 72.3246 166.3 71.1708L167.005 69.918L167.604 69.199L168.565 68.6548C168.757 68.548 168.857 68.4337 169.024 68.284C169.059 66.7101 165.98 57.6782 165.172 56.0381C164.884 55.2762 164.523 54.4834 164.196 53.7324C162.018 48.6681 158.191 43.8249 152.942 41.7415C150.345 40.7202 147.534 40.357 144.761 40.6843C141.872 41.0407 139.756 42.1276 137.027 42.947C136.598 43.0758 136.529 42.9672 136.21 42.7979C135.912 42.0794 136.196 41.2616 136.503 40.5782C143.912 24.0493 166.813 27.1115 172.432 43.4423C175.015 50.9511 174.963 59.6628 172.774 67.3315C180.171 65.96 189.14 64.5162 193.667 57.656C193.66 56.1143 195.225 50.3468 195.472 47.7641C196.302 39.0772 193.936 27.2967 199.049 19.889Z" fill="#C68010"/>
<path d="M199.05 19.889C202.925 14.0997 211.75 13.0718 216.817 17.9501C218.775 19.8532 220.22 22.5474 220.552 25.2646C222.179 25.6978 227.762 27.5399 228.341 29.1452C227.698 30.1315 222.434 31.4379 220.936 32.0134C223.691 34.4714 227.277 37.3312 227.652 41.299C227.801 42.9033 226.241 43.3016 225.021 43.3423C227.281 49.9406 232.023 56.4057 232.616 63.6058C232.661 64.1465 232.183 64.9666 232.161 65.6203L232.01 65.2674C229.32 65.0147 229.667 64.9289 227.755 62.746C227.693 63.0678 227.623 63.3885 227.549 63.7076C226.73 67.1271 224.203 67.7564 221.881 65.0727C221.124 64.199 220.703 63.2032 220.195 62.1691C218.795 66.5943 215.996 68.9454 212.896 63.532C212.386 62.641 212.109 60.8097 211.89 59.7602C211.75 59.9984 211.61 60.2355 211.466 60.4712C210.313 62.3642 208.101 64.8607 205.626 63.2131C203.715 61.9417 203.394 59.216 203.053 57.113C200.562 59.7413 195.635 62.1942 193.668 57.656C193.661 56.1143 195.226 50.3468 195.473 47.7641C196.303 39.0772 193.936 27.2967 199.05 19.889Z" fill="#F0AB32"/>
<path d="M218.464 31.9653C219.461 32.2904 219.902 32.203 220.936 32.0134C223.691 34.4714 227.277 37.3312 227.652 41.299C227.801 42.9033 226.241 43.3016 225.02 43.3423C223.798 42.7716 223.498 42.6311 222.471 41.7281C222.268 43.2794 222.002 45.0306 220.319 45.7457C218.557 46.4941 216.817 44.4421 216.389 42.9088C215.387 39.3133 216.817 35.1606 218.464 31.9653Z" fill="#FB6D02"/>
<path d="M218.464 31.9653C216.497 29.4215 216.831 25.4832 220.552 25.2646C222.179 25.6978 227.762 27.5399 228.341 29.1452C227.698 30.1315 222.434 31.4379 220.936 32.0134C219.902 32.203 219.461 32.2904 218.464 31.9653Z" fill="#EE4C24"/>
<path d="M197.372 65.0075C204.921 64.3007 208.67 71.2607 207.364 77.8295C205.753 85.9351 198.056 91.8516 190.48 94.0939C189.264 94.4528 185.786 95.1102 185.535 92.9994C185.398 90.5688 188.109 87.7029 189.575 86.0168C187.692 87.2534 186.494 88.0618 184.421 88.9502C182.712 89.7515 177.465 91.5638 176.235 89.6733C174.324 86.731 180.539 82.6321 182.342 81.4239L181.894 81.5607C179.19 82.378 174.827 83.7017 172.172 82.1381C171.721 81.8734 171.332 81.4363 171.257 80.9015C171.191 80.4254 171.385 79.9101 171.659 79.5263C173.107 77.4793 189.973 67.7584 193.301 66.2249C194.643 65.6067 195.917 65.2494 197.372 65.0075Z" fill="#F0AB32"/>
<path d="M222.836 71.3826L223.379 71.5351C224.579 72.6052 223.88 75.478 223.337 76.7987C222.866 76.7509 222.864 76.7887 222.489 76.5137C221.97 75.1488 222.308 72.7011 222.836 71.3826Z" fill="#F0AB32"/>
<path d="M228.8 70.5513C230.426 71.6235 230.143 74.2533 229.271 75.7239C227.409 75.3469 228.203 71.671 228.8 70.5513Z" fill="#F0AB32"/>
<path d="M225.914 78.9365C227.588 80.134 226.08 82.9608 225.157 84.1708C224.768 83.9629 224.795 83.9558 224.528 83.5933C224.246 82.4082 225.332 79.9634 225.914 78.9365Z" fill="#F0AB32"/>
<path d="M218.787 78.3501C220.471 79.3576 219.007 82.1471 218.238 83.3695C217.76 83.2451 217.792 83.2575 217.455 82.8951C217.099 81.6851 218.187 79.4535 218.787 78.3501Z" fill="#F0AB32"/>
<path d="M216.147 70.9194C216.604 71.1571 216.57 71.1562 216.885 71.5708C217.235 73.0831 216.64 74.4658 215.847 75.7438C215.227 75.575 215.481 75.7324 215.055 75.257C214.715 73.9385 215.497 72.0666 216.147 70.9194Z" fill="#F0AB32"/>
<path d="M220.601 85.8302C222.546 86.4681 220.37 89.286 219.643 90.1104C217.573 89.7586 219.934 86.6973 220.601 85.8302Z" fill="#F0AB32"/>
<path d="M161.459 64.0437C161.129 63.0664 160.23 62.6165 159.505 61.9973C152.901 56.3458 144.003 55.4135 138.786 63.4311C138.056 64.5528 136.676 66.8741 135.666 67.6379C133.63 67.6239 134.496 59.6408 134.725 58.2913C137.556 41.6498 155.003 41.6041 163.652 54.0531L164.197 53.7324C164.524 54.4834 164.885 55.2762 165.173 56.0381C165.981 57.6782 169.06 66.7101 169.025 68.284C168.858 68.4337 168.758 68.548 168.566 68.6548L167.605 69.199L167.006 69.918L166.772 69.8734C166.01 68.0796 162.71 65.4246 161.459 64.0437Z" fill="#F0AB32"/>
<path d="M204.135 5.60417C204.176 2.83688 204.549 -1.66577 209.002 0.841938C211.139 2.04462 212.409 5.16406 212.884 7.53762C213.49 5.93979 214.732 3.55629 216.901 4.07261C221.522 5.17224 221.476 12.0753 219.364 15.3688C218.532 16.665 218.026 17.0478 216.816 17.9501C211.748 13.0718 202.923 14.0997 199.048 19.889C195.944 19.4056 192.684 18.8978 190.436 16.474C188.994 14.9191 188.583 12.3105 190.5 10.9508C192.467 9.5569 194.8 9.96004 196.996 10.3408C196.078 8.40965 194.439 7.32193 194.223 5.14061C194.018 3.07763 195.47 2.40903 197.316 2.4053C199.979 2.39997 202.243 3.85691 204.135 5.60417Z" fill="#FB6D02"/>
<path d="M163.186 70.6742C154.707 66.8524 148.659 70.2739 146.154 78.8458C145.922 79.6401 145.169 81.6887 144.486 82.1719C142.77 82.1009 141.505 77.5325 141.267 76.0473C139.253 63.4839 151.19 56.346 161.459 64.0438C162.71 65.4246 166.009 68.0796 166.772 69.8734L167.006 69.918L166.301 71.1708C165.871 72.3247 165.782 72.6203 165.579 73.8294L165.443 75.2883C162.737 75.079 161.846 74.9287 159.474 76.5951C155.754 79.2119 158.14 85.5318 156.831 87.9535C155.717 88.6997 154.482 87.2676 153.855 86.4112C150.562 82.959 149.958 76.4408 153.709 73.0869C156.401 70.6801 159.794 70.5902 163.186 70.6742Z" fill="#FB6D02"/>
<circle cx="207.5" cy="31.9122" r="3.5" fill="#EE4C24"/>
<circle cx="212" cy="25.4122" r="2" fill="#383538"/>
<path d="M243.311 50.1665C234.118 45.2079 231.408 37.624 234.916 27.5767C235.369 26.2797 236.243 24.8902 236.593 23.542C236.95 20.9022 236.371 8.28599 238.666 7.05541C241.01 7.02609 247.266 13.6711 248.682 15.8166C255.117 14.3323 260.766 14.5721 267.151 16.1778C268.983 13.8486 274.596 8.0065 276.895 7.36776C279.498 6.64498 278.919 23.4863 278.897 24.9764C278.883 25.9623 280.043 27.9116 280.342 28.9164C281.171 31.7858 281.472 34.7892 281.157 37.6706C280.679 42.0552 278.649 45.3854 275.221 48.0642C274.722 48.4599 274.201 48.8282 273.661 49.1676C276.966 66.0328 295.888 65.1677 292.347 92.6405C300.137 88.5593 300.046 79.2527 296.372 72.2902C294.307 68.379 291.528 64.9538 289.86 60.8712C286.201 52.4389 288.705 41.8626 297.082 37.3371C301.188 35.1028 309.113 34.7956 311.367 39.7041C311.772 40.5676 311.806 41.5586 311.463 42.4483C310.282 45.4977 307.489 44.7555 305.149 43.7387C301.329 42.0778 297.827 45.236 296.361 48.5352C293.202 55.6403 297.69 61.2898 301.238 67.1365C305.341 73.9394 307.025 82.1986 303.875 89.7764C302.157 94.021 298.799 97.3933 294.563 99.131C293.15 99.7013 291.896 99.9963 290.382 100.181L289.364 102.452C288.559 102.692 282.431 102.587 281.012 102.587C275.779 102.583 270.545 102.608 265.31 102.658L263.807 102.654C261.526 102.658 253.516 102.83 251.64 102.583C251.036 102.889 248.687 102.757 247.85 102.74C246.66 102.836 239.683 102.873 238.57 102.681L238.325 102.301C238.968 100.304 239.629 99.9554 241.109 98.4754C242.783 91.1285 240.941 79.3558 240.521 71.7081C240.1 64.4163 241.045 57.1103 243.311 50.1665Z" fill="black"/>
<circle cx="248" cy="30.4122" r="4" fill="#F0AB32"/>
<circle cx="265" cy="30.4122" r="4" fill="#F0AB32"/>
<path d="M249 30.4122C249 31.5168 248.25 33.4122 248 33.4122C247.75 33.4122 247 31.5168 247 30.4122C247 29.3077 247.75 27.4122 248 27.4122C248.25 27.4122 249 29.3077 249 30.4122Z" fill="#383538"/>
<path d="M266 30.4122C266 31.5168 265.25 33.4122 265 33.4122C264.75 33.4122 264 31.5168 264 30.4122C264 29.3077 264.75 27.4122 265 27.4122C265.25 27.4122 266 29.3077 266 30.4122Z" fill="#383538"/>
<path d="M245.228 51.1401C252.633 53.5147 258.393 53.9635 266.087 52.2831C267.506 58.9596 267.919 63.706 264.239 69.8368C262.547 72.6548 256.681 77.6217 255.927 79.3167L254.719 81.2818C252.733 80.3241 251.96 79.5939 250.259 78.1369C242.255 68.8141 241.463 62.7473 245.228 51.1401Z" fill="#FCC95F"/>
<path d="M250.258 78.1369C251.958 79.5939 252.731 80.3241 254.718 81.2818L255.926 79.3167C255.905 85.8836 255.736 92.3865 254.462 98.8698L253.124 99.9074C252.086 98.3954 250.485 95.9151 249.355 94.5843C249.366 93.9624 249.514 92.9444 249.595 92.3101C250.214 87.559 250.249 82.9199 250.258 78.1369Z" fill="#333333"/>
<path d="M270.35 97.1215C267.984 90.4782 268.097 82.8418 275.954 79.6791C276.573 79.4286 277.329 79.1976 277.962 79.4944L278.118 79.8799C277.894 80.3916 276.448 81.0241 275.878 81.2729C270.807 83.4796 269.789 88.8418 270.938 93.7368C271.347 95.4709 272.012 96.8763 272.433 98.4274C269.519 98.8751 266.2 99.2323 265.31 102.658L263.807 102.654C264.624 98.6975 266.694 97.9655 270.35 97.1215Z" fill="#333333"/>
<path d="M256.079 26.3873C256.584 26.3719 257.502 26.3525 257.847 26.7487C259.545 28.7012 258.826 32.276 259.94 34.6663C261.036 37.2635 264.428 38.2818 264.789 41.2895C265.334 45.8536 260.951 47.4436 257.328 47.748C253.066 47.7881 247.711 46.5254 248.384 40.9535C248.713 38.2422 251.149 37.5935 252.678 35.7062C254.743 33.156 253.43 28.4269 256.079 26.3873Z" fill="#FCC95F"/>
<path d="M256 38.4122V42.4122" stroke="black"/>
<path d="M275.409 11.5653C277.113 12.4239 276.509 19.6872 276.353 21.3408C275.312 20.6509 274.267 19.9667 273.219 19.288L269.852 17.2552C271.6 14.9412 273.083 13.3368 275.409 11.5653Z" fill="#FCC95F"/>
<path d="M239.834 11.1906C241.89 11.5591 244.743 15.0003 245.717 16.7719L242.746 18.2322C241.572 18.9463 240.411 19.6849 239.269 20.4477C239.013 17.909 238.858 13.5816 239.834 11.1906Z" fill="#FCC95F"/>
<path d="M256.234 39.8694C256.114 40.0195 255.886 40.0195 255.766 39.8694L253.39 36.8996C253.233 36.7032 253.373 36.4122 253.624 36.4122L258.376 36.4122C258.627 36.4122 258.767 36.7032 258.61 36.8996L256.234 39.8694Z" fill="black"/>
<path d="M57.321 132.725C55.4386 132.548 54 130.967 54 129.077C54 127.053 55.6406 125.412 57.6643 125.412L139 125.412L139 140.412L57.321 132.725Z" fill="#FFB53D"/>
<path d="M48 117.412C48 116.308 48.8954 115.412 50 115.412H60C61.1046 115.412 62 116.308 62 117.412V130.412C62 134.278 58.866 137.412 55 137.412C51.134 137.412 48 134.278 48 130.412V117.412Z" fill="#FF9E00"/>
<path d="M237.679 132.725C239.561 132.548 241 130.967 241 129.077C241 127.053 239.359 125.412 237.336 125.412L156 125.412L156 140.412L237.679 132.725Z" fill="#FFB53D"/>
<path d="M0 104.19C0 103.208 0.795938 102.412 1.77778 102.412H108.222C109.204 102.412 110 103.208 110 104.19C110 112.045 103.632 118.412 95.7778 118.412H14.2222C6.3675 118.412 0 112.045 0 104.19Z" fill="#FFB53D"/>
<path d="M232 117.412C232 116.308 232.895 115.412 234 115.412H244C245.105 115.412 246 116.308 246 117.412V130.412C246 134.278 242.866 137.412 239 137.412C235.134 137.412 232 134.278 232 130.412V117.412Z" fill="#FF9E00"/>
<path d="M136.897 127.268C137.825 122.141 142.289 118.412 147.5 118.412C152.711 118.412 157.175 122.141 158.103 127.268L167 176.412H128L136.897 127.268Z" fill="#FF9E00"/>
<path d="M184 104.19C184 103.208 184.796 102.412 185.778 102.412H292.222C293.204 102.412 294 103.208 294 104.19C294 112.045 287.632 118.412 279.778 118.412H198.222C190.368 118.412 184 112.045 184 104.19Z" fill="#FFB53D"/>
<path d="M183 174.634C183 175.616 182.204 176.412 181.222 176.412L112.778 176.412C111.796 176.412 111 175.616 111 174.634C111 166.78 117.368 160.412 125.222 160.412L168.778 160.412C176.632 160.412 183 166.78 183 174.634Z" fill="#FFB53D"/>
<circle cx="55" cy="129.412" r="3" fill="#FFB53D"/>
<circle cx="148" cy="129.412" r="7" fill="#FFB53D"/>
<circle cx="239" cy="129.412" r="3" fill="#FFB53D"/>
<path d="M68 28.4121C71.3137 28.4121 73.9999 31.0985 74 34.4121C74 37.7258 71.3137 40.4121 68 40.4121H66C63.7909 40.4121 62 42.203 62 44.4121V48.4121C62 48.9644 62.4477 49.4121 63 49.4121C74.0457 49.4121 82.9999 58.3665 83 69.4121V98.4121C83 100.621 81.2091 102.412 79 102.412H26C23.7909 102.412 22 100.621 22 98.4121V69.4121C22.0001 58.3665 30.9543 49.4121 42 49.4121C42.5523 49.4121 43 48.9644 43 48.4121V44.4121C43 42.203 41.2091 40.4121 39 40.4121H37C33.6863 40.4121 31 37.7258 31 34.4121C31.0001 31.0985 33.6863 28.4121 37 28.4121H68Z" fill="#FF6D00"/>
<path d="M40.772 70.5682V74.3842C41.222 73.6822 41.978 73.2322 42.968 73.2322C45.02 73.2322 46.1 74.5822 46.1 77.1562V78.5962C46.1 81.2422 44.498 82.5922 42.5 82.5922C40.466 82.5922 38.864 81.2782 38.864 78.8122V78.3082H40.664V78.5242C40.664 80.2342 41.366 80.9362 42.5 80.9362C43.562 80.9362 44.3 80.2162 44.3 78.5962V77.2642C44.3 75.4822 43.58 74.8162 42.5 74.8162C41.42 74.8162 40.898 75.4642 40.772 76.2022H39.044V68.9122H45.776V70.5682H40.772ZM53.9598 73.4122V77.4082L57.8298 73.4122H60.2238L55.9938 77.5162L60.5478 82.4122H58.2618L53.9598 77.6782V82.4122H52.1598V73.4122H53.9598ZM63.8015 82.4122H62.0015V73.4122H67.9235V75.0682H63.8015V82.4122Z" fill="white"/>
</g>
<defs>
<clipPath id="clip0_277_7247">
<rect width="312" height="176.824" fill="white"/>
</clipPath>
</defs>
</svg>
