<svg width="312" height="141" viewBox="0 0 312 141" fill="none" xmlns="http://www.w3.org/2000/svg">
<path d="M2.90449 32.976V32.5H4.30449V43H2.90449V35.636H1.28049V34.46H1.61649C2.52649 34.46 2.90449 34.026 2.90449 32.976ZM14.371 43H12.803L10.857 36.952V43H9.56904V36H11.935L13.671 41.768L15.407 36H17.731V43H16.331V36.952L14.371 43ZM24.5973 43H23.0293L21.0833 36.952V43H19.7953V36H22.1613L23.8973 41.768L25.6333 36H27.9573V43H26.5573V36.952L24.5973 43Z" fill="black" fill-opacity="0.48"/>
<path d="M29.3782 13.788V16.756C29.7282 16.21 30.3162 15.86 31.0862 15.86C32.6822 15.86 33.5222 16.91 33.5222 18.912V20.032C33.5222 22.09 32.2762 23.14 30.7222 23.14C29.1402 23.14 27.8942 22.118 27.8942 20.2V19.808H29.2942V19.976C29.2942 21.306 29.8402 21.852 30.7222 21.852C31.5482 21.852 32.1222 21.292 32.1222 20.032V18.996C32.1222 17.61 31.5622 17.092 30.7222 17.092C29.8822 17.092 29.4762 17.596 29.3782 18.17H28.0342V12.5H33.2702V13.788H29.3782ZM43.1494 23H41.5814L39.6354 16.952V23H38.3474V16H40.7134L42.4494 21.768L44.1854 16H46.5094V23H45.1094V16.952L43.1494 23ZM53.3756 23H51.8076L49.8616 16.952V23H48.5736V16H50.9396L52.6756 21.768L54.4116 16H56.7356V23H55.3356V16.952L53.3756 23Z" fill="black" fill-opacity="0.48"/>
<path d="M65.0188 2.976V2.5H66.4188V13H65.0188V5.636H63.3947V4.46H63.7307C64.6407 4.46 65.0188 4.026 65.0188 2.976ZM76.6533 8.786C76.5133 7.722 75.6593 7.148 74.6513 7.148C73.4613 7.148 72.5653 8.086 72.5653 9.5C72.5653 10.914 73.4613 11.852 74.6513 11.852C75.6733 11.852 76.5413 11.222 76.6813 10.06H78.1373C78.0253 11.908 76.5553 13.14 74.6513 13.14C72.6493 13.14 71.1653 11.642 71.1653 9.5C71.1653 7.358 72.6493 5.86 74.6513 5.86C76.4993 5.86 77.9413 7.036 78.1093 8.786H76.6533ZM84.483 13H82.915L80.969 6.952V13H79.681V6H82.047L83.783 11.768L85.519 6H87.843V13H86.443V6.952L84.483 13Z" fill="black" fill-opacity="0.48"/>
<path d="M139.348 127.976V127.5H140.748V138H139.348V130.636H137.724V129.46H138.06C138.97 129.46 139.348 129.026 139.348 127.976ZM145.228 136.712H145.914C146.264 136.054 146.544 135.102 146.572 131H151.962V136.712H152.942V139.89H151.654V138H146.516V139.89H145.228V136.712ZM147.692 135.046C147.58 135.858 147.468 136.362 147.328 136.712H150.562V132.288H147.846C147.832 133.548 147.776 134.416 147.692 135.046ZM159.154 138H157.586L155.64 131.952V138H154.352V131H156.718L158.454 136.768L160.19 131H162.514V138H161.114V131.952L159.154 138Z" fill="black" fill-opacity="0.48"/>
<path d="M12 47.3333C10.5272 47.3333 9.33333 48.5272 9.33333 50C9.33333 51.4728 10.5272 52.6667 12 52.6667C13.4728 52.6667 14.6667 51.4728 14.6667 50C14.6667 48.5272 13.4728 47.3333 12 47.3333ZM11.5 58C11.5 58.2761 11.7239 58.5 12 58.5C12.2761 58.5 12.5 58.2761 12.5 58H12H11.5ZM12 50H11.5V58H12H12.5V50H12Z" fill="#FF9E00"/>
<path d="M42.5 26.3333C41.0272 26.3333 39.8333 27.5272 39.8333 29C39.8333 30.4728 41.0272 31.6667 42.5 31.6667C43.9728 31.6667 45.1667 30.4728 45.1667 29C45.1667 27.5272 43.9728 26.3333 42.5 26.3333ZM35.5 59C35.5 59.2761 35.7239 59.5 36 59.5C36.2761 59.5 36.5 59.2761 36.5 59L36 59L35.5 59ZM49 59C49 59.2761 49.2239 59.5 49.5 59.5C49.7761 59.5 50 59.2761 50 59L49.5 59L49 59ZM42.5 29L42 29L42 39.5L42.5 39.5L43 39.5L43 29L42.5 29ZM42.5 39.5L42.5 39L40 39L40 39.5L40 40L42.5 40L42.5 39.5ZM36 43.5L35.5 43.5L35.5 59L36 59L36.5 59L36.5 43.5L36 43.5ZM42.5 39.5L42.5 40L45.5 40L45.5 39.5L45.5 39L42.5 39L42.5 39.5ZM49.5 43.5L49 43.5L49 59L49.5 59L50 59L50 43.5L49.5 43.5ZM45.5 39.5L45.5 40C47.433 40 49 41.567 49 43.5L49.5 43.5L50 43.5C50 41.0147 47.9853 39 45.5 39L45.5 39.5ZM40 39.5L40 39C37.5147 39 35.5 41.0147 35.5 43.5L36 43.5L36.5 43.5C36.5 41.567 38.067 40 40 40L40 39.5Z" fill="#FF9E00"/>
<path d="M75.5185 16.8333C74.0458 16.8333 72.8519 18.0272 72.8519 19.5C72.8519 20.9728 74.0458 22.1667 75.5185 22.1667C76.9913 22.1667 78.1852 20.9728 78.1852 19.5C78.1852 18.0272 76.9913 16.8333 75.5185 16.8333ZM62.5 59C62.5 59.2761 62.7239 59.5 63 59.5C63.2761 59.5 63.5 59.2761 63.5 59L63 59L62.5 59ZM88.5 59C88.5 59.2761 88.7239 59.5 89 59.5C89.2761 59.5 89.5 59.2761 89.5 59L89 59L88.5 59ZM75.5185 19.5L75.0185 19.5L75.0185 39.5L75.5185 39.5L76.0185 39.5L76.0185 19.5L75.5185 19.5ZM75.5185 39.5L75.5185 39L67 39L67 39.5L67 40L75.5185 40L75.5185 39.5ZM63 43.5L62.5 43.5L62.5 59L63 59L63.5 59L63.5 43.5L63 43.5ZM75.5185 39.5L75.5185 40L85 40L85 39.5L85 39L75.5185 39L75.5185 39.5ZM89 43.5L88.5 43.5L88.5 59L89 59L89.5 59L89.5 43.5L89 43.5ZM85 39.5L85 40C86.933 40 88.5 41.567 88.5 43.5L89 43.5L89.5 43.5C89.5 41.0147 87.4853 39 85 39L85 39.5ZM67 39.5L67 39C64.5147 39 62.5 41.0147 62.5 43.5L63 43.5L63.5 43.5C63.5 41.567 65.067 40 67 40L67 39.5Z" fill="#FF9E00"/>
<rect y="106.289" width="48.2891" height="312" rx="2.7211" transform="rotate(-90 0 106.289)" fill="#F4F4F4"/>
<line x1="22.7815" y1="58.2039" x2="22.7815" y2="71.2651" stroke="black" stroke-opacity="0.48" stroke-width="0.680275"/>
<line x1="49.4476" y1="58.2039" x2="49.4476" y2="71.2651" stroke="black" stroke-opacity="0.48" stroke-width="0.680275"/>
<line x1="76.1155" y1="58.2039" x2="76.1155" y2="71.2651" stroke="black" stroke-opacity="0.48" stroke-width="0.680275"/>
<line x1="102.782" y1="58.2039" x2="102.782" y2="71.2651" stroke="black" stroke-opacity="0.48" stroke-width="0.680275"/>
<line x1="129.448" y1="58.2039" x2="129.448" y2="71.2651" stroke="black" stroke-opacity="0.48" stroke-width="0.680275"/>
<line x1="156.116" y1="58.2039" x2="156.116" y2="71.2651" stroke="black" stroke-opacity="0.48" stroke-width="0.680275"/>
<line x1="182.782" y1="58.2039" x2="182.782" y2="71.2651" stroke="black" stroke-opacity="0.48" stroke-width="0.680275"/>
<line x1="209.448" y1="58.2039" x2="209.448" y2="71.2651" stroke="black" stroke-opacity="0.48" stroke-width="0.680275"/>
<line x1="236.114" y1="58.2039" x2="236.114" y2="71.2651" stroke="black" stroke-opacity="0.48" stroke-width="0.680275"/>
<line x1="262.782" y1="58.2039" x2="262.782" y2="71.2651" stroke="black" stroke-opacity="0.48" stroke-width="0.680275"/>
<line x1="289.448" y1="58.2039" x2="289.448" y2="71.2651" stroke="black" stroke-opacity="0.48" stroke-width="0.680275"/>
<line x1="20.5358" y1="58.2039" x2="20.5358" y2="65.8229" stroke="black" stroke-opacity="0.48" stroke-width="0.54422"/>
<line x1="47.2018" y1="58.2039" x2="47.2018" y2="65.8229" stroke="black" stroke-opacity="0.48" stroke-width="0.54422"/>
<line x1="73.8698" y1="58.2039" x2="73.8698" y2="65.8229" stroke="black" stroke-opacity="0.48" stroke-width="0.54422"/>
<line x1="100.536" y1="58.2039" x2="100.536" y2="65.8229" stroke="black" stroke-opacity="0.48" stroke-width="0.54422"/>
<line x1="127.204" y1="58.2039" x2="127.204" y2="65.8229" stroke="black" stroke-opacity="0.48" stroke-width="0.54422"/>
<line x1="153.87" y1="58.2039" x2="153.87" y2="65.8229" stroke="black" stroke-opacity="0.48" stroke-width="0.54422"/>
<line x1="180.536" y1="58.2039" x2="180.536" y2="65.8229" stroke="black" stroke-opacity="0.48" stroke-width="0.54422"/>
<line x1="207.204" y1="58.2039" x2="207.204" y2="65.8229" stroke="black" stroke-opacity="0.48" stroke-width="0.54422"/>
<line x1="233.87" y1="58.2039" x2="233.87" y2="65.8229" stroke="black" stroke-opacity="0.48" stroke-width="0.54422"/>
<line x1="260.538" y1="58.2039" x2="260.538" y2="65.8229" stroke="black" stroke-opacity="0.48" stroke-width="0.54422"/>
<line x1="287.204" y1="58.2039" x2="287.204" y2="65.8229" stroke="black" stroke-opacity="0.48" stroke-width="0.54422"/>
<line x1="33.3248" y1="58.2039" x2="33.3248" y2="65.8229" stroke="black" stroke-opacity="0.48" stroke-width="0.54422"/>
<line x1="59.9928" y1="58.2039" x2="59.9928" y2="65.8229" stroke="black" stroke-opacity="0.48" stroke-width="0.54422"/>
<line x1="86.6588" y1="58.2039" x2="86.6588" y2="65.8229" stroke="black" stroke-opacity="0.48" stroke-width="0.54422"/>
<line x1="113.325" y1="58.2039" x2="113.325" y2="65.8229" stroke="black" stroke-opacity="0.48" stroke-width="0.54422"/>
<line x1="139.991" y1="58.2039" x2="139.991" y2="65.8229" stroke="black" stroke-opacity="0.48" stroke-width="0.54422"/>
<line x1="166.659" y1="58.2039" x2="166.659" y2="65.8229" stroke="black" stroke-opacity="0.48" stroke-width="0.54422"/>
<line x1="193.325" y1="58.2039" x2="193.325" y2="65.8229" stroke="black" stroke-opacity="0.48" stroke-width="0.54422"/>
<line x1="219.993" y1="58.2039" x2="219.993" y2="65.8229" stroke="black" stroke-opacity="0.48" stroke-width="0.54422"/>
<line x1="246.659" y1="58.2039" x2="246.659" y2="65.8229" stroke="black" stroke-opacity="0.48" stroke-width="0.54422"/>
<line x1="273.327" y1="58.2039" x2="273.327" y2="65.8229" stroke="black" stroke-opacity="0.48" stroke-width="0.54422"/>
<line x1="299.993" y1="58.2039" x2="299.993" y2="65.8229" stroke="black" stroke-opacity="0.48" stroke-width="0.54422"/>
<line x1="17.8151" y1="58.2039" x2="17.8151" y2="65.8229" stroke="black" stroke-opacity="0.48" stroke-width="0.54422"/>
<line x1="44.4811" y1="58.2039" x2="44.4811" y2="65.8229" stroke="black" stroke-opacity="0.48" stroke-width="0.54422"/>
<line x1="71.1491" y1="58.2039" x2="71.1491" y2="65.8229" stroke="black" stroke-opacity="0.48" stroke-width="0.54422"/>
<line x1="97.8151" y1="58.2039" x2="97.8151" y2="65.8229" stroke="black" stroke-opacity="0.48" stroke-width="0.54422"/>
<line x1="124.481" y1="58.2039" x2="124.481" y2="65.8229" stroke="black" stroke-opacity="0.48" stroke-width="0.54422"/>
<line x1="151.149" y1="58.2039" x2="151.149" y2="65.8229" stroke="black" stroke-opacity="0.48" stroke-width="0.54422"/>
<line x1="177.815" y1="58.2039" x2="177.815" y2="65.8229" stroke="black" stroke-opacity="0.48" stroke-width="0.54422"/>
<line x1="204.483" y1="58.2039" x2="204.483" y2="65.8229" stroke="black" stroke-opacity="0.48" stroke-width="0.54422"/>
<line x1="231.149" y1="58.2039" x2="231.149" y2="65.8229" stroke="black" stroke-opacity="0.48" stroke-width="0.54422"/>
<line x1="257.817" y1="58.2039" x2="257.817" y2="65.8229" stroke="black" stroke-opacity="0.48" stroke-width="0.54422"/>
<line x1="284.483" y1="58.2039" x2="284.483" y2="65.8229" stroke="black" stroke-opacity="0.48" stroke-width="0.54422"/>
<line x1="30.6041" y1="58.2039" x2="30.6041" y2="65.8229" stroke="black" stroke-opacity="0.48" stroke-width="0.54422"/>
<line x1="57.2702" y1="58.2039" x2="57.2702" y2="65.8229" stroke="black" stroke-opacity="0.48" stroke-width="0.54422"/>
<line x1="83.9381" y1="58.2039" x2="83.9381" y2="65.8229" stroke="black" stroke-opacity="0.48" stroke-width="0.54422"/>
<line x1="110.604" y1="58.2039" x2="110.604" y2="65.8229" stroke="black" stroke-opacity="0.48" stroke-width="0.54422"/>
<line x1="137.27" y1="58.2039" x2="137.27" y2="65.8229" stroke="black" stroke-opacity="0.48" stroke-width="0.54422"/>
<line x1="163.938" y1="58.2039" x2="163.938" y2="65.8229" stroke="black" stroke-opacity="0.48" stroke-width="0.54422"/>
<line x1="190.604" y1="58.2039" x2="190.604" y2="65.8229" stroke="black" stroke-opacity="0.48" stroke-width="0.54422"/>
<line x1="217.272" y1="58.2039" x2="217.272" y2="65.8229" stroke="black" stroke-opacity="0.48" stroke-width="0.54422"/>
<line x1="243.938" y1="58.2039" x2="243.938" y2="65.8229" stroke="black" stroke-opacity="0.48" stroke-width="0.54422"/>
<line x1="270.604" y1="58.2039" x2="270.604" y2="65.8229" stroke="black" stroke-opacity="0.48" stroke-width="0.54422"/>
<line x1="297.272" y1="58.2039" x2="297.272" y2="65.8229" stroke="black" stroke-opacity="0.48" stroke-width="0.54422"/>
<line x1="15.0944" y1="58.2039" x2="15.0944" y2="65.8229" stroke="black" stroke-opacity="0.48" stroke-width="0.54422"/>
<line x1="41.7604" y1="58.2039" x2="41.7604" y2="65.8229" stroke="black" stroke-opacity="0.48" stroke-width="0.54422"/>
<line x1="68.4264" y1="58.2039" x2="68.4264" y2="65.8229" stroke="black" stroke-opacity="0.48" stroke-width="0.54422"/>
<line x1="95.0944" y1="58.2039" x2="95.0944" y2="65.8229" stroke="black" stroke-opacity="0.48" stroke-width="0.54422"/>
<line x1="121.76" y1="58.2039" x2="121.76" y2="65.8229" stroke="black" stroke-opacity="0.48" stroke-width="0.54422"/>
<line x1="148.428" y1="58.2039" x2="148.428" y2="65.8229" stroke="black" stroke-opacity="0.48" stroke-width="0.54422"/>
<line x1="175.094" y1="58.2039" x2="175.094" y2="65.8229" stroke="black" stroke-opacity="0.48" stroke-width="0.54422"/>
<line x1="201.762" y1="58.2039" x2="201.762" y2="65.8229" stroke="black" stroke-opacity="0.48" stroke-width="0.54422"/>
<line x1="228.428" y1="58.2039" x2="228.428" y2="65.8229" stroke="black" stroke-opacity="0.48" stroke-width="0.54422"/>
<line x1="255.094" y1="58.2039" x2="255.094" y2="65.8229" stroke="black" stroke-opacity="0.48" stroke-width="0.54422"/>
<line x1="281.76" y1="58.2039" x2="281.76" y2="65.8229" stroke="black" stroke-opacity="0.48" stroke-width="0.54422"/>
<line x1="27.8834" y1="58.2039" x2="27.8834" y2="65.8229" stroke="black" stroke-opacity="0.48" stroke-width="0.54422"/>
<line x1="54.5495" y1="58.2039" x2="54.5495" y2="65.8229" stroke="black" stroke-opacity="0.48" stroke-width="0.54422"/>
<line x1="81.2155" y1="58.2039" x2="81.2155" y2="65.8229" stroke="black" stroke-opacity="0.48" stroke-width="0.54422"/>
<line x1="107.883" y1="58.2039" x2="107.883" y2="65.8229" stroke="black" stroke-opacity="0.48" stroke-width="0.54422"/>
<line x1="134.549" y1="58.2039" x2="134.549" y2="65.8229" stroke="black" stroke-opacity="0.48" stroke-width="0.54422"/>
<line x1="161.217" y1="58.2039" x2="161.217" y2="65.8229" stroke="black" stroke-opacity="0.48" stroke-width="0.54422"/>
<line x1="187.883" y1="58.2039" x2="187.883" y2="65.8229" stroke="black" stroke-opacity="0.48" stroke-width="0.54422"/>
<line x1="214.551" y1="58.2039" x2="214.551" y2="65.8229" stroke="black" stroke-opacity="0.48" stroke-width="0.54422"/>
<line x1="241.217" y1="58.2039" x2="241.217" y2="65.8229" stroke="black" stroke-opacity="0.48" stroke-width="0.54422"/>
<line x1="267.883" y1="58.2039" x2="267.883" y2="65.8229" stroke="black" stroke-opacity="0.48" stroke-width="0.54422"/>
<line x1="294.549" y1="58.2039" x2="294.549" y2="65.8229" stroke="black" stroke-opacity="0.48" stroke-width="0.54422"/>
<line x1="12.3717" y1="58.2039" x2="12.3717" y2="65.8229" stroke="black" stroke-opacity="0.48" stroke-width="0.54422"/>
<line x1="39.0397" y1="58.2039" x2="39.0397" y2="65.8229" stroke="black" stroke-opacity="0.48" stroke-width="0.54422"/>
<line x1="65.7057" y1="58.2039" x2="65.7057" y2="65.8229" stroke="black" stroke-opacity="0.48" stroke-width="0.54422"/>
<line x1="92.3737" y1="58.2039" x2="92.3737" y2="65.8229" stroke="black" stroke-opacity="0.48" stroke-width="0.54422"/>
<line x1="119.04" y1="58.2039" x2="119.04" y2="65.8229" stroke="black" stroke-opacity="0.48" stroke-width="0.54422"/>
<line x1="145.708" y1="58.2039" x2="145.708" y2="65.8229" stroke="black" stroke-opacity="0.48" stroke-width="0.54422"/>
<line x1="172.374" y1="58.2039" x2="172.374" y2="65.8229" stroke="black" stroke-opacity="0.48" stroke-width="0.54422"/>
<line x1="199.04" y1="58.2039" x2="199.04" y2="65.8229" stroke="black" stroke-opacity="0.48" stroke-width="0.54422"/>
<line x1="225.706" y1="58.2039" x2="225.706" y2="65.8229" stroke="black" stroke-opacity="0.48" stroke-width="0.54422"/>
<line x1="252.372" y1="58.2039" x2="252.372" y2="65.8229" stroke="black" stroke-opacity="0.48" stroke-width="0.54422"/>
<line x1="279.04" y1="58.2039" x2="279.04" y2="65.8229" stroke="black" stroke-opacity="0.48" stroke-width="0.54422"/>
<line x1="25.1608" y1="58.2039" x2="25.1608" y2="65.8229" stroke="black" stroke-opacity="0.48" stroke-width="0.54422"/>
<line x1="51.8288" y1="58.2039" x2="51.8288" y2="65.8229" stroke="black" stroke-opacity="0.48" stroke-width="0.54422"/>
<line x1="78.4948" y1="58.2039" x2="78.4948" y2="65.8229" stroke="black" stroke-opacity="0.48" stroke-width="0.54422"/>
<line x1="105.163" y1="58.2039" x2="105.163" y2="65.8229" stroke="black" stroke-opacity="0.48" stroke-width="0.54422"/>
<line x1="131.829" y1="58.2039" x2="131.829" y2="65.8229" stroke="black" stroke-opacity="0.48" stroke-width="0.54422"/>
<line x1="158.497" y1="58.2039" x2="158.497" y2="65.8229" stroke="black" stroke-opacity="0.48" stroke-width="0.54422"/>
<line x1="185.163" y1="58.2039" x2="185.163" y2="65.8229" stroke="black" stroke-opacity="0.48" stroke-width="0.54422"/>
<line x1="211.829" y1="58.2039" x2="211.829" y2="65.8229" stroke="black" stroke-opacity="0.48" stroke-width="0.54422"/>
<line x1="238.495" y1="58.2039" x2="238.495" y2="65.8229" stroke="black" stroke-opacity="0.48" stroke-width="0.54422"/>
<line x1="265.163" y1="58.2039" x2="265.163" y2="65.8229" stroke="black" stroke-opacity="0.48" stroke-width="0.54422"/>
<line x1="291.829" y1="58.2039" x2="291.829" y2="65.8229" stroke="black" stroke-opacity="0.48" stroke-width="0.54422"/>
<line x1="35.9107" y1="58.2039" x2="35.9107" y2="75.6189" stroke="black" stroke-opacity="0.48" stroke-width="1.36055"/>
<line x1="9.68027" y1="58.2039" x2="9.68028" y2="75.6189" stroke="black" stroke-opacity="0.48" stroke-width="1.36055"/>
<line x1="62.5768" y1="58.2039" x2="62.5768" y2="75.6189" stroke="black" stroke-opacity="0.48" stroke-width="1.36055"/>
<line x1="89.2447" y1="58.2039" x2="89.2447" y2="75.6189" stroke="black" stroke-opacity="0.48" stroke-width="1.36055"/>
<line x1="115.911" y1="58.2039" x2="115.911" y2="75.6189" stroke="black" stroke-opacity="0.48" stroke-width="1.36055"/>
<line x1="142.577" y1="58.2039" x2="142.577" y2="75.6189" stroke="black" stroke-opacity="0.48" stroke-width="1.36055"/>
<line x1="169.243" y1="58.2039" x2="169.243" y2="75.6189" stroke="black" stroke-opacity="0.48" stroke-width="1.36055"/>
<line x1="195.911" y1="58.2039" x2="195.911" y2="75.6189" stroke="black" stroke-opacity="0.48" stroke-width="1.36055"/>
<line x1="222.577" y1="58.2039" x2="222.577" y2="75.6189" stroke="black" stroke-opacity="0.48" stroke-width="1.36055"/>
<line x1="249.245" y1="58.2039" x2="249.245" y2="75.6189" stroke="black" stroke-opacity="0.48" stroke-width="1.36055"/>
<path d="M36.0302 78.2016V77.9045H36.9444V83.6188H36.0302V79.8092H34.9635V79.0473H35.1768C35.7787 79.0473 36.0302 78.8035 36.0302 78.2016Z" fill="black" fill-opacity="0.48"/>
<path d="M10.0952 84.0762C9.07429 84.0762 8.45714 83.4438 8.45714 82.1714V80.1143C8.45714 78.8419 9.07429 78.2095 10.0952 78.2095C11.1162 78.2095 11.7333 78.8419 11.7333 80.1143V82.1714C11.7333 83.4438 11.1162 84.0762 10.0952 84.0762ZM10.0952 83.2381C10.5448 83.2381 10.8191 82.9714 10.8191 82.1714V80.1143C10.8191 79.3143 10.5448 79.0476 10.0952 79.0476C9.64572 79.0476 9.37143 79.3143 9.37143 80.1143V82.1714C9.37143 82.9714 9.6381 83.2381 10.0952 83.2381Z" fill="black" fill-opacity="0.48"/>
<path d="M63.8294 79.4588C63.8294 81.013 62.0542 81.714 61.8027 82.7807H63.9056V83.6188H60.8122V83.1769C60.8122 81.4092 62.9151 80.815 62.9151 79.4588C62.9151 78.9026 62.6865 78.6664 62.3513 78.6664C61.9932 78.6664 61.7722 78.8797 61.7722 79.5045V79.9616H60.858V79.4283C60.858 78.3845 61.5208 77.8283 62.3513 77.8283C63.1665 77.8283 63.8294 78.3845 63.8294 79.4588Z" fill="black" fill-opacity="0.48"/>
<path d="M89.3746 81.1426H88.9174V80.2283H89.3746C89.725 80.2283 89.946 80.0454 89.946 79.5426V79.2759C89.946 78.834 89.725 78.6664 89.3746 78.6664C89.0317 78.6664 88.8031 78.834 88.8031 79.2759V79.5045H87.8888V79.1997C87.8888 78.3083 88.5517 77.8283 89.3746 77.8283C90.1974 77.8283 90.8603 78.3083 90.8603 79.1997V79.5045C90.8603 80.015 90.6165 80.3807 90.2355 80.594C90.7003 80.8073 91.0127 81.2111 91.0127 81.7902V82.1711C91.0127 83.1616 90.2812 83.695 89.3746 83.695C88.4679 83.695 87.7365 83.1616 87.7365 82.1711V81.7902H88.6508V82.095C88.6508 82.6435 88.9403 82.8569 89.3746 82.8569C89.8165 82.8569 90.0984 82.6435 90.0984 82.095V81.9045C90.0984 81.3483 89.8165 81.1426 89.3746 81.1426Z" fill="black" fill-opacity="0.48"/>
<path d="M113.434 81.8664L114.805 77.9045H116.177V81.8664H116.862V82.7045H116.177V83.6188H115.262V82.7045H113.434V81.8664ZM114.18 81.8664H115.262V78.7045L114.18 81.8664Z" fill="black" fill-opacity="0.48"/>
<path d="M142.021 78.7426V80.1673C142.211 79.9007 142.501 79.733 142.882 79.733C143.743 79.733 144.192 80.3121 144.192 81.4092V81.9883C144.192 83.1159 143.499 83.695 142.638 83.695C141.762 83.695 141.068 83.1388 141.068 82.095V81.8664H141.983V81.9426C141.983 82.6207 142.234 82.8569 142.638 82.8569C143.019 82.8569 143.278 82.5978 143.278 81.9883V81.455C143.278 80.7845 143.019 80.533 142.638 80.533C142.249 80.533 142.089 80.754 142.021 80.9902H141.145V77.9045H144.04V78.7426H142.021Z" fill="black" fill-opacity="0.48"/>
<path d="M168.575 79.733V80.5711C168.803 80.1902 169.154 80.0378 169.55 80.0378C170.296 80.0378 170.936 80.6245 170.936 81.7902V81.9426C170.936 83.0778 170.205 83.695 169.298 83.695C168.392 83.695 167.66 83.055 167.66 81.8664V79.6569C167.66 78.4683 168.392 77.8283 169.298 77.8283C170.159 77.8283 170.86 78.3921 170.86 79.4283V79.5807H169.946V79.5045C169.946 78.8949 169.695 78.6664 169.298 78.6664C168.864 78.6664 168.575 78.9559 168.575 79.733ZM168.575 81.7902V81.9426C168.575 82.5978 168.864 82.8569 169.298 82.8569C169.74 82.8569 170.022 82.5978 170.022 81.9426V81.7902C170.022 81.1197 169.74 80.8759 169.298 80.8759C168.864 80.8759 168.575 81.1197 168.575 81.7902Z" fill="black" fill-opacity="0.48"/>
<path d="M195.975 83.1997V83.6188H195.061V83.3597C195.061 81.1883 195.754 80.0454 196.417 78.7426H194.222V77.9045H197.163V79.0473C196.501 80.4035 195.975 81.2035 195.975 83.1997Z" fill="black" fill-opacity="0.48"/>
<path d="M220.721 81.7902C220.721 81.2111 221.033 80.8073 221.498 80.594C221.117 80.3807 220.873 80.015 220.873 79.5045V79.1997C220.873 78.3083 221.536 77.8283 222.359 77.8283C223.182 77.8283 223.845 78.3083 223.845 79.1997V79.5045C223.845 80.015 223.601 80.3807 223.22 80.594C223.685 80.8073 223.997 81.2111 223.997 81.7902V82.1711C223.997 83.1616 223.266 83.695 222.359 83.695C221.452 83.695 220.721 83.1616 220.721 82.1711V81.7902ZM221.787 79.2759V79.5045C221.787 80.0073 222.016 80.1902 222.359 80.1902C222.709 80.1902 222.93 80.0073 222.93 79.5045V79.2759C222.93 78.834 222.709 78.6664 222.359 78.6664C222.016 78.6664 221.787 78.834 221.787 79.2759ZM221.635 81.7902V82.095C221.635 82.6435 221.925 82.8569 222.359 82.8569C222.801 82.8569 223.083 82.6435 223.083 82.095V81.7902C223.083 81.234 222.801 81.0283 222.359 81.0283C221.925 81.0283 221.635 81.234 221.635 81.7902Z" fill="black" fill-opacity="0.48"/>
<path d="M273.856 78.2016V77.9045H274.771V83.6188H273.856V79.8092H272.79V79.0473H273.003C273.605 79.0473 273.856 78.8035 273.856 78.2016ZM278.251 83.695C277.23 83.695 276.613 83.0626 276.613 81.7902V79.733C276.613 78.4607 277.23 77.8283 278.251 77.8283C279.272 77.8283 279.889 78.4607 279.889 79.733V81.7902C279.889 83.0626 279.272 83.695 278.251 83.695ZM278.251 82.8569C278.701 82.8569 278.975 82.5902 278.975 81.7902V79.733C278.975 78.933 278.701 78.6664 278.251 78.6664C277.802 78.6664 277.527 78.933 277.527 79.733V81.7902C277.527 82.5902 277.794 82.8569 278.251 82.8569Z" fill="black" fill-opacity="0.48"/>
<path d="M250.022 81.7902V80.9521C249.794 81.3331 249.443 81.4854 249.047 81.4854C248.3 81.4854 247.66 80.8988 247.66 79.733V79.5807C247.66 78.4454 248.392 77.8283 249.298 77.8283C250.205 77.8283 250.936 78.4683 250.936 79.6569V81.8664C250.936 83.055 250.205 83.695 249.298 83.695C248.437 83.695 247.736 83.1388 247.736 82.095V81.9426H248.651V82.0188C248.651 82.6283 248.902 82.8569 249.298 82.8569C249.733 82.8569 250.022 82.5673 250.022 81.7902ZM250.022 79.733V79.5807C250.022 78.9254 249.733 78.6664 249.298 78.6664C248.856 78.6664 248.575 78.9254 248.575 79.5807V79.733C248.575 80.4035 248.856 80.6473 249.298 80.6473C249.733 80.6473 250.022 80.4035 250.022 79.733Z" fill="black" fill-opacity="0.48"/>
<line x1="275.911" y1="58.2039" x2="275.911" y2="75.6189" stroke="black" stroke-opacity="0.48" stroke-width="1.36055"/>
<path d="M147.926 123.667C149.399 123.667 150.593 122.473 150.593 121C150.593 119.527 149.399 118.333 147.926 118.333C146.453 118.333 145.259 119.527 145.259 121C145.259 122.473 146.453 123.667 147.926 123.667ZM276.5 85C276.5 84.7239 276.276 84.5 276 84.5C275.724 84.5 275.5 84.7239 275.5 85L276 85L276.5 85ZM10.5 85C10.5 84.7239 10.2762 84.5 10 84.5C9.72387 84.5 9.50002 84.7239 9.50001 85L10 85L10.5 85ZM10 106.071L9.5 106.071L10 106.071ZM276 106.071L276.5 106.071L276 106.071ZM147.926 121L148.426 121L148.426 110.071L147.926 110.071L147.426 110.071L147.426 121L147.926 121ZM147.926 110.071L147.926 110.571L272 110.571L272 110.071L272 109.571L147.926 109.571L147.926 110.071ZM276 106.071L276.5 106.071L276.5 85L276 85L275.5 85L275.5 106.071L276 106.071ZM147.926 110.071L147.926 109.571L14 109.571L14 110.071L14 110.571L147.926 110.571L147.926 110.071ZM10 106.071L10.5 106.071L10.5 85L10 85L9.50001 85L9.5 106.071L10 106.071ZM14 110.071L14 109.571C12.067 109.571 10.5 108.004 10.5 106.071L10 106.071L9.5 106.071C9.5 108.557 11.5147 110.571 14 110.571L14 110.071ZM272 110.071L272 110.571C274.485 110.571 276.5 108.557 276.5 106.071L276 106.071L275.5 106.071C275.5 108.004 273.933 109.571 272 109.571L272 110.071Z" fill="#FF9E00"/>
</svg>
