<svg width="312" height="177" viewBox="0 0 312 177" fill="none" xmlns="http://www.w3.org/2000/svg">
<g clip-path="url(#clip0_288_8934)">
<path d="M71.5701 23.9565C67.6951 18.1671 58.8699 17.1393 53.8027 22.0175C51.8447 23.9206 50.4002 26.6149 50.0679 29.3321C48.4404 29.7652 42.8579 31.6074 42.2787 33.2127C42.9218 34.1989 48.1863 35.5054 49.6841 36.0809C46.9284 38.5388 43.3429 41.3987 42.968 45.3665C42.8188 46.9707 44.3788 47.3691 45.5994 47.4098C43.3394 54.0081 38.5972 60.4731 38.0038 67.6732C37.9594 68.2139 38.4373 69.034 38.4586 69.6877C36.259 87.3712 43.8617 100.631 60.6254 106.915C62.8605 107.194 69.8431 107.026 72.311 107.074C74.4023 107.114 82.9911 107.242 84.679 106.923C96.9297 102.904 104.463 92.0742 105.177 79.3557L105.041 77.8968C104.838 76.6878 104.749 76.3921 104.319 75.2383L103.614 73.9855L103.015 73.2664L102.054 72.7222C101.862 72.6154 101.762 72.5012 101.595 72.3514C101.56 70.7776 104.639 61.7456 105.447 60.1055C105.735 59.3437 106.096 58.5509 106.423 57.7998C108.601 52.7356 112.428 47.8923 117.677 45.8089C120.274 44.7876 123.085 44.4245 125.858 44.7518C128.747 45.1082 130.863 46.195 133.592 47.0144C134.021 47.1433 134.091 47.0347 134.409 46.8654C134.707 46.1469 134.423 45.329 134.116 44.6457C126.708 28.1168 103.806 31.179 98.1876 47.5098C95.6042 55.0185 95.6558 63.7303 97.8447 71.3989C90.4481 70.0274 81.4791 68.5836 76.9519 61.7234C76.959 60.1818 75.3937 54.4142 75.1467 51.8316C74.317 43.1447 76.6836 31.3641 71.5701 23.9565Z" fill="#C68010"/>
<path d="M71.5694 23.9565C67.6943 18.1671 58.8692 17.1393 53.8019 22.0175C51.8439 23.9206 50.3994 26.6149 50.0672 29.3321C48.4397 29.7652 42.8571 31.6074 42.2779 33.2127C42.9211 34.1989 48.1856 35.5054 49.6834 36.0809C46.9276 38.5388 43.3422 41.3987 42.9673 45.3665C42.818 46.9707 44.378 47.3691 45.5986 47.4098C43.3386 54.0081 38.5965 60.4731 38.003 67.6732C37.9586 68.2139 38.4366 69.034 38.4579 69.6877L38.6089 69.3349C41.2989 69.0822 40.9524 68.9964 42.8642 66.8135C42.9264 67.1352 42.9957 67.4559 43.0703 67.7751C43.8894 71.1946 46.416 71.8239 48.7382 69.1401C49.4951 68.2665 49.9161 67.2706 50.4243 66.2366C51.8244 70.6617 54.6227 73.0129 57.7232 67.5995C58.2331 66.7085 58.5103 64.8772 58.7288 63.8276C58.8692 64.0659 59.0096 64.3029 59.1535 64.5387C60.3066 66.4316 62.5186 68.9282 64.9936 67.2806C66.9036 66.0091 67.2252 63.2834 67.5664 61.1805C70.0574 63.8088 74.9843 66.2616 76.9511 61.7234C76.9583 60.1818 75.393 54.4142 75.146 51.8316C74.3162 43.1447 76.6829 31.3641 71.5694 23.9565Z" fill="#F0AB32"/>
<path d="M52.1549 36.0327C51.1581 36.3579 50.7175 36.2704 49.6834 36.0809C46.9277 38.5388 43.3422 41.3987 42.9673 45.3665C42.8181 46.9707 44.3781 47.3691 45.5987 47.4098C46.8211 46.8391 47.1213 46.6985 48.1483 45.7956C48.3509 47.3469 48.6174 49.098 50.3 49.8132C52.0625 50.5615 53.8019 48.5096 54.2301 46.9762C55.2322 43.3808 53.8019 39.228 52.1549 36.0327Z" fill="#FB6D02"/>
<path d="M52.1548 36.0327C54.1217 33.489 53.7877 29.5506 50.0672 29.3321C48.4397 29.7652 42.8571 31.6074 42.2779 33.2127C42.9211 34.1989 48.1856 35.5054 49.6834 36.0809C50.7175 36.2705 51.1581 36.3579 52.1548 36.0327Z" fill="#EE4C24"/>
<path d="M73.2475 69.0749C65.6981 68.3681 61.9491 75.3282 63.255 81.897C64.8665 90.0025 72.5634 95.9191 80.1395 98.1614C81.3548 98.5203 84.8336 99.1777 85.0842 97.0669C85.221 94.6363 82.5097 91.7704 81.0438 90.0843C82.9272 91.3209 84.1247 92.1293 86.1982 93.0177C87.9074 93.819 93.1541 95.6313 94.3837 93.7408C96.2954 90.7985 90.0804 86.6996 88.277 85.4914L88.7247 85.6282C91.4289 86.4455 95.7926 87.7691 98.4471 86.2056C98.8984 85.9409 99.2875 85.5038 99.3621 84.969C99.4279 84.4928 99.2342 83.9776 98.9606 83.5938C97.5125 81.5468 80.6458 71.8258 77.318 70.2923C75.9766 69.6742 74.7026 69.3169 73.2475 69.0749Z" fill="#F0AB32"/>
<path d="M47.7836 75.4501L47.2399 75.6025C46.0406 76.6727 46.7389 79.5455 47.2826 80.8661C47.7534 80.8183 47.7552 80.8562 48.1301 80.5812C48.6489 79.2163 48.3113 76.7686 47.7836 75.4501Z" fill="#F0AB32"/>
<path d="M41.8192 74.6187C40.1934 75.691 40.4759 78.3208 41.3483 79.7914C43.2104 79.4143 42.4162 75.7384 41.8192 74.6187Z" fill="#F0AB32"/>
<path d="M44.7048 83.0039C43.0311 84.2015 44.5395 87.0283 45.4617 88.2382C45.8508 88.0303 45.8241 88.0232 46.0907 87.6608C46.3732 86.4757 45.2876 84.0309 44.7048 83.0039Z" fill="#F0AB32"/>
<path d="M51.832 82.4176C50.1477 83.425 51.6117 86.2145 52.3811 87.4369C52.859 87.3125 52.827 87.325 53.1646 86.9625C53.5199 85.7526 52.4326 83.521 51.832 82.4176Z" fill="#F0AB32"/>
<path d="M54.4717 74.9869C54.0151 75.2246 54.0489 75.2237 53.7344 75.6382C53.3844 77.1506 53.9796 78.5333 54.772 79.8113C55.3921 79.6425 55.138 79.7999 55.5644 79.3244C55.9038 78.0059 55.122 76.1341 54.4717 74.9869Z" fill="#F0AB32"/>
<path d="M50.0186 89.8977C48.0731 90.5356 50.2496 93.3535 50.9763 94.1779C53.0462 93.8261 50.6849 90.7648 50.0186 89.8977Z" fill="#F0AB32"/>
<path d="M109.16 68.1112C109.49 67.1338 110.389 66.6839 111.114 66.0647C117.718 60.4133 126.616 59.481 131.833 67.4986C132.563 68.6202 133.943 70.9416 134.953 71.7054C136.989 71.6914 136.124 63.7082 135.894 62.3588C133.063 45.7172 115.617 45.6716 106.967 58.1205L106.422 57.7998C106.095 58.5509 105.734 59.3437 105.446 60.1055C104.638 61.7456 101.559 70.7776 101.594 72.3514C101.761 72.5012 101.861 72.6154 102.053 72.7222L103.014 73.2664L103.613 73.9855L103.847 73.9409C104.61 72.1471 107.909 69.4921 109.16 68.1112Z" fill="#F0AB32"/>
<path d="M66.484 9.67163C66.4432 6.90434 66.0701 2.40169 61.6175 4.9094C59.4801 6.11208 58.2097 9.23152 57.7353 11.6051C57.1295 10.0072 55.8875 7.62375 53.7181 8.14007C49.0968 9.2397 49.143 16.1427 51.2555 19.4363C52.087 20.7324 52.5934 21.1153 53.8034 22.0175C58.8707 17.1393 67.6958 18.1671 71.5709 23.9565C74.6749 23.4731 77.9352 22.9653 80.1828 20.5414C81.6255 18.9866 82.0359 16.378 80.1188 15.0182C78.152 13.6244 75.8191 14.0275 73.623 14.4083C74.5416 12.4771 76.1798 11.3894 76.3965 9.20807C76.6008 7.14509 75.1493 6.47649 73.3032 6.47276C70.6399 6.46743 68.3763 7.92437 66.484 9.67163Z" fill="#FB6D02"/>
<path d="M107.433 74.7417C115.912 70.9199 121.96 74.3414 124.465 82.9133C124.698 83.7075 125.45 85.7561 126.133 86.2394C127.85 86.1683 129.114 81.5999 129.352 80.1148C131.366 67.5514 119.43 60.4134 109.16 68.1112C107.909 69.4921 104.61 72.1471 103.848 73.9409L103.613 73.9855L104.318 75.2383C104.748 76.3921 104.837 76.6878 105.04 77.8968L105.177 79.3557C107.883 79.1464 108.773 78.9961 111.145 80.6625C114.865 83.2793 112.479 89.5992 113.788 92.0209C114.902 92.7672 116.137 91.3351 116.765 90.4787C120.057 87.0265 120.661 80.5083 116.91 77.1543C114.218 74.7476 110.825 74.6576 107.433 74.7417Z" fill="#FB6D02"/>
<circle cx="3.5" cy="3.5" r="3.5" transform="matrix(-1 0 0 1 66.6191 32.4797)" fill="#EE4C24"/>
<circle cx="2" cy="2" r="2" transform="matrix(-1 0 0 1 60.6191 27.4797)" fill="#383538"/>
<path d="M222.873 50.1665C213.68 45.2079 210.971 37.624 214.478 27.5767C214.931 26.2797 215.805 24.8902 216.155 23.542C216.512 20.9022 215.933 8.28599 218.229 7.05541C220.572 7.02609 226.828 13.6711 228.244 15.8166C234.68 14.3323 240.328 14.5721 246.714 16.1778C248.545 13.8486 254.158 8.0065 256.457 7.36776C259.06 6.64498 258.481 23.4863 258.46 24.9764C258.446 25.9623 259.606 27.9116 259.904 28.9164C260.734 31.7858 261.034 34.7892 260.72 37.6706C260.242 42.0552 258.211 45.3854 254.784 48.0642C254.284 48.4599 253.764 48.8282 253.224 49.1676C256.528 66.0328 275.451 65.1677 271.91 92.6405C279.699 88.5593 279.608 79.2527 275.934 72.2902C273.869 68.379 271.091 64.9538 269.422 60.8712C265.764 52.4389 268.267 41.8626 276.645 37.3371C280.751 35.1028 288.675 34.7956 290.93 39.7041C291.335 40.5676 291.369 41.5586 291.026 42.4483C289.844 45.4977 287.051 44.7555 284.711 43.7387C280.891 42.0778 277.389 45.236 275.923 48.5352C272.764 55.6403 277.252 61.2898 280.801 67.1365C284.903 73.9394 286.587 82.1986 283.437 89.7764C281.719 94.021 278.361 97.3933 274.125 99.131C272.713 99.7013 271.458 99.9963 269.945 100.181L268.927 102.452C268.122 102.692 261.994 102.587 260.574 102.587C255.342 102.583 250.107 102.608 244.873 102.658L243.37 102.654C241.088 102.658 233.079 102.83 231.203 102.583C230.599 102.889 228.25 102.757 227.413 102.74C226.222 102.836 219.245 102.873 218.133 102.681L217.888 102.301C218.531 100.304 219.192 99.9554 220.672 98.4754C222.346 91.1285 220.503 79.3558 220.084 71.7081C219.663 64.4163 220.608 57.1103 222.873 50.1665Z" fill="black"/>
<circle cx="227.562" cy="30.4122" r="4" fill="#F0AB32"/>
<circle cx="244.562" cy="30.4122" r="4" fill="#F0AB32"/>
<path d="M228.562 30.4122C228.562 31.5168 227.812 33.4122 227.562 33.4122C227.312 33.4122 226.562 31.5168 226.562 30.4122C226.562 29.3077 227.312 27.4122 227.562 27.4122C227.812 27.4122 228.562 29.3077 228.562 30.4122Z" fill="#383538"/>
<path d="M245.562 30.4122C245.562 31.5168 244.812 33.4122 244.562 33.4122C244.312 33.4122 243.562 31.5168 243.562 30.4122C243.562 29.3077 244.312 27.4122 244.562 27.4122C244.812 27.4122 245.562 29.3077 245.562 30.4122Z" fill="#383538"/>
<path d="M224.79 51.1401C232.196 53.5147 237.956 53.9635 245.649 52.2831C247.069 58.9596 247.481 63.706 243.801 69.8368C242.11 72.6548 236.243 77.6217 235.49 79.3167L234.282 81.2818C232.295 80.3241 231.522 79.5939 229.822 78.1369C221.818 68.8141 221.025 62.7473 224.79 51.1401Z" fill="#FCC95F"/>
<path d="M229.821 78.1369C231.521 79.5939 232.294 80.3241 234.28 81.2818L235.488 79.3167C235.467 85.8836 235.298 92.3865 234.024 98.8698L232.686 99.9074C231.649 98.3954 230.048 95.9151 228.918 94.5843C228.929 93.9624 229.076 92.9444 229.158 92.3101C229.776 87.559 229.812 82.9199 229.821 78.1369Z" fill="#333333"/>
<path d="M249.913 97.1215C247.546 90.4782 247.66 82.8418 255.517 79.6791C256.135 79.4286 256.892 79.1976 257.524 79.4944L257.681 79.8799C257.457 80.3916 256.011 81.0241 255.44 81.2729C250.37 83.4796 249.351 88.8418 250.501 93.7368C250.91 95.4709 251.574 96.8763 251.995 98.4274C249.081 98.8751 245.762 99.2323 244.872 102.658L243.369 102.654C244.186 98.6975 246.256 97.9655 249.913 97.1215Z" fill="#333333"/>
<path d="M235.642 26.3873C236.146 26.3719 237.065 26.3525 237.409 26.7487C239.108 28.7012 238.388 32.276 239.502 34.6663C240.599 37.2635 243.99 38.2818 244.351 41.2895C244.897 45.8536 240.513 47.4436 236.891 47.748C232.628 47.7881 227.273 46.5254 227.946 40.9535C228.275 38.2422 230.711 37.5935 232.241 35.7062C234.305 33.156 232.992 28.4269 235.642 26.3873Z" fill="#FCC95F"/>
<path d="M235.562 38.4122V42.4122" stroke="black"/>
<path d="M254.972 11.5653C256.676 12.4239 256.072 19.6872 255.915 21.3408C254.874 20.6509 253.829 19.9667 252.781 19.288L249.414 17.2552C251.162 14.9412 252.646 13.3368 254.972 11.5653Z" fill="#FCC95F"/>
<path d="M219.396 11.1906C221.452 11.5591 224.306 15.0003 225.279 16.7719L222.309 18.2322C221.134 18.9463 219.974 19.6849 218.831 20.4477C218.576 17.909 218.421 13.5816 219.396 11.1906Z" fill="#FCC95F"/>
<path d="M235.797 39.8694C235.677 40.0195 235.448 40.0195 235.328 39.8694L232.952 36.8996C232.795 36.7032 232.935 36.4122 233.187 36.4122L237.938 36.4122C238.19 36.4122 238.33 36.7032 238.173 36.8996L235.797 39.8694Z" fill="black"/>
<path d="M57.321 132.725C55.4386 132.548 54 130.967 54 129.077C54 127.053 55.6406 125.412 57.6643 125.412L139 125.412L139 140.412L57.321 132.725Z" fill="#FFB53D"/>
<path d="M48 117.412C48 116.308 48.8954 115.412 50 115.412H60C61.1046 115.412 62 116.308 62 117.412V130.412C62 134.278 58.866 137.412 55 137.412C51.134 137.412 48 134.278 48 130.412V117.412Z" fill="#FF9E00"/>
<path d="M237.679 132.725C239.561 132.548 241 130.967 241 129.077C241 127.053 239.359 125.412 237.336 125.412L156 125.412L156 140.412L237.679 132.725Z" fill="#FFB53D"/>
<path d="M0 104.19C0 103.208 0.795938 102.412 1.77778 102.412H108.222C109.204 102.412 110 103.208 110 104.19C110 112.045 103.632 118.412 95.7778 118.412H14.2222C6.3675 118.412 0 112.045 0 104.19Z" fill="#FFB53D"/>
<path d="M232 117.412C232 116.308 232.895 115.412 234 115.412H244C245.105 115.412 246 116.308 246 117.412V130.412C246 134.278 242.866 137.412 239 137.412C235.134 137.412 232 134.278 232 130.412V117.412Z" fill="#FF9E00"/>
<path d="M136.897 127.268C137.825 122.141 142.289 118.412 147.5 118.412C152.711 118.412 157.175 122.141 158.103 127.268L167 176.412H128L136.897 127.268Z" fill="#FF9E00"/>
<path d="M184 104.19C184 103.208 184.796 102.412 185.778 102.412H292.222C293.204 102.412 294 103.208 294 104.19C294 112.045 287.632 118.412 279.778 118.412H198.222C190.368 118.412 184 112.045 184 104.19Z" fill="#FFB53D"/>
<path d="M183 174.634C183 175.616 182.204 176.412 181.222 176.412L112.778 176.412C111.796 176.412 111 175.616 111 174.634C111 166.78 117.368 160.412 125.222 160.412L168.778 160.412C176.632 160.412 183 166.78 183 174.634Z" fill="#FFB53D"/>
<circle cx="55" cy="129.412" r="3" fill="#FFB53D"/>
<circle cx="148" cy="129.412" r="7" fill="#FFB53D"/>
<circle cx="239" cy="129.412" r="3" fill="#FFB53D"/>
<path fill-rule="evenodd" clip-rule="evenodd" d="M33.4717 57.1756C35.5227 57.1756 37.1855 58.8384 37.1855 60.8895C37.1855 62.9405 35.5227 64.6034 33.4717 64.6034C31.4206 64.6034 29.7578 66.2993 29.7578 68.3504C29.7578 69.9811 30.8252 71.418 32.2848 72.1452C38.4918 75.2374 42.7559 81.6469 42.7559 89.0526V98.9794C42.7559 101.188 40.965 102.979 38.7559 102.979H9C6.79086 102.979 5 101.188 5 98.9794V89.0526C5 81.6469 9.26406 75.2374 15.4711 72.1452C16.9307 71.418 17.998 69.9811 17.998 68.3504C17.998 66.2993 16.3353 64.6034 14.2842 64.6034C12.2332 64.6034 10.5704 62.9405 10.5703 60.8895C10.5703 58.8384 12.2331 57.1756 14.2842 57.1756H33.4717Z" fill="#FF6D00"/>
<path d="M12.448 82.2876V81.6756H14.248V95.1756H12.448V85.7076H10.36V84.1956H10.792C11.962 84.1956 12.448 83.6376 12.448 82.2876ZM22.6727 86.1756V90.1716L26.5427 86.1756H28.9367L24.7067 90.2796L29.2607 95.1756H26.9747L22.6727 90.4416V95.1756H20.8727V86.1756H22.6727ZM32.5143 95.1756H30.7143V86.1756H36.6363V87.8316H32.5143V95.1756Z" fill="white"/>
</g>
<defs>
<clipPath id="clip0_288_8934">
<rect width="312" height="176.824" fill="white"/>
</clipPath>
</defs>
</svg>
