<svg width="312" height="356" viewBox="0 0 312 356" fill="none" xmlns="http://www.w3.org/2000/svg">
<path d="M156.151 333.302C241.724 333.302 311.095 263.931 311.095 178.358C311.095 92.7847 241.724 23.4139 156.151 23.4139C70.5778 23.4139 1.20703 92.7847 1.20703 178.358C1.20703 263.931 70.5778 333.302 156.151 333.302Z" fill="#FFB53D"/>
<path d="M156.151 324.005C236.59 324.005 301.799 258.797 301.799 178.358C301.799 97.9192 236.59 32.7107 156.151 32.7107C75.7125 32.7107 10.5039 97.9192 10.5039 178.358C10.5039 258.797 75.7125 324.005 156.151 324.005Z" fill="#FFE4C2"/>
<path d="M171.5 325L169.5 307L183 304.5L186.5 321L171.5 325Z" fill="#FFB53D" fill-opacity="0.4"/>
<path d="M156.151 308.511C228.033 308.511 286.304 250.239 286.304 178.358C286.304 106.476 228.033 48.205 156.151 48.205C84.2695 48.205 25.998 106.476 25.998 178.358C25.998 250.239 84.2695 308.511 156.151 308.511Z" fill="white" stroke="#EDEDED" stroke-width="0.289229" stroke-miterlimit="10"/>
<mask id="mask0_272_4931" style="mask-type:alpha" maskUnits="userSpaceOnUse" x="25" y="48" width="262" height="261">
<path d="M156.151 308.511C228.033 308.511 286.304 250.239 286.304 178.358C286.304 106.476 228.033 48.205 156.151 48.205C84.2695 48.205 25.998 106.476 25.998 178.358C25.998 250.239 84.2695 308.511 156.151 308.511Z" fill="white"/>
</mask>
<g mask="url(#mask0_272_4931)">
<path d="M158.151 180.776L260.501 87.4998L182 39.4994L84.9999 54.4995L156.5 178L158.151 180.776Z" fill="#FFB53D"/>
<path d="M155 181L222 65L181.999 39.4994L156.499 43.5L156.499 178L155 181Z" fill="white" fill-opacity="0.24"/>
</g>
<path d="M156.15 32.7107V324.005" stroke="#FFF2E0" stroke-width="0.68864" stroke-miterlimit="10"/>
<path d="M229.009 52.6468L156.15 178.358" stroke="#FFF2E0" stroke-width="0.68864" stroke-miterlimit="10"/>
<path d="M214.615 44.8994L208.555 59.1886" stroke="#FFB53D" stroke-width="0.34432" stroke-miterlimit="10"/>
<path d="M283.377 107.394L156.15 178.358" stroke="#FFF2E0" stroke-width="0.68864" stroke-miterlimit="10"/>
<path d="M301.799 178.358H10.5039" stroke="#FFF2E0" stroke-width="0.68864" stroke-miterlimit="10"/>
<path d="M200.672 39.4933L196.127 54.3335" stroke="#FFB53D" stroke-width="0.34432" stroke-miterlimit="10"/>
<path d="M186.279 35.9131L183.283 50.9599" stroke="#FFB53D" stroke-width="0.34432" stroke-miterlimit="10"/>
<path d="M171.198 33.399L169.648 48.8246" stroke="#FFB53D" stroke-width="0.34432" stroke-miterlimit="10"/>
<path d="M275.594 95.0668L262.889 103.916" stroke="#FFB53D" stroke-width="0.34432" stroke-miterlimit="10"/>
<path d="M266.059 82.7054L254.455 92.9661" stroke="#FFB53D" stroke-width="0.34432" stroke-miterlimit="10"/>
<path d="M254.489 70.8956L244.125 82.3959" stroke="#FFB53D" stroke-width="0.34432" stroke-miterlimit="10"/>
<path d="M242.369 60.8409L233.348 73.4086" stroke="#FFB53D" stroke-width="0.34432" stroke-miterlimit="10"/>
<path d="M290.091 121.063L275.836 127.158" stroke="#FFB53D" stroke-width="0.34432" stroke-miterlimit="10"/>
<path d="M295.463 135.696L280.623 140.241" stroke="#FFB53D" stroke-width="0.34432" stroke-miterlimit="10"/>
<path d="M298.974 149.71L283.789 152.775" stroke="#FFB53D" stroke-width="0.34432" stroke-miterlimit="10"/>
<path d="M301.04 164L285.684 165.515" stroke="#FFB53D" stroke-width="0.34432" stroke-miterlimit="10"/>
<path d="M83.2227 52.6468L156.081 178.358" stroke="#FFF2E0" stroke-width="0.68864" stroke-miterlimit="10"/>
<path d="M97.6172 44.8994L103.677 59.1886" stroke="#FFB53D" stroke-width="0.34432" stroke-miterlimit="10"/>
<path d="M28.8555 107.394L156.082 178.358" stroke="#FFF2E0" stroke-width="0.68864" stroke-miterlimit="10"/>
<path d="M111.561 39.4933L116.14 54.3335" stroke="#FFB53D" stroke-width="0.34432" stroke-miterlimit="10"/>
<path d="M125.953 35.9131L128.949 50.9599" stroke="#FFB53D" stroke-width="0.34432" stroke-miterlimit="10"/>
<path d="M141.07 33.399L142.585 48.8246" stroke="#FFB53D" stroke-width="0.34432" stroke-miterlimit="10"/>
<path d="M36.6367 95.0668L49.3421 103.916" stroke="#FFB53D" stroke-width="0.34432" stroke-miterlimit="10"/>
<path d="M46.1738 82.7054L57.7774 92.9661" stroke="#FFB53D" stroke-width="0.34432" stroke-miterlimit="10"/>
<path d="M57.7441 70.8956L68.1426 82.3959" stroke="#FFB53D" stroke-width="0.34432" stroke-miterlimit="10"/>
<path d="M69.8652 60.8409L78.9209 73.4086" stroke="#FFB53D" stroke-width="0.34432" stroke-miterlimit="10"/>
<path d="M22.1406 121.063L36.3955 127.158" stroke="#FFB53D" stroke-width="0.34432" stroke-miterlimit="10"/>
<path d="M16.8047 135.696L31.6104 140.241" stroke="#FFB53D" stroke-width="0.34432" stroke-miterlimit="10"/>
<path d="M13.2578 149.71L28.4423 152.775" stroke="#FFB53D" stroke-width="0.34432" stroke-miterlimit="10"/>
<path d="M11.1934 164L26.55 165.515" stroke="#FFB53D" stroke-width="0.34432" stroke-miterlimit="10"/>
<path d="M229.112 304.241L156.254 178.53" stroke="#FFF2E0" stroke-width="0.68864" stroke-miterlimit="10"/>
<path d="M214.72 311.954L208.66 297.699" stroke="#FFB53D" stroke-width="0.34432" stroke-miterlimit="10"/>
<path d="M283.48 249.46L156.254 178.53" stroke="#FFF2E0" stroke-width="0.68864" stroke-miterlimit="10"/>
<path d="M200.775 317.36L196.195 302.554" stroke="#FFB53D" stroke-width="0.34432" stroke-miterlimit="10"/>
<path d="M186.382 320.941L183.387 305.894" stroke="#FFB53D" stroke-width="0.34432" stroke-miterlimit="10"/>
<path d="M171.267 323.454L169.752 308.063" stroke="#FFB53D" stroke-width="0.34432" stroke-miterlimit="10"/>
<path d="M275.698 261.821L262.992 252.937" stroke="#FFB53D" stroke-width="0.34432" stroke-miterlimit="10"/>
<path d="M266.16 274.182L254.557 263.887" stroke="#FFB53D" stroke-width="0.34432" stroke-miterlimit="10"/>
<path d="M254.592 285.992L244.193 274.458" stroke="#FFB53D" stroke-width="0.34432" stroke-miterlimit="10"/>
<path d="M242.472 296.012L233.416 283.444" stroke="#FFB53D" stroke-width="0.34432" stroke-miterlimit="10"/>
<path d="M290.194 235.79L275.939 229.696" stroke="#FFB53D" stroke-width="0.34432" stroke-miterlimit="10"/>
<path d="M295.53 221.191L280.725 216.646" stroke="#FFB53D" stroke-width="0.34432" stroke-miterlimit="10"/>
<path d="M299.077 207.144L283.893 204.114" stroke="#FFB53D" stroke-width="0.34432" stroke-miterlimit="10"/>
<path d="M301.144 192.853L285.787 191.338" stroke="#FFB53D" stroke-width="0.34432" stroke-miterlimit="10"/>
<path d="M83.3281 304.241L156.186 178.53" stroke="#FFF2E0" stroke-width="0.68864" stroke-miterlimit="10"/>
<path d="M97.7188 311.954L103.779 297.699" stroke="#FFB53D" stroke-width="0.34432" stroke-miterlimit="10"/>
<path d="M28.959 249.46L156.185 178.53" stroke="#FFF2E0" stroke-width="0.68864" stroke-miterlimit="10"/>
<path d="M156 272.652L156 323.948" stroke="#FFB53D" stroke-width="1.20696" stroke-miterlimit="10"/>
<path d="M156.15 32.4661V85.2707" stroke="#FFB53D" stroke-width="1.20696" stroke-miterlimit="10"/>
<path d="M229.022 52.381L201.865 100.056" stroke="#FFB53D" stroke-width="1.20696" stroke-miterlimit="10"/>
<path d="M283.377 107.394L237.771 132.644" stroke="#FFB53D" stroke-width="1.20696" stroke-miterlimit="10"/>
<path d="M301.799 178.358H260.102" stroke="#FFB53D" stroke-width="1.20696" stroke-miterlimit="10"/>
<path d="M51.9554 178.358H10.2578" stroke="#FFB53D" stroke-width="1.20696" stroke-miterlimit="10"/>
<path d="M83.2227 52.6468L110.436 99.1509" stroke="#FFB53D" stroke-width="1.20696" stroke-miterlimit="10"/>
<path d="M28.8555 107.394L77.2454 133.851" stroke="#FFB53D" stroke-width="1.20696" stroke-miterlimit="10"/>
<path d="M229.112 304.241L202.77 258.168" stroke="#FFB53D" stroke-width="1.20696" stroke-miterlimit="10"/>
<path d="M283.48 249.46L236.564 223.166" stroke="#FFB53D" stroke-width="1.20696" stroke-miterlimit="10"/>
<path d="M83.3281 304.241L110.74 256.66" stroke="#FFB53D" stroke-width="1.20696" stroke-miterlimit="10"/>
<path d="M28.959 249.46L76.9439 222.865" stroke="#FFB53D" stroke-width="1.20696" stroke-miterlimit="10"/>
<path d="M111.664 317.36L116.209 302.554" stroke="#FFB53D" stroke-width="0.34432" stroke-miterlimit="10"/>
<path d="M126.057 320.941L129.052 305.894" stroke="#FFB53D" stroke-width="0.34432" stroke-miterlimit="10"/>
<path d="M141.139 323.454L142.688 308.063" stroke="#FFB53D" stroke-width="0.34432" stroke-miterlimit="10"/>
<path d="M36.7402 261.821L49.4456 252.937" stroke="#FFB53D" stroke-width="0.34432" stroke-miterlimit="10"/>
<path d="M46.2773 274.182L57.8809 263.887" stroke="#FFB53D" stroke-width="0.34432" stroke-miterlimit="10"/>
<path d="M57.8457 285.992L68.2097 274.458" stroke="#FFB53D" stroke-width="0.34432" stroke-miterlimit="10"/>
<path d="M69.9668 296.012L78.988 283.444" stroke="#FFB53D" stroke-width="0.34432" stroke-miterlimit="10"/>
<path d="M22.2441 235.79L36.499 229.696" stroke="#FFB53D" stroke-width="0.34432" stroke-miterlimit="10"/>
<path d="M16.873 221.191L31.7132 216.646" stroke="#FFB53D" stroke-width="0.34432" stroke-miterlimit="10"/>
<path d="M13.3613 207.144L28.5458 204.114" stroke="#FFB53D" stroke-width="0.34432" stroke-miterlimit="10"/>
<path d="M11.2949 192.853L26.6516 191.338" stroke="#FFB53D" stroke-width="0.34432" stroke-miterlimit="10"/>
<circle cx="156.302" cy="71.3907" r="16.8975" fill="#F4F4F4"/>
<circle cx="16.8975" cy="16.8975" r="16.8975" transform="matrix(1 0 0 -1 139.404 302.524)" fill="#F4F4F4"/>
<circle cx="209.71" cy="87.0812" r="16.8975" fill="#F4F4F4"/>
<circle cx="16.8975" cy="16.8975" r="16.8975" transform="matrix(1 0 0 -1 192.812 286.834)" fill="#F4F4F4"/>
<circle cx="16.8975" cy="16.8975" r="16.8975" transform="matrix(-1 0 0 1 120.092 70.1837)" fill="#F4F4F4"/>
<circle cx="103.194" cy="269.936" r="16.8975" transform="rotate(180 103.194 269.936)" fill="#F4F4F4"/>
<circle cx="249.237" cy="126.911" r="16.8975" fill="#F4F4F4"/>
<circle cx="16.8975" cy="16.8975" r="16.8975" transform="matrix(1 0 0 -1 232.34 247.004)" fill="#F4F4F4"/>
<circle cx="16.8975" cy="16.8975" r="16.8975" transform="matrix(-1 0 0 1 80.5645 110.014)" fill="#F4F4F4"/>
<circle cx="63.667" cy="230.106" r="16.8975" transform="rotate(180 63.667 230.106)" fill="#F4F4F4"/>
<circle cx="261.608" cy="178.509" r="16.8975" fill="#F4F4F4"/>
<circle cx="16.8975" cy="16.8975" r="16.8975" transform="matrix(-1 0 0 1 68.1934 161.611)" fill="#F4F4F4"/>
<path d="M149.91 63.6372V62.8393H152.257V80.4409H149.91V68.0963H147.188V66.1249H147.751C149.276 66.1249 149.91 65.3974 149.91 63.6372ZM164.404 67.5096C164.404 72.3676 158.349 74.4563 157.738 78.2817H164.638V80.4409H155.204V79.2674C155.204 73.6819 162.057 71.8044 162.057 67.5096C162.057 65.5617 161.141 64.7637 159.898 64.7637C158.583 64.7637 157.691 65.5147 157.691 67.7208V69.082H155.345V67.533C155.345 64.2474 157.363 62.6046 159.898 62.6046C162.385 62.6046 164.404 64.2709 164.404 67.5096Z" fill="black"/>
<path d="M209.169 79.4958V78.6979H211.516V96.2994H209.169V83.9549H206.446V81.9835H207.01C208.535 81.9835 209.169 81.256 209.169 79.4958Z" fill="black"/>
<path d="M99.0069 79.4958V78.6979H101.354V96.2994H99.0069V83.9549H96.2845V81.9835H96.8477C98.3732 81.9835 99.0069 81.256 99.0069 79.4958ZM106.272 79.4958V78.6979H108.619V96.2994H106.272V83.9549H103.55V81.9835H104.113C105.638 81.9835 106.272 81.256 106.272 79.4958Z" fill="black"/>
<path d="M253.853 123.015C253.853 127.873 247.798 129.961 247.188 133.787H254.088V135.946H244.653V134.772C244.653 129.187 251.506 127.309 251.506 123.015C251.506 121.067 250.591 120.269 249.347 120.269C248.033 120.269 247.141 121.02 247.141 123.226V124.587H244.794V123.038C244.794 119.752 246.812 118.11 249.347 118.11C251.835 118.11 253.853 119.776 253.853 123.015Z" fill="black"/>
<path d="M56.8871 119.142V118.344H59.2339V135.946H56.8871V123.601H54.1647V121.63H54.7279C56.2534 121.63 56.8871 120.902 56.8871 119.142ZM67.4145 136.181C64.34 136.181 62.4625 134.28 62.4625 130.407V123.883C62.4625 120.034 64.34 118.11 67.4145 118.11C70.5123 118.11 72.3664 120.034 72.3664 123.883V130.407C72.3664 134.28 70.5123 136.181 67.4145 136.181ZM67.4145 134.021C69.0338 134.021 70.0195 133.059 70.0195 130.407V123.883C70.0195 121.254 69.0338 120.269 67.4145 120.269C65.7951 120.269 64.8094 121.254 64.8094 123.883V130.407C64.8094 133.059 65.7716 134.021 67.4145 134.021Z" fill="black"/>
<path d="M261.789 179.773H260.475V177.426H261.789C263.103 177.426 263.925 176.699 263.925 174.962V174.258C263.925 172.639 263.056 171.981 261.789 171.981C260.522 171.981 259.607 172.639 259.607 174.211V174.845H257.26V174C257.26 171.277 259.278 169.822 261.789 169.822C264.253 169.822 266.272 171.301 266.272 174.047V174.892C266.272 176.558 265.45 177.731 264.206 178.365C265.732 178.999 266.741 180.289 266.741 182.19V183.223C266.741 186.25 264.535 187.893 261.789 187.893C259.02 187.893 256.79 186.25 256.79 183.176V182.143H259.137V182.965C259.137 184.889 260.193 185.734 261.789 185.734C263.385 185.734 264.394 184.913 264.394 183.012V182.495C264.394 180.548 263.385 179.773 261.789 179.773Z" fill="black"/>
<path d="M244.097 232.974L248.814 220.77H252.358V232.974H254.611V235.133H252.358V238.371H250.011V235.133H244.097V232.974ZM246.044 232.974H250.011V222.6L246.044 232.974Z" fill="black"/>
<path d="M58.7306 233.856C58.7306 231.955 59.7632 230.641 61.2887 229.984C60.0683 229.35 59.2469 228.2 59.2469 226.557V225.713C59.2469 222.99 61.2652 221.535 63.7763 221.535C66.2875 221.535 68.3058 222.99 68.3058 225.713V226.557C68.3058 228.2 67.4844 229.35 66.264 229.984C67.7895 230.641 68.8221 231.955 68.8221 233.856V234.889C68.8221 237.963 66.5691 239.606 63.7763 239.606C60.9836 239.606 58.7306 237.963 58.7306 234.889V233.856ZM61.5937 225.924V226.534C61.5937 228.224 62.4621 228.951 63.7763 228.951C65.1141 228.951 65.9589 228.224 65.9589 226.534V225.924C65.9589 224.351 65.0671 223.694 63.7763 223.694C62.509 223.694 61.5937 224.351 61.5937 225.924ZM61.0774 233.88V234.678C61.0774 236.602 62.157 237.447 63.7763 237.447C65.4192 237.447 66.4752 236.602 66.4752 234.678V233.88C66.4752 231.908 65.4192 231.11 63.7763 231.11C62.157 231.11 61.0774 231.908 61.0774 233.88Z" fill="black"/>
<path d="M103.576 277.821V279.018H101.229V278.22C101.229 271.32 103.247 267.87 105.547 263.575H98.5065V261.416H107.472V264.35C105.195 268.762 103.576 271.39 103.576 277.821Z" fill="black"/>
<path d="M207.448 263.575V268.551C208.035 267.635 209.021 267.049 210.311 267.049C212.987 267.049 214.395 268.809 214.395 272.165V274.042C214.395 277.492 212.306 279.252 209.701 279.252C207.049 279.252 204.961 277.539 204.961 274.324V273.667H207.307V273.949C207.307 276.178 208.223 277.093 209.701 277.093C211.086 277.093 212.048 276.155 212.048 274.042V272.306C212.048 269.982 211.109 269.114 209.701 269.114C208.293 269.114 207.613 269.959 207.448 270.921H205.195V261.416H213.973V263.575H207.448Z" fill="black"/>
<path d="M153.569 282.813V285.77C154.32 284.456 155.47 283.94 156.785 283.94C159.202 283.94 161.126 285.724 161.126 289.291V289.76C161.126 293.257 158.991 295.111 156.174 295.111C153.358 295.111 151.223 293.187 151.223 289.525V282.626C151.223 278.965 153.358 277.04 156.174 277.04C158.873 277.04 160.939 278.777 160.939 282.062V282.461H158.592V282.25C158.592 280.091 157.676 279.199 156.174 279.199C154.602 279.199 153.569 280.232 153.569 282.813ZM153.569 289.314V289.737C153.569 292.013 154.579 292.952 156.174 292.952C157.77 292.952 158.779 291.99 158.779 289.737V289.314C158.779 287.014 157.817 286.099 156.174 286.099C154.579 286.099 153.569 287.014 153.569 289.314Z" fill="black"/>
<path d="M53.9748 182.12V179.163C53.2238 180.477 52.0738 180.993 50.7595 180.993C48.3423 180.993 46.4178 179.21 46.4178 175.643V175.173C46.4178 171.676 48.5535 169.822 51.3697 169.822C54.186 169.822 56.3216 171.747 56.3216 175.408V182.308C56.3216 185.969 54.186 187.893 51.3697 187.893C48.6708 187.893 46.6056 186.157 46.6056 182.871V182.472H48.9525V182.683C48.9525 184.842 49.8677 185.734 51.3697 185.734C52.9421 185.734 53.9748 184.702 53.9748 182.12ZM53.9748 175.619V175.197C53.9748 172.92 52.9656 171.981 51.3697 171.981C49.7739 171.981 48.7647 172.944 48.7647 175.197V175.619C48.7647 177.919 49.7269 178.834 51.3697 178.834C52.9656 178.834 53.9748 177.919 53.9748 175.619Z" fill="black"/>
<circle cx="155.999" cy="107.298" r="9.65571" fill="#EDEDED"/>
<circle cx="9.65571" cy="9.65571" r="9.65571" transform="matrix(1 0 0 -1 146.344 259.979)" fill="#EDEDED"/>
<circle cx="192.511" cy="118.462" r="9.65571" fill="#EDEDED"/>
<circle cx="9.65571" cy="9.65571" r="9.65571" transform="matrix(1 0 0 -1 182.855 248.814)" fill="#EDEDED"/>
<circle cx="9.65571" cy="9.65571" r="9.65571" transform="matrix(-1 0 0 1 129.748 108.807)" fill="#EDEDED"/>
<circle cx="120.092" cy="239.159" r="9.65571" transform="rotate(180 120.092 239.159)" fill="#EDEDED"/>
<circle cx="217.857" cy="144.11" r="9.65571" fill="#EDEDED"/>
<circle cx="9.65571" cy="9.65571" r="9.65571" transform="matrix(1 0 0 -1 208.201 223.166)" fill="#EDEDED"/>
<circle cx="9.65571" cy="9.65571" r="9.65571" transform="matrix(-1 0 0 1 104.402 134.455)" fill="#EDEDED"/>
<circle cx="94.7466" cy="213.511" r="9.65571" transform="rotate(180 94.7466 213.511)" fill="#EDEDED"/>
<circle cx="226.003" cy="178.509" r="9.65571" fill="#EDEDED"/>
<circle cx="9.65571" cy="9.65571" r="9.65571" transform="matrix(-1 0 0 1 96.2539 168.853)" fill="#EDEDED"/>
<path d="M155.347 104.884C155.347 107.383 152.233 108.457 151.919 110.424H155.468V111.535H150.616V110.931C150.616 108.059 154.14 107.093 154.14 104.884C154.14 103.883 153.669 103.472 153.03 103.472C152.354 103.472 151.895 103.858 151.895 104.993V105.693H150.688V104.896C150.688 103.207 151.726 102.362 153.03 102.362C154.309 102.362 155.347 103.219 155.347 104.884ZM156.223 108.759L158.649 102.483H160.471V108.759H161.63V109.869H160.471V111.535H159.264V109.869H156.223V108.759ZM157.225 108.759H159.264V103.424L157.225 108.759Z" fill="black"/>
<path d="M153.973 27.898V28.6584C154.166 28.3205 154.462 28.1877 154.8 28.1877C155.422 28.1877 155.916 28.6464 155.916 29.5637V29.6843C155.916 30.5835 155.367 31.0603 154.643 31.0603C153.919 31.0603 153.37 30.5654 153.37 29.624V27.8498C153.37 26.9083 153.919 26.4135 154.643 26.4135C155.337 26.4135 155.868 26.8601 155.868 27.7049V27.8075H155.265V27.7532C155.265 27.198 155.029 26.9687 154.643 26.9687C154.239 26.9687 153.973 27.2342 153.973 27.898ZM153.973 29.5697V29.6783C153.973 30.2637 154.233 30.5051 154.643 30.5051C155.053 30.5051 155.313 30.2577 155.313 29.6783V29.5697C155.313 28.9783 155.065 28.7429 154.643 28.7429C154.233 28.7429 153.973 28.9783 153.973 29.5697ZM157.961 31.0603C157.17 31.0603 156.688 30.5715 156.688 29.5757V27.898C156.688 26.9083 157.17 26.4135 157.961 26.4135C158.758 26.4135 159.234 26.9083 159.234 27.898V29.5757C159.234 30.5715 158.758 31.0603 157.961 31.0603ZM157.961 30.5051C158.377 30.5051 158.631 30.2577 158.631 29.5757V27.898C158.631 27.2221 158.377 26.9687 157.961 26.9687C157.545 26.9687 157.291 27.2221 157.291 27.898V29.5757C157.291 30.2577 157.539 30.5051 157.961 30.5051Z" fill="white"/>
<path d="M231.181 47.2456V48.525C231.332 48.2897 231.586 48.1388 231.917 48.1388C232.605 48.1388 232.968 48.5914 232.968 49.4544V49.9372C232.968 50.8243 232.43 51.2769 231.761 51.2769C231.079 51.2769 230.542 50.8364 230.542 50.0096V49.8406H231.145V49.913C231.145 50.4863 231.38 50.7217 231.761 50.7217C232.117 50.7217 232.364 50.4803 232.364 49.9372V49.4906C232.364 48.8931 232.123 48.6699 231.761 48.6699C231.398 48.6699 231.223 48.8871 231.181 49.1345H230.602V46.6904H232.859V47.2456H231.181Z" fill="white"/>
<path d="M77.618 47.2456V48.525C77.7688 48.2897 78.0223 48.1388 78.3542 48.1388C79.0422 48.1388 79.4043 48.5914 79.4043 49.4544V49.9372C79.4043 50.8243 78.8672 51.2769 78.1973 51.2769C77.5154 51.2769 76.9783 50.8364 76.9783 50.0096V49.8406H77.5818V49.913C77.5818 50.4863 77.8171 50.7217 78.1973 50.7217C78.5534 50.7217 78.8008 50.4803 78.8008 49.9372V49.4906C78.8008 48.8931 78.5594 48.6699 78.1973 48.6699C77.8352 48.6699 77.6602 48.8871 77.618 49.1345H77.0386V46.6904H79.2956V47.2456H77.618ZM80.5882 47.2456V48.525C80.7391 48.2897 80.9926 48.1388 81.3245 48.1388C82.0124 48.1388 82.3745 48.5914 82.3745 49.4544V49.9372C82.3745 50.8243 81.8374 51.2769 81.1676 51.2769C80.4856 51.2769 79.9485 50.8364 79.9485 50.0096V49.8406H80.552V49.913C80.552 50.4863 80.7874 50.7217 81.1676 50.7217C81.5236 50.7217 81.771 50.4803 81.771 49.9372V49.4906C81.771 48.8931 81.5297 48.6699 81.1676 48.6699C80.8055 48.6699 80.6305 48.8871 80.5882 49.1345H80.0089V46.6904H82.2659V47.2456H80.5882Z" fill="white"/>
<path d="M286.088 103.925V103.72H286.691V108.246H286.088V105.071H285.388V104.564H285.532C285.925 104.564 286.088 104.377 286.088 103.925ZM288.795 108.306C288.004 108.306 287.521 107.817 287.521 106.821V105.144C287.521 104.154 288.004 103.659 288.795 103.659C289.591 103.659 290.068 104.154 290.068 105.144V106.821C290.068 107.817 289.591 108.306 288.795 108.306ZM288.795 107.751C289.211 107.751 289.465 107.503 289.465 106.821V105.144C289.465 104.468 289.211 104.214 288.795 104.214C288.378 104.214 288.125 104.468 288.125 105.144V106.821C288.125 107.503 288.372 107.751 288.795 107.751Z" fill="white"/>
<path d="M21.9246 104.275V105.554C22.0754 105.319 22.3289 105.168 22.6608 105.168C23.3488 105.168 23.7109 105.621 23.7109 106.483V106.966C23.7109 107.853 23.1738 108.306 22.5039 108.306C21.822 108.306 21.2849 107.865 21.2849 107.039V106.87H21.8884V106.942C21.8884 107.515 22.1237 107.751 22.5039 107.751C22.86 107.751 23.1074 107.509 23.1074 106.966V106.52C23.1074 105.922 22.866 105.699 22.5039 105.699C22.1418 105.699 21.9668 105.916 21.9246 106.164H21.3452V103.72H23.6023V104.275H21.9246ZM25.625 108.306C24.8345 108.306 24.3517 107.817 24.3517 106.821V105.144C24.3517 104.154 24.8345 103.659 25.625 103.659C26.4216 103.659 26.8984 104.154 26.8984 105.144V106.821C26.8984 107.817 26.4216 108.306 25.625 108.306ZM25.625 107.751C26.0415 107.751 26.2949 107.503 26.2949 106.821V105.144C26.2949 104.468 26.0415 104.214 25.625 104.214C25.2086 104.214 24.9552 104.468 24.9552 105.144V106.821C24.9552 107.503 25.2026 107.751 25.625 107.751Z" fill="white"/>
<path d="M304.668 176.343V176.137H305.271V180.664H304.668V177.489H303.968V176.982H304.113C304.505 176.982 304.668 176.795 304.668 176.343ZM306.645 176.693V177.972C306.795 177.737 307.049 177.586 307.381 177.586C308.069 177.586 308.431 178.038 308.431 178.901V179.384C308.431 180.271 307.894 180.724 307.224 180.724C306.542 180.724 306.005 180.283 306.005 179.457V179.288H306.608V179.36C306.608 179.933 306.844 180.169 307.224 180.169C307.58 180.169 307.827 179.927 307.827 179.384V178.938C307.827 178.34 307.586 178.117 307.224 178.117C306.862 178.117 306.687 178.334 306.645 178.581H306.065V176.137H308.322V176.693H306.645Z" fill="white"/>
<path d="M2.9217 179.276L4.1347 176.137H5.04596V179.276H5.6253V179.831H5.04596V180.664H4.44248V179.831H2.9217V179.276ZM3.42259 179.276H4.44248V176.608L3.42259 179.276ZM6.74495 176.693V177.972C6.89582 177.737 7.14928 177.586 7.4812 177.586C8.16917 177.586 8.53126 178.038 8.53126 178.901V179.384C8.53126 180.271 7.99416 180.724 7.32429 180.724C6.64236 180.724 6.10526 180.283 6.10526 179.457V179.288H6.70874V179.36C6.70874 179.933 6.9441 180.169 7.32429 180.169C7.68035 180.169 7.92777 179.927 7.92777 179.384V178.938C7.92777 178.34 7.68638 178.117 7.32429 178.117C6.9622 178.117 6.78719 178.334 6.74495 178.581H6.16561V176.137H8.42263V176.693H6.74495Z" fill="white"/>
<path d="M287.083 249.756C287.083 251.005 285.526 251.542 285.369 252.526H287.143V253.081H284.717V252.78C284.717 251.343 286.479 250.861 286.479 249.756C286.479 249.255 286.244 249.05 285.924 249.05C285.586 249.05 285.357 249.243 285.357 249.81V250.161H284.753V249.762C284.753 248.917 285.272 248.495 285.924 248.495C286.564 248.495 287.083 248.923 287.083 249.756ZM289.057 253.142C288.266 253.142 287.783 252.653 287.783 251.657V249.979C287.783 248.99 288.266 248.495 289.057 248.495C289.853 248.495 290.33 248.99 290.33 249.979V251.657C290.33 252.653 289.853 253.142 289.057 253.142ZM289.057 252.587C289.473 252.587 289.727 252.339 289.727 251.657V249.979C289.727 249.304 289.473 249.05 289.057 249.05C288.64 249.05 288.387 249.304 288.387 249.979V251.657C288.387 252.339 288.634 252.587 289.057 252.587Z" fill="white"/>
<path d="M21.4549 251.693L22.6679 248.555H23.5791V251.693H24.1585V252.249H23.5791V253.081H22.9757V252.249H21.4549V251.693ZM21.9558 251.693H22.9757V249.026L21.9558 251.693ZM26.0083 253.142C25.2178 253.142 24.735 252.653 24.735 251.657V249.979C24.735 248.99 25.2178 248.495 26.0083 248.495C26.8049 248.495 27.2817 248.99 27.2817 249.979V251.657C27.2817 252.653 26.8049 253.142 26.0083 253.142ZM26.0083 252.587C26.4247 252.587 26.6782 252.339 26.6782 251.657V249.979C26.6782 249.304 26.4247 249.05 26.0083 249.05C25.5919 249.05 25.3385 249.304 25.3385 249.979V251.657C25.3385 252.339 25.5859 252.587 26.0083 252.587Z" fill="white"/>
<path d="M231.434 307.087C231.434 308.336 229.877 308.873 229.721 309.857H231.495V310.412H229.069V310.11C229.069 308.674 230.831 308.191 230.831 307.087C230.831 306.586 230.596 306.381 230.276 306.381C229.938 306.381 229.708 306.574 229.708 307.141V307.491H229.105V307.093C229.105 306.248 229.624 305.826 230.276 305.826C230.915 305.826 231.434 306.254 231.434 307.087ZM232.678 306.441V307.721C232.829 307.485 233.082 307.334 233.414 307.334C234.102 307.334 234.464 307.787 234.464 308.65V309.133C234.464 310.02 233.927 310.472 233.257 310.472C232.576 310.472 232.038 310.032 232.038 309.205V309.036H232.642V309.109C232.642 309.682 232.877 309.917 233.257 309.917C233.614 309.917 233.861 309.676 233.861 309.133V308.686C233.861 308.089 233.62 307.865 233.257 307.865C232.895 307.865 232.72 308.083 232.678 308.33H232.099V305.886H234.356V306.441H232.678Z" fill="white"/>
<path d="M154.373 328.601H154.035V327.998H154.373C154.711 327.998 154.922 327.811 154.922 327.364V327.183C154.922 326.766 154.699 326.598 154.373 326.598C154.047 326.598 153.812 326.766 153.812 327.171V327.334H153.209V327.117C153.209 326.416 153.728 326.042 154.373 326.042C155.007 326.042 155.526 326.423 155.526 327.129V327.346C155.526 327.774 155.315 328.076 154.995 328.239C155.387 328.402 155.647 328.734 155.647 329.223V329.488C155.647 330.267 155.079 330.689 154.373 330.689C153.661 330.689 153.088 330.267 153.088 329.476V329.211H153.691V329.422C153.691 329.917 153.963 330.134 154.373 330.134C154.784 330.134 155.043 329.923 155.043 329.434V329.301C155.043 328.8 154.784 328.601 154.373 328.601ZM157.569 330.689C156.778 330.689 156.296 330.2 156.296 329.205V327.527C156.296 326.537 156.778 326.042 157.569 326.042C158.365 326.042 158.842 326.537 158.842 327.527V329.205C158.842 330.2 158.365 330.689 157.569 330.689ZM157.569 330.134C157.985 330.134 158.239 329.887 158.239 329.205V327.527C158.239 326.851 157.985 326.598 157.569 326.598C157.152 326.598 156.899 326.851 156.899 327.527V329.205C156.899 329.887 157.146 330.134 157.569 330.134Z" fill="white"/>
<path d="M79.4123 308.384H79.0744V307.781H79.4123C79.7503 307.781 79.9615 307.594 79.9615 307.147V306.966C79.9615 306.55 79.7382 306.381 79.4123 306.381C79.0865 306.381 78.8511 306.55 78.8511 306.954V307.117H78.2476V306.9C78.2476 306.2 78.7666 305.826 79.4123 305.826C80.046 305.826 80.565 306.206 80.565 306.912V307.129C80.565 307.558 80.3538 307.859 80.0339 308.022C80.4262 308.185 80.6857 308.517 80.6857 309.006V309.272C80.6857 310.05 80.1184 310.472 79.4123 310.472C78.7002 310.472 78.1269 310.05 78.1269 309.259V308.994H78.7304V309.205C78.7304 309.7 79.002 309.917 79.4123 309.917C79.8227 309.917 80.0822 309.706 80.0822 309.217V309.084C80.0822 308.584 79.8227 308.384 79.4123 308.384ZM81.8778 306.441V307.721C82.0286 307.485 82.2821 307.334 82.614 307.334C83.302 307.334 83.6641 307.787 83.6641 308.65V309.133C83.6641 310.02 83.127 310.472 82.4571 310.472C81.7752 310.472 81.2381 310.032 81.2381 309.205V309.036H81.8416V309.109C81.8416 309.682 82.0769 309.917 82.4571 309.917C82.8132 309.917 83.0606 309.676 83.0606 309.133V308.686C83.0606 308.089 82.8192 307.865 82.4571 307.865C82.095 307.865 81.92 308.083 81.8778 308.33H81.2984V305.886H83.5554V306.441H81.8778Z" fill="white"/>
<path d="M189.01 114.27V113.859H190.217V122.912H189.01V116.563H187.61V115.549H187.899C188.684 115.549 189.01 115.175 189.01 114.27ZM194.303 118.856H193.627V117.649H194.303C194.979 117.649 195.402 117.275 195.402 116.382V116.02C195.402 115.187 194.955 114.849 194.303 114.849C193.651 114.849 193.181 115.187 193.181 115.996V116.322H191.974V115.887C191.974 114.487 193.012 113.739 194.303 113.739C195.57 113.739 196.608 114.499 196.608 115.911V116.346C196.608 117.203 196.186 117.806 195.546 118.132C196.331 118.458 196.85 119.122 196.85 120.099V120.63C196.85 122.187 195.715 123.032 194.303 123.032C192.879 123.032 191.732 122.187 191.732 120.606V120.075H192.939V120.498C192.939 121.487 193.482 121.922 194.303 121.922C195.124 121.922 195.643 121.499 195.643 120.522V120.256C195.643 119.255 195.124 118.856 194.303 118.856Z" fill="black"/>
<path d="M119.203 116.261C119.203 118.76 116.089 119.834 115.775 121.801H119.324V122.912H114.472V122.308C114.472 119.436 117.996 118.47 117.996 116.261C117.996 115.259 117.525 114.849 116.886 114.849C116.21 114.849 115.751 115.235 115.751 116.37V117.07H114.544V116.273C114.544 114.584 115.582 113.739 116.886 113.739C118.165 113.739 119.203 114.596 119.203 116.261ZM123.03 118.856H122.354V117.649H123.03C123.706 117.649 124.129 117.275 124.129 116.382V116.02C124.129 115.187 123.682 114.849 123.03 114.849C122.379 114.849 121.908 115.187 121.908 115.996V116.322H120.701V115.887C120.701 114.487 121.739 113.739 123.03 113.739C124.298 113.739 125.336 114.499 125.336 115.911V116.346C125.336 117.203 124.913 117.806 124.274 118.132C125.058 118.458 125.577 119.122 125.577 120.099V120.63C125.577 122.187 124.443 123.032 123.03 123.032C121.606 123.032 120.46 122.187 120.46 120.606V120.075H121.667V120.498C121.667 121.487 122.21 121.922 123.03 121.922C123.851 121.922 124.37 121.499 124.37 120.522V120.256C124.37 119.255 123.851 118.856 123.03 118.856Z" fill="black"/>
<path d="M214.693 139.781V139.371H215.9V148.423H214.693V142.075H213.293V141.061H213.582C214.367 141.061 214.693 140.687 214.693 139.781ZM217.271 145.647L219.697 139.371H221.519V145.647H222.678V146.758H221.519V148.423H220.312V146.758H217.271V145.647ZM218.272 145.647H220.312V140.312L218.272 145.647Z" fill="black"/>
<path d="M94.1786 141.773C94.1786 144.271 91.0646 145.345 90.7508 147.313H94.2993V148.423H89.4473V147.82C89.4473 144.947 92.9716 143.982 92.9716 141.773C92.9716 140.771 92.5009 140.361 91.8612 140.361C91.1853 140.361 90.7267 140.747 90.7267 141.881V142.582H89.5197V141.785C89.5197 140.095 90.5577 139.25 91.8612 139.25C93.1406 139.25 94.1786 140.107 94.1786 141.773ZM100.166 141.773C100.166 144.271 97.0523 145.345 96.7385 147.313H100.287V148.423H95.435V147.82C95.435 144.947 98.9593 143.982 98.9593 141.773C98.9593 140.771 98.4886 140.361 97.8489 140.361C97.173 140.361 96.7143 140.747 96.7143 141.881V142.582H95.5074V141.785C95.5074 140.095 96.5454 139.25 97.8489 139.25C99.1283 139.25 100.166 140.107 100.166 141.773Z" fill="black"/>
<path d="M222.96 174.257V173.846H224.167V182.898H222.96V176.55H221.56V175.536H221.85C222.634 175.536 222.96 175.162 222.96 174.257ZM226.914 174.957V177.515C227.215 177.045 227.722 176.743 228.386 176.743C229.762 176.743 230.486 177.648 230.486 179.374V180.34C230.486 182.114 229.412 183.019 228.072 183.019C226.708 183.019 225.634 182.138 225.634 180.484V180.146H226.841V180.291C226.841 181.438 227.312 181.909 228.072 181.909C228.784 181.909 229.279 181.426 229.279 180.34V179.446C229.279 178.252 228.796 177.805 228.072 177.805C227.348 177.805 226.998 178.239 226.914 178.734H225.755V173.846H230.269V174.957H226.914Z" fill="black"/>
<path d="M87.0288 176.248C87.0288 178.746 83.9149 179.821 83.6011 181.788H87.1495V182.898H82.2975V182.295C82.2975 179.422 85.8219 178.457 85.8219 176.248C85.8219 175.246 85.3512 174.836 84.7115 174.836C84.0356 174.836 83.5769 175.222 83.5769 176.357V177.057H82.37V176.26C82.37 174.57 83.4079 173.725 84.7115 173.725C85.9908 173.725 87.0288 174.582 87.0288 176.248ZM89.2991 174.257V173.846H90.506V182.898H89.2991V176.55H87.899V175.536H88.1887C88.9732 175.536 89.2991 175.162 89.2991 174.257Z" fill="black"/>
<path d="M214.339 209.076V208.666H215.546V217.718H214.339V211.37H212.939V210.356H213.228C214.013 210.356 214.339 209.982 214.339 209.076ZM218.413 211.514V213.035C218.799 212.359 219.391 212.094 220.067 212.094C221.31 212.094 222.3 213.011 222.3 214.846V215.087C222.3 216.885 221.201 217.839 219.753 217.839C218.305 217.839 217.206 216.849 217.206 214.966V211.418C217.206 209.535 218.305 208.545 219.753 208.545C221.141 208.545 222.203 209.438 222.203 211.128V211.333H220.996V211.225C220.996 210.114 220.525 209.656 219.753 209.656C218.944 209.656 218.413 210.187 218.413 211.514ZM218.413 214.858V215.075C218.413 216.246 218.932 216.729 219.753 216.729C220.574 216.729 221.093 216.234 221.093 215.075V214.858C221.093 213.675 220.598 213.204 219.753 213.204C218.932 213.204 218.413 213.675 218.413 214.858Z" fill="black"/>
<path d="M93.8545 211.413C93.8545 213.911 90.7405 214.985 90.4267 216.953H93.9752V218.063H89.1232V217.46C89.1232 214.587 92.6475 213.621 92.6475 211.413C92.6475 210.411 92.1768 210.001 91.5371 210.001C90.8612 210.001 90.4025 210.387 90.4025 211.521V212.221H89.1956V211.425C89.1956 209.735 90.2336 208.89 91.5371 208.89C92.8165 208.89 93.8545 209.747 93.8545 211.413ZM97.8024 218.184C96.2212 218.184 95.2557 217.206 95.2557 215.215V211.859C95.2557 209.88 96.2212 208.89 97.8024 208.89C99.3956 208.89 100.349 209.88 100.349 211.859V215.215C100.349 217.206 99.3956 218.184 97.8024 218.184ZM97.8024 217.073C98.6352 217.073 99.1421 216.578 99.1421 215.215V211.859C99.1421 210.507 98.6352 210.001 97.8024 210.001C96.9696 210.001 96.4626 210.507 96.4626 211.859V215.215C96.4626 216.578 96.9575 217.073 97.8024 217.073Z" fill="black"/>
<path d="M189.576 234.933V234.522H190.783V243.575H189.576V237.226H188.175V236.212H188.465C189.25 236.212 189.576 235.838 189.576 234.933ZM194.495 242.959V243.575H193.288V243.164C193.288 239.616 194.326 237.842 195.509 235.633H191.888V234.522H196.498V236.031C195.328 238.3 194.495 239.652 194.495 242.959Z" fill="black"/>
<path d="M116.601 234.933V234.522H117.808V243.575H116.601V237.226H115.201V236.212H115.491C116.275 236.212 116.601 235.838 116.601 234.933ZM123.355 240.726V239.205C122.969 239.881 122.377 240.147 121.701 240.147C120.458 240.147 119.468 239.23 119.468 237.395V237.154C119.468 235.355 120.567 234.402 122.015 234.402C123.463 234.402 124.562 235.391 124.562 237.274V240.823C124.562 242.706 123.463 243.695 122.015 243.695C120.627 243.695 119.565 242.802 119.565 241.113V240.907H120.772V241.016C120.772 242.126 121.243 242.585 122.015 242.585C122.824 242.585 123.355 242.054 123.355 240.726ZM123.355 237.383V237.166C123.355 235.995 122.836 235.512 122.015 235.512C121.194 235.512 120.675 236.007 120.675 237.166V237.383C120.675 238.566 121.17 239.037 122.015 239.037C122.836 239.037 123.355 238.566 123.355 237.383Z" fill="black"/>
<path d="M152.572 245.965V245.554H153.779V254.607H152.572V248.258H151.172V247.244H151.462C152.247 247.244 152.572 246.87 152.572 245.965ZM155.271 251.77C155.271 250.793 155.802 250.117 156.586 249.779C155.959 249.453 155.536 248.862 155.536 248.017V247.582C155.536 246.182 156.574 245.434 157.866 245.434C159.157 245.434 160.195 246.182 160.195 247.582V248.017C160.195 248.862 159.773 249.453 159.145 249.779C159.93 250.117 160.461 250.793 160.461 251.77V252.301C160.461 253.883 159.302 254.727 157.866 254.727C156.43 254.727 155.271 253.883 155.271 252.301V251.77ZM156.743 247.691V248.005C156.743 248.874 157.19 249.248 157.866 249.248C158.554 249.248 158.988 248.874 158.988 248.005V247.691C158.988 246.882 158.53 246.544 157.866 246.544C157.214 246.544 156.743 246.882 156.743 247.691ZM156.478 251.782V252.193C156.478 253.182 157.033 253.617 157.866 253.617C158.711 253.617 159.254 253.182 159.254 252.193V251.782C159.254 250.769 158.711 250.358 157.866 250.358C157.033 250.358 156.478 250.769 156.478 251.782Z" fill="black"/>
<path d="M129.737 132.101L142.516 135.692L126.443 144.96L129.737 132.101Z" fill="black"/>
<rect x="128.318" y="141.043" width="11.361" height="47.7919" transform="rotate(-29.9694 128.318 141.043)" fill="black"/>
<path d="M136.103 142.712L137.979 141.648L138.454 142.486L134.267 144.86L133.792 144.023L135.35 143.139C135.141 142.948 134.895 142.611 134.729 142.318C134.031 141.087 134.217 140.185 135.481 139.468L136.436 138.927L136.911 139.764L135.964 140.301C135.211 140.728 135.148 141.262 135.538 141.948C135.77 142.359 135.971 142.577 136.103 142.712ZM135.565 147.344C135.142 146.599 135.118 145.716 135.947 145.246C137.756 144.22 138.452 147.555 139.406 147.014C139.817 146.781 139.819 146.259 139.53 145.748C139.221 145.204 138.731 144.984 138.187 145.293L137.693 144.422C138.773 143.809 139.677 144.447 140.2 145.368C140.713 146.273 140.819 147.319 139.848 147.87L136.917 149.532L136.451 148.712L137.155 148.313C136.445 148.35 135.907 147.947 135.565 147.344ZM136.481 146.072C136.121 146.276 136.121 146.685 136.363 147.112C136.729 147.757 137.448 148.146 138.176 147.733L138.478 147.562C137.731 147.045 137.185 145.673 136.481 146.072ZM141.783 152.238C142.371 151.793 142.425 151.088 142.083 150.485C141.679 149.773 140.814 149.555 139.969 150.035C139.123 150.514 138.866 151.369 139.27 152.08C139.616 152.692 140.287 152.997 141.03 152.687L141.524 153.558C140.381 154.118 139.145 153.656 138.499 152.517C137.82 151.32 138.213 149.924 139.494 149.197C140.775 148.471 142.174 148.85 142.854 150.048C143.48 151.153 143.266 152.415 142.276 153.109L141.783 152.238ZM143.615 158.063C142.786 158.534 141.894 158.309 141.301 157.262L140.294 155.487L144.481 153.112L144.956 153.949L143.574 154.733L144.101 155.663C144.676 156.676 144.444 157.593 143.615 158.063ZM143.044 160.335L142.569 159.498L146.756 157.123L147.231 157.961L143.044 160.335ZM143.36 155.995L142.871 155.132L141.472 155.925L141.961 156.788C142.284 157.357 142.696 157.478 143.148 157.221C143.609 156.96 143.683 156.564 143.36 155.995Z" fill="#FFF2E0"/>
<path d="M236.913 108.442L236.012 121.686L223.652 107.848L236.913 108.442Z" fill="#FF6D00"/>
<path d="M227.87 108.883L235.438 117.356L164.101 180.555L156.533 172.081L227.87 108.883Z" fill="#FF6D00"/>
<path d="M208.361 136.283L207.545 136.989L203.811 134.721L206.534 137.865L205.864 138.445L202.713 134.806L203.943 133.741L207.442 135.958L205.748 132.178L206.956 131.132L210.107 134.771L209.379 135.401L206.657 132.257L208.361 136.283ZM214.477 130.987L213.778 131.592L211.264 128.688L212.112 133.035L211.187 133.835L208.036 130.197L208.735 129.592L211.25 132.495L210.402 128.149L211.326 127.348L214.477 130.987ZM216.279 129.426L215.551 130.057L212.4 126.418L213.128 125.788L214.401 127.258L216.147 125.745L214.874 124.275L215.602 123.645L218.753 127.284L218.025 127.914L216.721 126.408L214.974 127.92L216.279 129.426ZM221.812 125.348C222.257 126.478 222.423 127.391 221.528 128.166C221.324 128.343 221.089 128.483 220.913 128.559L220.358 127.918C220.535 127.842 220.733 127.734 220.908 127.583C221.367 127.186 221.381 126.702 221.122 125.933L216.184 123.142L216.911 122.511L220.607 124.647L219.014 120.69L219.742 120.06L221.812 125.348ZM225.017 121.859L224.289 122.49L221.718 119.52L220.539 120.541L219.959 119.872L223.045 117.2L223.625 117.869L222.446 118.89L225.017 121.859ZM228.739 116.497C229.363 117.217 229.318 118.135 228.408 118.923L226.865 120.259L223.714 116.62L224.442 115.99L225.482 117.191L226.29 116.491C227.17 115.729 228.115 115.776 228.739 116.497ZM231.079 116.61L230.351 117.24L227.2 113.602L227.928 112.971L231.079 116.61ZM226.761 117.153L226.011 117.802L227.064 119.017L227.813 118.368C228.308 117.94 228.346 117.513 228.005 117.12C227.659 116.719 227.256 116.724 226.761 117.153Z" fill="#FFF2E0"/>
<circle cx="156" cy="178" r="10" fill="#FF9E00"/>
<path d="M188.158 339.976V339.5H189.558V350H188.158V342.636H186.534V341.46H186.87C187.78 341.46 188.158 341.026 188.158 339.976ZM199.625 350H198.057L196.111 343.952V350H194.823V343H197.189L198.925 348.768L200.661 343H202.985V350H201.585V343.952L199.625 350ZM211.377 350H210.033V344.414L206.827 350H205.049V343H206.393V348.586L209.599 343H211.377V350ZM214.829 350H213.429V343H214.829V345.828H218.189V343H219.589V350H218.189V347.102H214.829V350ZM224.782 350.784C224.194 352.45 223.508 353.612 221.786 353.612C221.394 353.612 221.002 353.542 220.736 353.458V352.226C221.002 352.31 221.324 352.38 221.66 352.38C222.542 352.38 223.018 351.862 223.466 350.77L220.694 343H222.094L224.124 348.866L226.14 343H227.54L224.782 350.784ZM231.612 350H230.212V344.288H227.944V343H233.88V344.288H231.612V350ZM237.101 350.14C235.855 350.14 234.721 349.538 234.721 348.152C234.721 345.128 239.439 346.64 239.439 345.044C239.439 344.358 238.781 343.98 237.927 343.98C237.017 343.98 236.387 344.442 236.387 345.352H234.931C234.931 343.546 236.387 342.86 237.927 342.86C239.439 342.86 240.839 343.476 240.839 345.1V350H239.467V348.824C239.005 349.748 238.109 350.14 237.101 350.14ZM236.149 348.068C236.149 348.67 236.667 348.964 237.381 348.964C238.459 348.964 239.467 348.334 239.467 347.116V346.612C238.277 347.186 236.149 346.892 236.149 348.068Z" fill="black" fill-opacity="0.48"/>
<path d="M186.983 4.976V4.5H188.383V15H186.983V7.636H185.359V6.46H185.695C186.605 6.46 186.983 6.026 186.983 4.976ZM197.819 11.136V8H199.219V15H197.819V12.396C197.427 12.522 196.825 12.592 196.335 12.592C194.277 12.592 193.269 11.71 193.269 9.596V8H194.669V9.582C194.669 10.842 195.299 11.304 196.447 11.304C197.133 11.304 197.553 11.206 197.819 11.136ZM203.278 15.14C202.032 15.14 200.898 14.538 200.898 13.152C200.898 10.128 205.616 11.64 205.616 10.044C205.616 9.358 204.958 8.98 204.104 8.98C203.194 8.98 202.564 9.442 202.564 10.352H201.108C201.108 8.546 202.564 7.86 204.104 7.86C205.616 7.86 207.016 8.476 207.016 10.1V15H205.644V13.824C205.182 14.748 204.286 15.14 203.278 15.14ZM202.326 13.068C202.326 13.67 202.844 13.964 203.558 13.964C204.636 13.964 205.644 13.334 205.644 12.116V11.612C204.454 12.186 202.326 11.892 202.326 13.068ZM213.916 10.786C213.776 9.722 212.922 9.148 211.914 9.148C210.724 9.148 209.828 10.086 209.828 11.5C209.828 12.914 210.724 13.852 211.914 13.852C212.936 13.852 213.804 13.222 213.944 12.06H215.4C215.288 13.908 213.818 15.14 211.914 15.14C209.912 15.14 208.428 13.642 208.428 11.5C208.428 9.358 209.912 7.86 211.914 7.86C213.762 7.86 215.204 9.036 215.372 10.786H213.916Z" fill="black" fill-opacity="0.48"/>
<path d="M179.5 319C179.5 318.724 179.276 318.5 179 318.5C178.724 318.5 178.5 318.724 178.5 319H179H179.5ZM179 343.333C177.527 343.333 176.333 344.527 176.333 346C176.333 347.473 177.527 348.667 179 348.667C180.473 348.667 181.667 347.473 181.667 346C181.667 344.527 180.473 343.333 179 343.333ZM179 319H178.5V346H179H179.5V319H179Z" fill="#FF9E00"/>
<path d="M178.5 67C178.5 67.2761 178.724 67.5 179 67.5C179.276 67.5 179.5 67.2761 179.5 67L179 67L178.5 67ZM179 12.6667C180.473 12.6667 181.667 11.4728 181.667 10C181.667 8.52724 180.473 7.33333 179 7.33333C177.527 7.33333 176.333 8.52724 176.333 10C176.333 11.4728 177.527 12.6667 179 12.6667ZM179 67L179.5 67L179.5 10L179 10L178.5 10L178.5 67L179 67Z" fill="#FF9E00"/>
</svg>
