<svg width="140" height="110" viewBox="0 0 140 110" fill="none" xmlns="http://www.w3.org/2000/svg">
<path d="M44.904 72.16C42.84 72.16 41.576 70.752 41.576 68.608C41.576 66.096 43.24 63.84 45.752 63.84C47.016 63.84 48.008 64.512 48.44 65.632L48.776 64H50.536L48.84 72H47.144C47.144 72 47.272 71.424 47.384 70.88C46.744 71.664 45.896 72.16 44.904 72.16ZM47.976 67.392C47.976 66.112 47.208 65.312 45.992 65.312C44.328 65.312 43.272 66.928 43.272 68.608C43.272 69.888 44.024 70.688 45.224 70.688C46.904 70.688 47.976 69.072 47.976 67.392Z" fill="black"/>
<path d="M87.904 68.16C85.84 68.16 84.576 66.752 84.576 64.608C84.576 62.096 86.24 59.84 88.752 59.84C90.016 59.84 91.008 60.512 91.44 61.632L91.776 60H93.536L91.84 68H90.144C90.144 68 90.272 67.424 90.384 66.88C89.744 67.664 88.896 68.16 87.904 68.16ZM90.976 63.392C90.976 62.112 90.208 61.312 88.992 61.312C87.328 61.312 86.272 62.928 86.272 64.608C86.272 65.888 87.024 66.688 88.224 66.688C89.904 66.688 90.976 65.072 90.976 63.392Z" fill="black"/>
<path d="M114.529 69.0728H53.2581L26 90.5644H87.317L100.923 79.8186L114.529 69.0728Z" fill="#FF9E00" fill-opacity="0.5"/>
<path d="M53.2581 69.0728H114.529M53.2581 69.0728L26 90.5644M53.2581 69.0728L70.2643 18.1537" stroke="#999999" stroke-width="0.922429"/>
<path d="M70.2656 18V73.807M70.2656 79.8186V73.807M70.2656 73.807H75.9539V79.8186" stroke="#303030" stroke-width="0.614953"/>
<path d="M70.2656 79.8027H100.86" stroke="#303030" stroke-width="0.307476" stroke-dasharray="0.61 0.61"/>
<circle cx="70.2638" cy="79.6797" r="1.45129" fill="#303030"/>
<path opacity="0.5" d="M87.2705 90.5645L114.529 69.0728L70.2643 18L26 90.5645H87.2705Z" fill="#FF9E00" stroke="#303030" stroke-width="0.307476"/>
<path d="M87.2705 90.5645L114.529 69.0728L70.2643 18M87.2705 90.5645H26L70.2643 18M87.2705 90.5645L70.2643 18" stroke="#303030" stroke-width="0.922429"/>
<path d="M103.904 88.16C101.84 88.16 100.576 86.752 100.576 84.608C100.576 82.096 102.24 79.84 104.752 79.84C106.016 79.84 107.008 80.512 107.44 81.632L107.776 80H109.536L107.84 88H106.144C106.144 88 106.272 87.424 106.384 86.88C105.744 87.664 104.896 88.16 103.904 88.16ZM106.976 83.392C106.976 82.112 106.208 81.312 104.992 81.312C103.328 81.312 102.272 82.928 102.272 84.608C102.272 85.888 103.024 86.688 104.224 86.688C105.904 86.688 106.976 85.072 106.976 83.392Z" fill="black"/>
<path d="M54.904 100.16C52.84 100.16 51.576 98.752 51.576 96.608C51.576 94.096 53.24 91.84 55.752 91.84C57.016 91.84 58.008 92.512 58.44 93.632L58.776 92H60.536L58.84 100H57.144C57.144 100 57.272 99.424 57.384 98.88C56.744 99.664 55.896 100.16 54.904 100.16ZM57.976 95.392C57.976 94.112 57.208 93.312 55.992 93.312C54.328 93.312 53.272 94.928 53.272 96.608C53.272 97.888 54.024 98.688 55.224 98.688C56.904 98.688 57.976 97.072 57.976 95.392Z" fill="black"/>
<path d="M60.304 63L62.848 51H64.608L63.52 56.2C64.176 55.32 65.072 54.84 66.064 54.84C67.792 54.84 68.896 56.168 68.4 58.488L67.44 63H65.68L66.624 58.552C66.944 57.016 66.4 56.232 65.216 56.232C64.096 56.232 63.328 57.016 63.008 58.568L62.064 63H60.304Z" fill="black"/>
</svg>
