<svg width="141" height="80" viewBox="0 0 141 80" fill="none" xmlns="http://www.w3.org/2000/svg">
<path d="M25 74.9975H123.866L139.742 59.1212H40.8763L25 74.9975Z" fill="#FF9E00" fill-opacity="0.5"/>
<path d="M25 20.8763H123.866M25 20.8763V75M25 20.8763L40.8763 5M123.866 20.8763V75M123.866 20.8763L139.742 5M123.866 75H25M123.866 75L139.742 59.1237M25 75L40.8763 59.1237M40.8763 5H139.742M40.8763 5V59.1237M139.742 5V59.1237M139.742 59.1237H40.8763" stroke="black"/>
<path opacity="0.5" d="M123.866 75H25V20.8763L40.8763 5H139.742V59.1237L123.866 75Z" fill="#FF9E00" fill-opacity="0.9"/>
<path d="M25 20.8763H123.866M25 20.8763V75H123.866M25 20.8763L40.8763 5H139.742M123.866 20.8763V75M123.866 20.8763L139.742 5M123.866 75L139.742 59.1237V5" stroke="black" stroke-opacity="0.64"/>
<path d="M23.904 11.16C21.84 11.16 20.576 9.752 20.576 7.608C20.576 5.096 22.24 2.84 24.752 2.84C26.016 2.84 27.008 3.512 27.44 4.632L27.776 3H29.536L27.84 11H26.144C26.144 11 26.272 10.424 26.384 9.88C25.744 10.664 24.896 11.16 23.904 11.16ZM26.976 6.392C26.976 5.112 26.208 4.312 24.992 4.312C23.328 4.312 22.272 5.928 22.272 7.608C22.272 8.888 23.024 9.688 24.224 9.688C25.904 9.688 26.976 8.072 26.976 6.392Z" fill="black"/>
<path d="M74.608 7L73.536 12.04C74.16 11.304 74.992 10.84 75.952 10.84C78.016 10.84 79.28 12.248 79.28 14.392C79.28 16.904 77.616 19.16 75.104 19.16C73.84 19.16 72.832 18.472 72.416 17.336L72.064 19H70.304L72.848 7H74.608ZM72.88 15.608C72.88 16.888 73.648 17.688 74.864 17.688C76.528 17.688 77.584 16.072 77.584 14.392C77.584 13.112 76.816 12.312 75.632 12.312C73.936 12.312 72.88 13.928 72.88 15.608Z" fill="black"/>
<path d="M20.608 45.184H18.912C18.912 44.032 18.096 43.312 16.96 43.312C15.296 43.312 14.24 44.928 14.24 46.608C14.24 47.888 15.008 48.688 16.208 48.688C17.44 48.688 18.4 47.808 18.72 46.64H20.464C20.048 48.624 18.432 50.16 16.208 50.16C13.904 50.16 12.56 48.752 12.56 46.608C12.56 44.096 14.272 41.84 16.96 41.84C19.184 41.84 20.592 43.168 20.608 45.184Z" fill="black"/>
</svg>
