<svg width="140" height="80" viewBox="0 0 140 80" fill="none" xmlns="http://www.w3.org/2000/svg">
<path d="M36.1719 63.7386C36.1719 69.9581 51.5796 75 70.5861 75C78.3335 75 85.4829 74.1623 91.2346 72.7486C99.5935 70.694 105 67.4229 105 63.7386C105 57.5191 89.5926 52.4772 70.5861 52.4772C62.8387 52.4772 55.6893 53.3149 49.9376 54.7286C41.5787 56.7832 36.1719 60.0543 36.1719 63.7386Z" fill="#FF9E00" fill-opacity="0.5"/>
<path d="M36.1719 63.7386C36.1719 69.9581 51.5796 75 70.5861 75C78.3335 75 85.4829 74.1623 91.2346 72.7485C99.5935 70.694 105 67.4229 105 63.7386C105 62.8124 104.659 61.9124 104.014 61.0512L70.5861 5L37.1579 61.0512C36.5135 61.9124 36.1719 62.8124 36.1719 63.7386Z" stroke="#303030" stroke-width="0.878661"/>
<path d="M105.002 63.8702H70.4414" stroke="#303030" stroke-width="0.292887" stroke-dasharray="0.59 0.59"/>
<path d="M37.0519 60.9414C40.7464 56.0291 54.3594 52.3842 70.5875 52.3842C78.3597 52.3842 85.5321 53.2203 91.3023 54.6312C97.58 56.1663 102.198 58.3818 104.123 60.9414M70.5875 5L49.8726 54.6312" stroke="#999999" stroke-width="0.878661"/>
<path d="M70.4414 5V58.6941M70.4414 63.8703V58.6941M70.4414 58.6941H76.2991V63.8703" stroke="#303030" stroke-width="0.585774"/>
<ellipse cx="70.5875" cy="63.5774" rx="1.31799" ry="1.17155" fill="#303030"/>
<path d="M36.1719 63.7386C36.1719 69.9581 51.5796 75 70.5861 75C78.3335 75 85.4829 74.1623 91.2346 72.7485C99.5935 70.694 105 67.4229 105 63.7386C105 62.8124 104.659 61.9124 104.014 61.0512L70.5861 5L37.1579 61.0512C36.5135 61.9124 36.1719 62.8124 36.1719 63.7386Z" fill="#FF9E00" fill-opacity="0.5" stroke="#303030" stroke-width="0.878661"/>
<path d="M70.7324 5L91.2345 72.6569" stroke="#303030" stroke-width="0.878661"/>
<path d="M60.304 46L62.848 34H64.608L63.52 39.2C64.176 38.32 65.072 37.84 66.064 37.84C67.792 37.84 68.896 39.168 68.4 41.488L67.44 46H65.68L66.624 41.552C66.944 40.016 66.4 39.232 65.216 39.232C64.096 39.232 63.328 40.016 63.008 41.568L62.064 46H60.304Z" fill="black"/>
<path d="M91.064 63H89.304L91.848 51H95.4C97.32 51 98.504 52.088 98.104 54.104L98.008 54.584C97.56 56.904 96.056 57.752 94.344 57.8L96.584 63H94.616L92.312 57.128L91.064 63ZM95 52.472H93.288L92.472 56.328H94.2C95.256 56.328 96.008 55.832 96.28 54.44L96.328 54.248C96.568 52.968 96.056 52.472 95 52.472Z" fill="black"/>
</svg>
