<svg width="140" height="80" viewBox="0 0 140 80" fill="none" xmlns="http://www.w3.org/2000/svg">
<path d="M53.6768 56.3226L35 74.9994H86.3232L105 56.3226H53.6768Z" fill="#FF9E00" fill-opacity="0.5"/>
<path d="M35 75L53.6768 56.3232M53.6768 56.3232H105M53.6768 56.3232V5" stroke="black"/>
<path opacity="0.5" d="M35 75H86.3232L105 56.3232V5H53.6768L35 23.6768V75Z" fill="#FF9E00" fill-opacity="0.9" stroke="black" stroke-opacity="0.64"/>
<path d="M35 23.6768H86.3232M35 23.6768V75H86.3232M35 23.6768L53.6768 5H105M86.3232 23.6768V75M86.3232 23.6768L105 5M86.3232 75L105 56.3232V5" stroke="black" stroke-opacity="0.64"/>
<path d="M35.904 14.16C33.84 14.16 32.576 12.752 32.576 10.608C32.576 8.096 34.24 5.84 36.752 5.84C38.016 5.84 39.008 6.512 39.44 7.632L39.776 6H41.536L39.84 14H38.144C38.144 14 38.272 13.424 38.384 12.88C37.744 13.664 36.896 14.16 35.904 14.16ZM38.976 9.392C38.976 8.112 38.208 7.312 36.992 7.312C35.328 7.312 34.272 8.928 34.272 10.608C34.272 11.888 35.024 12.688 36.224 12.688C37.904 12.688 38.976 11.072 38.976 9.392Z" fill="black"/>
<path d="M63.904 21.16C61.84 21.16 60.576 19.752 60.576 17.608C60.576 15.096 62.24 12.84 64.752 12.84C66.016 12.84 67.008 13.512 67.44 14.632L67.776 13H69.536L67.84 21H66.144C66.144 21 66.272 20.424 66.384 19.88C65.744 20.664 64.896 21.16 63.904 21.16ZM66.976 16.392C66.976 15.112 66.208 14.312 64.992 14.312C63.328 14.312 62.272 15.928 62.272 17.608C62.272 18.888 63.024 19.688 64.224 19.688C65.904 19.688 66.976 18.072 66.976 16.392Z" fill="black"/>
<path d="M23.904 52.16C21.84 52.16 20.576 50.752 20.576 48.608C20.576 46.096 22.24 43.84 24.752 43.84C26.016 43.84 27.008 44.512 27.44 45.632L27.776 44H29.536L27.84 52H26.144C26.144 52 26.272 51.424 26.384 50.88C25.744 51.664 24.896 52.16 23.904 52.16ZM26.976 47.392C26.976 46.112 26.208 45.312 24.992 45.312C23.328 45.312 22.272 46.928 22.272 48.608C22.272 49.888 23.024 50.688 24.224 50.688C25.904 50.688 26.976 49.072 26.976 47.392Z" fill="black"/>
</svg>
