<svg width="140" height="80" viewBox="0 0 140 80" fill="none" xmlns="http://www.w3.org/2000/svg">
<path d="M69.8555 39.8547L102.677 43.6307" stroke="#303030" stroke-width="0.290456" stroke-dasharray="0.58 0.58"/>
<path d="M35.5801 39.8548C35.5801 33.4382 50.99 28.2365 69.9992 28.2365C89.0083 28.2365 104.418 33.4382 104.418 39.8548M69.8539 74.4191C62.6353 74.4191 56.7834 59.0092 56.7834 40C56.7834 20.9909 62.6353 5.58093 69.8539 5.58093" stroke="#999999" stroke-width="0.871369"/>
<path d="M71.017 39.8548C71.017 40.4965 70.4968 41.0166 69.8552 41.0166C69.2135 41.0166 68.6934 40.4965 68.6934 39.8548C68.6934 39.2132 69.2135 38.693 69.8552 38.693C70.4968 38.693 71.017 39.2132 71.017 39.8548Z" fill="#303030"/>
<path opacity="0.5" d="M70 5.43555C89.0893 5.43555 104.564 20.9107 104.564 40C104.564 59.0893 89.0893 74.5645 70 74.5645C50.9107 74.5645 35.4355 59.0893 35.4355 40C35.4355 20.9107 50.9107 5.43555 70 5.43555Z" fill="#FF9E00" stroke="#303030" stroke-width="0.871369"/>
<path d="M104.418 39.8547C104.418 46.4317 89.0083 51.7634 69.9992 51.7634C50.99 51.7634 35.5801 46.4317 35.5801 39.8547" stroke="#303030" stroke-width="0.871369"/>
<path d="M69.8555 74.4191C77.0741 74.4191 82.926 59.0092 82.926 40C82.926 20.9909 77.0741 5.58093 69.8555 5.58093" stroke="#303030" stroke-width="0.871369"/>
<path d="M70 5.43555C89.0893 5.43555 104.564 20.9107 104.564 40C104.564 59.0893 89.0893 74.5645 70 74.5645C50.9107 74.5645 35.4355 59.0893 35.4355 40C35.4355 20.9107 50.9107 5.43555 70 5.43555Z" stroke="#303030" stroke-width="0.871369"/>
<path d="M90.064 41H88.304L90.848 29H94.4C96.32 29 97.504 30.088 97.104 32.104L97.008 32.584C96.56 34.904 95.056 35.752 93.344 35.8L95.584 41H93.616L91.312 35.128L90.064 41ZM94 30.472H92.288L91.472 34.328H93.2C94.256 34.328 95.008 33.832 95.28 32.44L95.328 32.248C95.568 30.968 95.056 30.472 94 30.472Z" fill="black"/>
</svg>
