<svg width="118" height="136" viewBox="0 0 118 136" fill="none" xmlns="http://www.w3.org/2000/svg">
<g clip-path="url(#clip0_49_22844)">
<path d="M83.6483 39.1914L52.7178 48.6255" stroke="#FDD8A6" stroke-width="0.125747" stroke-miterlimit="10"/>
<g filter="url(#filter0_d_49_22844)">
<path d="M104.542 68.0363C105.647 68.0363 106.764 67.8976 107.863 67.6182C108.337 67.4976 108.782 67.2945 109.182 67.0151C109.629 66.7035 115.878 61.5211 116.37 61.0527C117.824 59.6757 118.04 57.4424 116.88 55.8121C115.721 54.1818 113.535 53.6491 111.751 54.5617C110.67 55.1145 109.7 55.3155 109.426 55.2974C108.462 55.1989 106.822 54.2984 105.55 52.7706C104.219 51.1724 101.896 50.8568 100.192 52.0047C99.6296 52.3243 97.5325 53.3355 95.7338 54.1958C97.1998 52.5474 98.5185 50.6739 99.68 48.5873C101.319 45.6383 102.396 42.6893 103.088 40.3051C107.367 38.2567 110.115 33.6412 109.873 28.4608C109.551 21.626 104.032 16.3109 97.5768 16.6145C96.8549 16.6487 96.1512 16.7552 95.4696 16.92C95.5664 16.2848 95.516 15.6315 95.3023 15.0103C94.9413 13.959 94.1589 13.1026 93.1426 12.6463L82.8647 8.0348C81.8565 7.5825 80.7051 7.5624 79.6827 7.98053C78.6826 8.38861 77.8881 9.18064 77.4787 10.1757C77.4545 9.65304 77.4828 9.29924 77.4929 9.20677C77.8094 7.36338 76.7911 5.64664 75.059 4.92497L64.0067 0.311478C62.7807 -0.199122 61.3833 -0.0764973 60.2662 0.639147C59.1491 1.35479 58.4595 2.575 58.4191 3.89774C58.4151 4.01835 58.3385 6.86686 58.9333 10.0149C59.8508 14.8636 61.8753 18.0719 64.9484 19.5695C64.8234 19.7183 64.7206 19.8228 64.65 19.8751C64.3536 20.0037 63.1094 20.0198 61.2099 19.2378C60.1351 18.7956 58.9212 18.8378 57.8787 19.3524C56.8846 19.8449 56.1385 20.7234 55.8159 21.7768C55.5053 22.6311 53.2408 27.8658 52.1015 30.1333C51.4865 31.3576 51.539 32.8089 52.2407 33.9849C52.775 34.8815 53.628 35.5228 54.612 35.8002L32.2152 46.37C30.8158 47.0314 29.9184 48.4305 29.9083 49.9743C29.9043 50.503 30.0051 51.0177 30.1947 51.4901L31.9732 57.2675C30.9166 56.9036 29.8337 56.389 28.7227 55.7196C27.4039 54.9256 26.2243 54.0129 25.2423 53.1565C25.706 50.9031 23.7561 45.2603 23.4234 44.605C21.9534 41.7062 19.4429 39.4769 16.4848 38.3592C13.3996 37.1953 10.1268 37.346 7.26952 38.7854C4.41219 40.2247 2.34935 42.7616 1.46009 45.9298C0.607121 48.9672 0.947904 52.2359 2.41791 55.1326C4.76507 59.7622 9.4352 62.4298 14.1739 62.1121C15.9544 63.847 18.346 65.8854 21.2295 67.6483C25.9702 70.5451 30.844 72.0126 35.7158 72.0126C35.9799 72.0126 36.2441 72.0085 36.5062 71.9985L39.6015 82.0517C38.077 81.5572 36.3731 80.7169 34.641 79.5731C33.6711 78.9318 32.4713 78.7408 31.3481 79.0484C30.2552 79.3479 29.3397 80.0897 28.8235 81.0948C28.0875 82.3793 21.661 91.7129 18.723 95.5062C17.7269 96.7907 17.5918 98.5718 18.4468 100.015C19.0235 100.988 20.0075 101.651 21.1146 101.905C25.3733 102.882 31.8381 103.762 38.6618 102.486C40.886 102.072 43.1001 101.217 45.1286 100.011L47.4838 107.662C48.0444 109.481 49.8048 110.657 51.7063 110.486L55.7594 110.117C56.1567 112.73 56.7555 115.223 57.552 117.581C53.5998 118.935 50.6961 122.094 49.3733 126.673C48.8974 128.056 49.2099 129.602 50.2141 130.693H50.2162C50.2404 130.721 50.2666 130.744 50.2908 130.77C50.3492 130.83 50.4097 130.89 50.4743 130.949C50.5146 130.985 50.5569 131.021 50.5993 131.055C50.6275 131.077 50.6517 131.101 50.6799 131.126C50.7082 131.148 50.7364 131.166 50.7646 131.186C50.813 131.222 50.8634 131.26 50.9138 131.294C50.9663 131.331 51.0187 131.363 51.0732 131.395C51.1336 131.433 51.1941 131.471 51.2587 131.505C51.2647 131.509 51.2728 131.512 51.2788 131.516C51.8656 131.831 52.521 132 53.1904 132C53.2187 132 53.2449 132 53.2731 131.998H75.3453C77.1077 131.998 78.6906 130.866 79.1927 129.184C79.6968 127.497 79.711 125.694 79.2391 123.975C78.3579 120.769 75.9039 118.342 72.9437 117.49C71.879 115.154 71.0624 112.199 70.534 108.772L74.6033 108.4C77.8094 117.442 82.5703 121.247 86.1757 122.843C88.0732 123.684 90.0837 124.12 92.1566 124.14C92.207 124.14 92.2594 124.142 92.3118 124.142C93.6326 124.142 94.9756 123.973 96.3307 123.639C97.5869 125.398 99.4138 127.2 101.987 128.237C104.017 129.055 107.282 129.656 111.468 128.03C112.065 127.895 112.626 127.636 113.118 127.264C113.886 126.681 115.554 124.976 114.479 121.72C114.209 120.903 113.769 119.951 113.134 118.807C112.005 116.772 110.319 114.258 108.387 111.727C106.455 109.196 104.475 106.904 102.81 105.276C102.15 104.633 101.557 104.106 101.015 103.684C101.317 102.864 101.346 101.957 101.079 101.105L100.815 100.258C100.839 100.202 100.858 100.158 100.882 100.102C101.523 99.7578 102.067 99.2452 102.447 98.606C102.924 97.8019 103.102 96.8651 102.963 95.9565C103.134 95.7595 103.287 95.5464 103.419 95.3172C103.963 94.3704 104.098 93.2447 103.794 92.1953L102.729 88.5367C102.678 88.2573 102.6 87.9899 102.495 87.7346L95.9919 65.415C97.472 66.2412 99.1577 67.001 101.019 67.5358C102.158 67.8634 103.346 68.0283 104.546 68.0283L104.542 68.0363ZM101.963 116.6C103.175 118.186 104.138 119.579 104.88 120.733C103.731 120.212 102.626 118.899 101.904 117.191C101.483 116.189 100.672 115.403 99.6578 115.007C99.184 114.823 98.6859 114.73 98.1878 114.73C98.089 114.73 97.9902 114.734 97.8934 114.74C98.2544 113.771 98.2302 112.696 97.8148 111.739C97.8027 111.713 97.7926 111.685 97.7845 111.654C98.8593 112.772 100.295 114.41 101.965 116.598L101.963 116.6ZM55.8038 21.8109C55.7917 21.8512 55.7816 21.8914 55.7695 21.9316C55.7776 21.9014 55.7876 21.8612 55.8038 21.8109ZM42.1785 92.3139C40.6642 93.4638 38.9139 94.2618 37.1737 94.5875C34.3547 95.1142 31.582 95.1745 29.0756 94.9996C30.6827 92.7401 32.3906 90.2836 33.7215 88.3156C36.3671 89.6142 39.6317 90.7258 42.9387 90.6012C42.6 91.3691 42.354 91.9259 42.1805 92.3159L42.1785 92.3139ZM65.9224 123.961C66.1986 123.726 66.4446 123.45 66.6523 123.143C66.6786 123.105 66.7028 123.067 66.727 123.026C66.7653 123.095 66.8056 123.161 66.8459 123.229C67.0032 123.497 67.1907 123.742 67.4005 123.961H65.9224ZM90.3982 107.74C90.253 107.519 90.1018 107.274 89.9506 107.005L90.7773 106.928C90.6382 107.194 90.5132 107.465 90.3982 107.738V107.74ZM94.5259 91.8496C94.1932 92.4526 94.0238 93.124 94.0238 93.7975C93.5822 94.1191 93.2072 94.5292 92.9228 95.0097C92.457 95.8017 92.2796 96.7204 92.4086 97.6149C92.2756 97.9727 92.1949 98.3486 92.1687 98.7286L83.7721 99.4945C82.5602 99.605 81.4613 100.256 80.7857 101.266C80.7192 101.364 80.6587 101.465 80.6022 101.567C79.7755 100.556 78.4809 99.9769 77.1077 100.102L65.6804 101.143C64.277 101.272 63.1054 102.102 62.4883 103.256C62.327 103.055 62.1455 102.866 61.9459 102.697C61.2139 102.076 60.2864 101.738 59.3326 101.738C59.2096 101.738 59.0886 101.744 58.9656 101.754L54.2329 102.186L50.6719 90.6193C50.3371 89.5297 49.5648 88.6593 48.5768 88.1809C49.1172 87.2461 49.2805 86.1003 48.9397 84.9926L43.2392 66.4764C42.8823 65.3165 42.0414 64.4239 40.9949 63.9696C41.624 62.9786 41.7894 61.7624 41.4425 60.6386L38.8292 52.1494L72.3831 36.3128L72.9901 38.3632C73.6132 40.47 75.8172 41.6861 77.9385 41.0971L80.3119 40.4398L83.0684 49.9C83.4313 51.1463 84.373 52.1353 85.589 52.5655C84.8046 53.5646 84.5243 54.8994 84.8933 56.1639L94.8627 90.3861C94.8667 90.4002 94.8707 90.4142 94.8748 90.4263C94.8788 90.4424 94.8828 90.4565 94.8889 90.4725L95.0704 91.0937C94.8647 91.3209 94.6832 91.5742 94.532 91.8475L94.5259 91.8496Z" fill="white"/>
</g>
<path d="M92.3092 120.125C95.709 120.125 98.8405 118.628 101.145 117.104L97.5238 111.66C96.4772 112.352 93.2953 114.457 90.4702 113.204C85.8323 111.152 83.4448 101.774 82.975 98.6501L76.4961 99.6211C76.7361 101.215 79.0953 115.315 87.8105 119.173C89.3309 119.846 90.8452 120.123 92.3112 120.123H92.3092V120.125Z" fill="#FCC95F"/>
<path d="M78.2444 106.102C79.5249 106.17 80.8295 106.04 82.0535 105.656C82.9125 105.386 83.7836 104.966 84.4027 104.303C83.6264 102.007 83.1545 99.8583 82.973 98.6501L76.4941 99.6211C76.5909 100.258 77.0265 102.902 78.075 106.09C78.1315 106.094 78.188 106.1 78.2424 106.102H78.2444Z" fill="#F1B23A"/>
<path d="M110.677 124.007C101.077 128.325 97.4313 117.95 97.4394 115.976C96.8103 115.864 96.2013 115.619 95.6528 115.235C93.471 113.705 93.0657 110.533 94.7434 108.155C95.3665 107.274 96.1852 106.627 97.0825 106.237L110.675 124.011H110.677V124.007Z" fill="#FCC95F"/>
<path d="M99.7104 122.276C97.5891 119.951 96.3489 117.241 96.0908 115.707L97.0849 115.542C97.2523 116.543 98.1718 119.096 100.454 121.601L99.7084 122.276H99.7104Z" fill="#F1B23A"/>
<path d="M83.7567 114.199C83.2708 114.199 82.813 113.968 82.3916 113.51L83.0046 112.949C83.2768 113.244 83.543 113.381 83.8051 113.367C84.2064 113.341 84.5694 112.943 84.6763 112.792L85.3618 113.263C85.3377 113.299 84.7549 114.133 83.8677 114.195C83.8314 114.197 83.7951 114.199 83.7567 114.199Z" fill="#F1B23A"/>
<path d="M102.563 116.141C98.8067 111.218 96.3446 106.784 97.0645 106.237C97.7844 105.69 101.414 109.24 105.171 114.163C108.927 119.086 111.389 123.521 110.67 124.068C109.95 124.614 106.32 121.064 102.563 116.141Z" fill="#F1B23A"/>
<path d="M67.5877 127.224L73.3084 124.898C64.444 117.034 65.8979 95.8278 65.8757 95.6569L59.54 96.0368C59.6469 96.7866 56.5355 114.716 67.5917 127.222H67.5897L67.5877 127.224Z" fill="#FCC95F"/>
<path d="M59.4351 107.023C61.1269 107.73 64.1516 107.529 66.1983 106.743C65.549 100.725 65.8817 95.7394 65.8696 95.6549L59.5339 96.0349C59.5863 96.4068 58.8523 100.98 59.4351 107.023Z" fill="#F1B23A"/>
<path d="M59.209 102.246C60.9351 102.335 63.6996 101.7 65.825 100.216C65.7544 97.1907 65.8754 95.7132 65.8694 95.6609L59.5336 96.0408C59.572 96.3062 59.211 98.7044 59.209 102.248V102.246Z" fill="#F0AB32"/>
<path d="M53.1856 127.983C55.8836 118.123 66.3007 120.982 67.7848 122.212C68.2607 121.812 68.8213 121.507 69.4504 121.334C71.9549 120.648 74.5964 122.311 75.3465 125.041C75.6248 126.052 75.6047 127.067 75.3425 127.979H53.1836H53.1856V127.983Z" fill="#FCC95F"/>
<path d="M66.7242 122.409C65.835 121.746 62.9535 120.781 60.3744 121.215L60.207 120.224C63.0139 119.752 66.1455 120.721 67.3292 121.603L66.7263 122.407L66.7242 122.409Z" fill="#F1B23A"/>
<path d="M61.9769 111.578C61.4022 111.578 60.8557 111.349 60.3496 110.897L61.0231 110.149C61.372 110.46 61.7208 110.601 62.0737 110.569C62.7613 110.515 63.2997 109.861 63.3037 109.855L64.0922 110.482C64.0599 110.523 63.2896 111.478 62.1644 111.572C62.1019 111.578 62.0394 111.58 61.9789 111.58L61.9769 111.578Z" fill="#F1B23A"/>
<path d="M51.3377 106.486L97.2243 102.303L78.7374 43.037L33.9658 50.0487L51.3377 106.486Z" fill="#FCC95F"/>
<path d="M51.9502 105.366L97.0222 98.8853L92.3742 85.0368L53.0814 101.593L51.9502 105.364V105.366Z" fill="#FFF2E0"/>
<path d="M51.9483 105.366L98.9682 96.5636L95.151 84.9384L53.13 101.587L51.9463 105.364L51.9483 105.366Z" fill="#FFF2E0"/>
<path d="M99.41 93.0335L54.3199 104.367L40.0312 48.1852L82.7944 35.9931L99.41 93.0335Z" fill="white" stroke="#FDD8A6" stroke-width="0.125747" stroke-miterlimit="10"/>
<path d="M44.2084 67.4694L44.1641 67.3106C44.5976 67.188 87.5704 55.0401 88.1149 54.7928L88.1472 54.8652L88.2359 54.8532C88.2453 54.9215 85.9371 55.617 81.3113 56.9398C77.6656 57.9831 72.5801 59.4305 66.1959 61.2417C55.2022 64.3616 44.2064 67.4694 44.2064 67.4694H44.2084Z" fill="#EEE1F1"/>
<path d="M81.2083 11.7015C79.4076 16.313 74.0156 17.0809 74.0156 17.0809C74.0156 17.0809 84.8077 28.8629 91.4863 16.313L81.2083 11.7015Z" fill="#FFA866"/>
<path d="M80.9521 21.6923C72.2168 17.0808 73.4992 8.63177 73.4992 8.63177L62.451 4.02029C62.451 4.02029 62.1506 14.0071 66.9235 16.0576C71.6965 18.108 80.948 21.6923 80.948 21.6923H80.9521Z" fill="#FB6D02"/>
<path d="M69.5491 19.7504C68.9724 20.9827 67.942 22.5708 66.7805 23.2904C64.9133 24.4503 62.1084 23.9578 59.6685 22.9547C59.5132 23.5437 56.9019 29.5483 55.7041 31.9344C57.8113 32.0088 61.0094 31.848 64.1753 30.5916C65.5787 30.0348 66.8309 29.0558 67.7605 27.8657C67.8069 27.7129 69.4564 20.3555 69.5491 19.7484V19.7504Z" fill="#FB6D02"/>
<path d="M113.588 58.1399C112.314 58.7912 110.434 59.4465 109.009 59.2978C106.712 59.0606 104.193 57.4403 102.445 55.3396C101.935 55.7276 96.7788 58.1499 94.2441 59.3601C95.944 60.7733 98.6985 62.6931 102.135 63.6821C103.657 64.1203 105.329 64.1123 106.867 63.7223C107.004 63.6258 113.122 58.5841 113.59 58.1399H113.588Z" fill="#FB6D02"/>
<path d="M35.7115 67.9961C31.6141 67.9961 27.4481 66.7377 23.3325 64.2229C17.5694 60.7009 13.9559 55.9105 13.8047 55.7095L18.6563 52.1092C18.6845 52.1454 21.8181 56.2684 26.6294 59.1651C32.6022 62.7634 38.4116 62.866 43.8944 59.4747L47.0844 64.5988C43.4225 66.8643 39.5973 67.9961 35.7095 67.9961H35.7115Z" fill="#FCC95F"/>
<path d="M19.7456 46.4041C18.0962 43.1515 14.7892 41.3423 11.6072 41.6499L14.9222 46.0844L13.9201 46.8302L10.2481 41.9172C9.85285 42.0358 9.46569 42.1866 9.0866 42.3776C8.86075 42.4922 8.64297 42.6168 8.43326 42.7515L12.3513 47.9942L11.3471 48.74L7.44721 43.5194C6.95116 43.9797 6.5277 44.5084 6.17886 45.0834L9.77824 49.9039L8.77404 50.6497L5.56182 46.3478C4.75725 48.4766 4.84597 51.0196 6.01351 53.3233C8.10861 57.4584 12.8836 59.2595 16.6745 57.3498C20.4675 55.4401 21.8427 50.5391 19.7456 46.4041Z" fill="#FCC95F"/>
<path d="M14.9203 46.0845L11.6053 41.6499C11.1475 41.6941 10.6918 41.7826 10.2441 41.9173L13.9161 46.8303L14.9183 46.0845H14.9203Z" fill="#F1B23A"/>
<path d="M12.3503 47.9942L8.43234 42.7515C8.07744 42.9806 7.74876 43.2379 7.44629 43.5194L11.3461 48.74L12.3503 47.9942Z" fill="#F1B23A"/>
<path d="M9.77398 49.9039L6.17459 45.0834C5.93262 45.4834 5.72694 45.9056 5.55957 46.3478L8.7718 50.6497L9.77599 49.9039H9.77398Z" fill="#F1B23A"/>
<path d="M17.9235 57.2754L17.2178 56.2462C20.9059 53.7374 20.1356 49.7753 20.1275 49.7371L21.3535 49.4858C21.3939 49.6808 22.2952 54.3063 17.9235 57.2775V57.2754Z" fill="#F1B23A"/>
<path d="M76.7147 58.6445C76.3659 58.6445 76.017 58.6364 75.6621 58.6224L75.9081 52.5977C82.3507 52.855 87.3596 49.918 90.7816 43.8552C93.5381 38.9723 94.2297 33.8442 94.2378 33.7939L100.239 34.5538C100.207 34.8031 99.4281 40.7453 96.1514 46.6393C91.7757 54.5114 85.0689 58.6445 76.7127 58.6445H76.7147Z" fill="#FCC95F"/>
<path d="M105.847 28.6496C105.726 26.0705 104.548 23.815 102.794 22.3576L102.122 27.6787L100.88 27.5239L101.632 21.5595C101.045 21.2298 100.416 20.9786 99.757 20.8198L98.9403 27.2786L97.6982 27.1218L98.5189 20.6348C98.2708 20.6207 98.0188 20.6167 97.7647 20.6288C97.3413 20.6489 96.9279 20.7072 96.5266 20.7976L95.7583 26.8766L94.5162 26.7198L95.2099 21.2319C92.288 22.5264 90.3018 25.7227 90.4732 29.3633C90.691 33.9908 94.3085 37.5811 98.5532 37.3821C102.798 37.1831 106.062 33.2712 105.845 28.6456L105.847 28.6496Z" fill="#FCC95F"/>
<path d="M95.7597 26.8786L96.528 20.7997C96.0723 20.9022 95.6327 21.0489 95.2112 21.2359L94.5176 26.7238L95.7597 26.8806V26.8786Z" fill="#F1B23A"/>
<path d="M98.9394 27.2766L99.7561 20.8178C99.3528 20.7213 98.9394 20.6589 98.518 20.6348L97.6973 27.1219L98.9394 27.2787V27.2766Z" fill="#F1B23A"/>
<path d="M102.122 27.6767L102.793 22.3556C102.43 22.0541 102.041 21.7867 101.634 21.5575L100.882 27.5219L102.124 27.6767H102.122Z" fill="#F1B23A"/>
<path d="M97.4315 37.9349C92.1604 37.4927 90.6602 33.0259 90.5977 32.835L91.7894 32.453C91.8398 32.6098 93.1142 36.3207 97.5363 36.6906L97.4315 37.9329V37.9349Z" fill="#F1B23A"/>
<path d="M99.412 93.0335L54.3219 104.367L40.0332 48.1852L82.7963 35.9931L99.412 93.0335Z" fill="white" stroke="#FDD8A6" stroke-width="0.125747" stroke-miterlimit="10"/>
<path d="M79.1328 37.2636L95.3593 93.8839L79.1328 37.2636Z" fill="white"/>
<path d="M79.1328 37.2636L95.3593 93.8839" stroke="#FDD8A6" stroke-width="0.125747" stroke-miterlimit="10"/>
<path d="M75.5254 38.4557L91.7055 94.9413L75.5254 38.4557Z" fill="white"/>
<path d="M75.5254 38.4557L91.7055 94.9413" stroke="#FDD8A6" stroke-width="0.125747" stroke-miterlimit="10"/>
<path d="M71.9238 39.0889L87.9608 95.7273L71.9238 39.0889Z" fill="white"/>
<path d="M71.9238 39.0889L87.9608 95.7273" stroke="#FDD8A6" stroke-width="0.125747" stroke-miterlimit="10"/>
<path d="M68.3223 40.3272L84.333 96.8229L68.3223 40.3272Z" fill="white"/>
<path d="M68.3223 40.3272L84.333 96.8229" stroke="#FDD8A6" stroke-width="0.125747" stroke-miterlimit="10"/>
<path d="M64.709 41.5193L80.6209 97.7797L64.709 41.5193Z" fill="white"/>
<path d="M64.709 41.5193L80.6209 97.7797" stroke="#FDD8A6" stroke-width="0.125747" stroke-miterlimit="10"/>
<path d="M61.1104 42.7556L76.9698 98.7326L61.1104 42.7556Z" fill="white"/>
<path d="M61.1104 42.7556L76.9698 98.7326" stroke="#FDD8A6" stroke-width="0.125747" stroke-miterlimit="10"/>
<path d="M57.5088 43.9938L73.2433 99.5989L57.5088 43.9938Z" fill="white"/>
<path d="M57.5088 43.9938L73.2433 99.5989" stroke="#FDD8A6" stroke-width="0.125747" stroke-miterlimit="10"/>
<path d="M53.9014 45.1859L69.5108 100.564L53.9014 45.1859Z" fill="white"/>
<path d="M53.9014 45.1859L69.5108 100.564" stroke="#FDD8A6" stroke-width="0.125747" stroke-miterlimit="10"/>
<path d="M50.25 46.4303L65.8473 101.487L50.25 46.4303Z" fill="white"/>
<path d="M50.25 46.4303L65.8473 101.487" stroke="#FDD8A6" stroke-width="0.125747" stroke-miterlimit="10"/>
<path d="M46.6484 47.6665L62.1712 102.393L46.6484 47.6665Z" fill="white"/>
<path d="M46.6484 47.6665L62.1712 102.393" stroke="#FDD8A6" stroke-width="0.125747" stroke-miterlimit="10"/>
<path d="M83.7795 39.5512C83.7916 39.6457 39.8105 52.077 39.8105 52.077L83.7795 39.5512Z" fill="white"/>
<path d="M83.7795 39.5512C83.7916 39.6457 39.8105 52.077 39.8105 52.077" stroke="#FDD8A6" stroke-width="0.125747" stroke-miterlimit="10"/>
<path d="M84.8586 43.3566C84.8707 43.4511 40.8896 55.8824 40.8896 55.8824L84.8586 43.3566Z" fill="white"/>
<path d="M84.8586 43.3566C84.8707 43.4511 40.8896 55.8824 40.8896 55.8824" stroke="#FDD8A6" stroke-width="0.125747" stroke-miterlimit="10"/>
<path d="M85.9436 47.2102C85.9557 47.3027 41.9746 59.736 41.9746 59.736L85.9436 47.2102Z" fill="white"/>
<path d="M85.9436 47.2102C85.9557 47.3027 41.9746 59.736 41.9746 59.736" stroke="#FDD8A6" stroke-width="0.125747" stroke-miterlimit="10"/>
<path d="M89.2395 58.7168C89.2516 58.8112 45.2705 71.2425 45.2705 71.2425L89.2395 58.7168Z" fill="white"/>
<path d="M89.2395 58.7168C89.2516 58.8112 45.2705 71.2425 45.2705 71.2425" stroke="#FDD8A6" stroke-width="0.125747" stroke-miterlimit="10"/>
<path d="M90.3645 62.5162C90.3766 62.6086 46.3955 75.042 46.3955 75.042L90.3645 62.5162Z" fill="white"/>
<path d="M90.3645 62.5162C90.3766 62.6086 46.3955 75.042 46.3955 75.042" stroke="#FDD8A6" stroke-width="0.125747" stroke-miterlimit="10"/>
<path d="M87.0217 51.078C87.0338 51.1725 43.0527 63.6037 43.0527 63.6037L87.0217 51.078Z" fill="white"/>
<path d="M87.0217 51.078C87.0338 51.1725 43.0527 63.6037 43.0527 63.6037" stroke="#FDD8A6" stroke-width="0.125747" stroke-miterlimit="10"/>
<path d="M88.1467 54.8773C88.1588 54.9698 44.1777 67.4031 44.1777 67.4031L88.1467 54.8773Z" fill="white"/>
<path d="M88.1467 54.8773C88.1588 54.9698 44.1777 67.4031 44.1777 67.4031" stroke="#FDD8A6" stroke-width="0.125747" stroke-miterlimit="10"/>
<path d="M91.4475 66.3678C91.4596 66.4622 47.4785 78.8935 47.4785 78.8935L91.4475 66.3678Z" fill="white"/>
<path d="M91.4475 66.3678C91.4596 66.4622 47.4785 78.8935 47.4785 78.8935" stroke="#FDD8A6" stroke-width="0.125747" stroke-miterlimit="10"/>
<path d="M92.5285 70.1751C92.5406 70.2696 48.5596 82.7009 48.5596 82.7009L92.5285 70.1751Z" fill="white"/>
<path d="M92.5285 70.1751C92.5406 70.2696 48.5596 82.7009 48.5596 82.7009" stroke="#FDD8A6" stroke-width="0.125747" stroke-miterlimit="10"/>
<path d="M93.6633 74.0208C93.6754 74.1133 49.6943 86.5466 49.6943 86.5466L93.6633 74.0208Z" fill="white"/>
<path d="M93.6633 74.0208C93.6754 74.1133 49.6943 86.5466 49.6943 86.5466" stroke="#FDD8A6" stroke-width="0.125747" stroke-miterlimit="10"/>
<path d="M94.7405 77.8282C94.7526 77.9227 50.7715 90.354 50.7715 90.354L94.7405 77.8282Z" fill="white"/>
<path d="M94.7405 77.8282C94.7526 77.9227 50.7715 90.354 50.7715 90.354" stroke="#FDD8A6" stroke-width="0.125747" stroke-miterlimit="10"/>
<path d="M96.021 81.5813C96.0331 81.6758 51.8584 94.2056 51.8584 94.2056L96.021 81.5813Z" fill="white"/>
<path d="M96.021 81.5813C96.0331 81.6758 51.8584 94.2056 51.8584 94.2056" stroke="#FDD8A6" stroke-width="0.125747" stroke-miterlimit="10"/>
<path d="M97.0608 85.4831C97.0729 85.5776 52.9346 98.0129 52.9346 98.0129L97.0608 85.4831Z" fill="white"/>
<path d="M97.0608 85.4831C97.0729 85.5776 52.9346 98.0129 52.9346 98.0129" stroke="#FDD8A6" stroke-width="0.125747" stroke-miterlimit="10"/>
<path d="M98.3549 89.3146C98.367 89.407 54.0693 101.858 54.0693 101.858L98.3549 89.3146Z" fill="white"/>
<path d="M98.3549 89.3146C98.367 89.407 54.0693 101.858 54.0693 101.858" stroke="#FDD8A6" stroke-width="0.125747" stroke-miterlimit="10"/>
<path d="M91.8604 87.8452L51.3416 106.486L33.9697 50.0487L74.9503 30.7906L91.8624 87.8452H91.8604Z" fill="#FCC95F"/>
<path d="M76.5142 72.3706L54.1875 82.6787L54.9247 84.2657L77.2515 73.9575L76.5142 72.3706Z" fill="#F1B23A"/>
<path d="M78.0289 77.2972L55.7021 87.6053L56.4394 89.1923L78.7661 78.8842L78.0289 77.2972Z" fill="#F1B23A"/>
<path d="M79.5218 82.0995L57.2021 92.4705L57.9433 94.0556L80.263 83.6847L79.5218 82.0995Z" fill="#F1B23A"/>
<path d="M54.931 58.3891C54.3704 58.3891 53.8118 58.2504 53.2714 57.9288C49.793 55.8723 52.2087 49.4958 53.5073 46.0704C53.6303 45.7467 53.7392 45.4593 53.8259 45.218L55.0701 45.6643C54.9814 45.9116 54.8684 46.2071 54.7434 46.5367C53.7493 49.1601 51.4223 55.3034 53.9449 56.795C55.8807 57.9388 58.8409 55.1466 60.9662 52.1533C62.8153 49.5461 64.1583 46.5508 65.4549 43.6541C65.6061 43.3184 65.7573 42.9806 65.9086 42.6449L67.1144 43.1857C66.9632 43.5194 66.814 43.8551 66.6627 44.1908C65.3379 47.1458 63.9687 50.2014 62.045 52.9132C60.7626 54.7224 57.8064 58.3871 54.931 58.3891Z" fill="#EE4C24"/>
<path d="M65.6154 57.0543C65.3129 57.0543 64.9943 57.0101 64.6737 56.8975C62.8407 56.2522 62.2983 53.852 63.1009 49.9582C63.5223 47.9258 64.3148 45.8352 65.5952 43.3767L66.7688 43.9838C65.5468 46.3297 64.7927 48.3138 64.3974 50.2235C63.7744 53.2469 64.0425 55.2753 65.1153 55.6532C65.4803 55.7818 65.9501 55.7537 66.4361 55.5768C69.0857 54.6119 71.3583 51.8257 73.1912 47.2946L74.4172 47.7871C72.4391 52.68 69.9044 55.7175 66.8878 56.8151C66.549 56.9377 66.1034 57.0523 65.6154 57.0523V57.0543Z" fill="#EE4C24"/>
<path d="M59.6847 65.5576C54.4379 65.5576 51.1289 62.7071 50.9434 62.5422L51.8185 61.5552C52.0484 61.7562 57.5432 66.4461 65.6313 62.9362L66.1596 64.1444C63.7822 65.1777 61.6044 65.5576 59.6847 65.5576Z" fill="#EE4C24"/>
<path d="M51.6709 80.5922C50.1686 82.6446 47.7085 85.1855 45.3251 86.0881C41.4857 87.5436 36.5232 85.6399 32.4157 82.9301C31.9176 83.9533 24.9729 94.0225 21.918 97.9666C25.7533 98.8572 31.6716 99.7055 37.9226 98.5375C40.6933 98.0209 43.3429 96.674 45.4743 94.8266C45.6154 94.5633 51.2857 81.6717 51.6729 80.5942L51.6709 80.5922Z" fill="#FB6D02"/>
</g>
<defs>
<filter id="filter0_d_49_22844" x="-0.853339" y="-0.92667" width="120.331" height="135.707" filterUnits="userSpaceOnUse" color-interpolation-filters="sRGB">
<feFlood flood-opacity="0" result="BackgroundImageFix"/>
<feColorMatrix in="SourceAlpha" type="matrix" values="0 0 0 0 0 0 0 0 0 0 0 0 0 0 0 0 0 0 127 0" result="hardAlpha"/>
<feOffset dy="0.92667"/>
<feGaussianBlur stdDeviation="0.92667"/>
<feComposite in2="hardAlpha" operator="out"/>
<feColorMatrix type="matrix" values="0 0 0 0 0 0 0 0 0 0 0 0 0 0 0 0 0 0 0.15 0"/>
<feBlend mode="normal" in2="BackgroundImageFix" result="effect1_dropShadow_49_22844"/>
<feBlend mode="normal" in="SourceGraphic" in2="effect1_dropShadow_49_22844" result="shape"/>
</filter>
<clipPath id="clip0_49_22844">
<rect width="118" height="136" fill="white"/>
</clipPath>
</defs>
</svg>
