<svg width="312" height="330" viewBox="0 0 312 330" fill="none" xmlns="http://www.w3.org/2000/svg">
<path d="M12 0.150391H28.2139V29.8496H0.150391V12C0.150391 5.45543 5.45543 0.150391 12 0.150391Z" fill="#FF9E00"/>
<path d="M12 0.150391H28.2139V29.8496H0.150391V12C0.150391 5.45543 5.45543 0.150391 12 0.150391Z" stroke="#D9D9D9" stroke-width="0.3"/>
<rect x="28.5133" y="0.15" width="28.0636" height="29.7" fill="#FF9E00"/>
<rect x="28.5133" y="0.15" width="28.0636" height="29.7" stroke="#D9D9D9" stroke-width="0.3"/>
<path d="M42.207 9.112V8.5H44.007V22H42.207V12.532H40.119V11.02H40.551C41.721 11.02 42.207 10.462 42.207 9.112Z" fill="white"/>
<rect x="56.8766" y="0.15" width="28.0636" height="29.7" fill="#FF9E00"/>
<rect x="56.8766" y="0.15" width="28.0636" height="29.7" stroke="#D9D9D9" stroke-width="0.3"/>
<path d="M74.4355 12.082C74.4355 15.808 69.7915 17.41 69.3235 20.344H74.6155V22H67.3795V21.1C67.3795 16.816 72.6355 15.376 72.6355 12.082C72.6355 10.588 71.9335 9.976 70.9795 9.976C69.9715 9.976 69.2875 10.552 69.2875 12.244V13.288H67.4875V12.1C67.4875 9.58 69.0355 8.32 70.9795 8.32C72.8875 8.32 74.4355 9.598 74.4355 12.082Z" fill="white"/>
<rect x="85.2418" y="0.15" width="28.0636" height="29.7" fill="#FF9E00"/>
<rect x="85.2418" y="0.15" width="28.0636" height="29.7" stroke="#D9D9D9" stroke-width="0.3"/>
<path d="M99.3678 15.952H98.3598V14.152H99.3678C100.376 14.152 101.006 13.594 101.006 12.262V11.722C101.006 10.48 100.34 9.976 99.3678 9.976C98.3958 9.976 97.6938 10.48 97.6938 11.686V12.172H95.8938V11.524C95.8938 9.436 97.4418 8.32 99.3678 8.32C101.258 8.32 102.806 9.454 102.806 11.56V12.208C102.806 13.486 102.176 14.386 101.222 14.872C102.392 15.358 103.166 16.348 103.166 17.806V18.598C103.166 20.92 101.474 22.18 99.3678 22.18C97.2438 22.18 95.5338 20.92 95.5338 18.562V17.77H97.3338V18.4C97.3338 19.876 98.1438 20.524 99.3678 20.524C100.592 20.524 101.366 19.894 101.366 18.436V18.04C101.366 16.546 100.592 15.952 99.3678 15.952Z" fill="white"/>
<rect x="113.605" y="0.15" width="28.0636" height="29.7" fill="#FF9E00"/>
<rect x="113.605" y="0.15" width="28.0636" height="29.7" stroke="#D9D9D9" stroke-width="0.3"/>
<path d="M123.681 17.86L127.299 8.5H130.017V17.86H131.745V19.516H130.017V22H128.217V19.516H123.681V17.86ZM125.175 17.86H128.217V9.904L125.175 17.86Z" fill="white"/>
<rect x="141.968" y="0.15" width="28.0636" height="29.7" fill="#FF9E00"/>
<rect x="141.968" y="0.15" width="28.0636" height="29.7" stroke="#D9D9D9" stroke-width="0.3"/>
<path d="M154.342 10.156V13.972C154.792 13.27 155.548 12.82 156.538 12.82C158.59 12.82 159.67 14.17 159.67 16.744V18.184C159.67 20.83 158.068 22.18 156.07 22.18C154.036 22.18 152.434 20.866 152.434 18.4V17.896H154.234V18.112C154.234 19.822 154.936 20.524 156.07 20.524C157.132 20.524 157.87 19.804 157.87 18.184V16.852C157.87 15.07 157.15 14.404 156.07 14.404C154.99 14.404 154.468 15.052 154.342 15.79H152.614V8.5H159.346V10.156H154.342Z" fill="white"/>
<rect x="170.332" y="0.15" width="28.0636" height="29.7" fill="#FF9E00"/>
<rect x="170.332" y="0.15" width="28.0636" height="29.7" stroke="#D9D9D9" stroke-width="0.3"/>
<path d="M182.367 12.748V15.016C182.943 14.008 183.825 13.612 184.833 13.612C186.687 13.612 188.163 14.98 188.163 17.716V18.076C188.163 20.758 186.525 22.18 184.365 22.18C182.205 22.18 180.567 20.704 180.567 17.896V12.604C180.567 9.796 182.205 8.32 184.365 8.32C186.435 8.32 188.019 9.652 188.019 12.172V12.478H186.219V12.316C186.219 10.66 185.517 9.976 184.365 9.976C183.159 9.976 182.367 10.768 182.367 12.748ZM182.367 17.734V18.058C182.367 19.804 183.141 20.524 184.365 20.524C185.589 20.524 186.363 19.786 186.363 18.058V17.734C186.363 15.97 185.625 15.268 184.365 15.268C183.141 15.268 182.367 15.97 182.367 17.734Z" fill="white"/>
<rect x="198.695" y="0.15" width="28.0636" height="29.7" fill="#FF9E00"/>
<rect x="198.695" y="0.15" width="28.0636" height="29.7" stroke="#D9D9D9" stroke-width="0.3"/>
<path d="M213.107 21.082V22H211.307V21.388C211.307 16.096 212.855 13.45 214.619 10.156H209.219V8.5H216.095V10.75C214.349 14.134 213.107 16.15 213.107 21.082Z" fill="white"/>
<rect x="227.058" y="0.15" width="28.0636" height="29.7" fill="#FF9E00"/>
<rect x="227.058" y="0.15" width="28.0636" height="29.7" stroke="#D9D9D9" stroke-width="0.3"/>
<path d="M237.218 17.77C237.218 16.312 238.01 15.304 239.18 14.8C238.244 14.314 237.614 13.432 237.614 12.172V11.524C237.614 9.436 239.162 8.32 241.088 8.32C243.014 8.32 244.562 9.436 244.562 11.524V12.172C244.562 13.432 243.932 14.314 242.996 14.8C244.166 15.304 244.958 16.312 244.958 17.77V18.562C244.958 20.92 243.23 22.18 241.088 22.18C238.946 22.18 237.218 20.92 237.218 18.562V17.77ZM239.414 11.686V12.154C239.414 13.45 240.08 14.008 241.088 14.008C242.114 14.008 242.762 13.45 242.762 12.154V11.686C242.762 10.48 242.078 9.976 241.088 9.976C240.116 9.976 239.414 10.48 239.414 11.686ZM239.018 17.788V18.4C239.018 19.876 239.846 20.524 241.088 20.524C242.348 20.524 243.158 19.876 243.158 18.4V17.788C243.158 16.276 242.348 15.664 241.088 15.664C239.846 15.664 239.018 16.276 239.018 17.788Z" fill="white"/>
<rect x="255.423" y="0.15" width="28.0636" height="29.7" fill="#FF9E00"/>
<rect x="255.423" y="0.15" width="28.0636" height="29.7" stroke="#D9D9D9" stroke-width="0.3"/>
<path d="M271.455 17.752V15.484C270.879 16.492 269.997 16.888 268.989 16.888C267.135 16.888 265.659 15.52 265.659 12.784V12.424C265.659 9.742 267.297 8.32 269.457 8.32C271.617 8.32 273.255 9.796 273.255 12.604V17.896C273.255 20.704 271.617 22.18 269.457 22.18C267.387 22.18 265.803 20.848 265.803 18.328V18.022H267.603V18.184C267.603 19.84 268.305 20.524 269.457 20.524C270.663 20.524 271.455 19.732 271.455 17.752ZM271.455 12.766V12.442C271.455 10.696 270.681 9.976 269.457 9.976C268.233 9.976 267.459 10.714 267.459 12.442V12.766C267.459 14.53 268.197 15.232 269.457 15.232C270.681 15.232 271.455 14.53 271.455 12.766Z" fill="white"/>
<path d="M300 0.150391C306.545 0.150391 311.851 5.45543 311.851 12V29.8496H283.787V0.150391H300Z" fill="#FF9E00"/>
<path d="M300 0.150391C306.545 0.150391 311.851 5.45543 311.851 12V29.8496H283.787V0.150391H300Z" stroke="#D9D9D9" stroke-width="0.3"/>
<path d="M292.577 9.112V8.5H294.377V22H292.577V12.532H290.489V11.02H290.921C292.091 11.02 292.577 10.462 292.577 9.112ZM300.561 22.18C298.203 22.18 296.763 20.722 296.763 17.752V12.748C296.763 9.796 298.203 8.32 300.561 8.32C302.937 8.32 304.359 9.796 304.359 12.748V17.752C304.359 20.722 302.937 22.18 300.561 22.18ZM300.561 20.524C301.803 20.524 302.559 19.786 302.559 17.752V12.748C302.559 10.732 301.803 9.976 300.561 9.976C299.319 9.976 298.563 10.732 298.563 12.748V17.752C298.563 19.786 299.301 20.524 300.561 20.524Z" fill="white"/>
<rect x="0.15" y="30.15" width="28.0636" height="29.7" fill="#FF9E00"/>
<rect x="0.15" y="30.15" width="28.0636" height="29.7" stroke="#D9D9D9" stroke-width="0.3"/>
<path d="M13.8437 39.112V38.5H15.6437V52H13.8437V42.532H11.7557V41.02H12.1877C13.3577 41.02 13.8437 40.462 13.8437 39.112Z" fill="white"/>
<rect x="28.5133" y="30.15" width="28.0636" height="29.7" fill="#F4F4F4"/>
<rect x="28.5133" y="30.15" width="28.0636" height="29.7" stroke="#D9D9D9" stroke-width="0.3"/>
<path d="M46.0723 42.082C46.0723 45.808 41.4283 47.41 40.9603 50.344H46.2523V52H39.0163V51.1C39.0163 46.816 44.2723 45.376 44.2723 42.082C44.2723 40.588 43.5703 39.976 42.6163 39.976C41.6083 39.976 40.9243 40.552 40.9243 42.244V43.288H39.1243V42.1C39.1243 39.58 40.6723 38.32 42.6163 38.32C44.5243 38.32 46.0723 39.598 46.0723 42.082Z" fill="black"/>
<rect x="56.8766" y="30.15" width="28.0636" height="29.7" fill="#F4F4F4"/>
<rect x="56.8766" y="30.15" width="28.0636" height="29.7" stroke="#D9D9D9" stroke-width="0.3"/>
<path d="M71.0026 45.952H69.9946V44.152H71.0026C72.0106 44.152 72.6406 43.594 72.6406 42.262V41.722C72.6406 40.48 71.9746 39.976 71.0026 39.976C70.0306 39.976 69.3286 40.48 69.3286 41.686V42.172H67.5286V41.524C67.5286 39.436 69.0766 38.32 71.0026 38.32C72.8926 38.32 74.4406 39.454 74.4406 41.56V42.208C74.4406 43.486 73.8106 44.386 72.8566 44.872C74.0266 45.358 74.8006 46.348 74.8006 47.806V48.598C74.8006 50.92 73.1086 52.18 71.0026 52.18C68.8786 52.18 67.1686 50.92 67.1686 48.562V47.77H68.9686V48.4C68.9686 49.876 69.7786 50.524 71.0026 50.524C72.2266 50.524 73.0006 49.894 73.0006 48.436V48.04C73.0006 46.546 72.2266 45.952 71.0026 45.952Z" fill="black"/>
<rect x="85.2418" y="30.15" width="28.0636" height="29.7" fill="#F4F4F4"/>
<rect x="85.2418" y="30.15" width="28.0636" height="29.7" stroke="#D9D9D9" stroke-width="0.3"/>
<path d="M95.3178 47.86L98.9358 38.5H101.654V47.86H103.382V49.516H101.654V52H99.8538V49.516H95.3178V47.86ZM96.8118 47.86H99.8538V39.904L96.8118 47.86Z" fill="black"/>
<rect x="113.605" y="30.15" width="28.0636" height="29.7" fill="#F4F4F4"/>
<rect x="113.605" y="30.15" width="28.0636" height="29.7" stroke="#D9D9D9" stroke-width="0.3"/>
<path d="M125.979 40.156V43.972C126.429 43.27 127.185 42.82 128.175 42.82C130.227 42.82 131.307 44.17 131.307 46.744V48.184C131.307 50.83 129.705 52.18 127.707 52.18C125.673 52.18 124.071 50.866 124.071 48.4V47.896H125.871V48.112C125.871 49.822 126.573 50.524 127.707 50.524C128.769 50.524 129.507 49.804 129.507 48.184V46.852C129.507 45.07 128.787 44.404 127.707 44.404C126.627 44.404 126.105 45.052 125.979 45.79H124.251V38.5H130.983V40.156H125.979Z" fill="black"/>
<rect x="141.968" y="30.15" width="28.0636" height="29.7" fill="#F4F4F4"/>
<rect x="141.968" y="30.15" width="28.0636" height="29.7" stroke="#D9D9D9" stroke-width="0.3"/>
<path d="M154.004 42.748V45.016C154.58 44.008 155.462 43.612 156.47 43.612C158.324 43.612 159.8 44.98 159.8 47.716V48.076C159.8 50.758 158.162 52.18 156.002 52.18C153.842 52.18 152.204 50.704 152.204 47.896V42.604C152.204 39.796 153.842 38.32 156.002 38.32C158.072 38.32 159.656 39.652 159.656 42.172V42.478H157.856V42.316C157.856 40.66 157.154 39.976 156.002 39.976C154.796 39.976 154.004 40.768 154.004 42.748ZM154.004 47.734V48.058C154.004 49.804 154.778 50.524 156.002 50.524C157.226 50.524 158 49.786 158 48.058V47.734C158 45.97 157.262 45.268 156.002 45.268C154.778 45.268 154.004 45.97 154.004 47.734Z" fill="black"/>
<rect x="170.332" y="30.15" width="28.0636" height="29.7" fill="#F4F4F4"/>
<rect x="170.332" y="30.15" width="28.0636" height="29.7" stroke="#D9D9D9" stroke-width="0.3"/>
<path d="M184.743 51.082V52H182.943V51.388C182.943 46.096 184.491 43.45 186.255 40.156H180.855V38.5H187.731V40.75C185.985 44.134 184.743 46.15 184.743 51.082Z" fill="black"/>
<rect x="198.695" y="30.15" width="28.0636" height="29.7" fill="#F4F4F4"/>
<rect x="198.695" y="30.15" width="28.0636" height="29.7" stroke="#D9D9D9" stroke-width="0.3"/>
<path d="M208.854 47.77C208.854 46.312 209.646 45.304 210.816 44.8C209.88 44.314 209.25 43.432 209.25 42.172V41.524C209.25 39.436 210.798 38.32 212.724 38.32C214.65 38.32 216.198 39.436 216.198 41.524V42.172C216.198 43.432 215.568 44.314 214.632 44.8C215.802 45.304 216.594 46.312 216.594 47.77V48.562C216.594 50.92 214.866 52.18 212.724 52.18C210.582 52.18 208.854 50.92 208.854 48.562V47.77ZM211.05 41.686V42.154C211.05 43.45 211.716 44.008 212.724 44.008C213.75 44.008 214.398 43.45 214.398 42.154V41.686C214.398 40.48 213.714 39.976 212.724 39.976C211.752 39.976 211.05 40.48 211.05 41.686ZM210.654 47.788V48.4C210.654 49.876 211.482 50.524 212.724 50.524C213.984 50.524 214.794 49.876 214.794 48.4V47.788C214.794 46.276 213.984 45.664 212.724 45.664C211.482 45.664 210.654 46.276 210.654 47.788Z" fill="black"/>
<rect x="227.058" y="30.15" width="28.0636" height="29.7" fill="#F4F4F4"/>
<rect x="227.058" y="30.15" width="28.0636" height="29.7" stroke="#D9D9D9" stroke-width="0.3"/>
<path d="M243.09 47.752V45.484C242.514 46.492 241.632 46.888 240.624 46.888C238.77 46.888 237.294 45.52 237.294 42.784V42.424C237.294 39.742 238.932 38.32 241.092 38.32C243.252 38.32 244.89 39.796 244.89 42.604V47.896C244.89 50.704 243.252 52.18 241.092 52.18C239.022 52.18 237.438 50.848 237.438 48.328V48.022H239.238V48.184C239.238 49.84 239.94 50.524 241.092 50.524C242.298 50.524 243.09 49.732 243.09 47.752ZM243.09 42.766V42.442C243.09 40.696 242.316 39.976 241.092 39.976C239.868 39.976 239.094 40.714 239.094 42.442V42.766C239.094 44.53 239.832 45.232 241.092 45.232C242.316 45.232 243.09 44.53 243.09 42.766Z" fill="black"/>
<rect x="255.423" y="30.15" width="28.0636" height="29.7" fill="#FFE4C2"/>
<rect x="255.423" y="30.15" width="28.0636" height="29.7" stroke="#D9D9D9" stroke-width="0.3"/>
<path d="M264.214 39.112V38.5H266.014V52H264.214V42.532H262.126V41.02H262.558C263.728 41.02 264.214 40.462 264.214 39.112ZM272.198 52.18C269.84 52.18 268.4 50.722 268.4 47.752V42.748C268.4 39.796 269.84 38.32 272.198 38.32C274.574 38.32 275.996 39.796 275.996 42.748V47.752C275.996 50.722 274.574 52.18 272.198 52.18ZM272.198 50.524C273.44 50.524 274.196 49.786 274.196 47.752V42.748C274.196 40.732 273.44 39.976 272.198 39.976C270.956 39.976 270.2 40.732 270.2 42.748V47.752C270.2 49.786 270.938 50.524 272.198 50.524Z" fill="black"/>
<rect x="283.787" y="30.15" width="28.0636" height="29.7" fill="#F4F4F4"/>
<rect x="283.787" y="30.15" width="28.0636" height="29.7" stroke="#D9D9D9" stroke-width="0.3"/>
<path d="M294.739 39.112V38.5H296.539V52H294.739V42.532H292.651V41.02H293.083C294.253 41.02 294.739 40.462 294.739 39.112ZM300.222 39.112V38.5H302.022V52H300.222V42.532H298.134V41.02H298.566C299.736 41.02 300.222 40.462 300.222 39.112Z" fill="black"/>
<rect x="0.15" y="60.15" width="28.0636" height="29.7" fill="#FF9E00"/>
<rect x="0.15" y="60.15" width="28.0636" height="29.7" stroke="#D9D9D9" stroke-width="0.3"/>
<path d="M17.709 72.082C17.709 75.808 13.065 77.41 12.597 80.344H17.889V82H10.653V81.1C10.653 76.816 15.909 75.376 15.909 72.082C15.909 70.588 15.207 69.976 14.253 69.976C13.245 69.976 12.561 70.552 12.561 72.244V73.288H10.761V72.1C10.761 69.58 12.309 68.32 14.253 68.32C16.161 68.32 17.709 69.598 17.709 72.082Z" fill="white"/>
<rect x="28.5133" y="60.15" width="28.0636" height="29.7" fill="#F4F4F4"/>
<rect x="28.5133" y="60.15" width="28.0636" height="29.7" stroke="#D9D9D9" stroke-width="0.3"/>
<path d="M42.6393 75.952H41.6313V74.152H42.6393C43.6473 74.152 44.2773 73.594 44.2773 72.262V71.722C44.2773 70.48 43.6113 69.976 42.6393 69.976C41.6673 69.976 40.9653 70.48 40.9653 71.686V72.172H39.1653V71.524C39.1653 69.436 40.7133 68.32 42.6393 68.32C44.5293 68.32 46.0773 69.454 46.0773 71.56V72.208C46.0773 73.486 45.4473 74.386 44.4933 74.872C45.6633 75.358 46.4373 76.348 46.4373 77.806V78.598C46.4373 80.92 44.7453 82.18 42.6393 82.18C40.5153 82.18 38.8053 80.92 38.8053 78.562V77.77H40.6053V78.4C40.6053 79.876 41.4153 80.524 42.6393 80.524C43.8633 80.524 44.6373 79.894 44.6373 78.436V78.04C44.6373 76.546 43.8633 75.952 42.6393 75.952Z" fill="black"/>
<rect x="56.8766" y="60.15" width="28.0636" height="29.7" fill="#F4F4F4"/>
<rect x="56.8766" y="60.15" width="28.0636" height="29.7" stroke="#D9D9D9" stroke-width="0.3"/>
<path d="M66.9526 77.86L70.5706 68.5H73.2886V77.86H75.0166V79.516H73.2886V82H71.4886V79.516H66.9526V77.86ZM68.4466 77.86H71.4886V69.904L68.4466 77.86Z" fill="black"/>
<rect x="85.2418" y="60.15" width="28.0636" height="29.7" fill="#F4F4F4"/>
<rect x="85.2418" y="60.15" width="28.0636" height="29.7" stroke="#D9D9D9" stroke-width="0.3"/>
<path d="M97.6159 70.156V73.972C98.0659 73.27 98.8219 72.82 99.8119 72.82C101.864 72.82 102.944 74.17 102.944 76.744V78.184C102.944 80.83 101.342 82.18 99.3439 82.18C97.3099 82.18 95.7079 80.866 95.7079 78.4V77.896H97.5079V78.112C97.5079 79.822 98.2099 80.524 99.3439 80.524C100.406 80.524 101.144 79.804 101.144 78.184V76.852C101.144 75.07 100.424 74.404 99.3439 74.404C98.2639 74.404 97.7419 75.052 97.6159 75.79H95.8879V68.5H102.62V70.156H97.6159Z" fill="black"/>
<rect x="113.605" y="60.15" width="28.0636" height="29.7" fill="#F4F4F4"/>
<rect x="113.605" y="60.15" width="28.0636" height="29.7" stroke="#D9D9D9" stroke-width="0.3"/>
<path d="M125.641 72.748V75.016C126.217 74.008 127.099 73.612 128.107 73.612C129.961 73.612 131.437 74.98 131.437 77.716V78.076C131.437 80.758 129.799 82.18 127.639 82.18C125.479 82.18 123.841 80.704 123.841 77.896V72.604C123.841 69.796 125.479 68.32 127.639 68.32C129.709 68.32 131.293 69.652 131.293 72.172V72.478H129.493V72.316C129.493 70.66 128.791 69.976 127.639 69.976C126.433 69.976 125.641 70.768 125.641 72.748ZM125.641 77.734V78.058C125.641 79.804 126.415 80.524 127.639 80.524C128.863 80.524 129.637 79.786 129.637 78.058V77.734C129.637 75.97 128.899 75.268 127.639 75.268C126.415 75.268 125.641 75.97 125.641 77.734Z" fill="black"/>
<rect x="141.968" y="60.15" width="28.0636" height="29.7" fill="#F4F4F4"/>
<rect x="141.968" y="60.15" width="28.0636" height="29.7" stroke="#D9D9D9" stroke-width="0.3"/>
<path d="M156.38 81.082V82H154.58V81.388C154.58 76.096 156.128 73.45 157.892 70.156H152.492V68.5H159.368V70.75C157.622 74.134 156.38 76.15 156.38 81.082Z" fill="black"/>
<rect x="170.332" y="60.15" width="28.0636" height="29.7" fill="#F4F4F4"/>
<rect x="170.332" y="60.15" width="28.0636" height="29.7" stroke="#D9D9D9" stroke-width="0.3"/>
<path d="M180.491 77.77C180.491 76.312 181.283 75.304 182.453 74.8C181.517 74.314 180.887 73.432 180.887 72.172V71.524C180.887 69.436 182.435 68.32 184.361 68.32C186.287 68.32 187.835 69.436 187.835 71.524V72.172C187.835 73.432 187.205 74.314 186.269 74.8C187.439 75.304 188.231 76.312 188.231 77.77V78.562C188.231 80.92 186.503 82.18 184.361 82.18C182.219 82.18 180.491 80.92 180.491 78.562V77.77ZM182.687 71.686V72.154C182.687 73.45 183.353 74.008 184.361 74.008C185.387 74.008 186.035 73.45 186.035 72.154V71.686C186.035 70.48 185.351 69.976 184.361 69.976C183.389 69.976 182.687 70.48 182.687 71.686ZM182.291 77.788V78.4C182.291 79.876 183.119 80.524 184.361 80.524C185.621 80.524 186.431 79.876 186.431 78.4V77.788C186.431 76.276 185.621 75.664 184.361 75.664C183.119 75.664 182.291 76.276 182.291 77.788Z" fill="black"/>
<rect x="198.695" y="60.15" width="28.0636" height="29.7" fill="#F4F4F4"/>
<rect x="198.695" y="60.15" width="28.0636" height="29.7" stroke="#D9D9D9" stroke-width="0.3"/>
<path d="M214.726 77.752V75.484C214.15 76.492 213.268 76.888 212.26 76.888C210.406 76.888 208.93 75.52 208.93 72.784V72.424C208.93 69.742 210.568 68.32 212.728 68.32C214.888 68.32 216.526 69.796 216.526 72.604V77.896C216.526 80.704 214.888 82.18 212.728 82.18C210.658 82.18 209.074 80.848 209.074 78.328V78.022H210.874V78.184C210.874 79.84 211.576 80.524 212.728 80.524C213.934 80.524 214.726 79.732 214.726 77.752ZM214.726 72.766V72.442C214.726 70.696 213.952 69.976 212.728 69.976C211.504 69.976 210.73 70.714 210.73 72.442V72.766C210.73 74.53 211.468 75.232 212.728 75.232C213.952 75.232 214.726 74.53 214.726 72.766Z" fill="black"/>
<rect x="227.058" y="60.15" width="28.0636" height="29.7" fill="#FFE4C2"/>
<rect x="227.058" y="60.15" width="28.0636" height="29.7" stroke="#D9D9D9" stroke-width="0.3"/>
<path d="M235.849 69.112V68.5H237.649V82H235.849V72.532H233.761V71.02H234.193C235.363 71.02 235.849 70.462 235.849 69.112ZM243.833 82.18C241.475 82.18 240.035 80.722 240.035 77.752V72.748C240.035 69.796 241.475 68.32 243.833 68.32C246.209 68.32 247.631 69.796 247.631 72.748V77.752C247.631 80.722 246.209 82.18 243.833 82.18ZM243.833 80.524C245.075 80.524 245.831 79.786 245.831 77.752V72.748C245.831 70.732 245.075 69.976 243.833 69.976C242.591 69.976 241.835 70.732 241.835 72.748V77.752C241.835 79.786 242.573 80.524 243.833 80.524Z" fill="black"/>
<rect x="255.423" y="60.15" width="28.0636" height="29.7" fill="#F4F4F4"/>
<rect x="255.423" y="60.15" width="28.0636" height="29.7" stroke="#D9D9D9" stroke-width="0.3"/>
<path d="M266.376 69.112V68.5H268.176V82H266.376V72.532H264.288V71.02H264.72C265.89 71.02 266.376 70.462 266.376 69.112ZM271.858 69.112V68.5H273.658V82H271.858V72.532H269.77V71.02H270.202C271.372 71.02 271.858 70.462 271.858 69.112Z" fill="black"/>
<rect x="283.787" y="60.15" width="28.0636" height="29.7" fill="#F4F4F4"/>
<rect x="283.787" y="60.15" width="28.0636" height="29.7" stroke="#D9D9D9" stroke-width="0.3"/>
<path d="M293.061 69.112V68.5H294.861V82H293.061V72.532H290.973V71.02H291.405C292.575 71.02 293.061 70.462 293.061 69.112ZM304.087 72.082C304.087 75.808 299.443 77.41 298.975 80.344H304.267V82H297.031V81.1C297.031 76.816 302.287 75.376 302.287 72.082C302.287 70.588 301.585 69.976 300.631 69.976C299.623 69.976 298.939 70.552 298.939 72.244V73.288H297.139V72.1C297.139 69.58 298.687 68.32 300.631 68.32C302.539 68.32 304.087 69.598 304.087 72.082Z" fill="black"/>
<rect x="0.15" y="90.15" width="28.0636" height="29.7" fill="#FF9E00"/>
<rect x="0.15" y="90.15" width="28.0636" height="29.7" stroke="#D9D9D9" stroke-width="0.3"/>
<path d="M14.276 105.952H13.268V104.152H14.276C15.284 104.152 15.914 103.594 15.914 102.262V101.722C15.914 100.48 15.248 99.976 14.276 99.976C13.304 99.976 12.602 100.48 12.602 101.686V102.172H10.802V101.524C10.802 99.436 12.35 98.32 14.276 98.32C16.166 98.32 17.714 99.454 17.714 101.56V102.208C17.714 103.486 17.084 104.386 16.13 104.872C17.3 105.358 18.074 106.348 18.074 107.806V108.598C18.074 110.92 16.382 112.18 14.276 112.18C12.152 112.18 10.442 110.92 10.442 108.562V107.77H12.242V108.4C12.242 109.876 13.052 110.524 14.276 110.524C15.5 110.524 16.274 109.894 16.274 108.436V108.04C16.274 106.546 15.5 105.952 14.276 105.952Z" fill="white"/>
<rect x="28.5133" y="90.15" width="28.0636" height="29.7" fill="#F4F4F4"/>
<rect x="28.5133" y="90.15" width="28.0636" height="29.7" stroke="#D9D9D9" stroke-width="0.3"/>
<path d="M38.5893 107.86L42.2073 98.5H44.9253V107.86H46.6533V109.516H44.9253V112H43.1253V109.516H38.5893V107.86ZM40.0833 107.86H43.1253V99.904L40.0833 107.86Z" fill="black"/>
<rect x="56.8766" y="90.15" width="28.0636" height="29.7" fill="#F4F4F4"/>
<rect x="56.8766" y="90.15" width="28.0636" height="29.7" stroke="#D9D9D9" stroke-width="0.3"/>
<path d="M69.2507 100.156V103.972C69.7007 103.27 70.4567 102.82 71.4467 102.82C73.4987 102.82 74.5787 104.17 74.5787 106.744V108.184C74.5787 110.83 72.9767 112.18 70.9787 112.18C68.9447 112.18 67.3427 110.866 67.3427 108.4V107.896H69.1427V108.112C69.1427 109.822 69.8447 110.524 70.9787 110.524C72.0407 110.524 72.7787 109.804 72.7787 108.184V106.852C72.7787 105.07 72.0587 104.404 70.9787 104.404C69.8987 104.404 69.3767 105.052 69.2507 105.79H67.5227V98.5H74.2547V100.156H69.2507Z" fill="black"/>
<rect x="85.2418" y="90.15" width="28.0636" height="29.7" fill="#F4F4F4"/>
<rect x="85.2418" y="90.15" width="28.0636" height="29.7" stroke="#D9D9D9" stroke-width="0.3"/>
<path d="M97.2774 102.748V105.016C97.8534 104.008 98.7354 103.612 99.7434 103.612C101.597 103.612 103.073 104.98 103.073 107.716V108.076C103.073 110.758 101.435 112.18 99.2754 112.18C97.1154 112.18 95.4774 110.704 95.4774 107.896V102.604C95.4774 99.796 97.1154 98.32 99.2754 98.32C101.345 98.32 102.929 99.652 102.929 102.172V102.478H101.129V102.316C101.129 100.66 100.427 99.976 99.2754 99.976C98.0694 99.976 97.2774 100.768 97.2774 102.748ZM97.2774 107.734V108.058C97.2774 109.804 98.0514 110.524 99.2754 110.524C100.499 110.524 101.273 109.786 101.273 108.058V107.734C101.273 105.97 100.535 105.268 99.2754 105.268C98.0514 105.268 97.2774 105.97 97.2774 107.734Z" fill="black"/>
<rect x="113.605" y="90.15" width="28.0636" height="29.7" fill="#F4F4F4"/>
<rect x="113.605" y="90.15" width="28.0636" height="29.7" stroke="#D9D9D9" stroke-width="0.3"/>
<path d="M128.017 111.082V112H126.217V111.388C126.217 106.096 127.765 103.45 129.529 100.156H124.129V98.5H131.005V100.75C129.259 104.134 128.017 106.15 128.017 111.082Z" fill="black"/>
<rect x="141.968" y="90.15" width="28.0636" height="29.7" fill="#F4F4F4"/>
<rect x="141.968" y="90.15" width="28.0636" height="29.7" stroke="#D9D9D9" stroke-width="0.3"/>
<path d="M152.128 107.77C152.128 106.312 152.92 105.304 154.09 104.8C153.154 104.314 152.524 103.432 152.524 102.172V101.524C152.524 99.436 154.072 98.32 155.998 98.32C157.924 98.32 159.472 99.436 159.472 101.524V102.172C159.472 103.432 158.842 104.314 157.906 104.8C159.076 105.304 159.868 106.312 159.868 107.77V108.562C159.868 110.92 158.14 112.18 155.998 112.18C153.856 112.18 152.128 110.92 152.128 108.562V107.77ZM154.324 101.686V102.154C154.324 103.45 154.99 104.008 155.998 104.008C157.024 104.008 157.672 103.45 157.672 102.154V101.686C157.672 100.48 156.988 99.976 155.998 99.976C155.026 99.976 154.324 100.48 154.324 101.686ZM153.928 107.788V108.4C153.928 109.876 154.756 110.524 155.998 110.524C157.258 110.524 158.068 109.876 158.068 108.4V107.788C158.068 106.276 157.258 105.664 155.998 105.664C154.756 105.664 153.928 106.276 153.928 107.788Z" fill="black"/>
<rect x="170.332" y="90.15" width="28.0636" height="29.7" fill="#F4F4F4"/>
<rect x="170.332" y="90.15" width="28.0636" height="29.7" stroke="#D9D9D9" stroke-width="0.3"/>
<path d="M186.363 107.752V105.484C185.787 106.492 184.905 106.888 183.897 106.888C182.043 106.888 180.567 105.52 180.567 102.784V102.424C180.567 99.742 182.205 98.32 184.365 98.32C186.525 98.32 188.163 99.796 188.163 102.604V107.896C188.163 110.704 186.525 112.18 184.365 112.18C182.295 112.18 180.711 110.848 180.711 108.328V108.022H182.511V108.184C182.511 109.84 183.213 110.524 184.365 110.524C185.571 110.524 186.363 109.732 186.363 107.752ZM186.363 102.766V102.442C186.363 100.696 185.589 99.976 184.365 99.976C183.141 99.976 182.367 100.714 182.367 102.442V102.766C182.367 104.53 183.105 105.232 184.365 105.232C185.589 105.232 186.363 104.53 186.363 102.766Z" fill="black"/>
<rect x="198.695" y="90.15" width="28.0636" height="29.7" fill="#FFE4C2"/>
<rect x="198.695" y="90.15" width="28.0636" height="29.7" stroke="#D9D9D9" stroke-width="0.3"/>
<path d="M207.485 99.112V98.5H209.285V112H207.485V102.532H205.397V101.02H205.829C206.999 101.02 207.485 100.462 207.485 99.112ZM215.47 112.18C213.112 112.18 211.672 110.722 211.672 107.752V102.748C211.672 99.796 213.112 98.32 215.47 98.32C217.846 98.32 219.268 99.796 219.268 102.748V107.752C219.268 110.722 217.846 112.18 215.47 112.18ZM215.47 110.524C216.712 110.524 217.468 109.786 217.468 107.752V102.748C217.468 100.732 216.712 99.976 215.47 99.976C214.228 99.976 213.472 100.732 213.472 102.748V107.752C213.472 109.786 214.21 110.524 215.47 110.524Z" fill="black"/>
<rect x="227.058" y="90.15" width="28.0636" height="29.7" fill="#F4F4F4"/>
<rect x="227.058" y="90.15" width="28.0636" height="29.7" stroke="#D9D9D9" stroke-width="0.3"/>
<path d="M238.011 99.112V98.5H239.811V112H238.011V102.532H235.923V101.02H236.355C237.525 101.02 238.011 100.462 238.011 99.112ZM243.493 99.112V98.5H245.293V112H243.493V102.532H241.405V101.02H241.837C243.007 101.02 243.493 100.462 243.493 99.112Z" fill="black"/>
<rect x="255.423" y="90.15" width="28.0636" height="29.7" fill="#F4F4F4"/>
<rect x="255.423" y="90.15" width="28.0636" height="29.7" stroke="#D9D9D9" stroke-width="0.3"/>
<path d="M264.697 99.112V98.5H266.497V112H264.697V102.532H262.609V101.02H263.041C264.211 101.02 264.697 100.462 264.697 99.112ZM275.724 102.082C275.724 105.808 271.08 107.41 270.612 110.344H275.904V112H268.668V111.1C268.668 106.816 273.924 105.376 273.924 102.082C273.924 100.588 273.222 99.976 272.268 99.976C271.26 99.976 270.576 100.552 270.576 102.244V103.288H268.776V102.1C268.776 99.58 270.324 98.32 272.268 98.32C274.176 98.32 275.724 99.598 275.724 102.082Z" fill="black"/>
<rect x="283.787" y="90.15" width="28.0636" height="29.7" fill="#F4F4F4"/>
<rect x="283.787" y="90.15" width="28.0636" height="29.7" stroke="#D9D9D9" stroke-width="0.3"/>
<path d="M292.85 99.112V98.5H294.65V112H292.85V102.532H290.762V101.02H291.194C292.364 101.02 292.85 100.462 292.85 99.112ZM300.654 105.952H299.646V104.152H300.654C301.662 104.152 302.292 103.594 302.292 102.262V101.722C302.292 100.48 301.626 99.976 300.654 99.976C299.682 99.976 298.98 100.48 298.98 101.686V102.172H297.18V101.524C297.18 99.436 298.728 98.32 300.654 98.32C302.544 98.32 304.092 99.454 304.092 101.56V102.208C304.092 103.486 303.462 104.386 302.508 104.872C303.678 105.358 304.452 106.348 304.452 107.806V108.598C304.452 110.92 302.76 112.18 300.654 112.18C298.53 112.18 296.82 110.92 296.82 108.562V107.77H298.62V108.4C298.62 109.876 299.43 110.524 300.654 110.524C301.878 110.524 302.652 109.894 302.652 108.436V108.04C302.652 106.546 301.878 105.952 300.654 105.952Z" fill="black"/>
<rect x="0.15" y="120.15" width="28.0636" height="29.7" fill="#FF9E00"/>
<rect x="0.15" y="120.15" width="28.0636" height="29.7" stroke="#D9D9D9" stroke-width="0.3"/>
<path d="M10.226 137.86L13.844 128.5H16.562V137.86H18.29V139.516H16.562V142H14.762V139.516H10.226V137.86ZM11.72 137.86H14.762V129.904L11.72 137.86Z" fill="white"/>
<rect x="28.5133" y="120.15" width="28.0636" height="29.7" fill="#F4F4F4"/>
<rect x="28.5133" y="120.15" width="28.0636" height="29.7" stroke="#D9D9D9" stroke-width="0.3"/>
<path d="M40.8874 130.156V133.972C41.3374 133.27 42.0934 132.82 43.0834 132.82C45.1354 132.82 46.2154 134.17 46.2154 136.744V138.184C46.2154 140.83 44.6134 142.18 42.6154 142.18C40.5814 142.18 38.9794 140.866 38.9794 138.4V137.896H40.7794V138.112C40.7794 139.822 41.4814 140.524 42.6154 140.524C43.6774 140.524 44.4154 139.804 44.4154 138.184V136.852C44.4154 135.07 43.6954 134.404 42.6154 134.404C41.5354 134.404 41.0134 135.052 40.8874 135.79H39.1594V128.5H45.8914V130.156H40.8874Z" fill="black"/>
<rect x="56.8766" y="120.15" width="28.0636" height="29.7" fill="#F4F4F4"/>
<rect x="56.8766" y="120.15" width="28.0636" height="29.7" stroke="#D9D9D9" stroke-width="0.3"/>
<path d="M68.9121 132.748V135.016C69.4881 134.008 70.3701 133.612 71.3781 133.612C73.2321 133.612 74.7081 134.98 74.7081 137.716V138.076C74.7081 140.758 73.0701 142.18 70.9101 142.18C68.7501 142.18 67.1121 140.704 67.1121 137.896V132.604C67.1121 129.796 68.7501 128.32 70.9101 128.32C72.9801 128.32 74.5641 129.652 74.5641 132.172V132.478H72.7641V132.316C72.7641 130.66 72.0621 129.976 70.9101 129.976C69.7041 129.976 68.9121 130.768 68.9121 132.748ZM68.9121 137.734V138.058C68.9121 139.804 69.6861 140.524 70.9101 140.524C72.1341 140.524 72.9081 139.786 72.9081 138.058V137.734C72.9081 135.97 72.1701 135.268 70.9101 135.268C69.6861 135.268 68.9121 135.97 68.9121 137.734Z" fill="black"/>
<rect x="85.2418" y="120.15" width="28.0636" height="29.7" fill="#F4F4F4"/>
<rect x="85.2418" y="120.15" width="28.0636" height="29.7" stroke="#D9D9D9" stroke-width="0.3"/>
<path d="M99.6536 141.082V142H97.8536V141.388C97.8536 136.096 99.4016 133.45 101.166 130.156H95.7656V128.5H102.642V130.75C100.896 134.134 99.6536 136.15 99.6536 141.082Z" fill="black"/>
<rect x="113.605" y="120.15" width="28.0636" height="29.7" fill="#F4F4F4"/>
<rect x="113.605" y="120.15" width="28.0636" height="29.7" stroke="#D9D9D9" stroke-width="0.3"/>
<path d="M123.764 137.77C123.764 136.312 124.556 135.304 125.726 134.8C124.79 134.314 124.16 133.432 124.16 132.172V131.524C124.16 129.436 125.708 128.32 127.634 128.32C129.56 128.32 131.108 129.436 131.108 131.524V132.172C131.108 133.432 130.478 134.314 129.542 134.8C130.712 135.304 131.504 136.312 131.504 137.77V138.562C131.504 140.92 129.776 142.18 127.634 142.18C125.492 142.18 123.764 140.92 123.764 138.562V137.77ZM125.96 131.686V132.154C125.96 133.45 126.626 134.008 127.634 134.008C128.66 134.008 129.308 133.45 129.308 132.154V131.686C129.308 130.48 128.624 129.976 127.634 129.976C126.662 129.976 125.96 130.48 125.96 131.686ZM125.564 137.788V138.4C125.564 139.876 126.392 140.524 127.634 140.524C128.894 140.524 129.704 139.876 129.704 138.4V137.788C129.704 136.276 128.894 135.664 127.634 135.664C126.392 135.664 125.564 136.276 125.564 137.788Z" fill="black"/>
<rect x="141.968" y="120.15" width="28.0636" height="29.7" fill="#F4F4F4"/>
<rect x="141.968" y="120.15" width="28.0636" height="29.7" stroke="#D9D9D9" stroke-width="0.3"/>
<path d="M158 137.752V135.484C157.424 136.492 156.542 136.888 155.534 136.888C153.68 136.888 152.204 135.52 152.204 132.784V132.424C152.204 129.742 153.842 128.32 156.002 128.32C158.162 128.32 159.8 129.796 159.8 132.604V137.896C159.8 140.704 158.162 142.18 156.002 142.18C153.932 142.18 152.348 140.848 152.348 138.328V138.022H154.148V138.184C154.148 139.84 154.85 140.524 156.002 140.524C157.208 140.524 158 139.732 158 137.752ZM158 132.766V132.442C158 130.696 157.226 129.976 156.002 129.976C154.778 129.976 154.004 130.714 154.004 132.442V132.766C154.004 134.53 154.742 135.232 156.002 135.232C157.226 135.232 158 134.53 158 132.766Z" fill="black"/>
<rect x="170.332" y="120.15" width="28.0636" height="29.7" fill="#FFE4C2"/>
<rect x="170.332" y="120.15" width="28.0636" height="29.7" stroke="#D9D9D9" stroke-width="0.3"/>
<path d="M179.122 129.112V128.5H180.922V142H179.122V132.532H177.034V131.02H177.466C178.636 131.02 179.122 130.462 179.122 129.112ZM187.106 142.18C184.748 142.18 183.308 140.722 183.308 137.752V132.748C183.308 129.796 184.748 128.32 187.106 128.32C189.482 128.32 190.904 129.796 190.904 132.748V137.752C190.904 140.722 189.482 142.18 187.106 142.18ZM187.106 140.524C188.348 140.524 189.104 139.786 189.104 137.752V132.748C189.104 130.732 188.348 129.976 187.106 129.976C185.864 129.976 185.108 130.732 185.108 132.748V137.752C185.108 139.786 185.846 140.524 187.106 140.524Z" fill="black"/>
<rect x="198.695" y="120.15" width="28.0636" height="29.7" fill="#F4F4F4"/>
<rect x="198.695" y="120.15" width="28.0636" height="29.7" stroke="#D9D9D9" stroke-width="0.3"/>
<path d="M209.647 129.112V128.5H211.447V142H209.647V132.532H207.559V131.02H207.991C209.161 131.02 209.647 130.462 209.647 129.112ZM215.13 129.112V128.5H216.93V142H215.13V132.532H213.042V131.02H213.474C214.644 131.02 215.13 130.462 215.13 129.112Z" fill="black"/>
<rect x="227.058" y="120.15" width="28.0636" height="29.7" fill="#F4F4F4"/>
<rect x="227.058" y="120.15" width="28.0636" height="29.7" stroke="#D9D9D9" stroke-width="0.3"/>
<path d="M236.332 129.112V128.5H238.132V142H236.332V132.532H234.244V131.02H234.676C235.846 131.02 236.332 130.462 236.332 129.112ZM247.358 132.082C247.358 135.808 242.714 137.41 242.246 140.344H247.538V142H240.302V141.1C240.302 136.816 245.558 135.376 245.558 132.082C245.558 130.588 244.856 129.976 243.902 129.976C242.894 129.976 242.21 130.552 242.21 132.244V133.288H240.41V132.1C240.41 129.58 241.958 128.32 243.902 128.32C245.81 128.32 247.358 129.598 247.358 132.082Z" fill="black"/>
<rect x="255.423" y="120.15" width="28.0636" height="29.7" fill="#F4F4F4"/>
<rect x="255.423" y="120.15" width="28.0636" height="29.7" stroke="#D9D9D9" stroke-width="0.3"/>
<path d="M264.486 129.112V128.5H266.286V142H264.486V132.532H262.398V131.02H262.83C264 131.02 264.486 130.462 264.486 129.112ZM272.291 135.952H271.283V134.152H272.291C273.299 134.152 273.929 133.594 273.929 132.262V131.722C273.929 130.48 273.263 129.976 272.291 129.976C271.319 129.976 270.617 130.48 270.617 131.686V132.172H268.817V131.524C268.817 129.436 270.365 128.32 272.291 128.32C274.181 128.32 275.729 129.454 275.729 131.56V132.208C275.729 133.486 275.099 134.386 274.145 134.872C275.315 135.358 276.089 136.348 276.089 137.806V138.598C276.089 140.92 274.397 142.18 272.291 142.18C270.167 142.18 268.457 140.92 268.457 138.562V137.77H270.257V138.4C270.257 139.876 271.067 140.524 272.291 140.524C273.515 140.524 274.289 139.894 274.289 138.436V138.04C274.289 136.546 273.515 135.952 272.291 135.952Z" fill="black"/>
<rect x="283.787" y="120.15" width="28.0636" height="29.7" fill="#F4F4F4"/>
<rect x="283.787" y="120.15" width="28.0636" height="29.7" stroke="#D9D9D9" stroke-width="0.3"/>
<path d="M292.85 129.112V128.5H294.65V142H292.85V132.532H290.762V131.02H291.194C292.364 131.02 292.85 130.462 292.85 129.112ZM296.604 137.86L300.222 128.5H302.94V137.86H304.668V139.516H302.94V142H301.14V139.516H296.604V137.86ZM298.098 137.86H301.14V129.904L298.098 137.86Z" fill="black"/>
<rect x="0.15" y="150.15" width="28.0636" height="29.7" fill="#FF9E00"/>
<rect x="0.15" y="150.15" width="28.0636" height="29.7" stroke="#D9D9D9" stroke-width="0.3"/>
<path d="M12.5241 160.156V163.972C12.9741 163.27 13.7301 162.82 14.7201 162.82C16.7721 162.82 17.8521 164.17 17.8521 166.744V168.184C17.8521 170.83 16.2501 172.18 14.2521 172.18C12.2181 172.18 10.6161 170.866 10.6161 168.4V167.896H12.4161V168.112C12.4161 169.822 13.1181 170.524 14.2521 170.524C15.3141 170.524 16.0521 169.804 16.0521 168.184V166.852C16.0521 165.07 15.3321 164.404 14.2521 164.404C13.1721 164.404 12.6501 165.052 12.5241 165.79H10.7961V158.5H17.5281V160.156H12.5241Z" fill="white"/>
<rect x="28.5133" y="150.15" width="28.0636" height="29.7" fill="#F4F4F4"/>
<rect x="28.5133" y="150.15" width="28.0636" height="29.7" stroke="#D9D9D9" stroke-width="0.3"/>
<path d="M40.5489 162.748V165.016C41.1249 164.008 42.0069 163.612 43.0149 163.612C44.8689 163.612 46.3449 164.98 46.3449 167.716V168.076C46.3449 170.758 44.7069 172.18 42.5469 172.18C40.3869 172.18 38.7489 170.704 38.7489 167.896V162.604C38.7489 159.796 40.3869 158.32 42.5469 158.32C44.6169 158.32 46.2009 159.652 46.2009 162.172V162.478H44.4009V162.316C44.4009 160.66 43.6989 159.976 42.5469 159.976C41.3409 159.976 40.5489 160.768 40.5489 162.748ZM40.5489 167.734V168.058C40.5489 169.804 41.3229 170.524 42.5469 170.524C43.7709 170.524 44.5449 169.786 44.5449 168.058V167.734C44.5449 165.97 43.8069 165.268 42.5469 165.268C41.3229 165.268 40.5489 165.97 40.5489 167.734Z" fill="black"/>
<rect x="56.8766" y="150.15" width="28.0636" height="29.7" fill="#F4F4F4"/>
<rect x="56.8766" y="150.15" width="28.0636" height="29.7" stroke="#D9D9D9" stroke-width="0.3"/>
<path d="M71.2883 171.082V172H69.4883V171.388C69.4883 166.096 71.0363 163.45 72.8003 160.156H67.4003V158.5H74.2763V160.75C72.5303 164.134 71.2883 166.15 71.2883 171.082Z" fill="black"/>
<rect x="85.2418" y="150.15" width="28.0636" height="29.7" fill="#F4F4F4"/>
<rect x="85.2418" y="150.15" width="28.0636" height="29.7" stroke="#D9D9D9" stroke-width="0.3"/>
<path d="M95.4012 167.77C95.4012 166.312 96.1932 165.304 97.3632 164.8C96.4272 164.314 95.7972 163.432 95.7972 162.172V161.524C95.7972 159.436 97.3452 158.32 99.2712 158.32C101.197 158.32 102.745 159.436 102.745 161.524V162.172C102.745 163.432 102.115 164.314 101.179 164.8C102.349 165.304 103.141 166.312 103.141 167.77V168.562C103.141 170.92 101.413 172.18 99.2712 172.18C97.1292 172.18 95.4012 170.92 95.4012 168.562V167.77ZM97.5972 161.686V162.154C97.5972 163.45 98.2632 164.008 99.2712 164.008C100.297 164.008 100.945 163.45 100.945 162.154V161.686C100.945 160.48 100.261 159.976 99.2712 159.976C98.2992 159.976 97.5972 160.48 97.5972 161.686ZM97.2012 167.788V168.4C97.2012 169.876 98.0292 170.524 99.2712 170.524C100.531 170.524 101.341 169.876 101.341 168.4V167.788C101.341 166.276 100.531 165.664 99.2712 165.664C98.0292 165.664 97.2012 166.276 97.2012 167.788Z" fill="black"/>
<rect x="113.605" y="150.15" width="28.0636" height="29.7" fill="#F4F4F4"/>
<rect x="113.605" y="150.15" width="28.0636" height="29.7" stroke="#D9D9D9" stroke-width="0.3"/>
<path d="M129.637 167.752V165.484C129.061 166.492 128.179 166.888 127.171 166.888C125.317 166.888 123.841 165.52 123.841 162.784V162.424C123.841 159.742 125.479 158.32 127.639 158.32C129.799 158.32 131.437 159.796 131.437 162.604V167.896C131.437 170.704 129.799 172.18 127.639 172.18C125.569 172.18 123.985 170.848 123.985 168.328V168.022H125.785V168.184C125.785 169.84 126.487 170.524 127.639 170.524C128.845 170.524 129.637 169.732 129.637 167.752ZM129.637 162.766V162.442C129.637 160.696 128.863 159.976 127.639 159.976C126.415 159.976 125.641 160.714 125.641 162.442V162.766C125.641 164.53 126.379 165.232 127.639 165.232C128.863 165.232 129.637 164.53 129.637 162.766Z" fill="black"/>
<rect x="141.968" y="150.15" width="28.0636" height="29.7" fill="#FFE4C2"/>
<rect x="141.968" y="150.15" width="28.0636" height="29.7" stroke="#D9D9D9" stroke-width="0.3"/>
<path d="M150.759 159.112V158.5H152.559V172H150.759V162.532H148.671V161.02H149.103C150.273 161.02 150.759 160.462 150.759 159.112ZM158.743 172.18C156.385 172.18 154.945 170.722 154.945 167.752V162.748C154.945 159.796 156.385 158.32 158.743 158.32C161.119 158.32 162.541 159.796 162.541 162.748V167.752C162.541 170.722 161.119 172.18 158.743 172.18ZM158.743 170.524C159.985 170.524 160.741 169.786 160.741 167.752V162.748C160.741 160.732 159.985 159.976 158.743 159.976C157.501 159.976 156.745 160.732 156.745 162.748V167.752C156.745 169.786 157.483 170.524 158.743 170.524Z" fill="black"/>
<rect x="170.332" y="150.15" width="28.0636" height="29.7" fill="#F4F4F4"/>
<rect x="170.332" y="150.15" width="28.0636" height="29.7" stroke="#D9D9D9" stroke-width="0.3"/>
<path d="M181.284 159.112V158.5H183.084V172H181.284V162.532H179.196V161.02H179.628C180.798 161.02 181.284 160.462 181.284 159.112ZM186.766 159.112V158.5H188.566V172H186.766V162.532H184.678V161.02H185.11C186.28 161.02 186.766 160.462 186.766 159.112Z" fill="black"/>
<rect x="198.695" y="150.15" width="28.0636" height="29.7" fill="#F4F4F4"/>
<rect x="198.695" y="150.15" width="28.0636" height="29.7" stroke="#D9D9D9" stroke-width="0.3"/>
<path d="M207.969 159.112V158.5H209.769V172H207.969V162.532H205.881V161.02H206.313C207.483 161.02 207.969 160.462 207.969 159.112ZM218.995 162.082C218.995 165.808 214.351 167.41 213.883 170.344H219.175V172H211.939V171.1C211.939 166.816 217.195 165.376 217.195 162.082C217.195 160.588 216.493 159.976 215.539 159.976C214.531 159.976 213.847 160.552 213.847 162.244V163.288H212.047V162.1C212.047 159.58 213.595 158.32 215.539 158.32C217.447 158.32 218.995 159.598 218.995 162.082Z" fill="black"/>
<rect x="227.058" y="150.15" width="28.0636" height="29.7" fill="#F4F4F4"/>
<rect x="227.058" y="150.15" width="28.0636" height="29.7" stroke="#D9D9D9" stroke-width="0.3"/>
<path d="M236.121 159.112V158.5H237.921V172H236.121V162.532H234.033V161.02H234.465C235.635 161.02 236.121 160.462 236.121 159.112ZM243.925 165.952H242.917V164.152H243.925C244.933 164.152 245.563 163.594 245.563 162.262V161.722C245.563 160.48 244.897 159.976 243.925 159.976C242.953 159.976 242.251 160.48 242.251 161.686V162.172H240.451V161.524C240.451 159.436 241.999 158.32 243.925 158.32C245.815 158.32 247.363 159.454 247.363 161.56V162.208C247.363 163.486 246.733 164.386 245.779 164.872C246.949 165.358 247.723 166.348 247.723 167.806V168.598C247.723 170.92 246.031 172.18 243.925 172.18C241.801 172.18 240.091 170.92 240.091 168.562V167.77H241.891V168.4C241.891 169.876 242.701 170.524 243.925 170.524C245.149 170.524 245.923 169.894 245.923 168.436V168.04C245.923 166.546 245.149 165.952 243.925 165.952Z" fill="black"/>
<rect x="255.423" y="150.15" width="28.0636" height="29.7" fill="#F4F4F4"/>
<rect x="255.423" y="150.15" width="28.0636" height="29.7" stroke="#D9D9D9" stroke-width="0.3"/>
<path d="M264.486 159.112V158.5H266.286V172H264.486V162.532H262.398V161.02H262.83C264 161.02 264.486 160.462 264.486 159.112ZM268.241 167.86L271.859 158.5H274.577V167.86H276.305V169.516H274.577V172H272.777V169.516H268.241V167.86ZM269.735 167.86H272.777V159.904L269.735 167.86Z" fill="black"/>
<rect x="283.787" y="150.15" width="28.0636" height="29.7" fill="#F4F4F4"/>
<rect x="283.787" y="150.15" width="28.0636" height="29.7" stroke="#D9D9D9" stroke-width="0.3"/>
<path d="M293.096 159.112V158.5H294.896V172H293.096V162.532H291.008V161.02H291.44C292.61 161.02 293.096 160.462 293.096 159.112ZM298.902 160.156V163.972C299.352 163.27 300.108 162.82 301.098 162.82C303.15 162.82 304.23 164.17 304.23 166.744V168.184C304.23 170.83 302.628 172.18 300.63 172.18C298.596 172.18 296.994 170.866 296.994 168.4V167.896H298.794V168.112C298.794 169.822 299.496 170.524 300.63 170.524C301.692 170.524 302.43 169.804 302.43 168.184V166.852C302.43 165.07 301.71 164.404 300.63 164.404C299.55 164.404 299.028 165.052 298.902 165.79H297.174V158.5H303.906V160.156H298.902Z" fill="black"/>
<rect x="0.15" y="180.15" width="28.0636" height="29.7" fill="#FF9E00"/>
<rect x="0.15" y="180.15" width="28.0636" height="29.7" stroke="#D9D9D9" stroke-width="0.3"/>
<path d="M12.1856 192.748V195.016C12.7616 194.008 13.6436 193.612 14.6516 193.612C16.5056 193.612 17.9816 194.98 17.9816 197.716V198.076C17.9816 200.758 16.3436 202.18 14.1836 202.18C12.0236 202.18 10.3856 200.704 10.3856 197.896V192.604C10.3856 189.796 12.0236 188.32 14.1836 188.32C16.2536 188.32 17.8376 189.652 17.8376 192.172V192.478H16.0376V192.316C16.0376 190.66 15.3356 189.976 14.1836 189.976C12.9776 189.976 12.1856 190.768 12.1856 192.748ZM12.1856 197.734V198.058C12.1856 199.804 12.9596 200.524 14.1836 200.524C15.4076 200.524 16.1816 199.786 16.1816 198.058V197.734C16.1816 195.97 15.4436 195.268 14.1836 195.268C12.9596 195.268 12.1856 195.97 12.1856 197.734Z" fill="white"/>
<rect x="28.5133" y="180.15" width="28.0636" height="29.7" fill="#F4F4F4"/>
<rect x="28.5133" y="180.15" width="28.0636" height="29.7" stroke="#D9D9D9" stroke-width="0.3"/>
<path d="M42.9251 201.082V202H41.1251V201.388C41.1251 196.096 42.6731 193.45 44.4371 190.156H39.0371V188.5H45.9131V190.75C44.1671 194.134 42.9251 196.15 42.9251 201.082Z" fill="black"/>
<rect x="56.8766" y="180.15" width="28.0636" height="29.7" fill="#F4F4F4"/>
<rect x="56.8766" y="180.15" width="28.0636" height="29.7" stroke="#D9D9D9" stroke-width="0.3"/>
<path d="M67.0359 197.77C67.0359 196.312 67.8279 195.304 68.9979 194.8C68.0619 194.314 67.4319 193.432 67.4319 192.172V191.524C67.4319 189.436 68.9799 188.32 70.9059 188.32C72.8319 188.32 74.3799 189.436 74.3799 191.524V192.172C74.3799 193.432 73.7499 194.314 72.8139 194.8C73.9839 195.304 74.7759 196.312 74.7759 197.77V198.562C74.7759 200.92 73.0479 202.18 70.9059 202.18C68.7639 202.18 67.0359 200.92 67.0359 198.562V197.77ZM69.2319 191.686V192.154C69.2319 193.45 69.8979 194.008 70.9059 194.008C71.9319 194.008 72.5799 193.45 72.5799 192.154V191.686C72.5799 190.48 71.8959 189.976 70.9059 189.976C69.9339 189.976 69.2319 190.48 69.2319 191.686ZM68.8359 197.788V198.4C68.8359 199.876 69.6639 200.524 70.9059 200.524C72.1659 200.524 72.9759 199.876 72.9759 198.4V197.788C72.9759 196.276 72.1659 195.664 70.9059 195.664C69.6639 195.664 68.8359 196.276 68.8359 197.788Z" fill="black"/>
<rect x="85.2418" y="180.15" width="28.0636" height="29.7" fill="#F4F4F4"/>
<rect x="85.2418" y="180.15" width="28.0636" height="29.7" stroke="#D9D9D9" stroke-width="0.3"/>
<path d="M101.273 197.752V195.484C100.697 196.492 99.8154 196.888 98.8074 196.888C96.9534 196.888 95.4774 195.52 95.4774 192.784V192.424C95.4774 189.742 97.1154 188.32 99.2754 188.32C101.435 188.32 103.073 189.796 103.073 192.604V197.896C103.073 200.704 101.435 202.18 99.2754 202.18C97.2054 202.18 95.6214 200.848 95.6214 198.328V198.022H97.4214V198.184C97.4214 199.84 98.1234 200.524 99.2754 200.524C100.481 200.524 101.273 199.732 101.273 197.752ZM101.273 192.766V192.442C101.273 190.696 100.499 189.976 99.2754 189.976C98.0514 189.976 97.2774 190.714 97.2774 192.442V192.766C97.2774 194.53 98.0154 195.232 99.2754 195.232C100.499 195.232 101.273 194.53 101.273 192.766Z" fill="black"/>
<rect x="113.605" y="180.15" width="28.0636" height="29.7" fill="#FFE4C2"/>
<rect x="113.605" y="180.15" width="28.0636" height="29.7" stroke="#D9D9D9" stroke-width="0.3"/>
<path d="M122.396 189.112V188.5H124.196V202H122.396V192.532H120.308V191.02H120.74C121.91 191.02 122.396 190.462 122.396 189.112ZM130.38 202.18C128.022 202.18 126.582 200.722 126.582 197.752V192.748C126.582 189.796 128.022 188.32 130.38 188.32C132.756 188.32 134.178 189.796 134.178 192.748V197.752C134.178 200.722 132.756 202.18 130.38 202.18ZM130.38 200.524C131.622 200.524 132.378 199.786 132.378 197.752V192.748C132.378 190.732 131.622 189.976 130.38 189.976C129.138 189.976 128.382 190.732 128.382 192.748V197.752C128.382 199.786 129.12 200.524 130.38 200.524Z" fill="black"/>
<rect x="141.968" y="180.15" width="28.0636" height="29.7" fill="#F4F4F4"/>
<rect x="141.968" y="180.15" width="28.0636" height="29.7" stroke="#D9D9D9" stroke-width="0.3"/>
<path d="M152.921 189.112V188.5H154.721V202H152.921V192.532H150.833V191.02H151.265C152.435 191.02 152.921 190.462 152.921 189.112ZM158.403 189.112V188.5H160.203V202H158.403V192.532H156.315V191.02H156.747C157.917 191.02 158.403 190.462 158.403 189.112Z" fill="black"/>
<rect x="170.332" y="180.15" width="28.0636" height="29.7" fill="#F4F4F4"/>
<rect x="170.332" y="180.15" width="28.0636" height="29.7" stroke="#D9D9D9" stroke-width="0.3"/>
<path d="M179.605 189.112V188.5H181.405V202H179.605V192.532H177.517V191.02H177.949C179.119 191.02 179.605 190.462 179.605 189.112ZM190.632 192.082C190.632 195.808 185.988 197.41 185.52 200.344H190.812V202H183.576V201.1C183.576 196.816 188.832 195.376 188.832 192.082C188.832 190.588 188.13 189.976 187.176 189.976C186.168 189.976 185.484 190.552 185.484 192.244V193.288H183.684V192.1C183.684 189.58 185.232 188.32 187.176 188.32C189.084 188.32 190.632 189.598 190.632 192.082Z" fill="black"/>
<rect x="198.695" y="180.15" width="28.0636" height="29.7" fill="#F4F4F4"/>
<rect x="198.695" y="180.15" width="28.0636" height="29.7" stroke="#D9D9D9" stroke-width="0.3"/>
<path d="M207.758 189.112V188.5H209.558V202H207.758V192.532H205.67V191.02H206.102C207.272 191.02 207.758 190.462 207.758 189.112ZM215.562 195.952H214.554V194.152H215.562C216.57 194.152 217.2 193.594 217.2 192.262V191.722C217.2 190.48 216.534 189.976 215.562 189.976C214.59 189.976 213.888 190.48 213.888 191.686V192.172H212.088V191.524C212.088 189.436 213.636 188.32 215.562 188.32C217.452 188.32 219 189.454 219 191.56V192.208C219 193.486 218.37 194.386 217.416 194.872C218.586 195.358 219.36 196.348 219.36 197.806V198.598C219.36 200.92 217.668 202.18 215.562 202.18C213.438 202.18 211.728 200.92 211.728 198.562V197.77H213.528V198.4C213.528 199.876 214.338 200.524 215.562 200.524C216.786 200.524 217.56 199.894 217.56 198.436V198.04C217.56 196.546 216.786 195.952 215.562 195.952Z" fill="black"/>
<rect x="227.058" y="180.15" width="28.0636" height="29.7" fill="#F4F4F4"/>
<rect x="227.058" y="180.15" width="28.0636" height="29.7" stroke="#D9D9D9" stroke-width="0.3"/>
<path d="M236.121 189.112V188.5H237.921V202H236.121V192.532H234.033V191.02H234.465C235.635 191.02 236.121 190.462 236.121 189.112ZM239.875 197.86L243.493 188.5H246.211V197.86H247.939V199.516H246.211V202H244.411V199.516H239.875V197.86ZM241.369 197.86H244.411V189.904L241.369 197.86Z" fill="black"/>
<rect x="255.423" y="180.15" width="28.0636" height="29.7" fill="#F4F4F4"/>
<rect x="255.423" y="180.15" width="28.0636" height="29.7" stroke="#D9D9D9" stroke-width="0.3"/>
<path d="M264.732 189.112V188.5H266.532V202H264.732V192.532H262.644V191.02H263.076C264.246 191.02 264.732 190.462 264.732 189.112ZM270.539 190.156V193.972C270.989 193.27 271.745 192.82 272.735 192.82C274.787 192.82 275.867 194.17 275.867 196.744V198.184C275.867 200.83 274.265 202.18 272.267 202.18C270.233 202.18 268.631 200.866 268.631 198.4V197.896H270.431V198.112C270.431 199.822 271.133 200.524 272.267 200.524C273.329 200.524 274.067 199.804 274.067 198.184V196.852C274.067 195.07 273.347 194.404 272.267 194.404C271.187 194.404 270.665 195.052 270.539 195.79H268.811V188.5H275.543V190.156H270.539Z" fill="black"/>
<rect x="283.787" y="180.15" width="28.0636" height="29.7" fill="#F4F4F4"/>
<rect x="283.787" y="180.15" width="28.0636" height="29.7" stroke="#D9D9D9" stroke-width="0.3"/>
<path d="M292.577 189.112V188.5H294.377V202H292.577V192.532H290.489V191.02H290.921C292.091 191.02 292.577 190.462 292.577 189.112ZM298.563 192.748V195.016C299.139 194.008 300.021 193.612 301.029 193.612C302.883 193.612 304.359 194.98 304.359 197.716V198.076C304.359 200.758 302.721 202.18 300.561 202.18C298.401 202.18 296.763 200.704 296.763 197.896V192.604C296.763 189.796 298.401 188.32 300.561 188.32C302.631 188.32 304.215 189.652 304.215 192.172V192.478H302.415V192.316C302.415 190.66 301.713 189.976 300.561 189.976C299.355 189.976 298.563 190.768 298.563 192.748ZM298.563 197.734V198.058C298.563 199.804 299.337 200.524 300.561 200.524C301.785 200.524 302.559 199.786 302.559 198.058V197.734C302.559 195.97 301.821 195.268 300.561 195.268C299.337 195.268 298.563 195.97 298.563 197.734Z" fill="black"/>
<rect x="0.15" y="210.15" width="28.0636" height="29.7" fill="#FF9E00"/>
<rect x="0.15" y="210.15" width="28.0636" height="29.7" stroke="#D9D9D9" stroke-width="0.3"/>
<path d="M14.5618 231.082V232H12.7618V231.388C12.7618 226.096 14.3098 223.45 16.0738 220.156H10.6738V218.5H17.5498V220.75C15.8038 224.134 14.5618 226.15 14.5618 231.082Z" fill="white"/>
<rect x="28.5133" y="210.15" width="28.0636" height="29.7" fill="#F4F4F4"/>
<rect x="28.5133" y="210.15" width="28.0636" height="29.7" stroke="#D9D9D9" stroke-width="0.3"/>
<path d="M38.6726 227.77C38.6726 226.312 39.4646 225.304 40.6346 224.8C39.6986 224.314 39.0686 223.432 39.0686 222.172V221.524C39.0686 219.436 40.6166 218.32 42.5426 218.32C44.4686 218.32 46.0166 219.436 46.0166 221.524V222.172C46.0166 223.432 45.3866 224.314 44.4506 224.8C45.6206 225.304 46.4126 226.312 46.4126 227.77V228.562C46.4126 230.92 44.6846 232.18 42.5426 232.18C40.4006 232.18 38.6726 230.92 38.6726 228.562V227.77ZM40.8686 221.686V222.154C40.8686 223.45 41.5346 224.008 42.5426 224.008C43.5686 224.008 44.2166 223.45 44.2166 222.154V221.686C44.2166 220.48 43.5326 219.976 42.5426 219.976C41.5706 219.976 40.8686 220.48 40.8686 221.686ZM40.4726 227.788V228.4C40.4726 229.876 41.3006 230.524 42.5426 230.524C43.8026 230.524 44.6126 229.876 44.6126 228.4V227.788C44.6126 226.276 43.8026 225.664 42.5426 225.664C41.3006 225.664 40.4726 226.276 40.4726 227.788Z" fill="black"/>
<rect x="56.8766" y="210.15" width="28.0636" height="29.7" fill="#F4F4F4"/>
<rect x="56.8766" y="210.15" width="28.0636" height="29.7" stroke="#D9D9D9" stroke-width="0.3"/>
<path d="M72.9081 227.752V225.484C72.3321 226.492 71.4501 226.888 70.4421 226.888C68.5881 226.888 67.1121 225.52 67.1121 222.784V222.424C67.1121 219.742 68.7501 218.32 70.9101 218.32C73.0701 218.32 74.7081 219.796 74.7081 222.604V227.896C74.7081 230.704 73.0701 232.18 70.9101 232.18C68.8401 232.18 67.2561 230.848 67.2561 228.328V228.022H69.0561V228.184C69.0561 229.84 69.7581 230.524 70.9101 230.524C72.1161 230.524 72.9081 229.732 72.9081 227.752ZM72.9081 222.766V222.442C72.9081 220.696 72.1341 219.976 70.9101 219.976C69.6861 219.976 68.9121 220.714 68.9121 222.442V222.766C68.9121 224.53 69.6501 225.232 70.9101 225.232C72.1341 225.232 72.9081 224.53 72.9081 222.766Z" fill="black"/>
<rect x="85.2418" y="210.15" width="28.0636" height="29.7" fill="#FFE4C2"/>
<rect x="85.2418" y="210.15" width="28.0636" height="29.7" stroke="#D9D9D9" stroke-width="0.3"/>
<path d="M94.0322 219.112V218.5H95.8322V232H94.0322V222.532H91.9442V221.02H92.3762C93.5462 221.02 94.0322 220.462 94.0322 219.112ZM102.017 232.18C99.6585 232.18 98.2185 230.722 98.2185 227.752V222.748C98.2185 219.796 99.6585 218.32 102.017 218.32C104.393 218.32 105.815 219.796 105.815 222.748V227.752C105.815 230.722 104.393 232.18 102.017 232.18ZM102.017 230.524C103.259 230.524 104.015 229.786 104.015 227.752V222.748C104.015 220.732 103.259 219.976 102.017 219.976C100.775 219.976 100.019 220.732 100.019 222.748V227.752C100.019 229.786 100.757 230.524 102.017 230.524Z" fill="black"/>
<rect x="113.605" y="210.15" width="28.0636" height="29.7" fill="#F4F4F4"/>
<rect x="113.605" y="210.15" width="28.0636" height="29.7" stroke="#D9D9D9" stroke-width="0.3"/>
<path d="M124.558 219.112V218.5H126.358V232H124.558V222.532H122.47V221.02H122.902C124.072 221.02 124.558 220.462 124.558 219.112ZM130.04 219.112V218.5H131.84V232H130.04V222.532H127.952V221.02H128.384C129.554 221.02 130.04 220.462 130.04 219.112Z" fill="black"/>
<rect x="141.968" y="210.15" width="28.0636" height="29.7" fill="#F4F4F4"/>
<rect x="141.968" y="210.15" width="28.0636" height="29.7" stroke="#D9D9D9" stroke-width="0.3"/>
<path d="M151.242 219.112V218.5H153.042V232H151.242V222.532H149.154V221.02H149.586C150.756 221.02 151.242 220.462 151.242 219.112ZM162.268 222.082C162.268 225.808 157.624 227.41 157.156 230.344H162.448V232H155.212V231.1C155.212 226.816 160.468 225.376 160.468 222.082C160.468 220.588 159.766 219.976 158.812 219.976C157.804 219.976 157.12 220.552 157.12 222.244V223.288H155.32V222.1C155.32 219.58 156.868 218.32 158.812 218.32C160.72 218.32 162.268 219.598 162.268 222.082Z" fill="black"/>
<rect x="170.332" y="210.15" width="28.0636" height="29.7" fill="#F4F4F4"/>
<rect x="170.332" y="210.15" width="28.0636" height="29.7" stroke="#D9D9D9" stroke-width="0.3"/>
<path d="M179.395 219.112V218.5H181.195V232H179.395V222.532H177.307V221.02H177.739C178.909 221.02 179.395 220.462 179.395 219.112ZM187.199 225.952H186.191V224.152H187.199C188.207 224.152 188.837 223.594 188.837 222.262V221.722C188.837 220.48 188.171 219.976 187.199 219.976C186.227 219.976 185.525 220.48 185.525 221.686V222.172H183.725V221.524C183.725 219.436 185.273 218.32 187.199 218.32C189.089 218.32 190.637 219.454 190.637 221.56V222.208C190.637 223.486 190.007 224.386 189.053 224.872C190.223 225.358 190.997 226.348 190.997 227.806V228.598C190.997 230.92 189.305 232.18 187.199 232.18C185.075 232.18 183.365 230.92 183.365 228.562V227.77H185.165V228.4C185.165 229.876 185.975 230.524 187.199 230.524C188.423 230.524 189.197 229.894 189.197 228.436V228.04C189.197 226.546 188.423 225.952 187.199 225.952Z" fill="black"/>
<rect x="198.695" y="210.15" width="28.0636" height="29.7" fill="#F4F4F4"/>
<rect x="198.695" y="210.15" width="28.0636" height="29.7" stroke="#D9D9D9" stroke-width="0.3"/>
<path d="M207.758 219.112V218.5H209.558V232H207.758V222.532H205.67V221.02H206.102C207.272 221.02 207.758 220.462 207.758 219.112ZM211.512 227.86L215.13 218.5H217.848V227.86H219.576V229.516H217.848V232H216.048V229.516H211.512V227.86ZM213.006 227.86H216.048V219.904L213.006 227.86Z" fill="black"/>
<rect x="227.058" y="210.15" width="28.0636" height="29.7" fill="#F4F4F4"/>
<rect x="227.058" y="210.15" width="28.0636" height="29.7" stroke="#D9D9D9" stroke-width="0.3"/>
<path d="M236.367 219.112V218.5H238.167V232H236.367V222.532H234.279V221.02H234.711C235.881 221.02 236.367 220.462 236.367 219.112ZM242.173 220.156V223.972C242.623 223.27 243.379 222.82 244.369 222.82C246.421 222.82 247.501 224.17 247.501 226.744V228.184C247.501 230.83 245.899 232.18 243.901 232.18C241.867 232.18 240.265 230.866 240.265 228.4V227.896H242.065V228.112C242.065 229.822 242.767 230.524 243.901 230.524C244.963 230.524 245.701 229.804 245.701 228.184V226.852C245.701 225.07 244.981 224.404 243.901 224.404C242.821 224.404 242.299 225.052 242.173 225.79H240.445V218.5H247.177V220.156H242.173Z" fill="black"/>
<rect x="255.423" y="210.15" width="28.0636" height="29.7" fill="#F4F4F4"/>
<rect x="255.423" y="210.15" width="28.0636" height="29.7" stroke="#D9D9D9" stroke-width="0.3"/>
<path d="M264.214 219.112V218.5H266.014V232H264.214V222.532H262.126V221.02H262.558C263.728 221.02 264.214 220.462 264.214 219.112ZM270.2 222.748V225.016C270.776 224.008 271.658 223.612 272.666 223.612C274.52 223.612 275.996 224.98 275.996 227.716V228.076C275.996 230.758 274.358 232.18 272.198 232.18C270.038 232.18 268.4 230.704 268.4 227.896V222.604C268.4 219.796 270.038 218.32 272.198 218.32C274.268 218.32 275.852 219.652 275.852 222.172V222.478H274.052V222.316C274.052 220.66 273.35 219.976 272.198 219.976C270.992 219.976 270.2 220.768 270.2 222.748ZM270.2 227.734V228.058C270.2 229.804 270.974 230.524 272.198 230.524C273.422 230.524 274.196 229.786 274.196 228.058V227.734C274.196 225.97 273.458 225.268 272.198 225.268C270.974 225.268 270.2 225.97 270.2 227.734Z" fill="black"/>
<rect x="283.787" y="210.15" width="28.0636" height="29.7" fill="#F4F4F4"/>
<rect x="283.787" y="210.15" width="28.0636" height="29.7" stroke="#D9D9D9" stroke-width="0.3"/>
<path d="M293.693 219.112V218.5H295.493V232H293.693V222.532H291.605V221.02H292.037C293.207 221.02 293.693 220.462 293.693 219.112ZM300.94 231.082V232H299.14V231.388C299.14 226.096 300.688 223.45 302.452 220.156H297.052V218.5H303.928V220.75C302.182 224.134 300.94 226.15 300.94 231.082Z" fill="black"/>
<rect x="0.15" y="240.15" width="28.0636" height="29.7" fill="#FF9E00"/>
<rect x="0.15" y="240.15" width="28.0636" height="29.7" stroke="#D9D9D9" stroke-width="0.3"/>
<path d="M10.3094 257.77C10.3094 256.312 11.1014 255.304 12.2714 254.8C11.3354 254.314 10.7054 253.432 10.7054 252.172V251.524C10.7054 249.436 12.2534 248.32 14.1794 248.32C16.1054 248.32 17.6534 249.436 17.6534 251.524V252.172C17.6534 253.432 17.0234 254.314 16.0874 254.8C17.2574 255.304 18.0494 256.312 18.0494 257.77V258.562C18.0494 260.92 16.3214 262.18 14.1794 262.18C12.0374 262.18 10.3094 260.92 10.3094 258.562V257.77ZM12.5054 251.686V252.154C12.5054 253.45 13.1714 254.008 14.1794 254.008C15.2054 254.008 15.8534 253.45 15.8534 252.154V251.686C15.8534 250.48 15.1694 249.976 14.1794 249.976C13.2074 249.976 12.5054 250.48 12.5054 251.686ZM12.1094 257.788V258.4C12.1094 259.876 12.9374 260.524 14.1794 260.524C15.4394 260.524 16.2494 259.876 16.2494 258.4V257.788C16.2494 256.276 15.4394 255.664 14.1794 255.664C12.9374 255.664 12.1094 256.276 12.1094 257.788Z" fill="white"/>
<rect x="28.5133" y="240.15" width="28.0636" height="29.7" fill="#F4F4F4"/>
<rect x="28.5133" y="240.15" width="28.0636" height="29.7" stroke="#D9D9D9" stroke-width="0.3"/>
<path d="M44.5449 257.752V255.484C43.9689 256.492 43.0869 256.888 42.0789 256.888C40.2249 256.888 38.7489 255.52 38.7489 252.784V252.424C38.7489 249.742 40.3869 248.32 42.5469 248.32C44.7069 248.32 46.3449 249.796 46.3449 252.604V257.896C46.3449 260.704 44.7069 262.18 42.5469 262.18C40.4769 262.18 38.8929 260.848 38.8929 258.328V258.022H40.6929V258.184C40.6929 259.84 41.3949 260.524 42.5469 260.524C43.7529 260.524 44.5449 259.732 44.5449 257.752ZM44.5449 252.766V252.442C44.5449 250.696 43.7709 249.976 42.5469 249.976C41.3229 249.976 40.5489 250.714 40.5489 252.442V252.766C40.5489 254.53 41.2869 255.232 42.5469 255.232C43.7709 255.232 44.5449 254.53 44.5449 252.766Z" fill="black"/>
<rect x="56.8766" y="240.15" width="28.0636" height="29.7" fill="#FFE4C2"/>
<rect x="56.8766" y="240.15" width="28.0636" height="29.7" stroke="#D9D9D9" stroke-width="0.3"/>
<path d="M65.667 249.112V248.5H67.467V262H65.667V252.532H63.579V251.02H64.011C65.181 251.02 65.667 250.462 65.667 249.112ZM73.6513 262.18C71.2933 262.18 69.8533 260.722 69.8533 257.752V252.748C69.8533 249.796 71.2933 248.32 73.6513 248.32C76.0273 248.32 77.4493 249.796 77.4493 252.748V257.752C77.4493 260.722 76.0273 262.18 73.6513 262.18ZM73.6513 260.524C74.8933 260.524 75.6493 259.786 75.6493 257.752V252.748C75.6493 250.732 74.8933 249.976 73.6513 249.976C72.4093 249.976 71.6533 250.732 71.6533 252.748V257.752C71.6533 259.786 72.3913 260.524 73.6513 260.524Z" fill="black"/>
<rect x="85.2418" y="240.15" width="28.0636" height="29.7" fill="#F4F4F4"/>
<rect x="85.2418" y="240.15" width="28.0636" height="29.7" stroke="#D9D9D9" stroke-width="0.3"/>
<path d="M96.1943 249.112V248.5H97.9943V262H96.1943V252.532H94.1063V251.02H94.5383C95.7083 251.02 96.1943 250.462 96.1943 249.112ZM101.677 249.112V248.5H103.477V262H101.677V252.532H99.5886V251.02H100.021C101.191 251.02 101.677 250.462 101.677 249.112Z" fill="black"/>
<rect x="113.605" y="240.15" width="28.0636" height="29.7" fill="#F4F4F4"/>
<rect x="113.605" y="240.15" width="28.0636" height="29.7" stroke="#D9D9D9" stroke-width="0.3"/>
<path d="M122.879 249.112V248.5H124.679V262H122.879V252.532H120.791V251.02H121.223C122.393 251.02 122.879 250.462 122.879 249.112ZM133.905 252.082C133.905 255.808 129.261 257.41 128.793 260.344H134.085V262H126.849V261.1C126.849 256.816 132.105 255.376 132.105 252.082C132.105 250.588 131.403 249.976 130.449 249.976C129.441 249.976 128.757 250.552 128.757 252.244V253.288H126.957V252.1C126.957 249.58 128.505 248.32 130.449 248.32C132.357 248.32 133.905 249.598 133.905 252.082Z" fill="black"/>
<rect x="141.968" y="240.15" width="28.0636" height="29.7" fill="#F4F4F4"/>
<rect x="141.968" y="240.15" width="28.0636" height="29.7" stroke="#D9D9D9" stroke-width="0.3"/>
<path d="M151.031 249.112V248.5H152.831V262H151.031V252.532H148.943V251.02H149.375C150.545 251.02 151.031 250.462 151.031 249.112ZM158.836 255.952H157.828V254.152H158.836C159.844 254.152 160.474 253.594 160.474 252.262V251.722C160.474 250.48 159.808 249.976 158.836 249.976C157.864 249.976 157.162 250.48 157.162 251.686V252.172H155.362V251.524C155.362 249.436 156.91 248.32 158.836 248.32C160.726 248.32 162.274 249.454 162.274 251.56V252.208C162.274 253.486 161.644 254.386 160.69 254.872C161.86 255.358 162.634 256.348 162.634 257.806V258.598C162.634 260.92 160.942 262.18 158.836 262.18C156.712 262.18 155.002 260.92 155.002 258.562V257.77H156.802V258.4C156.802 259.876 157.612 260.524 158.836 260.524C160.06 260.524 160.834 259.894 160.834 258.436V258.04C160.834 256.546 160.06 255.952 158.836 255.952Z" fill="black"/>
<rect x="170.332" y="240.15" width="28.0636" height="29.7" fill="#F4F4F4"/>
<rect x="170.332" y="240.15" width="28.0636" height="29.7" stroke="#D9D9D9" stroke-width="0.3"/>
<path d="M179.395 249.112V248.5H181.195V262H179.395V252.532H177.307V251.02H177.739C178.909 251.02 179.395 250.462 179.395 249.112ZM183.149 257.86L186.767 248.5H189.485V257.86H191.213V259.516H189.485V262H187.685V259.516H183.149V257.86ZM184.643 257.86H187.685V249.904L184.643 257.86Z" fill="black"/>
<rect x="198.695" y="240.15" width="28.0636" height="29.7" fill="#F4F4F4"/>
<rect x="198.695" y="240.15" width="28.0636" height="29.7" stroke="#D9D9D9" stroke-width="0.3"/>
<path d="M208.004 249.112V248.5H209.804V262H208.004V252.532H205.916V251.02H206.348C207.518 251.02 208.004 250.462 208.004 249.112ZM213.81 250.156V253.972C214.26 253.27 215.016 252.82 216.006 252.82C218.058 252.82 219.138 254.17 219.138 256.744V258.184C219.138 260.83 217.536 262.18 215.538 262.18C213.504 262.18 211.902 260.866 211.902 258.4V257.896H213.702V258.112C213.702 259.822 214.404 260.524 215.538 260.524C216.6 260.524 217.338 259.804 217.338 258.184V256.852C217.338 255.07 216.618 254.404 215.538 254.404C214.458 254.404 213.936 255.052 213.81 255.79H212.082V248.5H218.814V250.156H213.81Z" fill="black"/>
<rect x="227.058" y="240.15" width="28.0636" height="29.7" fill="#F4F4F4"/>
<rect x="227.058" y="240.15" width="28.0636" height="29.7" stroke="#D9D9D9" stroke-width="0.3"/>
<path d="M235.849 249.112V248.5H237.649V262H235.849V252.532H233.761V251.02H234.193C235.363 251.02 235.849 250.462 235.849 249.112ZM241.835 252.748V255.016C242.411 254.008 243.293 253.612 244.301 253.612C246.155 253.612 247.631 254.98 247.631 257.716V258.076C247.631 260.758 245.993 262.18 243.833 262.18C241.673 262.18 240.035 260.704 240.035 257.896V252.604C240.035 249.796 241.673 248.32 243.833 248.32C245.903 248.32 247.487 249.652 247.487 252.172V252.478H245.687V252.316C245.687 250.66 244.985 249.976 243.833 249.976C242.627 249.976 241.835 250.768 241.835 252.748ZM241.835 257.734V258.058C241.835 259.804 242.609 260.524 243.833 260.524C245.057 260.524 245.831 259.786 245.831 258.058V257.734C245.831 255.97 245.093 255.268 243.833 255.268C242.609 255.268 241.835 255.97 241.835 257.734Z" fill="black"/>
<rect x="255.423" y="240.15" width="28.0636" height="29.7" fill="#F4F4F4"/>
<rect x="255.423" y="240.15" width="28.0636" height="29.7" stroke="#D9D9D9" stroke-width="0.3"/>
<path d="M265.33 249.112V248.5H267.13V262H265.33V252.532H263.242V251.02H263.674C264.844 251.02 265.33 250.462 265.33 249.112ZM272.576 261.082V262H270.776V261.388C270.776 256.096 272.324 253.45 274.088 250.156H268.688V248.5H275.564V250.75C273.818 254.134 272.576 256.15 272.576 261.082Z" fill="black"/>
<rect x="283.787" y="240.15" width="28.0636" height="29.7" fill="#F4F4F4"/>
<rect x="283.787" y="240.15" width="28.0636" height="29.7" stroke="#D9D9D9" stroke-width="0.3"/>
<path d="M292.753 249.112V248.5H294.553V262H292.753V252.532H290.665V251.02H291.097C292.267 251.02 292.753 250.462 292.753 249.112ZM296.687 257.77C296.687 256.312 297.479 255.304 298.649 254.8C297.713 254.314 297.083 253.432 297.083 252.172V251.524C297.083 249.436 298.631 248.32 300.557 248.32C302.483 248.32 304.031 249.436 304.031 251.524V252.172C304.031 253.432 303.401 254.314 302.465 254.8C303.635 255.304 304.427 256.312 304.427 257.77V258.562C304.427 260.92 302.699 262.18 300.557 262.18C298.415 262.18 296.687 260.92 296.687 258.562V257.77ZM298.883 251.686V252.154C298.883 253.45 299.549 254.008 300.557 254.008C301.583 254.008 302.231 253.45 302.231 252.154V251.686C302.231 250.48 301.547 249.976 300.557 249.976C299.585 249.976 298.883 250.48 298.883 251.686ZM298.487 257.788V258.4C298.487 259.876 299.315 260.524 300.557 260.524C301.817 260.524 302.627 259.876 302.627 258.4V257.788C302.627 256.276 301.817 255.664 300.557 255.664C299.315 255.664 298.487 256.276 298.487 257.788Z" fill="black"/>
<rect x="0.15" y="270.15" width="28.0636" height="29.7" fill="#FF9E00"/>
<rect x="0.15" y="270.15" width="28.0636" height="29.7" stroke="#D9D9D9" stroke-width="0.3"/>
<path d="M16.1816 287.752V285.484C15.6056 286.492 14.7236 286.888 13.7156 286.888C11.8616 286.888 10.3856 285.52 10.3856 282.784V282.424C10.3856 279.742 12.0236 278.32 14.1836 278.32C16.3436 278.32 17.9816 279.796 17.9816 282.604V287.896C17.9816 290.704 16.3436 292.18 14.1836 292.18C12.1136 292.18 10.5296 290.848 10.5296 288.328V288.022H12.3296V288.184C12.3296 289.84 13.0316 290.524 14.1836 290.524C15.3896 290.524 16.1816 289.732 16.1816 287.752ZM16.1816 282.766V282.442C16.1816 280.696 15.4076 279.976 14.1836 279.976C12.9596 279.976 12.1856 280.714 12.1856 282.442V282.766C12.1856 284.53 12.9236 285.232 14.1836 285.232C15.4076 285.232 16.1816 284.53 16.1816 282.766Z" fill="white"/>
<rect x="28.5133" y="270.15" width="28.0636" height="29.7" fill="#FFE4C2"/>
<rect x="28.5133" y="270.15" width="28.0636" height="29.7" stroke="#D9D9D9" stroke-width="0.3"/>
<path d="M37.3037 279.112V278.5H39.1037V292H37.3037V282.532H35.2157V281.02H35.6477C36.8177 281.02 37.3037 280.462 37.3037 279.112ZM45.288 292.18C42.93 292.18 41.49 290.722 41.49 287.752V282.748C41.49 279.796 42.93 278.32 45.288 278.32C47.664 278.32 49.086 279.796 49.086 282.748V287.752C49.086 290.722 47.664 292.18 45.288 292.18ZM45.288 290.524C46.53 290.524 47.286 289.786 47.286 287.752V282.748C47.286 280.732 46.53 279.976 45.288 279.976C44.046 279.976 43.29 280.732 43.29 282.748V287.752C43.29 289.786 44.028 290.524 45.288 290.524Z" fill="black"/>
<rect x="56.8766" y="270.15" width="28.0636" height="29.7" fill="#F4F4F4"/>
<rect x="56.8766" y="270.15" width="28.0636" height="29.7" stroke="#D9D9D9" stroke-width="0.3"/>
<path d="M67.8291 279.112V278.5H69.6291V292H67.8291V282.532H65.7411V281.02H66.1731C67.3431 281.02 67.8291 280.462 67.8291 279.112ZM73.3114 279.112V278.5H75.1114V292H73.3114V282.532H71.2234V281.02H71.6554C72.8254 281.02 73.3114 280.462 73.3114 279.112Z" fill="black"/>
<rect x="85.2418" y="270.15" width="28.0636" height="29.7" fill="#F4F4F4"/>
<rect x="85.2418" y="270.15" width="28.0636" height="29.7" stroke="#D9D9D9" stroke-width="0.3"/>
<path d="M94.5156 279.112V278.5H96.3156V292H94.5156V282.532H92.4276V281.02H92.8596C94.0296 281.02 94.5156 280.462 94.5156 279.112ZM105.542 282.082C105.542 285.808 100.898 287.41 100.43 290.344H105.722V292H98.4859V291.1C98.4859 286.816 103.742 285.376 103.742 282.082C103.742 280.588 103.04 279.976 102.086 279.976C101.078 279.976 100.394 280.552 100.394 282.244V283.288H98.5939V282.1C98.5939 279.58 100.142 278.32 102.086 278.32C103.994 278.32 105.542 279.598 105.542 282.082Z" fill="black"/>
<rect x="113.605" y="270.15" width="28.0636" height="29.7" fill="#F4F4F4"/>
<rect x="113.605" y="270.15" width="28.0636" height="29.7" stroke="#D9D9D9" stroke-width="0.3"/>
<path d="M122.668 279.112V278.5H124.468V292H122.668V282.532H120.58V281.02H121.012C122.182 281.02 122.668 280.462 122.668 279.112ZM130.472 285.952H129.464V284.152H130.472C131.48 284.152 132.11 283.594 132.11 282.262V281.722C132.11 280.48 131.444 279.976 130.472 279.976C129.5 279.976 128.798 280.48 128.798 281.686V282.172H126.998V281.524C126.998 279.436 128.546 278.32 130.472 278.32C132.362 278.32 133.91 279.454 133.91 281.56V282.208C133.91 283.486 133.28 284.386 132.326 284.872C133.496 285.358 134.27 286.348 134.27 287.806V288.598C134.27 290.92 132.578 292.18 130.472 292.18C128.348 292.18 126.638 290.92 126.638 288.562V287.77H128.438V288.4C128.438 289.876 129.248 290.524 130.472 290.524C131.696 290.524 132.47 289.894 132.47 288.436V288.04C132.47 286.546 131.696 285.952 130.472 285.952Z" fill="black"/>
<rect x="141.968" y="270.15" width="28.0636" height="29.7" fill="#F4F4F4"/>
<rect x="141.968" y="270.15" width="28.0636" height="29.7" stroke="#D9D9D9" stroke-width="0.3"/>
<path d="M151.031 279.112V278.5H152.831V292H151.031V282.532H148.943V281.02H149.375C150.545 281.02 151.031 280.462 151.031 279.112ZM154.786 287.86L158.404 278.5H161.122V287.86H162.85V289.516H161.122V292H159.322V289.516H154.786V287.86ZM156.28 287.86H159.322V279.904L156.28 287.86Z" fill="black"/>
<rect x="170.332" y="270.15" width="28.0636" height="29.7" fill="#F4F4F4"/>
<rect x="170.332" y="270.15" width="28.0636" height="29.7" stroke="#D9D9D9" stroke-width="0.3"/>
<path d="M179.641 279.112V278.5H181.441V292H179.641V282.532H177.553V281.02H177.985C179.155 281.02 179.641 280.462 179.641 279.112ZM185.447 280.156V283.972C185.897 283.27 186.653 282.82 187.643 282.82C189.695 282.82 190.775 284.17 190.775 286.744V288.184C190.775 290.83 189.173 292.18 187.175 292.18C185.141 292.18 183.539 290.866 183.539 288.4V287.896H185.339V288.112C185.339 289.822 186.041 290.524 187.175 290.524C188.237 290.524 188.975 289.804 188.975 288.184V286.852C188.975 285.07 188.255 284.404 187.175 284.404C186.095 284.404 185.573 285.052 185.447 285.79H183.719V278.5H190.451V280.156H185.447Z" fill="black"/>
<rect x="198.695" y="270.15" width="28.0636" height="29.7" fill="#F4F4F4"/>
<rect x="198.695" y="270.15" width="28.0636" height="29.7" stroke="#D9D9D9" stroke-width="0.3"/>
<path d="M207.485 279.112V278.5H209.285V292H207.485V282.532H205.397V281.02H205.829C206.999 281.02 207.485 280.462 207.485 279.112ZM213.472 282.748V285.016C214.048 284.008 214.93 283.612 215.938 283.612C217.792 283.612 219.268 284.98 219.268 287.716V288.076C219.268 290.758 217.63 292.18 215.47 292.18C213.31 292.18 211.672 290.704 211.672 287.896V282.604C211.672 279.796 213.31 278.32 215.47 278.32C217.54 278.32 219.124 279.652 219.124 282.172V282.478H217.324V282.316C217.324 280.66 216.622 279.976 215.47 279.976C214.264 279.976 213.472 280.768 213.472 282.748ZM213.472 287.734V288.058C213.472 289.804 214.246 290.524 215.47 290.524C216.694 290.524 217.468 289.786 217.468 288.058V287.734C217.468 285.97 216.73 285.268 215.47 285.268C214.246 285.268 213.472 285.97 213.472 287.734Z" fill="black"/>
<rect x="227.058" y="270.15" width="28.0636" height="29.7" fill="#F4F4F4"/>
<rect x="227.058" y="270.15" width="28.0636" height="29.7" stroke="#D9D9D9" stroke-width="0.3"/>
<path d="M236.965 279.112V278.5H238.765V292H236.965V282.532H234.877V281.02H235.309C236.479 281.02 236.965 280.462 236.965 279.112ZM244.211 291.082V292H242.411V291.388C242.411 286.096 243.959 283.45 245.723 280.156H240.323V278.5H247.199V280.75C245.453 284.134 244.211 286.15 244.211 291.082Z" fill="black"/>
<rect x="255.423" y="270.15" width="28.0636" height="29.7" fill="#F4F4F4"/>
<rect x="255.423" y="270.15" width="28.0636" height="29.7" stroke="#D9D9D9" stroke-width="0.3"/>
<path d="M264.39 279.112V278.5H266.19V292H264.39V282.532H262.302V281.02H262.734C263.904 281.02 264.39 280.462 264.39 279.112ZM268.324 287.77C268.324 286.312 269.116 285.304 270.286 284.8C269.35 284.314 268.72 283.432 268.72 282.172V281.524C268.72 279.436 270.268 278.32 272.194 278.32C274.12 278.32 275.668 279.436 275.668 281.524V282.172C275.668 283.432 275.038 284.314 274.102 284.8C275.272 285.304 276.064 286.312 276.064 287.77V288.562C276.064 290.92 274.336 292.18 272.194 292.18C270.052 292.18 268.324 290.92 268.324 288.562V287.77ZM270.52 281.686V282.154C270.52 283.45 271.186 284.008 272.194 284.008C273.22 284.008 273.868 283.45 273.868 282.154V281.686C273.868 280.48 273.184 279.976 272.194 279.976C271.222 279.976 270.52 280.48 270.52 281.686ZM270.124 287.788V288.4C270.124 289.876 270.952 290.524 272.194 290.524C273.454 290.524 274.264 289.876 274.264 288.4V287.788C274.264 286.276 273.454 285.664 272.194 285.664C270.952 285.664 270.124 286.276 270.124 287.788Z" fill="black"/>
<rect x="283.787" y="270.15" width="28.0636" height="29.7" fill="#F4F4F4"/>
<rect x="283.787" y="270.15" width="28.0636" height="29.7" stroke="#D9D9D9" stroke-width="0.3"/>
<path d="M292.577 279.112V278.5H294.377V292H292.577V282.532H290.489V281.02H290.921C292.091 281.02 292.577 280.462 292.577 279.112ZM302.559 287.752V285.484C301.983 286.492 301.101 286.888 300.093 286.888C298.239 286.888 296.763 285.52 296.763 282.784V282.424C296.763 279.742 298.401 278.32 300.561 278.32C302.721 278.32 304.359 279.796 304.359 282.604V287.896C304.359 290.704 302.721 292.18 300.561 292.18C298.491 292.18 296.907 290.848 296.907 288.328V288.022H298.707V288.184C298.707 289.84 299.409 290.524 300.561 290.524C301.767 290.524 302.559 289.732 302.559 287.752ZM302.559 282.766V282.442C302.559 280.696 301.785 279.976 300.561 279.976C299.337 279.976 298.563 280.714 298.563 282.442V282.766C298.563 284.53 299.301 285.232 300.561 285.232C301.785 285.232 302.559 284.53 302.559 282.766Z" fill="black"/>
<path d="M28.2139 300.15V329.85H12C5.45543 329.85 0.150391 324.545 0.150391 318V300.15H28.2139Z" fill="#FF9E00"/>
<path d="M28.2139 300.15V329.85H12C5.45543 329.85 0.150391 324.545 0.150391 318V300.15H28.2139Z" stroke="#D9D9D9" stroke-width="0.3"/>
<path d="M8.94044 309.112V308.5H10.7404V322H8.94044V312.532H6.85244V311.02H7.28444C8.45444 311.02 8.94044 310.462 8.94044 309.112ZM16.9247 322.18C14.5667 322.18 13.1267 320.722 13.1267 317.752V312.748C13.1267 309.796 14.5667 308.32 16.9247 308.32C19.3007 308.32 20.7227 309.796 20.7227 312.748V317.752C20.7227 320.722 19.3007 322.18 16.9247 322.18ZM16.9247 320.524C18.1667 320.524 18.9227 319.786 18.9227 317.752V312.748C18.9227 310.732 18.1667 309.976 16.9247 309.976C15.6827 309.976 14.9267 310.732 14.9267 312.748V317.752C14.9267 319.786 15.6647 320.524 16.9247 320.524Z" fill="white"/>
<rect x="28.5133" y="300.15" width="28.0636" height="29.7" fill="#F4F4F4"/>
<rect x="28.5133" y="300.15" width="28.0636" height="29.7" stroke="#D9D9D9" stroke-width="0.3"/>
<path d="M39.4658 309.112V308.5H41.2658V322H39.4658V312.532H37.3778V311.02H37.8098C38.9798 311.02 39.4658 310.462 39.4658 309.112ZM44.9481 309.112V308.5H46.7481V322H44.9481V312.532H42.8601V311.02H43.2921C44.4621 311.02 44.9481 310.462 44.9481 309.112Z" fill="black"/>
<rect x="56.8766" y="300.15" width="28.0636" height="29.7" fill="#F4F4F4"/>
<rect x="56.8766" y="300.15" width="28.0636" height="29.7" stroke="#D9D9D9" stroke-width="0.3"/>
<path d="M66.1504 309.112V308.5H67.9504V322H66.1504V312.532H64.0624V311.02H64.4944C65.6644 311.02 66.1504 310.462 66.1504 309.112ZM77.1767 312.082C77.1767 315.808 72.5327 317.41 72.0647 320.344H77.3567V322H70.1207V321.1C70.1207 316.816 75.3767 315.376 75.3767 312.082C75.3767 310.588 74.6747 309.976 73.7207 309.976C72.7127 309.976 72.0287 310.552 72.0287 312.244V313.288H70.2287V312.1C70.2287 309.58 71.7767 308.32 73.7207 308.32C75.6287 308.32 77.1767 309.598 77.1767 312.082Z" fill="black"/>
<rect x="85.2418" y="300.15" width="28.0636" height="29.7" fill="#F4F4F4"/>
<rect x="85.2418" y="300.15" width="28.0636" height="29.7" stroke="#D9D9D9" stroke-width="0.3"/>
<path d="M94.3047 309.112V308.5H96.1047V322H94.3047V312.532H92.2167V311.02H92.6487C93.8187 311.02 94.3047 310.462 94.3047 309.112ZM102.109 315.952H101.101V314.152H102.109C103.117 314.152 103.747 313.594 103.747 312.262V311.722C103.747 310.48 103.081 309.976 102.109 309.976C101.137 309.976 100.435 310.48 100.435 311.686V312.172H98.635V311.524C98.635 309.436 100.183 308.32 102.109 308.32C103.999 308.32 105.547 309.454 105.547 311.56V312.208C105.547 313.486 104.917 314.386 103.963 314.872C105.133 315.358 105.907 316.348 105.907 317.806V318.598C105.907 320.92 104.215 322.18 102.109 322.18C99.985 322.18 98.275 320.92 98.275 318.562V317.77H100.075V318.4C100.075 319.876 100.885 320.524 102.109 320.524C103.333 320.524 104.107 319.894 104.107 318.436V318.04C104.107 316.546 103.333 315.952 102.109 315.952Z" fill="black"/>
<rect x="113.605" y="300.15" width="28.0636" height="29.7" fill="#F4F4F4"/>
<rect x="113.605" y="300.15" width="28.0636" height="29.7" stroke="#D9D9D9" stroke-width="0.3"/>
<path d="M122.668 309.112V308.5H124.468V322H122.668V312.532H120.58V311.02H121.012C122.182 311.02 122.668 310.462 122.668 309.112ZM126.422 317.86L130.04 308.5H132.758V317.86H134.486V319.516H132.758V322H130.958V319.516H126.422V317.86ZM127.916 317.86H130.958V309.904L127.916 317.86Z" fill="black"/>
<rect x="141.968" y="300.15" width="28.0636" height="29.7" fill="#F4F4F4"/>
<rect x="141.968" y="300.15" width="28.0636" height="29.7" stroke="#D9D9D9" stroke-width="0.3"/>
<path d="M151.277 309.112V308.5H153.077V322H151.277V312.532H149.189V311.02H149.621C150.791 311.02 151.277 310.462 151.277 309.112ZM157.084 310.156V313.972C157.534 313.27 158.29 312.82 159.28 312.82C161.332 312.82 162.412 314.17 162.412 316.744V318.184C162.412 320.83 160.81 322.18 158.812 322.18C156.778 322.18 155.176 320.866 155.176 318.4V317.896H156.976V318.112C156.976 319.822 157.678 320.524 158.812 320.524C159.874 320.524 160.612 319.804 160.612 318.184V316.852C160.612 315.07 159.892 314.404 158.812 314.404C157.732 314.404 157.21 315.052 157.084 315.79H155.356V308.5H162.088V310.156H157.084Z" fill="black"/>
<rect x="170.332" y="300.15" width="28.0636" height="29.7" fill="#F4F4F4"/>
<rect x="170.332" y="300.15" width="28.0636" height="29.7" stroke="#D9D9D9" stroke-width="0.3"/>
<path d="M179.122 309.112V308.5H180.922V322H179.122V312.532H177.034V311.02H177.466C178.636 311.02 179.122 310.462 179.122 309.112ZM185.108 312.748V315.016C185.684 314.008 186.566 313.612 187.574 313.612C189.428 313.612 190.904 314.98 190.904 317.716V318.076C190.904 320.758 189.266 322.18 187.106 322.18C184.946 322.18 183.308 320.704 183.308 317.896V312.604C183.308 309.796 184.946 308.32 187.106 308.32C189.176 308.32 190.76 309.652 190.76 312.172V312.478H188.96V312.316C188.96 310.66 188.258 309.976 187.106 309.976C185.9 309.976 185.108 310.768 185.108 312.748ZM185.108 317.734V318.058C185.108 319.804 185.882 320.524 187.106 320.524C188.33 320.524 189.104 319.786 189.104 318.058V317.734C189.104 315.97 188.366 315.268 187.106 315.268C185.882 315.268 185.108 315.97 185.108 317.734Z" fill="black"/>
<rect x="198.695" y="300.15" width="28.0636" height="29.7" fill="#F4F4F4"/>
<rect x="198.695" y="300.15" width="28.0636" height="29.7" stroke="#D9D9D9" stroke-width="0.3"/>
<path d="M208.602 309.112V308.5H210.402V322H208.602V312.532H206.514V311.02H206.946C208.116 311.02 208.602 310.462 208.602 309.112ZM215.848 321.082V322H214.048V321.388C214.048 316.096 215.596 313.45 217.36 310.156H211.96V308.5H218.836V310.75C217.09 314.134 215.848 316.15 215.848 321.082Z" fill="black"/>
<rect x="227.058" y="300.15" width="28.0636" height="29.7" fill="#F4F4F4"/>
<rect x="227.058" y="300.15" width="28.0636" height="29.7" stroke="#D9D9D9" stroke-width="0.3"/>
<path d="M236.024 309.112V308.5H237.824V322H236.024V312.532H233.936V311.02H234.368C235.538 311.02 236.024 310.462 236.024 309.112ZM239.959 317.77C239.959 316.312 240.751 315.304 241.921 314.8C240.985 314.314 240.355 313.432 240.355 312.172V311.524C240.355 309.436 241.903 308.32 243.829 308.32C245.755 308.32 247.303 309.436 247.303 311.524V312.172C247.303 313.432 246.673 314.314 245.737 314.8C246.907 315.304 247.699 316.312 247.699 317.77V318.562C247.699 320.92 245.971 322.18 243.829 322.18C241.687 322.18 239.959 320.92 239.959 318.562V317.77ZM242.155 311.686V312.154C242.155 313.45 242.821 314.008 243.829 314.008C244.855 314.008 245.503 313.45 245.503 312.154V311.686C245.503 310.48 244.819 309.976 243.829 309.976C242.857 309.976 242.155 310.48 242.155 311.686ZM241.759 317.788V318.4C241.759 319.876 242.587 320.524 243.829 320.524C245.089 320.524 245.899 319.876 245.899 318.4V317.788C245.899 316.276 245.089 315.664 243.829 315.664C242.587 315.664 241.759 316.276 241.759 317.788Z" fill="black"/>
<rect x="255.423" y="300.15" width="28.0636" height="29.7" fill="#F4F4F4"/>
<rect x="255.423" y="300.15" width="28.0636" height="29.7" stroke="#D9D9D9" stroke-width="0.3"/>
<path d="M264.214 309.112V308.5H266.014V322H264.214V312.532H262.126V311.02H262.558C263.728 311.02 264.214 310.462 264.214 309.112ZM274.196 317.752V315.484C273.62 316.492 272.738 316.888 271.73 316.888C269.876 316.888 268.4 315.52 268.4 312.784V312.424C268.4 309.742 270.038 308.32 272.198 308.32C274.358 308.32 275.996 309.796 275.996 312.604V317.896C275.996 320.704 274.358 322.18 272.198 322.18C270.128 322.18 268.544 320.848 268.544 318.328V318.022H270.344V318.184C270.344 319.84 271.046 320.524 272.198 320.524C273.404 320.524 274.196 319.732 274.196 317.752ZM274.196 312.766V312.442C274.196 310.696 273.422 309.976 272.198 309.976C270.974 309.976 270.2 310.714 270.2 312.442V312.766C270.2 314.53 270.938 315.232 272.198 315.232C273.422 315.232 274.196 314.53 274.196 312.766Z" fill="black"/>
<path d="M311.851 300.15V318C311.851 324.545 306.545 329.85 300 329.85H283.787V300.15H311.851Z" fill="#F4F4F4"/>
<path d="M311.851 300.15V318C311.851 324.545 306.545 329.85 300 329.85H283.787V300.15H311.851Z" stroke="#D9D9D9" stroke-width="0.3"/>
<path d="M296.442 312.082C296.442 315.808 291.798 317.41 291.33 320.344H296.622V322H289.386V321.1C289.386 316.816 294.642 315.376 294.642 312.082C294.642 310.588 293.94 309.976 292.986 309.976C291.978 309.976 291.294 310.552 291.294 312.244V313.288H289.494V312.1C289.494 309.58 291.042 308.32 292.986 308.32C294.894 308.32 296.442 309.598 296.442 312.082ZM302.24 322.18C299.882 322.18 298.442 320.722 298.442 317.752V312.748C298.442 309.796 299.882 308.32 302.24 308.32C304.616 308.32 306.038 309.796 306.038 312.748V317.752C306.038 320.722 304.616 322.18 302.24 322.18ZM302.24 320.524C303.482 320.524 304.238 319.786 304.238 317.752V312.748C304.238 310.732 303.482 309.976 302.24 309.976C300.998 309.976 300.242 310.732 300.242 312.748V317.752C300.242 319.786 300.98 320.524 302.24 320.524Z" fill="black"/>
</svg>
