<svg width="400" height="400" viewBox="0 0 400 400" fill="none" xmlns="http://www.w3.org/2000/svg">
<path d="M111.658 281.34C93.2346 292.003 80 283.117 80 267.312C80 250.486 80 200 80 200C80 200 80 149.514 80 132.688C80 116.883 93.2264 107.997 111.658 118.66C140.352 135.264 226.426 185.091 226.426 185.091C237.871 191.715 237.871 208.277 226.426 214.901C226.426 214.909 140.352 264.736 111.658 281.34Z" fill="#00C1FF"/>
<path d="M206.402 281.34C187.979 292.003 174.744 283.117 174.744 267.312C174.744 250.486 174.744 200 174.744 200C174.744 200 174.744 149.514 174.744 132.688C174.744 116.883 187.971 107.997 206.402 118.66C234.464 134.902 318.65 183.635 318.65 183.635C331.219 190.908 331.219 209.092 318.65 216.365C318.642 216.365 234.464 265.098 206.402 281.34Z" fill="#FEBA36"/>
<mask id="mask0_4275_2107" style="mask-type:alpha" maskUnits="userSpaceOnUse" x="174" y="114" width="155" height="172">
<path d="M206.402 281.34C187.979 292.003 174.744 283.117 174.744 267.312C174.744 250.486 174.744 200 174.744 200C174.744 200 174.744 149.514 174.744 132.688C174.744 116.883 187.971 107.997 206.402 118.66C234.464 134.902 318.65 183.635 318.65 183.635C331.219 190.908 331.219 209.092 318.65 216.365C318.642 216.365 234.464 265.098 206.402 281.34Z" fill="#6FE4FF"/>
</mask>
<g mask="url(#mask0_4275_2107)">
<g filter="url(#filter0_f_4275_2107)">
<path d="M111.658 281.34C93.2346 292.003 80 283.117 80 267.312C80 250.486 80 200 80 200C80 200 80 149.514 80 132.688C80 116.883 93.2264 107.997 111.658 118.66C140.352 135.264 226.426 185.091 226.426 185.091C237.871 191.715 237.871 208.277 226.426 214.901C226.426 214.909 140.352 264.736 111.658 281.34Z" fill="#FF8A00"/>
</g>
</g>
<defs>
<filter id="filter0_f_4275_2107" x="67" y="101" width="181.01" height="198" filterUnits="userSpaceOnUse" color-interpolation-filters="sRGB">
<feFlood flood-opacity="0" result="BackgroundImageFix"/>
<feBlend mode="normal" in="SourceGraphic" in2="BackgroundImageFix" result="shape"/>
<feGaussianBlur stdDeviation="6.5" result="effect1_foregroundBlur_4275_2107"/>
</filter>
</defs>
</svg>
