<svg width="24" height="24" viewBox="0 0 24 24" fill="none" xmlns="http://www.w3.org/2000/svg">
<path d="M15.1658 11C15.1712 10.9361 15.1768 10.8693 15.1826 10.7993L15.5362 6.55661C15.6822 4.80448 15.7552 3.92841 15.4398 3.48231C15.1659 3.095 14.725 2.86005 14.2508 2.84874C13.7046 2.8357 13.0181 3.38487 11.6452 4.48322L6.34185 8.72591C4.7033 10.0367 3.88403 10.6922 3.79363 11.2669C3.71538 11.7645 3.89203 12.268 4.26392 12.6076C4.69357 13 5.74275 13 7.84112 13H8.83268C8.82725 13.0639 8.82168 13.1307 8.81585 13.2007L8.46229 17.4434C8.31628 19.1955 8.24328 20.0716 8.55871 20.5177C8.83256 20.905 9.27347 21.1399 9.74768 21.1512C10.2939 21.1643 10.9803 20.6151 12.3533 19.5168L17.6566 15.2741C19.2952 13.9632 20.1145 13.3078 20.2049 12.733C20.2831 12.2355 20.1065 11.732 19.7346 11.3923C19.3049 11 18.2557 11 16.1574 11H15.1658Z" fill="#FF6D00"/>
</svg>
