<?xml version="1.0" encoding="UTF-8"?> <svg xmlns="http://www.w3.org/2000/svg" width="152" height="40" viewBox="0 0 152 40" fill="none"><g clip-path="url(#clip0_529_879)"><path d="M3.16579 28.1339C1.32346 29.2002 0 28.3116 0 26.7311C0 25.0485 0 19.9999 0 19.9999C0 19.9999 0 14.9513 0 13.2687C0 11.6882 1.32264 10.7996 3.16579 11.8659C6.03521 13.5263 14.6426 18.509 14.6426 18.509C15.7871 19.1714 15.7871 20.8276 14.6426 21.49C14.6426 21.4908 6.03521 26.4735 3.16579 28.1339Z" fill="#00C1FF"></path><path d="M12.6402 28.1339C10.7979 29.2002 9.47443 28.3116 9.47443 26.7311C9.47443 25.0485 9.47443 19.9999 9.47443 19.9999C9.47443 19.9999 9.47443 14.9513 9.47443 13.2687C9.47443 11.6882 10.7971 10.7996 12.6402 11.8659C15.4464 13.4901 23.865 18.3634 23.865 18.3634C25.122 19.0907 25.122 20.9091 23.865 21.6364C23.8642 21.6364 15.4464 26.5097 12.6402 28.1339Z" fill="#FEBA36"></path><mask id="mask0_529_879" style="mask-type:alpha" maskUnits="userSpaceOnUse" x="9" y="11" width="16" height="18"><path d="M12.6402 28.1339C10.7979 29.2002 9.47443 28.3116 9.47443 26.7311C9.47443 25.0485 9.47443 19.9999 9.47443 19.9999C9.47443 19.9999 9.47443 14.9513 9.47443 13.2687C9.47443 11.6882 10.7971 10.7996 12.6402 11.8659C15.4464 13.4901 23.865 18.3634 23.865 18.3634C25.122 19.0907 25.122 20.9091 23.865 21.6364C23.8642 21.6364 15.4464 26.5097 12.6402 28.1339Z" fill="#6FE4FF"></path></mask><g mask="url(#mask0_529_879)"><path d="M3.16579 28.1339C1.32346 29.2002 0 28.3116 0 26.7311C0 25.0485 0 19.9999 0 19.9999C0 19.9999 0 14.9513 0 13.2687C0 11.6882 1.32264 10.7996 3.16579 11.8659C6.03521 13.5263 14.6426 18.509 14.6426 18.509C15.7871 19.1714 15.7871 20.8276 14.6426 21.49C14.6426 21.4908 6.03521 26.4735 3.16579 28.1339Z" fill="#FF8A00"></path></g><path d="M30.752 23.4808L31.0839 22.7294C31.3049 22.2206 31.7028 22.088 32.2115 22.4641C33.184 23.1714 34.7753 23.7018 36.8979 23.7018C38.7102 23.7018 39.4842 23.2373 39.4842 22.6852C39.4842 22.0663 38.8428 21.8895 37.782 21.7569L35.3725 21.4475C32.4767 21.0713 31.0172 20.033 31.0172 18.2198C31.0172 16.2748 32.6085 14.7269 36.3007 14.7269C38.3566 14.7269 39.6827 15.0363 40.5451 15.3683C41.495 15.7444 41.6285 16.0538 41.6285 16.827V17.822C41.6285 18.4408 41.4075 18.6618 40.7886 18.6618H40.1031C39.4842 18.6618 39.2632 18.4408 39.2632 17.822V17.49C38.8654 17.3574 37.8704 17.1581 36.6994 17.1581C34.6652 17.1581 33.6711 17.5342 33.6711 18.1531C33.6711 18.6168 34.2682 18.8828 35.3508 19.0371L37.7161 19.3466C40.6118 19.7227 42.1372 20.5843 42.1372 22.6626C42.1372 24.7844 40.1256 26.133 36.5443 26.133C33.9138 26.133 31.7912 25.2932 30.9513 24.5192C30.6419 24.2323 30.5977 23.857 30.752 23.4808Z" fill="white"></path><path d="M56.8369 25.957H55.6209C55.0238 25.957 54.8253 25.8686 54.5375 25.4266L52.2381 22.0446C51.9062 21.5801 51.6635 21.47 50.9787 21.47H48.6793V25.1172C48.6793 25.736 48.4583 25.957 47.8395 25.957H46.9554C46.3366 25.957 46.1155 25.736 46.1155 25.1172V14.1306H45.2974C44.6785 14.1306 44.4575 13.9096 44.4575 13.2907V12.5609C44.4575 11.9421 44.6785 11.7211 45.2974 11.7211H47.8395C48.4583 11.7211 48.6793 11.9421 48.6793 12.5609V18.9938H50.7352C51.4199 18.9938 51.6635 18.8837 51.9946 18.4191L53.9178 15.4567C54.2273 14.9929 54.4266 14.9045 55.0229 14.9045H56.2389C56.902 14.9045 57.0346 15.435 56.6593 15.9879L54.515 19.2373C54.294 19.5467 54.0288 19.8787 53.7635 20.1439C54.0288 20.3649 54.4049 20.741 54.5592 20.9621L57.2556 24.897C57.6326 25.4266 57.5 25.957 56.8369 25.957Z" fill="white"></path><path d="M61.0146 27.9904V27.2606C61.0146 26.6418 61.2356 26.4208 61.8544 26.4208H62.9153C63.5567 26.4208 63.8661 26.2881 64.1088 25.7794L64.2414 25.4917L59.1789 15.9196C58.8694 15.3449 59.113 14.9029 59.776 14.9029H60.9253C61.5225 14.9029 61.7877 15.013 62.0087 15.4333L64.1305 19.7878C64.6167 20.7828 65.1697 21.932 65.6117 22.927C66.0537 21.9546 66.5617 20.8495 67.0487 19.8762L69.2155 15.435C69.4149 15.0146 69.7018 14.9045 70.2989 14.9045H71.4482C72.1113 14.9045 72.3548 15.3466 72.0454 15.9212L66.2764 26.8636C65.6134 28.1238 64.8394 28.8311 63.1155 28.8311H61.8544C61.2356 28.8303 61.0146 28.6092 61.0146 27.9904Z" fill="white"></path><path d="M73.957 23.4808L74.2889 22.7294C74.5099 22.2206 74.9077 22.088 75.4165 22.4641C76.389 23.1714 77.9803 23.7018 80.1029 23.7018C81.9152 23.7018 82.6892 23.2373 82.6892 22.6852C82.6892 22.0663 82.0478 21.8895 80.987 21.7569L78.5775 21.4475C75.6817 21.0713 74.2222 20.033 74.2222 18.2198C74.2222 16.2748 75.8135 14.7269 79.5057 14.7269C81.5616 14.7269 82.8877 15.0363 83.7501 15.3683C84.7 15.7444 84.8335 16.0538 84.8335 16.827V17.822C84.8335 18.4408 84.6125 18.6618 83.9936 18.6618H83.3081C82.6892 18.6618 82.4682 18.4408 82.4682 17.822V17.49C82.0704 17.3574 81.0754 17.1581 79.9044 17.1581C77.8702 17.1581 76.8761 17.5342 76.8761 18.1531C76.8761 18.6168 77.4732 18.8828 78.5558 19.0371L80.9211 19.3466C83.8168 19.7227 85.3422 20.5843 85.3422 22.6626C85.3422 24.7844 83.3306 26.133 79.7493 26.133C77.1188 26.133 74.9962 25.2932 74.1563 24.5192C73.8469 24.2323 73.8027 23.857 73.957 23.4808Z" fill="white"></path><path d="M109.209 19.8119V25.1172C109.209 25.736 108.988 25.957 108.369 25.957H107.485C106.866 25.957 106.645 25.736 106.645 25.1172V20.033C106.645 18.309 105.805 17.2698 104.08 17.2698C102.687 17.2698 101.582 18.1322 100.764 19.038V25.1172C100.764 25.736 100.543 25.957 99.9243 25.957H99.0403C98.4214 25.957 98.2004 25.736 98.2004 25.1172V20.033C98.2004 18.309 97.3822 17.2698 95.6583 17.2698C94.3097 17.2473 93.1379 18.0655 92.3205 18.9496V25.1172C92.3205 25.736 92.0995 25.957 91.4807 25.957H90.5966C89.9778 25.957 89.7567 25.736 89.7567 25.1172V17.314H88.9386C88.3197 17.314 88.0987 17.093 88.0987 16.4742V15.7444C88.0987 15.1256 88.3197 14.9045 88.9386 14.9045H91.0828C91.7017 14.9045 91.9227 15.1256 91.9227 15.7444V16.3416C92.6742 15.5676 93.8902 14.7277 95.725 14.7277C97.7584 14.7277 99.0845 15.3908 99.881 16.6285C100.853 15.6335 102.18 14.7277 104.125 14.7277C107.263 14.7269 109.209 16.4517 109.209 19.8119Z" fill="white"></path><path d="M118.714 19.038H121.323V18.6618C121.323 17.6894 120.151 17.1147 118.295 17.1147C116.615 17.1147 115.266 17.7336 114.471 18.3307C113.962 18.7069 113.564 18.5959 113.343 18.0655L113.011 17.314C112.857 16.9379 112.9 16.5626 113.21 16.2748C113.852 15.6777 115.73 14.7277 118.427 14.7277C121.478 14.7277 123.798 16.0096 123.798 18.309V25.1172C123.798 25.736 123.577 25.957 122.958 25.957H122.251C121.632 25.957 121.411 25.736 121.411 25.1172V24.4983C120.682 25.3607 119.179 26.1339 117.079 26.1339C114.625 26.1339 112.503 24.9846 112.503 22.7294C112.502 20.2982 114.735 19.038 118.714 19.038ZM117.344 23.8128C118.737 23.8128 121.411 23.0613 121.411 21.0713H119.002C116.26 21.0713 115.134 21.646 115.134 22.5968C115.133 23.3707 115.863 23.8128 117.344 23.8128Z" fill="white"></path><path d="M139.094 19.5684C139.094 20.1873 138.873 20.4083 138.254 20.4083H137.37C136.752 20.4083 136.531 20.2315 136.531 19.5684C136.531 17.9329 135.912 17.2031 134.409 17.2031C132.994 17.2031 131.822 18.0872 131.159 19.1489V25.1172C131.159 25.736 130.938 25.957 130.32 25.957H129.435C128.817 25.957 128.596 25.736 128.596 25.1172V17.314H127.777C127.159 17.314 126.938 17.093 126.938 16.4742V15.7444C126.938 15.1256 127.159 14.9045 127.777 14.9045H129.922C130.541 14.9045 130.762 15.1256 130.762 15.7444V16.4517C131.557 15.5676 132.752 14.7277 134.807 14.7277C137.856 14.7269 139.094 16.5175 139.094 19.5684Z" fill="white"></path><path d="M141.611 14.9045H143.092V12.0088C143.092 11.39 143.313 11.1689 143.932 11.1689H144.816C145.435 11.1689 145.656 11.39 145.656 12.0088V14.9045H151.16C151.779 14.9045 152 15.1256 152 15.7444V16.4742C152 17.093 151.779 17.314 151.16 17.314H145.656V22.1772C145.656 23.128 146.297 23.6359 147.822 23.6359C149.06 23.6359 149.812 23.2156 150.254 22.8845C150.762 22.5083 151.116 22.641 151.381 23.1497L151.802 23.9896C151.978 24.3657 151.89 24.6526 151.558 24.9404C151.16 25.294 149.878 26.1339 147.535 26.1339C144.993 26.1339 143.091 25.0505 143.091 22.5083V17.3132H141.61C140.991 17.3132 140.77 17.0922 140.77 16.4733V15.7436C140.771 15.1247 140.992 14.9045 141.611 14.9045Z" fill="white"></path></g><defs><clipPath id="clip0_529_879"><rect width="152" height="40" fill="white"></rect></clipPath></defs></svg> 