<svg width="16" height="16" viewBox="0 0 16 16" fill="none" xmlns="http://www.w3.org/2000/svg">
<g clip-path="url(#clip0_363_283)">
<path fill-rule="evenodd" clip-rule="evenodd" d="M9.91255 12.0332C8.92069 12.6462 7.75166 13 6.5 13C2.91015 13 0 10.0899 0 6.5C0 2.91015 2.91015 0 6.5 0C10.0899 0 13 2.91015 13 6.5C13 7.75166 12.6462 8.92069 12.0332 9.91255C12.0424 9.92134 12.0516 9.93027 12.0607 9.93934L15.0607 12.9393C15.6464 13.5251 15.6464 14.4749 15.0607 15.0607C14.4749 15.6464 13.5251 15.6464 12.9393 15.0607L9.93934 12.0607C9.93027 12.0516 9.92134 12.0424 9.91255 12.0332ZM11 6.5C11 8.98528 8.98528 11 6.5 11C4.01472 11 2 8.98528 2 6.5C2 4.01472 4.01472 2 6.5 2C8.98528 2 11 4.01472 11 6.5Z" fill="black" fill-opacity="0.24"/>
</g>
<defs>
<clipPath id="clip0_363_283">
<rect width="16" height="16" fill="white"/>
</clipPath>
</defs>
</svg>
